<?xml version="1.0" encoding="UTF-8" standalone="no"?><!DOCTYPE svg PUBLIC "-//W3C//DTD SVG 1.1//EN" "http://www.w3.org/Graphics/SVG/1.1/DTD/svg11.dtd"><svg width="100%" height="100%" viewBox="0 0 52 52" version="1.1" xmlns="http://www.w3.org/2000/svg" xmlns:xlink="http://www.w3.org/1999/xlink" xml:space="preserve" xmlns:serif="http://www.serif.com/" style="fill-rule:evenodd;clip-rule:evenodd;stroke-linejoin:round;stroke-miterlimit:1.41421;"><clipPath id="_clip1"><rect id="dpnk_logo_cerne" x="0" y="0" width="51.223" height="51.223"/></clipPath><g clip-path="url(#_clip1)"><g id="Layer-1" serif:id="Layer 1"><path d="M36.785,35.337c-2.718,0 -5.057,-1.582 -6.095,-3.836l2.339,-0.163c0.811,1.167 2.194,1.937 3.756,1.937c2.492,0 4.519,-1.952 4.519,-4.353c0,-2.399 -2.027,-4.356 -4.519,-4.356c-0.079,0 -0.161,0.008 -0.241,0.008l-1.276,-1.895c0.485,-0.113 0.994,-0.174 1.517,-0.174c3.674,0 6.658,2.879 6.658,6.417c0,3.537 -2.984,6.415 -6.658,6.415m-10.417,-3.572c-1.047,0 -1.894,-0.817 -1.894,-1.825c0,-0.177 0.029,-0.349 0.077,-0.513l-3.013,-3.567l2.461,-0.354l2.845,3.371l8.622,-0.606l-4.185,-6.205l0.9,-2.455l6.065,9.007c0.208,0.302 0.229,0.688 0.06,1.016c-0.167,0.325 -0.5,0.542 -0.879,0.57l-9.428,0.656c-0.33,0.544 -0.936,0.905 -1.631,0.905m-11.931,3.572c-3.671,0 -6.658,-2.878 -6.658,-6.415c0,-2.736 1.786,-5.078 4.293,-5.996l0.325,2.111c-1.468,0.721 -2.476,2.187 -2.476,3.885c0,2.4 2.025,4.353 4.516,4.353c2.492,0 4.518,-1.953 4.518,-4.353c0,-0.96 -0.326,-1.845 -0.873,-2.568l2.292,-0.329c0.461,0.871 0.718,1.854 0.718,2.897c0,3.537 -2.985,6.415 -6.655,6.415m-1.583,-16.935l4.841,-0.689l0.176,-0.714l-2.03,-0.357c-0.581,-0.1 -0.965,-0.637 -0.86,-1.199c0.106,-0.558 0.662,-0.932 1.243,-0.829l3.138,0.548c0.289,0.054 0.545,0.212 0.705,0.451c0.159,0.237 0.212,0.528 0.145,0.804l-0.238,0.965l2.286,-0.325c0.33,-0.047 0.639,0.174 0.687,0.492l0.381,2.483l-1.987,0.282l-0.052,-0.353c-0.048,-0.297 -0.339,-0.505 -0.648,-0.464c-0.313,0.049 -0.529,0.327 -0.482,0.623l0.055,0.353l-4.372,0.626l-0.054,-0.349c-0.045,-0.303 -0.334,-0.508 -0.647,-0.464c-0.311,0.047 -0.527,0.327 -0.481,0.625l0.054,0.35l-1.987,0.286l-0.383,-2.482c-0.05,-0.315 0.18,-0.615 0.51,-0.663m3.786,8.161l-1.374,3.224c-0.17,0.395 -0.568,0.641 -0.991,0.641c-0.135,0 -0.274,-0.028 -0.404,-0.081c-0.549,-0.214 -0.808,-0.82 -0.584,-1.348l0.889,-2.087l2.464,-0.349Zm7.315,-2.474c0.049,0.316 -0.18,0.617 -0.51,0.661l-9.405,1.348c-0.328,0.05 -0.641,-0.177 -0.691,-0.492l-0.477,-3.106l1.99,-0.285l0.053,0.35c0.043,0.27 0.285,0.467 0.563,0.467l0.087,-0.004c0.31,-0.042 0.523,-0.325 0.479,-0.626l-0.055,-0.352l4.372,-0.624l0.052,0.35c0.042,0.273 0.286,0.471 0.566,0.471l0.083,-0.008c0.31,-0.045 0.526,-0.324 0.48,-0.624l-0.054,-0.35l1.987,-0.284l0.48,3.108Zm5.712,-6.287l0.857,-2.351l-1.3,0c-0.592,0 -1.069,-0.461 -1.069,-1.029c0,-0.572 0.477,-1.033 1.069,-1.033l4.751,0c0.592,0 1.072,0.461 1.072,1.033c0,0.568 -0.48,1.029 -1.072,1.029l-1.181,0l-1.204,3.291l-0.897,2.45l-2.466,6.762l-0.998,0.072l-0.908,-1.074l2.601,-7.112l-4.778,-0.15l-0.322,-2.074l5.845,0.186Zm-4.056,-17.802c-14.143,0 -25.611,11.469 -25.611,25.612c0,14.144 11.468,25.611 25.611,25.611c14.146,0 25.612,-11.467 25.612,-25.611c0,-14.143 -11.466,-25.612 -25.612,-25.612" style="fill:#fff;fill-rule:nonzero;"/></g></g></svg>