<?xml version="1.0" encoding="UTF-8" standalone="no"?><!DOCTYPE svg PUBLIC "-//W3C//DTD SVG 1.1//EN" "http://www.w3.org/Graphics/SVG/1.1/DTD/svg11.dtd"><svg width="100%" height="100%" viewBox="0 0 219 224" version="1.1" xmlns="http://www.w3.org/2000/svg" xmlns:xlink="http://www.w3.org/1999/xlink" xml:space="preserve" xmlns:serif="http://www.serif.com/" style="fill-rule:evenodd;clip-rule:evenodd;stroke-linejoin:round;stroke-miterlimit:1.41421;"><rect id="Artboard1" x="0" y="0" width="218.196" height="223.605" style="fill:none;"/><path id="Layer-1" serif:id="Layer 1" d="M155.654,150.849c-11.325,0 -21.071,-6.592 -25.396,-15.984l9.746,-0.679c3.379,4.863 9.142,8.071 15.65,8.071c10.383,0 18.829,-8.133 18.829,-18.138c0,-9.995 -8.446,-18.15 -18.829,-18.15c-0.329,0 -0.671,0.034 -1.004,0.034l-5.317,-7.896c2.021,-0.471 4.142,-0.725 6.321,-0.725c15.308,0 27.742,11.996 27.742,26.737c0,14.738 -12.434,26.73 -27.742,26.73m-43.404,-14.884c-4.363,0 -7.892,-3.404 -7.892,-7.604c0,-0.737 0.121,-1.454 0.321,-2.137l-12.554,-14.863l10.254,-1.475l11.854,14.046l35.925,-2.525l-17.437,-25.854l3.75,-10.229l25.271,37.529c0.866,1.258 0.954,2.866 0.25,4.233c-0.696,1.354 -2.084,2.258 -3.663,2.375l-39.283,2.733c-1.375,2.267 -3.9,3.771 -6.796,3.771m-49.713,14.884c-15.295,0 -27.741,-11.992 -27.741,-26.73c0,-11.4 7.441,-21.158 17.887,-24.983l1.354,8.796c-6.116,3.004 -10.316,9.112 -10.316,16.187c0,10 8.437,18.138 18.816,18.138c10.384,0 18.825,-8.138 18.825,-18.138c0,-4 -1.358,-7.687 -3.637,-10.7l9.55,-1.37c1.921,3.629 2.992,7.725 2.992,12.07c0,14.738 -12.438,26.73 -27.73,26.73m-6.595,-70.563l20.17,-2.871l0.734,-2.975l-8.459,-1.487c-2.42,-0.417 -4.02,-2.654 -3.583,-4.996c0.442,-2.325 2.758,-3.883 5.179,-3.454l13.075,2.283c1.204,0.225 2.271,0.883 2.938,1.879c0.662,0.988 0.883,2.2 0.604,3.35l-0.992,4.021l9.525,-1.354c1.375,-0.196 2.663,0.725 2.863,2.05l1.587,10.346l-8.279,1.175l-0.217,-1.471c-0.2,-1.238 -1.412,-2.104 -2.7,-1.933c-1.304,0.204 -2.204,1.362 -2.008,2.595l0.229,1.471l-18.216,2.609l-0.225,-1.455c-0.188,-1.262 -1.392,-2.116 -2.696,-1.933c-1.296,0.196 -2.196,1.363 -2.004,2.604l0.225,1.459l-8.28,1.191l-1.595,-10.341c-0.209,-1.313 0.75,-2.563 2.125,-2.763m15.775,34.004l-5.725,13.434c-0.709,1.645 -2.367,2.67 -4.13,2.67c-0.562,0 -1.141,-0.116 -1.683,-0.337c-2.287,-0.892 -3.367,-3.417 -2.433,-5.617l3.704,-8.696l10.267,-1.454Zm30.479,-10.308c0.204,1.317 -0.75,2.571 -2.125,2.754l-39.188,5.617c-1.366,0.208 -2.671,-0.738 -2.879,-2.05l-1.987,-12.942l8.291,-1.187l0.221,1.458c0.179,1.125 1.188,1.946 2.346,1.946l0.362,-0.017c1.292,-0.175 2.18,-1.354 1.996,-2.608l-0.229,-1.467l18.217,-2.6l0.216,1.458c0.175,1.138 1.192,1.963 2.359,1.963l0.346,-0.033c1.291,-0.188 2.191,-1.35 2,-2.6l-0.225,-1.459l8.279,-1.183l2,12.95Zm23.8,-26.196l3.571,-9.796l-5.417,0c-2.467,0 -4.454,-1.921 -4.454,-4.287c0,-2.384 1.987,-4.304 4.454,-4.304l19.796,0c2.466,0 4.466,1.92 4.466,4.304c0,2.366 -2,4.287 -4.466,4.287l-4.921,0l-5.017,13.713l-3.737,10.208l-10.275,28.175l-4.159,0.3l-3.783,-4.475l10.838,-29.633l-19.909,-0.625l-1.341,-8.642l24.354,0.775Zm-16.9,-74.175c-58.929,0 -106.713,47.788 -106.713,106.717c0,58.933 47.784,106.712 106.713,106.712c58.941,0 106.716,-47.779 106.716,-106.712c0,-58.929 -47.775,-106.717 -106.716,-106.717" style="fill:#fff;fill-rule:nonzero;"/></svg>