<?xml version="1.0" encoding="UTF-8" standalone="no"?><!DOCTYPE svg PUBLIC "-//W3C//DTD SVG 1.1//EN" "http://www.w3.org/Graphics/SVG/1.1/DTD/svg11.dtd"><svg width="100%" height="100%" viewBox="0 0 356 52" version="1.1" xmlns="http://www.w3.org/2000/svg" xmlns:xlink="http://www.w3.org/1999/xlink" xml:space="preserve" xmlns:serif="http://www.serif.com/" style="fill-rule:evenodd;clip-rule:evenodd;stroke-linejoin:round;stroke-miterlimit:1.41421;"><g id="Layer-1" serif:id="Layer 1"><path d="M35.109,33.878c-2.31,0 -4.298,-1.344 -5.181,-3.26l1.989,-0.139c0.689,0.992 1.865,1.646 3.192,1.646c2.119,0 3.841,-1.658 3.841,-3.699c0,-2.04 -1.722,-3.703 -3.841,-3.703c-0.067,0 -0.137,0.007 -0.205,0.007l-1.084,-1.611c0.412,-0.096 0.845,-0.148 1.289,-0.148c3.123,0 5.659,2.447 5.659,5.455c0,3.006 -2.536,5.452 -5.659,5.452m-8.854,-3.036c-0.89,0 -1.61,-0.694 -1.61,-1.551c0,-0.15 0.024,-0.297 0.065,-0.436l-2.56,-3.032l2.091,-0.301l2.418,2.865l7.329,-0.515l-3.557,-5.274l0.765,-2.087l5.155,7.656c0.177,0.257 0.195,0.585 0.051,0.864c-0.142,0.276 -0.425,0.46 -0.747,0.484l-8.014,0.558c-0.28,0.462 -0.795,0.769 -1.386,0.769m-10.142,3.036c-3.12,0 -5.659,-2.446 -5.659,-5.452c0,-2.326 1.518,-4.317 3.65,-5.097l0.275,1.794c-1.247,0.614 -2.104,1.859 -2.104,3.303c0,2.039 1.721,3.699 3.838,3.699c2.119,0 3.841,-1.66 3.841,-3.699c0,-0.816 -0.277,-1.569 -0.743,-2.184l1.949,-0.279c0.392,0.741 0.61,1.576 0.61,2.463c0,3.006 -2.537,5.452 -5.657,5.452m-1.345,-14.395l4.115,-0.585l0.149,-0.607l-1.725,-0.303c-0.494,-0.085 -0.821,-0.542 -0.731,-1.019c0.09,-0.475 0.562,-0.792 1.056,-0.705l2.667,0.466c0.246,0.045 0.463,0.18 0.6,0.383c0.135,0.201 0.18,0.448 0.123,0.683l-0.202,0.821l1.943,-0.277c0.28,-0.039 0.543,0.148 0.584,0.418l0.324,2.111l-1.69,0.24l-0.043,-0.3c-0.041,-0.253 -0.289,-0.429 -0.551,-0.394c-0.267,0.041 -0.45,0.278 -0.41,0.529l0.047,0.3l-3.717,0.532l-0.045,-0.296c-0.038,-0.258 -0.284,-0.432 -0.55,-0.395c-0.265,0.04 -0.448,0.278 -0.409,0.532l0.046,0.296l-1.689,0.244l-0.326,-2.11c-0.042,-0.268 0.153,-0.522 0.434,-0.564m3.218,6.937l-1.168,2.741c-0.145,0.336 -0.483,0.544 -0.842,0.544c-0.115,0 -0.234,-0.023 -0.343,-0.069c-0.467,-0.181 -0.688,-0.696 -0.497,-1.145l0.756,-1.774l2.094,-0.297Zm6.217,-2.103c0.043,0.269 -0.153,0.525 -0.433,0.563l-7.994,1.145c-0.279,0.043 -0.545,-0.151 -0.587,-0.418l-0.406,-2.64l1.691,-0.242l0.045,0.297c0.037,0.23 0.243,0.397 0.479,0.397l0.074,-0.004c0.263,-0.035 0.445,-0.276 0.407,-0.531l-0.047,-0.299l3.717,-0.531l0.044,0.298c0.036,0.232 0.243,0.4 0.481,0.4l0.071,-0.007c0.263,-0.038 0.447,-0.275 0.408,-0.53l-0.046,-0.298l1.689,-0.241l0.407,2.641Zm4.856,-5.344l0.729,-1.998l-1.106,0c-0.503,0 -0.908,-0.391 -0.908,-0.874c0,-0.486 0.405,-0.878 0.908,-0.878l4.039,0c0.503,0 0.91,0.392 0.91,0.878c0,0.483 -0.407,0.874 -0.91,0.874l-1.004,0l-1.023,2.798l-0.763,2.082l-2.096,5.747l-0.849,0.062l-0.771,-0.912l2.211,-6.046l-4.062,-0.127l-0.273,-1.764l4.968,0.158Zm-3.447,-15.131c-12.022,0 -21.77,9.748 -21.77,21.771c0,12.021 9.748,21.768 21.77,21.768c12.024,0 21.77,-9.747 21.77,-21.768c0,-12.023 -9.746,-21.771 -21.77,-21.771" style="fill:#fff;fill-rule:nonzero;"/></g><g><text x="73.373px" y="38.557px" style="font-family:'NunitoSans-Bold', 'Nunito Sans';font-weight:700;font-size:29.139px;fill:#fff;">DO PR<tspan x="165.191px 186.171px " y="38.557px 38.557px ">ÁC</tspan>E NA K<tspan x="300.717px " y="38.557px ">O</tspan>LE</text></g></svg>