<?xml version="1.0" standalone="no"?>
<!DOCTYPE svg PUBLIC "-//W3C//DTD SVG 20010904//EN"
 "http://www.w3.org/TR/2001/REC-SVG-20010904/DTD/svg10.dtd">
<svg version="1.0" xmlns="http://www.w3.org/2000/svg"
 width="2350.000000pt" height="2350.000000pt" viewBox="0 0 2350.000000 2350.000000"
 preserveAspectRatio="xMidYMid meet">
<metadata>
Created by potrace 1.11, written by Peter Selinger 2001-2013
</metadata>
<g transform="translate(0.000000,2350.000000) scale(0.100000,-0.100000)"
fill="#000000" stroke="none">
<path d="M11587 23103 c-1 0 -99 -4 -217 -8 -118 -4 -240 -8 -270 -10 -75 -4
-225 -15 -280 -20 -25 -2 -78 -7 -119 -10 -41 -4 -86 -8 -100 -10 -14 -1 -55
-6 -91 -10 -36 -3 -76 -8 -90 -10 -14 -2 -54 -7 -90 -10 -36 -4 -73 -9 -84
-11 -10 -2 -44 -6 -75 -10 -31 -3 -65 -8 -76 -10 -11 -3 -38 -7 -60 -10 -22
-3 -62 -9 -90 -14 -27 -5 -68 -12 -90 -15 -41 -6 -95 -15 -130 -22 -11 -2 -45
-8 -75 -14 -30 -5 -75 -14 -100 -19 -25 -5 -56 -12 -70 -14 -44 -7 -352 -77
-455 -103 -55 -14 -107 -26 -115 -28 -29 -6 -346 -94 -425 -119 -221 -68 -290
-90 -500 -163 -181 -62 -603 -228 -755 -296 -30 -13 -109 -48 -175 -78 -157
-70 -603 -292 -728 -363 -54 -31 -101 -56 -105 -56 -3 0 -22 -11 -41 -23 -20
-13 -108 -66 -196 -117 -292 -169 -617 -383 -920 -604 -60 -44 -123 -90 -140
-103 -16 -13 -34 -27 -40 -31 -26 -20 -142 -109 -160 -123 -11 -9 -58 -48
-105 -85 -444 -357 -1007 -893 -1352 -1289 -153 -175 -193 -221 -258 -300
-113 -136 -132 -160 -237 -296 -110 -141 -105 -134 -213 -284 -43 -60 -87
-121 -98 -135 -52 -69 -281 -416 -379 -575 -216 -354 -331 -561 -522 -950
-162 -328 -177 -361 -332 -732 -5 -13 -13 -33 -19 -45 -35 -81 -179 -474 -226
-618 -111 -337 -161 -507 -234 -795 -27 -104 -51 -201 -54 -215 -5 -27 -55
-255 -61 -280 -7 -29 -43 -215 -48 -245 -3 -16 -8 -41 -11 -55 -3 -14 -7 -38
-10 -55 -2 -16 -12 -75 -21 -130 -9 -55 -18 -111 -20 -125 -2 -14 -10 -77 -19
-140 -9 -63 -19 -131 -21 -150 -13 -107 -25 -213 -30 -270 -3 -36 -7 -85 -10
-110 -49 -503 -62 -1212 -30 -1680 2 -36 7 -108 10 -160 3 -52 8 -113 10 -135
2 -22 7 -76 10 -120 3 -44 7 -91 10 -105 2 -14 7 -54 10 -90 4 -36 8 -76 10
-90 2 -14 7 -50 10 -80 3 -30 7 -66 10 -80 2 -14 7 -45 10 -70 3 -25 8 -56 10
-70 3 -14 7 -45 10 -70 3 -25 15 -99 26 -165 12 -66 23 -133 26 -150 34 -211
188 -889 223 -979 5 -15 12 -39 15 -54 12 -70 174 -578 260 -817 67 -183 201
-518 291 -720 90 -203 327 -685 409 -830 24 -44 67 -120 95 -170 28 -49 55
-97 60 -105 5 -8 47 -78 93 -155 199 -331 457 -714 665 -985 85 -110 161 -209
178 -229 7 -9 57 -70 111 -136 53 -66 100 -122 103 -125 3 -3 48 -54 100 -115
52 -60 99 -115 105 -121 5 -6 53 -58 105 -115 52 -57 198 -208 325 -334 205
-206 268 -267 436 -420 50 -46 311 -272 348 -301 13 -10 38 -31 55 -45 17 -15
60 -50 96 -78 36 -28 74 -59 85 -68 46 -39 313 -238 456 -340 338 -242 807
-533 1169 -727 130 -70 527 -269 635 -318 200 -92 237 -108 241 -108 2 0 23
-9 47 -19 270 -124 803 -317 1207 -437 102 -30 205 -61 230 -69 47 -14 400
-104 435 -111 11 -2 30 -6 43 -9 134 -30 409 -87 487 -101 14 -2 37 -6 53 -9
81 -15 263 -45 302 -50 25 -3 56 -8 70 -10 43 -7 93 -14 226 -30 297 -35 351
-41 494 -50 47 -3 103 -8 125 -10 22 -2 94 -7 160 -10 66 -4 158 -8 205 -10
112 -6 715 -6 855 -1 133 6 302 15 370 21 28 3 86 7 130 10 107 8 266 23 315
30 14 2 57 7 95 11 39 3 77 7 85 9 8 1 42 5 75 9 33 4 85 11 115 16 30 5 73
11 95 15 22 3 51 7 65 10 14 2 43 7 65 10 56 8 262 44 310 55 22 5 58 11 80
15 22 3 56 10 75 15 19 5 49 12 65 14 17 3 41 8 55 11 14 4 38 9 54 11 49 9
524 130 641 163 338 97 955 308 1110 381 11 5 61 25 110 45 604 243 1346 637
1924 1024 256 171 497 339 537 376 6 5 72 56 145 112 74 56 170 131 214 168
44 37 100 83 124 103 65 54 181 152 220 187 38 34 43 39 172 155 119 107 578
565 689 689 156 172 164 181 301 341 404 474 862 1119 1137 1600 11 19 36 64
57 100 164 285 418 787 540 1070 37 85 73 169 81 185 28 64 134 336 179 460
26 72 50 139 55 150 30 72 200 610 226 714 2 9 26 102 54 206 28 105 52 199
54 210 2 11 20 92 40 180 60 270 131 664 161 895 3 25 8 56 10 70 2 14 7 50
10 80 4 30 8 66 10 80 2 14 6 54 10 90 3 36 7 81 10 100 5 45 13 124 20 225 4
44 8 98 10 120 2 22 7 99 10 170 4 72 8 166 11 210 5 115 5 709 -1 850 -9 219
-19 389 -30 500 -2 28 -7 86 -10 130 -4 44 -8 91 -10 105 -2 14 -7 52 -10 85
-7 69 -13 125 -20 175 -3 19 -7 53 -10 75 -2 22 -10 74 -16 115 -9 68 -15 102
-34 225 -7 49 -23 141 -30 175 -7 33 -23 126 -30 170 -3 19 -9 44 -12 55 -3
11 -7 29 -9 40 -2 18 -8 46 -30 145 -81 374 -195 791 -309 1130 -30 91 -57
172 -59 180 -24 82 -223 598 -282 728 -13 29 -24 54 -24 57 0 2 -15 36 -34 77
-18 40 -55 120 -81 178 -70 153 -266 541 -335 664 -33 58 -60 107 -60 110 0 8
-250 426 -302 504 -26 41 -48 75 -48 77 0 15 -365 543 -460 665 -25 32 -70 91
-100 130 -65 86 -317 397 -369 455 -20 23 -63 72 -96 110 -60 69 -125 142
-219 245 -139 152 -612 615 -752 737 -90 78 -149 130 -158 138 -42 39 -328
273 -456 372 -262 204 -716 521 -940 657 -25 15 -67 41 -95 58 -790 484 -1647
872 -2545 1151 -189 59 -430 129 -490 142 -8 2 -98 24 -200 49 -188 45 -492
111 -565 121 -22 3 -46 8 -54 11 -8 2 -30 7 -50 10 -20 2 -47 7 -61 10 -14 3
-43 8 -65 10 -22 3 -47 7 -55 9 -18 5 -207 34 -265 40 -22 3 -50 7 -62 9 -12
3 -48 7 -80 11 -32 3 -69 7 -83 10 -14 2 -56 7 -95 10 -38 3 -77 8 -85 10 -8
2 -53 6 -100 10 -47 3 -103 8 -125 10 -158 17 -615 36 -928 39 -93 0 -169 0
-170 -1z m4027 -5961 c271 -101 390 -381 269 -631 -39 -78 -111 -152 -190
-194 -113 -58 -129 -61 -458 -62 l-300 -1 -38 -100 c-21 -54 -46 -124 -56
-154 -11 -30 -65 -179 -121 -330 -56 -151 -106 -286 -110 -300 -5 -14 -24 -68
-43 -120 -156 -425 -365 -994 -558 -1525 -126 -346 -245 -670 -264 -720 -18
-49 -81 -222 -140 -383 -58 -161 -112 -310 -120 -330 -7 -20 -41 -113 -75
-207 -34 -93 -70 -192 -80 -220 -11 -27 -54 -144 -96 -260 -355 -980 -321
-895 -358 -896 -17 -1 -47 -2 -66 -4 -124 -8 -242 -17 -285 -20 -27 -3 -55 -1
-60 3 -6 4 -35 36 -65 72 -30 35 -59 70 -65 76 -5 6 -26 31 -47 55 -20 24 -44
54 -55 65 -10 12 -36 43 -58 70 -22 27 -56 67 -76 89 l-35 40 233 635 c128
349 248 678 267 730 19 52 82 226 141 385 133 363 236 646 330 905 15 41 31
84 36 95 5 11 15 40 24 65 8 25 39 110 69 190 29 80 53 146 52 147 -1 1 -175
7 -536 18 -91 3 -230 7 -310 10 -80 3 -226 7 -325 10 -99 3 -234 7 -300 10
-148 6 -533 18 -597 18 -27 1 -48 2 -48 4 0 1 -9 58 -19 125 -11 68 -22 139
-25 158 -3 19 -12 80 -21 135 -9 55 -18 114 -20 130 -5 29 -14 85 -35 218 -6
34 -11 82 -13 107 -2 43 -1 44 28 43 17 0 122 -4 235 -7 257 -9 409 -14 628
-21 95 -3 234 -7 310 -10 75 -2 225 -7 332 -10 107 -4 254 -8 325 -10 72 -3
207 -7 300 -10 94 -3 226 -7 295 -10 l125 -5 17 43 c9 23 35 94 58 157 23 63
55 149 70 190 16 41 70 190 120 330 51 140 98 270 106 288 10 24 10 32 1 33
-7 0 -154 2 -327 3 -269 2 -324 5 -375 20 -297 88 -430 429 -264 679 65 99
193 185 304 205 28 5 554 8 1175 7 l1125 -1 59 -22z m-7889 -540 c61 -12 126
-23 145 -27 19 -3 58 -10 85 -15 28 -5 64 -11 80 -14 17 -3 59 -10 95 -16 36
-6 79 -13 95 -16 17 -2 77 -13 135 -24 58 -11 119 -22 135 -25 17 -3 46 -8 65
-11 324 -51 486 -86 549 -116 111 -53 212 -172 244 -288 24 -90 14 -201 -33
-370 -33 -118 -67 -275 -60 -278 6 -2 440 57 526 73 12 2 48 7 80 10 33 4 68
9 79 11 11 2 40 6 65 10 25 3 70 9 100 14 47 8 132 18 205 24 11 1 40 -5 65
-13 115 -37 177 -117 195 -251 4 -30 9 -64 11 -75 2 -10 6 -37 9 -60 6 -41 11
-72 20 -127 10 -57 14 -82 20 -128 3 -25 8 -52 10 -60 2 -8 6 -37 10 -65 6
-52 12 -92 20 -135 2 -14 7 -43 10 -65 3 -23 7 -50 9 -61 2 -12 7 -45 11 -75
4 -30 8 -56 10 -59 2 -3 6 -29 10 -59 4 -30 8 -61 10 -70 3 -14 -17 -20 -123
-35 -70 -10 -136 -20 -147 -21 -11 -2 -38 -6 -60 -9 -22 -2 -87 -12 -145 -20
-58 -8 -127 -18 -153 -21 -26 -3 -69 -10 -95 -14 -26 -5 -70 -12 -99 -16 -58
-7 -58 -7 -68 80 -15 118 -46 182 -112 228 -111 77 -255 60 -343 -40 -56 -64
-67 -122 -48 -247 8 -53 11 -97 6 -97 -4 -1 -11 -2 -15 -3 -11 -3 -112 -18
-140 -22 -13 -1 -42 -5 -65 -9 -50 -8 -76 -12 -138 -20 -25 -3 -88 -12 -140
-20 -117 -17 -162 -23 -218 -30 -24 -3 -53 -7 -65 -10 -27 -5 -86 -14 -147
-21 -25 -3 -56 -7 -70 -9 -58 -10 -228 -35 -270 -40 -25 -3 -56 -7 -70 -10
-26 -4 -58 -9 -145 -21 -27 -3 -57 -7 -65 -9 -8 -1 -40 -6 -70 -10 -30 -4 -62
-9 -70 -10 -8 -1 -40 -6 -70 -10 -30 -4 -62 -9 -70 -10 -102 -18 -98 -18 -104
12 -3 15 -8 46 -11 68 -12 100 -34 153 -87 201 -120 112 -328 74 -398 -72 -24
-48 -32 -125 -19 -184 22 -107 22 -108 -8 -114 -15 -3 -48 -8 -73 -11 -66 -9
-86 -12 -305 -44 -110 -17 -222 -33 -250 -37 -27 -3 -57 -8 -65 -9 -25 -5
-134 -19 -149 -19 -14 -1 -16 4 -26 89 -3 28 -8 57 -10 65 -3 8 -7 31 -9 50
-3 19 -9 64 -15 100 -5 36 -14 99 -21 140 -6 41 -12 82 -15 90 -2 8 -6 38 -10
65 -3 28 -15 106 -26 175 -29 180 -33 208 -48 317 -15 103 28 196 118 257 41
27 135 49 306 70 28 3 61 8 75 10 14 3 43 7 65 10 38 5 581 82 635 91 52 7
107 15 155 21 28 3 57 7 65 9 17 3 160 24 205 30 37 4 181 25 215 30 14 3 41
7 60 9 19 3 53 8 75 11 22 3 58 8 80 10 22 3 51 7 65 10 14 2 45 7 70 10 25 3
56 8 70 10 14 3 43 7 64 10 22 2 43 8 46 12 6 7 18 55 36 138 3 15 34 138 40
156 4 13 -6 18 -43 24 -26 5 -52 9 -58 11 -5 1 -64 12 -130 23 -66 12 -131 23
-145 26 -14 2 -104 18 -200 35 -96 16 -186 32 -200 35 -14 3 -45 8 -70 11 -67
8 -187 51 -234 83 -178 123 -249 340 -175 536 20 53 81 140 124 178 40 35 137
87 188 102 68 19 207 14 352 -13z m7130 -2479 c103 -153 288 -429 412 -613
124 -184 294 -436 377 -560 83 -124 153 -227 156 -230 3 -3 10 -13 15 -22 9
-16 257 -384 630 -936 71 -106 135 -200 140 -210 6 -9 12 -19 15 -22 3 -3 50
-72 106 -155 55 -82 161 -239 235 -349 74 -109 139 -206 144 -215 14 -24 149
-225 155 -231 16 -16 128 -191 144 -225 39 -81 50 -185 32 -285 -18 -97 -118
-231 -212 -286 -87 -51 -155 -66 -349 -79 -175 -12 -223 -15 -290 -20 -71 -6
-137 -10 -280 -20 -158 -10 -251 -16 -295 -20 -25 -2 -88 -7 -140 -10 -52 -3
-120 -8 -150 -10 -30 -2 -98 -7 -150 -10 -52 -4 -117 -8 -145 -10 -132 -10
-225 -17 -280 -20 -229 -16 -420 -29 -565 -40 -36 -2 -105 -7 -155 -10 -49 -3
-110 -8 -135 -10 -25 -2 -92 -7 -150 -10 -58 -4 -125 -8 -150 -11 -25 -2 -85
-6 -135 -9 -49 -3 -115 -7 -145 -10 -30 -2 -93 -7 -140 -10 -47 -3 -114 -8
-150 -10 -36 -3 -101 -7 -145 -10 -44 -3 -107 -7 -140 -10 -33 -2 -100 -7
-150 -11 -122 -8 -156 -11 -159 -15 -155 -221 -326 -336 -572 -382 -69 -14
-228 -15 -294 -3 -352 65 -619 324 -681 659 -12 66 -14 199 -4 257 5 32 8 44
21 92 3 10 -92 130 -277 350 -154 183 -300 355 -323 382 -22 28 -70 84 -106
126 -36 42 -85 100 -110 130 -25 29 -85 101 -135 160 -49 59 -110 131 -135
160 -25 30 -74 88 -110 130 -121 142 -130 153 -126 157 4 4 73 15 236 38 25 3
56 8 70 10 31 5 108 16 135 20 109 15 194 27 215 30 111 17 322 48 355 51 22
3 45 7 52 9 14 5 19 0 82 -75 25 -29 50 -58 55 -64 6 -6 31 -36 56 -66 25 -30
49 -60 55 -66 5 -6 53 -62 105 -125 52 -62 111 -131 130 -154 20 -22 56 -65
80 -95 25 -30 52 -61 60 -70 8 -9 33 -38 55 -65 22 -26 71 -85 108 -129 38
-45 76 -90 85 -101 15 -18 172 -203 197 -232 5 -6 55 -65 110 -131 l100 -120
45 4 c25 1 83 5 130 9 47 3 112 8 145 10 131 9 242 17 285 20 25 2 90 7 145
10 55 4 120 8 145 10 25 2 86 6 135 10 89 5 125 8 280 20 89 7 153 11 300 20
55 3 116 8 135 10 19 2 82 6 140 10 58 3 128 8 155 10 67 5 189 14 278 20 174
12 226 15 282 20 33 2 101 7 150 10 50 3 110 7 135 10 25 2 88 7 140 10 52 3
115 8 140 10 25 2 90 7 145 11 55 3 118 7 140 9 22 2 90 6 150 10 61 4 124 9
140 10 17 2 42 3 57 4 26 1 18 15 -170 294 -108 160 -200 297 -205 302 -4 6
-39 57 -77 115 -38 58 -74 112 -80 120 -22 32 -163 240 -398 590 -135 201
-282 419 -327 485 -45 66 -165 244 -267 395 -102 151 -212 315 -245 363 l-60
89 39 106 c22 59 55 148 73 197 18 50 76 209 130 355 54 146 106 288 116 315
30 85 38 105 43 105 2 0 88 -125 191 -277z m-4052 -331 c3 -4 8 -34 12 -67 3
-33 11 -81 15 -107 5 -26 12 -69 16 -95 3 -26 8 -57 10 -68 2 -10 6 -37 9 -60
4 -22 13 -83 21 -135 9 -52 17 -108 19 -125 4 -29 22 -142 31 -195 2 -14 9
-57 15 -97 5 -39 12 -82 14 -95 5 -22 37 -235 50 -327 13 -89 -33 -190 -110
-243 -42 -28 -93 -45 -160 -53 -50 -5 -110 -14 -155 -21 -68 -12 -75 -13 -125
-19 -27 -3 -75 -10 -105 -15 -30 -5 -77 -12 -105 -15 -27 -3 -77 -10 -110 -15
-33 -5 -80 -12 -105 -15 -25 -3 -56 -8 -70 -10 -14 -2 -43 -7 -65 -10 -22 -2
-56 -7 -75 -10 -19 -3 -48 -7 -65 -9 -26 -4 -244 -35 -345 -50 -51 -8 -249
-36 -295 -42 -22 -3 -51 -7 -65 -9 -14 -2 -43 -6 -65 -9 -22 -4 -51 -8 -65
-11 -14 -3 -43 -7 -65 -10 -70 -8 -191 -25 -216 -30 -13 -3 -44 -7 -69 -10
-25 -3 -56 -7 -70 -10 -14 -2 -50 -7 -80 -11 -30 -3 -57 -7 -60 -9 -3 -2 -34
-6 -70 -10 -36 -3 -72 -8 -80 -10 -8 -2 -35 -7 -60 -10 -25 -3 -56 -8 -70 -10
-14 -2 -45 -7 -70 -10 -25 -3 -72 -10 -105 -15 -33 -5 -80 -12 -105 -15 -25
-3 -72 -10 -105 -15 -33 -5 -80 -12 -105 -15 -25 -3 -56 -8 -70 -10 -14 -2
-45 -7 -70 -10 -25 -3 -56 -8 -70 -10 -14 -2 -45 -7 -70 -10 -25 -4 -56 -8
-70 -10 -14 -2 -61 -9 -105 -15 -44 -7 -87 -13 -96 -15 -8 -2 -40 -6 -70 -9
-30 -3 -65 -8 -79 -10 -129 -22 -246 -38 -300 -41 -161 -8 -273 97 -295 275
-10 81 -19 143 -31 205 -2 11 -6 38 -9 60 -3 22 -7 51 -10 65 -3 14 -8 45 -11
70 -9 64 -11 80 -19 125 -4 22 -8 54 -10 70 -2 17 -6 45 -9 63 -12 65 -15 88
-21 127 -2 22 -7 51 -10 65 -2 14 -7 42 -9 62 -3 21 -8 53 -11 70 -3 18 -7 47
-10 63 -3 17 -8 53 -11 80 -3 28 -7 56 -10 63 -2 8 -7 37 -10 65 -4 29 -8 55
-11 60 -2 4 -2 7 1 7 3 0 69 9 148 21 79 12 158 23 177 25 19 2 113 15 210 29
220 32 224 33 292 41 l56 6 7 -53 c14 -105 18 -124 38 -166 57 -122 219 -174
344 -112 52 27 89 66 115 124 22 47 23 95 8 200 -6 42 -10 77 -8 80 2 2 22 6
44 9 23 4 50 8 60 10 11 2 43 7 70 10 28 4 61 9 75 11 14 2 45 6 70 9 25 3 54
8 65 10 11 2 43 7 70 10 28 4 61 9 75 11 24 4 155 22 215 30 17 3 64 9 105 15
41 6 86 13 100 15 14 2 45 6 70 10 25 4 56 8 70 10 68 9 136 19 140 20 3 1 34
5 70 10 36 5 67 9 70 10 3 1 32 5 65 9 32 4 67 9 76 11 9 2 40 6 70 10 30 3
61 8 69 10 8 2 44 7 80 10 36 4 68 9 71 11 15 9 127 15 132 7 3 -4 8 -35 11
-68 16 -141 55 -208 147 -255 120 -62 280 -11 340 108 30 61 33 101 15 210 -7
45 -11 84 -7 86 7 4 85 17 191 31 25 3 56 8 70 10 14 2 43 7 65 10 22 2 74 10
115 16 101 14 108 15 239 33 63 9 116 17 117 19 7 6 73 6 77 -1z m6157 -676
c47 -4 96 -9 110 -11 14 -2 45 -7 70 -10 38 -4 143 -23 216 -39 145 -30 382
-104 499 -155 11 -5 38 -17 60 -26 79 -34 257 -125 323 -165 37 -23 76 -46 87
-53 216 -130 487 -369 684 -602 208 -246 387 -566 500 -895 34 -96 85 -292 96
-365 2 -11 6 -33 9 -50 9 -46 25 -172 32 -245 7 -81 7 -366 0 -440 -12 -119
-18 -158 -32 -235 -8 -44 -17 -95 -20 -114 -10 -62 -73 -278 -109 -377 -106
-287 -310 -633 -508 -862 -65 -76 -295 -300 -367 -358 -466 -375 -1017 -601
-1610 -661 -152 -15 -598 -8 -700 12 -14 3 -42 7 -65 10 -72 11 -85 13 -205
40 -599 134 -1143 452 -1557 911 -157 174 -301 381 -409 588 l-65 126 28 1
c15 0 44 2 63 4 19 1 78 6 130 9 52 4 122 9 155 11 84 6 197 14 285 20 41 3
102 7 135 10 33 2 101 7 150 11 l91 6 64 -84 c87 -113 255 -278 370 -364 150
-112 260 -174 475 -269 81 -36 303 -97 400 -111 17 -2 41 -6 55 -9 96 -19 359
-25 500 -12 66 6 238 33 265 41 6 2 24 6 40 10 450 113 846 375 1120 741 110
147 167 247 250 440 15 35 56 153 60 175 2 8 10 42 18 75 55 218 68 520 32
715 -1 8 -6 35 -10 60 -44 275 -203 619 -394 850 -301 364 -750 632 -1184 705
-17 3 -39 8 -47 10 -8 2 -42 7 -75 11 -33 4 -73 8 -90 10 -16 2 -88 4 -160 5
l-130 1 -122 182 c-67 99 -194 288 -282 419 -88 130 -157 237 -153 238 4 0 14
2 22 4 50 12 181 36 224 41 28 4 53 8 56 9 3 2 57 6 120 10 63 4 116 8 117 9
6 5 304 -2 383 -8z m-11204 -228 c5 -29 9 -57 9 -63 1 -5 5 -30 9 -55 4 -25 9
-56 11 -70 2 -14 13 -86 25 -160 11 -74 22 -146 24 -160 20 -125 36 -231 40
-260 3 -19 8 -53 11 -75 l6 -40 -73 -39 c-314 -169 -610 -457 -777 -756 -104
-188 -194 -436 -216 -595 -3 -22 -8 -49 -10 -61 -18 -81 -24 -335 -11 -459 60
-590 409 -1132 931 -1447 240 -144 525 -245 770 -274 28 -3 76 -9 107 -13 62
-8 334 -6 408 3 338 42 653 155 910 328 232 156 448 378 587 603 141 228 239
506 270 768 10 80 9 385 -1 457 -37 272 -148 567 -297 790 -35 52 -64 99 -64
104 0 5 7 10 15 11 8 1 40 6 70 10 30 4 64 9 75 11 11 2 43 6 70 9 28 3 91 12
140 20 50 8 110 17 135 20 56 8 85 12 135 20 22 3 55 8 73 10 32 4 65 8 152
20 25 4 65 10 90 15 25 5 45 8 46 7 37 -62 116 -236 152 -337 49 -139 54 -153
62 -190 5 -19 17 -69 28 -110 11 -41 23 -95 27 -120 4 -25 9 -54 11 -65 2 -10
6 -35 9 -55 3 -20 7 -45 9 -56 19 -97 26 -412 13 -569 -15 -172 -27 -248 -63
-404 -148 -637 -508 -1188 -1049 -1607 -64 -50 -257 -179 -315 -211 -142 -79
-201 -108 -320 -158 -74 -31 -144 -60 -155 -65 -27 -12 -217 -69 -315 -95 -19
-5 -122 -27 -146 -31 -16 -2 -51 -9 -79 -14 -54 -10 -98 -15 -240 -30 -88 -8
-529 -6 -571 3 -12 3 -45 8 -75 12 -46 5 -121 17 -194 30 -97 17 -283 67 -400
107 -856 293 -1526 950 -1818 1783 -22 64 -62 197 -73 246 -2 10 -6 29 -10 42
-11 48 -40 212 -48 275 -24 189 -24 531 -1 651 2 11 6 46 10 78 3 32 10 76 15
98 5 22 11 51 13 65 37 197 123 445 232 665 226 457 572 844 1008 1128 155
101 167 107 277 163 79 39 310 143 322 144 3 0 10 -24 14 -52z m2014 -1563 c0
-2 -78 -188 -174 -412 -96 -224 -186 -437 -201 -473 -15 -36 -35 -83 -45 -105
-10 -22 -57 -132 -105 -245 -102 -241 -121 -275 -183 -336 -252 -244 -675
-147 -787 182 -34 100 -27 226 17 323 11 24 62 145 115 269 52 124 104 246
115 271 31 71 43 99 83 195 20 49 40 96 44 105 31 66 38 74 61 77 14 2 72 11
130 20 58 8 116 17 130 19 73 10 119 16 155 20 22 3 51 7 65 10 14 2 45 7 70
10 25 4 56 8 70 10 14 2 45 7 70 10 25 3 88 12 140 20 52 7 120 17 150 20 30
4 57 9 59 11 6 5 21 5 21 -1z"/>
</g>
</svg>
