<?xml version="1.0" standalone="no"?>
<!DOCTYPE svg PUBLIC "-//W3C//DTD SVG 20010904//EN"
 "http://www.w3.org/TR/2001/REC-SVG-20010904/DTD/svg10.dtd">
<svg version="1.0" xmlns="http://www.w3.org/2000/svg"
 width="16.000000pt" height="16.000000pt" viewBox="0 0 16.000000 16.000000"
 preserveAspectRatio="xMidYMid meet">
<metadata>
Created by potrace 1.11, written by Peter Selinger 2001-2013
</metadata>
<g transform="translate(0.000000,16.000000) scale(0.001951,-0.001951)"
fill="#000000" stroke="none">
<path d="M3987 7853 c-1 0 -47 -4 -102 -7 -163 -9 -280 -20 -280 -26 0 -2 -64
-9 -110 -13 -17 -2 -35 -5 -40 -8 -6 -3 -26 -6 -45 -8 -19 -2 -37 -6 -40 -10
-3 -3 -23 -7 -45 -9 -22 -1 -47 -5 -55 -9 -19 -8 -20 -8 -117 -29 -12 -2 -34
-9 -48 -14 -14 -5 -25 -7 -25 -4 0 4 -7 1 -15 -6 -8 -7 -15 -10 -15 -6 0 3
-12 1 -27 -5 -16 -6 -39 -13 -53 -16 -13 -2 -29 -8 -35 -13 -5 -4 -13 -9 -17
-9 -4 -1 -13 -3 -20 -6 -7 -2 -33 -11 -58 -19 -53 -17 -119 -43 -140 -55 -9
-5 -30 -12 -48 -16 -18 -3 -32 -11 -32 -16 0 -5 -3 -8 -7 -7 -5 1 -25 -6 -45
-15 -21 -9 -55 -25 -75 -34 -21 -9 -41 -16 -45 -15 -5 1 -8 -2 -8 -6 0 -5 -25
-19 -55 -32 -30 -13 -55 -27 -55 -32 0 -4 -9 -8 -20 -8 -11 0 -20 -5 -20 -11
0 -5 -4 -7 -10 -4 -5 3 -10 3 -10 -2 0 -4 -25 -21 -55 -37 -30 -16 -55 -32
-55 -36 0 -3 -6 -7 -12 -7 -14 0 -229 -141 -240 -158 -4 -5 -8 -7 -8 -2 0 4
-8 -1 -18 -10 -10 -10 -30 -27 -46 -38 -15 -11 -36 -27 -46 -35 -11 -8 -32
-25 -48 -38 -16 -12 -46 -38 -66 -57 -21 -19 -39 -35 -42 -35 -12 0 -295 -279
-347 -343 -18 -22 -49 -56 -69 -78 -21 -21 -35 -39 -31 -39 4 0 -2 -9 -13 -20
-22 -22 -22 -22 -97 -122 -31 -42 -57 -79 -57 -83 0 -3 -9 -16 -21 -28 -11
-12 -25 -31 -30 -42 -11 -24 -32 -58 -40 -65 -5 -4 -127 -212 -160 -272 -5
-10 -9 -25 -9 -33 0 -9 -4 -13 -10 -10 -5 3 -10 0 -10 -8 0 -7 -15 -44 -34
-82 -19 -38 -32 -73 -30 -77 3 -5 1 -8 -5 -8 -5 0 -15 -17 -22 -37 -6 -21 -15
-43 -20 -49 -5 -6 -10 -20 -12 -31 -2 -12 -8 -27 -14 -35 -8 -10 -35 -78 -38
-98 -2 -12 -28 -86 -34 -95 -3 -5 -6 -14 -7 -20 -1 -5 -13 -48 -27 -95 -13
-47 -28 -98 -32 -115 -5 -16 -10 -37 -12 -45 -3 -8 -5 -25 -6 -37 0 -13 -4
-23 -7 -23 -3 0 -7 -10 -8 -22 -3 -28 -10 -63 -13 -63 -2 0 -8 -33 -11 -75 -2
-19 -7 -40 -11 -46 -4 -7 -8 -39 -9 -73 -2 -33 -5 -61 -9 -61 -3 0 -6 -10 -6
-22 -4 -48 -11 -123 -13 -123 -5 0 -12 -157 -12 -325 -1 -234 4 -350 16 -350
5 0 3 -7 -4 -15 -7 -8 -9 -15 -4 -15 5 0 11 -26 12 -58 4 -60 9 -107 12 -107
2 0 8 -43 11 -87 2 -21 7 -38 12 -38 4 0 6 -4 3 -8 -4 -6 13 -100 39 -222 12
-52 26 -106 35 -130 5 -14 11 -36 14 -50 5 -28 52 -174 66 -205 5 -11 14 -39
21 -62 7 -24 15 -43 19 -43 4 0 11 -16 14 -35 4 -19 11 -35 16 -35 6 0 9 -3 9
-7 -1 -5 0 -11 1 -15 1 -5 3 -11 5 -15 5 -22 26 -70 35 -83 15 -23 34 -71 32
-82 -1 -5 2 -8 6 -8 5 0 14 -16 22 -35 8 -19 18 -35 24 -35 5 0 6 -3 3 -6 -7
-7 17 -56 42 -86 8 -10 10 -18 5 -18 -5 0 -4 -4 2 -8 13 -8 59 -94 56 -104 -1
-5 2 -8 6 -8 10 0 58 -71 67 -100 3 -11 10 -20 15 -20 5 0 12 -9 15 -21 4 -12
14 -29 23 -38 10 -10 24 -28 32 -41 8 -12 21 -28 28 -36 6 -7 12 -16 12 -19 0
-7 51 -76 75 -101 5 -6 21 -26 35 -44 14 -18 36 -45 50 -61 14 -15 46 -51 71
-81 78 -89 321 -328 334 -328 3 0 16 -10 29 -22 19 -19 60 -55 123 -108 7 -5
15 -10 18 -10 3 0 14 -8 24 -18 32 -28 50 -42 56 -42 2 0 16 -10 31 -22 14
-13 28 -22 30 -20 3 1 12 -5 22 -14 23 -23 118 -84 132 -84 5 0 10 -4 10 -8 0
-5 35 -28 78 -52 42 -24 79 -47 82 -50 10 -11 72 -40 85 -40 7 0 15 -4 17 -9
6 -16 374 -181 403 -181 8 0 15 -5 15 -10 0 -6 6 -10 13 -9 6 1 19 0 27 -4 53
-19 174 -59 194 -63 13 -2 42 -10 65 -19 23 -8 43 -14 46 -15 3 0 6 0 8 -1 1
0 9 -2 17 -4 8 -1 67 -14 130 -28 63 -14 131 -28 150 -31 19 -3 46 -8 60 -11
14 -3 43 -7 65 -10 22 -2 60 -7 85 -10 237 -32 664 -32 890 0 30 4 62 8 70 7
8 0 35 4 60 9 77 15 104 20 135 25 34 5 68 12 75 14 3 1 8 2 12 1 4 0 25 6 47
14 23 8 41 12 41 10 0 -2 33 5 73 17 39 11 79 21 87 23 33 7 225 70 230 75 3
3 12 6 20 8 22 5 196 76 272 111 36 17 71 31 76 31 6 0 12 3 14 8 2 4 36 22
76 41 39 19 72 38 72 43 0 4 3 7 8 6 9 -3 124 62 133 75 3 5 10 8 15 8 5 -1
16 5 26 13 9 8 19 12 22 9 3 -4 6 -1 6 5 0 7 16 20 35 29 19 9 35 20 35 25 0
4 6 8 13 8 7 0 27 13 45 29 17 17 32 28 32 25 0 -3 37 23 81 58 45 35 89 68
97 73 9 6 29 21 44 35 15 14 46 41 70 60 23 19 77 69 120 111 43 42 78 74 78
72 0 -4 14 11 100 111 14 15 41 45 60 65 19 20 63 72 98 116 35 44 72 91 83
105 11 14 28 37 37 52 9 16 20 28 24 28 4 0 8 6 8 13 0 8 9 22 20 32 11 10 18
20 16 22 -2 2 7 16 20 30 13 14 24 32 24 39 0 8 5 14 10 14 6 0 10 6 10 13 0
7 9 23 20 35 12 12 18 22 15 22 -3 0 6 16 21 35 14 19 22 35 18 35 -5 0 -4 4
1 8 13 9 34 47 82 142 21 41 41 77 46 78 4 2 7 12 7 22 0 10 6 25 13 32 6 7
13 18 14 23 1 6 21 53 44 105 22 52 43 103 44 112 2 9 9 26 15 37 6 12 7 21 3
21 -4 0 -1 6 7 13 8 7 17 23 18 37 2 14 8 30 13 36 5 7 9 16 8 20 -1 5 1 18 5
29 23 60 59 184 60 205 1 8 5 21 9 28 5 6 6 12 2 12 -3 0 -1 8 4 17 5 10 12
34 15 53 3 19 8 46 12 60 5 23 14 69 28 148 3 17 9 47 13 65 3 17 6 49 6 70 0
20 3 37 6 37 3 0 7 12 7 28 1 15 6 74 10 132 16 200 8 656 -14 759 -4 20 -7
51 -7 69 1 17 -1 32 -4 32 -3 0 -6 10 -7 23 -1 30 -20 142 -24 142 -1 0 -3 16
-5 35 -1 19 -8 47 -14 63 -6 15 -9 27 -7 27 2 0 -2 21 -10 47 -8 25 -12 48
-10 50 2 3 -2 16 -9 30 -8 15 -12 30 -9 35 3 4 1 8 -5 8 -5 0 -8 8 -6 18 1 9
-2 23 -8 30 -5 6 -7 12 -3 12 3 0 0 16 -8 35 -8 19 -12 35 -9 35 3 0 1 6 -5
13 -6 7 -13 24 -16 39 -2 14 -9 35 -15 46 -6 11 -7 22 -4 26 3 3 1 6 -5 6 -7
0 -11 3 -10 8 1 4 -3 21 -8 37 -6 17 -12 33 -13 37 -1 4 -13 32 -26 63 -14 30
-21 55 -17 55 4 0 -2 7 -12 15 -11 8 -17 15 -13 15 4 0 2 10 -5 23 -7 12 -13
24 -13 27 -1 3 -14 32 -30 65 -16 33 -28 63 -27 68 1 4 -3 7 -8 7 -6 0 -10 9
-10 20 0 11 -5 20 -11 20 -5 0 -7 5 -4 10 3 6 2 10 -3 10 -6 0 -15 12 -21 28
-11 30 -67 130 -83 150 -6 6 -7 12 -4 12 4 0 -5 12 -19 28 -14 15 -31 39 -38
55 -6 15 -15 27 -19 27 -5 0 -8 7 -8 15 0 8 -4 15 -10 15 -5 0 -10 4 -10 10 0
8 -88 136 -115 166 -5 6 -17 22 -25 34 -8 12 -30 39 -47 59 -18 20 -33 42 -33
49 0 7 -4 11 -8 8 -5 -3 -15 6 -22 19 -7 14 -17 25 -22 25 -4 0 -8 7 -8 16 0
8 -4 12 -10 9 -5 -3 -10 -2 -10 3 0 5 -29 39 -63 76 -35 36 -62 67 -60 69 1 2
-8 10 -22 17 -13 7 -27 21 -30 31 -3 10 -15 21 -26 24 -10 4 -19 13 -19 21 0
8 -4 13 -8 12 -4 -2 -23 13 -42 32 -19 19 -38 34 -42 32 -4 -1 -8 5 -8 14 0 8
-4 13 -8 10 -5 -3 -15 4 -22 15 -8 10 -18 19 -22 19 -4 0 -28 21 -55 47 -26
26 -49 46 -51 45 -3 -3 -41 26 -85 63 -7 6 -31 22 -54 38 -24 15 -43 32 -43
37 0 6 -3 9 -7 8 -5 -2 -29 12 -55 30 -26 17 -52 32 -58 32 -6 0 -9 4 -6 9 4
5 -7 12 -23 16 -16 3 -32 13 -35 21 -3 8 -10 14 -16 14 -5 0 -39 18 -75 40
-36 22 -67 40 -70 40 -2 0 -28 14 -57 31 -29 17 -53 30 -53 29 0 -5 -100 46
-106 53 -3 5 -10 9 -15 9 -14 1 -34 8 -94 36 -30 14 -63 27 -74 29 -10 2 -32
11 -50 20 -58 30 -66 33 -84 33 -10 0 -22 4 -27 9 -9 8 -185 65 -232 76 -10 2
-33 8 -50 14 -18 5 -33 8 -33 5 0 -3 -8 0 -17 5 -10 5 -31 11 -48 14 -16 3
-43 9 -60 13 -16 4 -38 7 -47 8 -10 0 -18 3 -18 6 0 3 -15 6 -33 8 -17 1 -39
4 -47 6 -55 11 -90 17 -122 20 -20 2 -41 6 -46 10 -6 3 -14 2 -17 -4 -5 -8
-11 -8 -19 -1 -12 10 -47 14 -226 27 -86 5 -339 11 -343 7z m863 -1966 c0 -5
5 -5 11 -1 16 9 229 11 229 1 0 -5 5 -5 12 -1 6 4 69 7 139 6 138 -1 158 -7
206 -62 22 -24 25 -34 28 -95 2 -53 -26 -98 -77 -126 -29 -16 -23 -16 -144
-17 l-102 -2 -12 -32 c-7 -18 -16 -42 -20 -53 -5 -11 -18 -47 -30 -80 -11 -33
-24 -67 -27 -75 -3 -8 -7 -17 -8 -20 -1 -3 -7 -18 -14 -35 -7 -16 -14 -37 -16
-45 -2 -8 -9 -28 -16 -45 -7 -16 -13 -33 -14 -37 -2 -5 -4 -10 -5 -13 -1 -3
-4 -9 -5 -15 -1 -5 -4 -13 -5 -17 -1 -5 -2 -11 -1 -15 0 -5 -3 -8 -9 -8 -5 0
-9 -3 -9 -7 1 -5 0 -10 -1 -13 -1 -3 -3 -12 -5 -20 -2 -8 -13 -38 -24 -66 -11
-29 -17 -54 -14 -58 4 -3 2 -6 -4 -6 -5 0 -16 -22 -23 -50 -7 -27 -17 -50 -22
-50 -4 0 -7 -3 -6 -7 1 -5 -6 -33 -17 -63 -11 -30 -20 -57 -20 -60 -1 -3 -7
-18 -14 -35 -7 -16 -14 -37 -16 -45 -2 -8 -15 -43 -29 -78 -13 -34 -26 -66
-27 -70 -1 -4 -5 -17 -10 -30 -5 -13 -9 -29 -9 -36 0 -7 -3 -16 -7 -20 -5 -4
-8 -11 -9 -14 0 -4 -4 -15 -7 -24 -4 -10 -10 -26 -14 -35 -3 -10 -7 -20 -8
-23 -1 -3 -4 -12 -8 -20 -3 -8 -17 -49 -32 -90 -15 -41 -29 -82 -32 -90 -4 -8
-7 -17 -8 -20 -1 -3 -5 -12 -8 -20 -4 -8 -22 -60 -41 -115 -19 -55 -40 -113
-47 -130 -7 -16 -12 -33 -11 -37 2 -8 1 -9 -33 -13 -98 -13 -114 -10 -155 31
-22 21 -39 42 -40 45 0 4 -13 21 -30 38 l-29 32 41 112 c22 62 46 129 51 150
6 20 15 37 19 37 4 0 8 8 8 18 0 9 6 29 14 44 8 15 17 41 21 59 4 19 11 40 16
49 4 8 24 60 44 115 20 55 39 107 42 115 3 8 7 20 8 25 2 6 15 42 30 80 15 39
28 75 29 80 2 6 6 17 9 25 7 16 47 132 47 135 0 2 -17 3 -37 3 -21 0 -128 3
-238 7 -110 4 -247 9 -305 10 -58 2 -107 4 -110 5 -3 1 -7 2 -10 2 -3 0 -6 17
-7 39 -1 21 -5 51 -8 66 -3 15 -8 51 -11 78 -7 54 -12 80 -14 80 -1 0 -3 8 -5
18 -3 15 19 22 65 19 36 -2 383 -14 504 -17 87 -2 161 -7 164 -10 3 -2 11 0
19 6 7 6 13 8 13 3 0 -5 20 -9 45 -9 44 0 46 1 60 40 8 22 16 47 17 55 2 8 9
21 16 28 7 8 10 17 7 22 -3 5 -1 11 5 15 6 4 8 11 5 16 -4 5 -1 9 5 9 6 0 10
6 9 13 -2 13 1 23 39 119 l11 26 -130 4 c-102 2 -132 6 -139 18 -5 8 -10 11
-10 7 0 -10 -43 41 -58 68 -9 19 -10 81 -1 114 4 15 19 32 57 65 12 11 43 21
69 24 27 2 49 5 50 6 7 6 193 -1 193 -7z m-2075 -186 c6 -4 27 -7 47 -7 21 1
38 -2 38 -5 0 -4 24 -9 53 -13 28 -3 63 -8 77 -11 14 -2 43 -7 65 -10 22 -3
47 -8 55 -11 8 -3 33 -8 55 -11 98 -14 159 -95 139 -188 -4 -16 -8 -39 -9 -50
-2 -11 -4 -21 -4 -22 -1 -2 -2 -6 -2 -10 -1 -5 -5 -18 -10 -31 -9 -23 -8 -24
38 -18 46 6 98 13 153 21 47 7 125 18 145 19 50 5 91 -41 97 -109 1 -16 6 -36
11 -42 6 -9 5 -13 -4 -13 -11 0 -11 -2 -2 -8 7 -4 15 -35 18 -67 9 -100 17
-135 29 -135 7 0 8 -3 1 -8 -6 -4 -11 -18 -10 -31 0 -25 1 -25 -90 -36 -27 -4
-68 -10 -90 -14 -61 -10 -110 -8 -111 7 -1 6 -2 23 -3 36 0 14 -12 31 -28 41
-30 20 -83 28 -83 12 0 -6 -3 -7 -6 -4 -15 15 -45 -44 -43 -83 2 -21 1 -41 -1
-44 -3 -2 -26 -7 -52 -10 -26 -4 -67 -10 -91 -15 -24 -4 -51 -7 -60 -5 -9 1
-17 -3 -17 -9 0 -8 -4 -7 -12 1 -7 7 -16 8 -22 3 -6 -5 -39 -12 -73 -15 -34
-3 -68 -9 -75 -11 -8 -3 -38 -7 -68 -9 -30 -2 -62 -6 -70 -9 -8 -3 -31 -8 -51
-10 -38 -5 -55 10 -54 48 1 45 -74 80 -119 55 -30 -15 -44 -46 -41 -87 1 -17
0 -35 -4 -41 -3 -5 -35 -13 -71 -17 -86 -9 -105 -12 -105 -14 0 -2 -24 -4 -52
-6 -29 -2 -53 -2 -53 -1 0 1 -4 27 -10 57 -5 30 -12 72 -15 94 -2 22 -7 49 -9
60 -20 101 -25 179 -12 197 21 28 62 48 111 53 28 2 61 6 75 9 47 8 115 18
145 21 17 2 30 4 30 5 0 1 14 3 30 5 31 3 85 10 145 20 83 13 163 24 210 28
20 2 27 11 35 42 6 22 14 46 18 53 10 14 -1 19 -63 26 -25 3 -70 11 -100 16
-30 6 -66 13 -80 15 -14 2 -26 4 -27 6 -2 1 -11 3 -20 4 -61 8 -110 48 -128
105 -10 31 -12 80 -4 80 4 0 10 11 13 25 4 14 11 25 17 25 6 0 7 5 4 10 -3 6
-2 10 4 10 5 0 17 7 25 15 27 27 140 37 171 16z m2317 -765 c10 -11 24 -32 30
-48 7 -15 16 -28 20 -28 5 0 8 -6 8 -14 0 -8 4 -16 8 -18 7 -2 113 -157 322
-473 18 -27 43 -60 54 -73 12 -13 19 -26 17 -29 -1 -2 6 -15 17 -27 11 -13 21
-27 23 -32 7 -16 103 -159 115 -172 7 -6 16 -21 19 -32 3 -11 11 -20 16 -20 5
0 9 -7 9 -15 0 -7 8 -19 18 -24 9 -6 13 -11 9 -11 -6 0 18 -36 70 -105 5 -5
14 -22 22 -37 8 -16 18 -28 23 -28 4 0 8 -5 8 -10 0 -6 14 -29 30 -52 17 -22
30 -47 30 -55 0 -7 5 -13 11 -13 8 0 8 -5 -1 -15 -8 -9 -8 -15 -2 -15 13 0 6
-43 -13 -79 -30 -58 -73 -79 -171 -86 -44 -2 -110 -7 -149 -10 -38 -3 -105 -7
-148 -10 -43 -3 -83 -7 -88 -10 -5 -4 -9 -1 -9 6 0 8 -4 8 -12 2 -7 -6 -40
-11 -73 -13 -64 -2 -77 -3 -250 -16 -60 -4 -136 -8 -167 -8 -32 -1 -58 -3 -58
-6 0 -3 -19 -6 -42 -7 -118 -3 -137 -6 -131 -17 4 -8 3 -8 -6 0 -7 6 -29 8
-54 5 -23 -4 -65 -6 -94 -6 -40 0 -55 -4 -65 -19 -35 -50 -135 -115 -157 -102
-6 4 -11 3 -11 -2 0 -5 -17 -10 -37 -11 -53 -3 -54 -3 -88 4 -16 4 -35 8 -42
8 -7 0 -10 4 -7 9 3 4 -3 8 -13 8 -33 1 -123 97 -129 138 -2 8 -7 18 -12 21
-5 3 -8 41 -8 84 1 67 -2 80 -21 102 -13 13 -23 29 -23 35 0 6 -4 8 -10 5 -5
-3 -10 -1 -10 5 0 6 -11 22 -25 35 -13 14 -22 25 -20 25 2 0 -6 10 -18 23 -12
12 -42 47 -67 77 -25 30 -55 65 -67 77 -12 13 -20 23 -18 23 3 0 -46 59 -80
95 -42 44 -73 92 -62 93 7 1 32 4 57 6 25 2 45 4 45 5 0 2 14 4 30 6 17 2 44
6 60 9 17 3 53 8 80 12 28 3 54 8 58 11 8 5 62 -48 112 -111 64 -80 119 -145
155 -185 14 -16 36 -43 50 -60 13 -18 43 -54 67 -79 23 -26 43 -50 43 -53 0
-4 39 -4 88 -1 48 3 104 5 125 6 20 0 37 3 37 6 0 3 30 6 68 6 59 1 139 6 302
19 25 2 68 5 95 6 28 1 55 6 62 11 7 5 14 5 18 -2 3 -6 11 -7 17 -4 6 4 47 8
92 10 45 2 108 6 141 9 33 3 95 7 139 10 43 2 80 6 83 8 2 3 -2 11 -9 18 -7 8
-19 26 -27 42 -8 15 -18 27 -23 27 -4 0 -8 7 -8 15 0 8 -4 15 -10 15 -5 0 -10
6 -10 14 0 8 -3 16 -7 18 -12 5 -53 66 -53 78 0 5 -4 10 -10 10 -5 0 -10 7
-10 15 0 8 -4 15 -10 15 -5 0 -10 5 -10 10 0 11 -33 60 -62 94 -10 11 -18 26
-18 33 0 7 -4 13 -8 13 -5 0 -15 12 -23 28 -8 15 -16 29 -19 32 -3 3 -9 12
-15 22 -5 9 -29 44 -52 77 -24 33 -43 63 -43 67 0 3 -6 11 -12 18 -7 8 -20 24
-28 36 -8 12 -21 28 -27 36 -7 7 -13 15 -13 18 0 3 -21 36 -46 72 -47 67 -62
108 -44 119 6 4 8 11 5 16 -4 5 -1 9 5 9 7 0 10 6 7 14 -3 7 1 23 9 35 8 11
13 21 9 21 -3 0 1 14 10 30 9 17 13 30 10 30 -3 0 2 11 11 25 9 14 13 25 9 25
-4 0 -2 7 5 15 7 8 9 15 4 15 -5 0 -4 4 3 8 6 4 14 20 17 35 7 37 18 55 24 37
3 -8 13 -23 24 -34z m-1301 -195 c1 -20 1 -39 0 -43 0 -5 2 -8 7 -8 4 0 8 -15
9 -32 0 -18 4 -51 7 -73 14 -84 18 -111 21 -140 1 -16 4 -30 5 -30 4 0 10 -48
12 -93 1 -34 -5 -49 -23 -67 -25 -25 -43 -30 -139 -41 -30 -3 -59 -9 -64 -12
-5 -3 -32 -6 -60 -8 -28 -1 -62 -5 -76 -8 -14 -3 -52 -9 -85 -12 -33 -4 -69
-10 -80 -14 -11 -3 -37 -6 -58 -6 -20 1 -37 -2 -37 -5 0 -3 -6 -6 -12 -6 -36
-1 -173 -19 -173 -23 0 -1 -20 -3 -45 -5 -25 -2 -56 -6 -70 -9 -14 -4 -48 -9
-76 -11 -28 -3 -62 -8 -75 -10 -13 -3 -42 -8 -64 -10 -22 -3 -49 -7 -60 -9
-39 -7 -150 -20 -157 -18 -5 1 -8 -1 -8 -6 0 -4 -32 -8 -70 -8 -39 -1 -70 2
-70 7 0 5 -6 9 -14 9 -16 0 -35 42 -41 91 -4 31 -16 103 -21 122 -1 4 -2 23
-3 43 0 19 -4 33 -9 30 -4 -2 -7 11 -6 29 1 18 -2 55 -7 81 -5 27 -12 61 -14
75 -5 28 16 46 37 32 6 -3 8 -2 5 4 -4 6 5 10 21 11 15 1 38 4 52 7 14 2 48 7
75 10 28 3 59 7 70 9 23 4 35 -10 35 -40 0 -33 31 -64 72 -73 22 -5 36 -5 32
0 -3 5 3 9 14 9 25 0 46 42 47 93 l0 42 55 7 c30 4 75 10 100 13 25 3 56 8 70
11 14 3 41 7 60 9 19 2 51 6 70 9 19 3 53 8 75 11 22 3 49 7 60 9 11 3 47 8
80 11 l60 7 13 -46 c11 -44 31 -63 72 -71 11 -2 22 1 25 6 4 5 10 7 14 4 5 -2
18 6 31 20 18 19 21 32 18 69 -2 26 1 46 7 47 36 3 75 8 105 13 19 4 60 9 90
12 30 3 56 7 58 8 1 2 9 3 17 3 10 0 15 -12 16 -36z m2069 -195 c58 -8 132
-22 138 -26 1 -2 7 -4 12 -5 6 -1 12 -4 15 -5 3 -1 8 -3 13 -4 4 -1 22 -6 40
-10 17 -4 32 -12 32 -17 0 -5 4 -8 8 -7 12 4 112 -44 112 -54 0 -4 6 -8 14 -8
18 0 96 -51 96 -62 0 -4 5 -8 11 -8 12 0 129 -117 174 -174 17 -22 39 -55 50
-75 11 -20 23 -38 26 -41 8 -7 22 -44 21 -52 -1 -5 3 -8 9 -8 5 0 8 -4 4 -9
-3 -5 -1 -12 5 -16 5 -3 10 -17 10 -30 0 -13 4 -25 9 -27 6 -1 12 -14 14 -28
2 -14 7 -32 10 -40 4 -8 8 -31 10 -50 3 -19 7 -42 10 -50 4 -8 5 -23 4 -34 -2
-10 -1 -38 3 -62 4 -24 5 -46 2 -49 -2 -2 -6 -28 -7 -57 -1 -29 -7 -74 -13
-100 -5 -27 -7 -48 -4 -48 2 0 -1 -6 -7 -13 -6 -8 -12 -22 -14 -33 -5 -24 -14
-47 -43 -112 -13 -28 -24 -54 -24 -57 0 -8 -83 -120 -92 -123 -4 -2 -8 -8 -8
-13 0 -11 -146 -159 -157 -159 -5 -1 -18 -9 -29 -19 -12 -11 -31 -22 -43 -26
-12 -3 -19 -11 -15 -16 3 -5 2 -9 -3 -8 -15 2 -53 -13 -53 -22 0 -5 -5 -9 -12
-9 -6 0 -35 -11 -64 -25 -138 -65 -340 -93 -519 -70 -33 4 -68 7 -77 7 -10 -1
-18 2 -18 6 0 4 -12 9 -26 10 -14 1 -54 13 -87 28 -34 14 -67 26 -73 28 -7 1
-19 8 -28 15 -9 7 -16 10 -16 7 0 -4 -10 2 -22 14 -12 11 -27 20 -33 20 -7 0
-32 16 -57 35 -25 19 -48 31 -52 28 -3 -4 -6 1 -6 10 0 9 -5 17 -10 17 -12 0
-150 138 -150 150 0 5 -10 19 -23 32 -12 13 -30 40 -40 60 -10 20 -22 40 -27
43 -6 4 -8 11 -5 16 4 5 1 9 -6 9 -23 0 1 14 29 17 15 1 50 5 77 8 28 3 91 7
141 9 l92 4 28 -36 c55 -69 160 -152 219 -174 19 -6 35 -16 35 -22 0 -5 3 -7
6 -3 3 3 30 -3 60 -13 30 -11 80 -22 111 -26 31 -3 64 -7 72 -9 9 -1 21 2 28
7 7 5 14 5 18 -2 3 -6 11 -8 16 -5 5 4 28 8 51 11 24 3 61 10 83 16 22 7 42
12 45 13 3 1 22 9 43 18 20 9 38 16 40 15 8 -2 119 79 158 117 42 40 139 172
139 188 0 3 5 18 12 34 7 15 13 33 13 38 1 6 5 17 8 25 21 52 27 187 13 275
-4 22 -8 46 -8 53 -1 6 -5 12 -9 12 -5 0 -6 7 -3 15 4 8 1 15 -6 15 -6 0 -9 4
-6 9 3 4 -1 17 -9 27 -8 10 -15 26 -15 35 0 9 -7 22 -15 29 -9 7 -13 15 -11
18 3 2 0 10 -7 17 -7 7 -22 26 -34 42 -35 45 -103 113 -113 113 -6 0 -10 4
-10 9 0 5 -16 15 -35 22 -19 7 -35 17 -35 21 0 8 -39 27 -51 24 -3 0 -12 4
-20 10 -14 11 -66 30 -108 39 -11 3 -31 7 -43 10 -13 3 -50 6 -83 7 -59 2 -95
20 -95 48 0 5 -4 10 -10 10 -5 0 -10 7 -10 15 0 8 -4 15 -10 15 -5 0 -10 6
-10 14 0 8 -3 16 -7 18 -12 5 -53 66 -53 78 0 5 -4 10 -10 10 -5 0 -10 5 -10
10 0 6 -9 21 -20 33 l-21 22 27 7 c15 4 50 10 78 13 28 4 52 8 53 9 4 3 151
-2 193 -8z m-3741 -68 c-4 -30 2 -69 9 -64 4 2 6 -12 6 -32 -1 -20 0 -41 4
-46 3 -5 6 -21 8 -35 1 -14 5 -44 8 -66 7 -49 4 -54 -59 -90 -46 -27 -134
-108 -179 -164 -26 -33 -96 -183 -90 -193 3 -4 1 -8 -3 -8 -5 0 -9 -8 -10 -17
0 -10 -4 -40 -8 -68 -7 -53 -7 -121 0 -170 8 -50 27 -119 36 -130 5 -5 9 -17
9 -27 0 -10 5 -18 11 -18 5 0 8 -4 4 -9 -3 -5 2 -17 11 -25 8 -9 12 -16 9 -16
-8 0 51 -76 99 -128 31 -33 140 -108 186 -129 38 -17 64 -27 75 -28 6 -1 22
-7 37 -13 47 -19 217 -30 278 -17 14 3 38 8 54 10 15 3 43 12 61 19 19 8 36
12 39 8 3 -3 6 1 6 8 0 7 3 11 6 7 6 -6 109 47 134 69 57 51 74 64 83 64 6 0
8 3 5 6 -4 3 6 19 20 36 15 16 34 38 42 47 38 44 91 178 105 266 11 67 11 80
2 93 -6 8 -5 12 2 12 7 0 9 5 6 10 -4 6 -8 28 -10 49 -2 21 -6 48 -9 59 -4 11
-9 29 -11 40 -4 23 -46 125 -54 132 -8 7 -41 67 -41 73 0 3 8 4 18 2 9 -1 22
0 27 4 6 3 17 6 25 6 14 1 105 13 160 22 101 15 99 16 126 -42 13 -30 24 -58
24 -64 0 -5 5 -22 12 -38 14 -35 13 -29 23 -83 24 -133 22 -298 -6 -387 -6
-18 -8 -37 -5 -42 4 -5 2 -12 -3 -15 -5 -3 -12 -18 -15 -32 -7 -28 -46 -116
-55 -124 -3 -3 -7 -10 -8 -17 -4 -18 -67 -114 -96 -145 -14 -16 -24 -28 -22
-28 2 0 -7 -11 -21 -25 -14 -14 -29 -25 -35 -25 -6 0 -7 -4 -4 -10 3 -5 2 -10
-3 -10 -5 0 -20 -10 -33 -23 -36 -34 -96 -77 -108 -77 -6 0 -11 -4 -11 -9 0
-19 -254 -129 -290 -126 -8 1 -23 -3 -34 -8 -10 -5 -49 -11 -87 -12 -38 -2
-72 -6 -76 -8 -20 -10 -245 10 -253 23 -3 5 -12 8 -20 7 -21 -2 -120 25 -120
33 0 4 -6 7 -12 7 -20 0 -148 64 -148 74 0 5 -4 8 -9 7 -4 -2 -30 13 -57 32
-27 19 -51 35 -53 35 -6 0 -121 115 -121 121 0 3 -12 17 -26 32 -24 26 -103
152 -101 162 1 3 -6 19 -15 35 -35 67 -72 190 -62 206 2 4 1 10 -4 13 -19 11
-20 290 -1 301 4 3 5 14 2 25 -3 11 -1 20 3 20 5 0 9 12 10 28 0 25 51 170 64
182 3 3 14 23 25 45 11 22 35 59 53 82 17 24 32 48 32 54 0 5 5 7 10 4 6 -3
10 -2 10 4 0 15 141 151 157 151 4 0 16 9 28 20 24 23 193 110 213 110 7 0 12
-6 11 -12z m661 -528 c0 -5 -5 -10 -12 -10 -6 0 -9 -3 -5 -6 5 -5 -10 -43 -68
-179 -7 -16 -23 -52 -35 -80 -13 -27 -23 -56 -23 -62 0 -7 -4 -13 -8 -13 -3 0
-10 -10 -14 -22 -4 -13 -8 -25 -9 -28 -2 -3 -6 -17 -10 -32 -5 -16 -12 -28
-17 -28 -5 0 -9 -5 -9 -12 0 -17 -41 -58 -57 -58 -8 0 -12 -4 -8 -9 3 -6 -3
-8 -15 -6 -11 2 -22 0 -25 -5 -6 -10 -24 -8 -44 4 -9 6 -12 5 -7 -2 13 -21
-56 13 -91 46 -31 28 -36 39 -39 87 -2 30 1 57 7 60 5 4 7 11 4 16 -4 5 1 16
9 25 14 14 18 28 15 50 0 4 4 10 11 14 6 4 13 13 15 21 8 36 18 59 25 59 4 0
7 6 7 13 -3 25 46 117 62 118 9 0 25 3 36 5 11 3 40 7 65 9 25 2 45 4 45 5 0
3 38 9 100 15 33 4 62 9 64 11 9 8 31 4 31 -6z"/>
</g>
</svg>
