<?xml version="1.0" standalone="no"?>
<!DOCTYPE svg PUBLIC "-//W3C//DTD SVG 1.1//EN" "http://www.w3.org/Graphics/SVG/1.1/DTD/svg11.dtd" >
<svg xmlns="http://www.w3.org/2000/svg" xmlns:xlink="http://www.w3.org/1999/xlink" version="1.1">
<metadata></metadata>
<defs>
<font id="integrabold" horiz-adv-x="1417" >
<font-face units-per-em="2048" ascent="1638" descent="-410" />
<missing-glyph horiz-adv-x="641" />
<glyph horiz-adv-x="0" />
<glyph horiz-adv-x="682" />
<glyph unicode=" "  horiz-adv-x="641" />
<glyph unicode="&#x09;" horiz-adv-x="641" />
<glyph unicode="&#xa0;" horiz-adv-x="641" />
<glyph unicode="!" horiz-adv-x="495" d="M82 137q0 70 48.5 118t119.5 48q70 0 118 -47.5t48 -118.5t-48 -119.5t-118 -48.5t-119 48.5t-49 119.5zM111 508v934h274v-934h-274z" />
<glyph unicode="&#x22;" horiz-adv-x="839" d="M102 899v596h242v-596h-242zM500 899v596h241v-596h-241z" />
<glyph unicode="#" horiz-adv-x="1155" d="M0 403l39 213h160l47 261h-162l37 213h162l63 352h238l-62 -352h242l63 352h238l-61 -352h151l-37 -213h-153l-45 -261h151l-37 -213h-153l-70 -403h-240l72 403h-244l-69 -403h-240l72 403h-162zM438 616h242l47 261h-244z" />
<glyph unicode="$" horiz-adv-x="1144" d="M53 184l144 201q159 -133 286 -162v414q-59 24 -103 47t-92.5 60t-79 79.5t-51 104.5t-20.5 135q0 151 98.5 253t247.5 138v215h244v-207q184 -36 334 -155l-146 -201q-90 71 -188 102v-385q54 -25 97.5 -50t89.5 -63.5t76.5 -82t50.5 -104t20 -130.5 q0 -151 -91.5 -257.5t-242.5 -145.5v-228h-244v213q-233 30 -430 209zM401 1063q0 -74 82 -127v262q-82 -43 -82 -135zM727 256q72 50 72 137q0 75 -72 131v-268z" />
<glyph unicode="%" horiz-adv-x="1630" d="M35 1081q0 160 99.5 269.5t252.5 109.5t252.5 -109.5t99.5 -269.5t-99.5 -269.5t-252.5 -109.5t-252.5 109.5t-99.5 269.5zM258 1081q0 -81 35 -132.5t94 -51.5t94 51.5t35 132.5t-35 133t-94 52t-94 -52t-35 -133zM281 0l815 1442h258l-815 -1442h-258zM905 360 q0 161 99 270t253 109q153 0 253 -109.5t100 -269.5t-99.5 -269t-253.5 -109q-155 0 -253.5 108.5t-98.5 269.5zM1128 360q0 -81 35 -132.5t94 -51.5t94 51.5t35 132.5t-35 133t-94 52t-94 -52t-35 -133z" />
<glyph unicode="&#x26;" horiz-adv-x="1398" d="M51 375q0 79 25.5 148.5t73 126t97.5 98.5t118 86l-19 22q-110 133 -110 277q0 141 105 240.5t263 99.5q157 0 251.5 -99t94.5 -229q0 -103 -61.5 -183t-173.5 -161l190 -230l221 260l185 -149l-248 -297l323 -385h-327l-158 188q-28 -33 -51.5 -57.5t-65 -57 t-84.5 -53.5t-104 -36t-129 -15q-98 0 -178.5 33.5t-131.5 90t-78.5 129t-27.5 153.5zM317 379q0 -74 45 -118t117 -44q127 0 215 107l47 55l-231 278q-93 -69 -143 -133.5t-50 -144.5zM485 1133q0 -60 56 -123l34 -43q61 44 93 84t32 84q0 50 -30 79t-74 29 q-45 0 -78 -30.5t-33 -79.5z" />
<glyph unicode="'" horiz-adv-x="446" d="M102 899v596h242v-596h-242z" />
<glyph unicode="(" horiz-adv-x="612" d="M72 471q0 114 16 232.5t42 216.5t57 189.5t62.5 160t57.5 120t42 78.5l16 27h225q-10 -21 -27.5 -58.5t-61.5 -153t-78 -231t-61.5 -276.5t-27.5 -305t26.5 -300t64 -276.5t75 -220t64.5 -152.5l26 -54h-225q-12 18 -31.5 51t-70 139.5t-89.5 217.5t-70.5 274.5 t-31.5 320.5z" />
<glyph unicode=")" horiz-adv-x="612" d="M23 -532q10 21 27.5 58.5t61.5 153t78 231t61.5 276.5t27.5 305t-26.5 300t-64 276.5t-75 220t-63.5 153.5l-27 53h225q12 -18 31.5 -51t70 -139.5t89.5 -217.5t70.5 -274.5t31.5 -320.5q0 -114 -16 -232.5t-42 -216.5t-57.5 -189.5t-62.5 -160t-57 -120t-42 -78.5 l-16 -27h-225z" />
<glyph unicode="*" horiz-adv-x="862" d="M37 1085l57 177l246 -80v260h184v-258l246 80l55 -174l-245 -80l153 -209l-147 -111l-154 209l-151 -211l-150 109l152 211z" />
<glyph unicode="+" horiz-adv-x="1187" d="M147 629v231h326v326h234v-326h325v-231h-325v-328h-234v328h-326z" />
<glyph unicode="," horiz-adv-x="446" d="M-55 -365l192 629h254l-209 -629h-237z" />
<glyph unicode="-" horiz-adv-x="712" d="M61 401v211h590v-211h-590z" />
<glyph unicode="." horiz-adv-x="489" d="M78 137q0 70 48.5 118t119.5 48q70 0 118 -47.5t48 -118.5t-48 -119.5t-118 -48.5t-119 48.5t-49 119.5z" />
<glyph unicode="/" horiz-adv-x="1130" d="M-53 -326l901 1973h278l-901 -1973h-278z" />
<glyph unicode="0" horiz-adv-x="1220" d="M84 721q0 215 64 385t184 268.5t276 98.5t277 -98t186.5 -269t65.5 -385t-65.5 -385t-186.5 -269t-277 -98t-276 98.5t-184 268.5t-64 385zM367 719q0 -221 65.5 -359.5t177.5 -138.5q111 0 177.5 139t66.5 359q0 224 -66.5 363t-177.5 139q-112 0 -177.5 -138.5 t-65.5 -363.5z" />
<glyph unicode="1" horiz-adv-x="808" d="M12 1202l473 240h193v-1442h-283v1118l-270 -141z" />
<glyph unicode="2" horiz-adv-x="1097" d="M49 0l547 776q113 159 113 252q0 85 -54.5 140t-140.5 55q-83 0 -137 -46t-72 -124l-256 39q26 174 154.5 278.5t316.5 104.5q203 0 337 -122t134 -306q0 -168 -153 -388l-289 -401h471v-258h-971z" />
<glyph unicode="3" horiz-adv-x="1056" d="M39 311l244 72q20 -70 74 -116t137 -46q85 0 140.5 56.5t55.5 142.5q0 85 -61.5 140.5t-157.5 55.5h-94v252h92q93 0 148 49.5t55 126.5q0 76 -51.5 127.5t-128.5 51.5q-62 0 -113 -38.5t-74 -107.5l-246 68q46 153 161.5 240.5t271.5 87.5q195 0 319.5 -119.5 t124.5 -298.5q0 -90 -39.5 -169.5t-110.5 -137.5q88 -61 138.5 -150t50.5 -190q0 -189 -135.5 -314t-339.5 -125q-186 0 -307 94.5t-154 247.5z" />
<glyph unicode="4" horiz-adv-x="1210" d="M6 274l707 1168h245v-928h195v-240h-195v-274h-270v274h-682zM389 514h299v487z" />
<glyph unicode="5" horiz-adv-x="1144" d="M70 219l194 158q48 -73 116 -114.5t146 -41.5q107 0 177.5 69.5t70.5 176.5q0 111 -72 179.5t-186 68.5q-130 0 -321 -82l135 809h631v-250h-408l-43 -254q38 10 74 10q89 0 174 -34t152 -95t108 -155t41 -205q0 -145 -71 -258t-189.5 -172.5t-263.5 -59.5 q-152 0 -274 69t-191 181z" />
<glyph unicode="6" horiz-adv-x="1171" d="M82 442q0 99 23.5 171t87.5 184l362 645h309l-291 -520q8 0 23 1t22 1q125 0 232.5 -58.5t173.5 -166.5t66 -242q0 -209 -144 -347.5t-356 -138.5q-211 0 -359.5 136t-148.5 335zM360 455q0 -97 66 -165.5t158 -68.5t157.5 68.5t65.5 165.5q0 99 -65 165t-158 66 t-158.5 -66.5t-65.5 -164.5z" />
<glyph unicode="7" horiz-adv-x="1150" d="M76 1171v271h1061l-639 -1442h-303l536 1171h-655z" />
<glyph unicode="8" horiz-adv-x="1118" d="M76 408q0 101 48.5 190t133.5 150q-68 59 -106.5 138t-38.5 169q0 177 126 297.5t320 120.5t320.5 -120.5t126.5 -297.5q0 -90 -39 -169t-107 -138q85 -61 133.5 -150t48.5 -190q0 -186 -137 -312.5t-346 -126.5t-346 126.5t-137 312.5zM358 418q0 -85 57.5 -141 t143.5 -56t143.5 56t57.5 141t-57.5 141.5t-143.5 56.5t-143.5 -56.5t-57.5 -141.5zM379 1044q0 -76 50.5 -126t127.5 -50q78 0 130 50.5t52 125.5t-52 127t-130 52q-77 0 -127.5 -51.5t-50.5 -127.5z" />
<glyph unicode="9" horiz-adv-x="1171" d="M82 987q0 209 144 347.5t356 138.5q211 0 359.5 -136.5t148.5 -335.5q0 -99 -23.5 -170.5t-87.5 -183.5l-363 -645h-309l289 520q-14 -2 -43 -2q-125 0 -232.5 58.5t-173 166.5t-65.5 242zM365 989q0 -99 65 -165t158 -66t158 66.5t65 164.5q0 97 -65.5 165.5 t-157.5 68.5t-157.5 -68.5t-65.5 -165.5z" />
<glyph unicode=":" horiz-adv-x="430" d="M47 137q0 70 48.5 118t119.5 48t118.5 -47.5t47.5 -118.5t-48 -119.5t-118 -48.5q-71 0 -119.5 48.5t-48.5 119.5zM47 932q0 70 48.5 118t119.5 48t118.5 -48t47.5 -118q0 -71 -48 -119.5t-118 -48.5q-71 0 -119.5 49t-48.5 119z" />
<glyph unicode=";" horiz-adv-x="430" d="M-82 -365l193 629h254l-209 -629h-238zM72 932q0 70 48.5 118t119.5 48q70 0 118 -48t48 -118q0 -71 -48 -119.5t-118 -48.5t-119 49t-49 119z" />
<glyph unicode="&#x3c;" horiz-adv-x="1187" d="M156 653v150l901 422v-250l-559 -242l559 -246v-256z" />
<glyph unicode="=" horiz-adv-x="1187" d="M139 440v215h910v-215h-910zM139 840v215h910v-215h-910z" />
<glyph unicode="&#x3e;" horiz-adv-x="1187" d="M168 223v250l559 242l-559 246v256l901 -422v-150z" />
<glyph unicode="?" horiz-adv-x="811" d="M29 1407q120 66 274 66q166 0 289 -98.5t143 -250.5q5 -38 2 -82q-9 -126 -114 -247l-207 -277l-183 158l134 188q82 128 82 189q0 71 -51 120.5t-128 49.5q-74 0 -159 -45zM174 137q0 70 48.5 118t119.5 48t119.5 -48t48.5 -118q0 -71 -49 -119.5t-119 -48.5t-119 48.5 t-49 119.5z" />
<glyph unicode="@" horiz-adv-x="1820" d="M37 475q0 179 72 341.5t193.5 279t287.5 185.5t346 69q196 0 358 -66.5t265 -176.5t159 -247.5t56 -284.5q0 -228 -137 -363.5t-343 -127.5q-65 2 -118 24.5t-82 61.5q-122 -119 -293 -119q-179 0 -285 112.5t-106 285.5q0 203 131.5 344t318.5 141q152 0 260 -115l8 88 h222l-62 -571q-3 -22 10.5 -36.5t38.5 -14.5q93 0 154 79t61 211q0 111 -39.5 212t-114.5 181t-194.5 127.5t-267.5 47.5q-187 0 -339 -82t-241.5 -235.5t-89.5 -350.5q0 -129 47.5 -244.5t131 -200t204 -133.5t260.5 -49q128 0 226 26.5t206 88.5l86 -172 q-229 -145 -518 -145q-175 0 -333 58.5t-278 164t-190.5 263t-70.5 343.5zM635 471q0 -96 58 -158.5t151 -62.5q104 0 179 79t75 185q0 93 -57 158t-146 65q-109 0 -184.5 -77t-75.5 -189z" />
<glyph unicode="A" horiz-adv-x="1419" d="M14 0l596 1442h201l594 -1442h-303l-133 342h-529l-133 -342h-293zM535 586h337l-167 434z" />
<glyph unicode="B" horiz-adv-x="1169" d="M123 0v1442h432q219 0 348 -115.5t129 -288.5q0 -178 -129 -282q96 -55 147.5 -145.5t51.5 -198.5q0 -84 -31.5 -158t-92 -131t-156.5 -90t-216 -33h-483zM406 238h194q99 0 159 52.5t60 139.5q0 85 -60 138t-159 53h-194v-383zM406 856h143q90 0 145.5 47.5t55.5 126.5 t-55.5 126.5t-145.5 47.5h-143v-348z" />
<glyph unicode="C" horiz-adv-x="1421" d="M78 717q0 154 58.5 293.5t160 241t246 161.5t307.5 60q289 0 522 -207l-170 -189q-156 144 -356 144q-133 0 -243.5 -64t-174 -178t-63.5 -254q0 -215 139 -359.5t342 -144.5q200 0 356 144l170 -189q-233 -207 -522 -207q-163 0 -307 58.5t-246 158.5t-160.5 238 t-58.5 293z" />
<glyph unicode="D" horiz-adv-x="1396" d="M123 0v1442h422q227 0 401 -86t271.5 -250t97.5 -383q0 -220 -97.5 -384.5t-271.5 -251.5t-401 -87h-422zM412 252h135q220 0 352.5 127t132.5 340q0 214 -132.5 342.5t-352.5 128.5h-135v-938z" />
<glyph unicode="E" horiz-adv-x="968" d="M123 0v1442h768v-250h-485v-334h485v-237h-485v-371h485v-250h-768z" />
<glyph unicode="F" horiz-adv-x="935" d="M123 0v1442h768v-250h-485v-334h485v-237h-485v-621h-283z" />
<glyph unicode="G" horiz-adv-x="1540" d="M78 717q0 206 99.5 379t278 275t398.5 102q292 0 522 -207l-168 -189q-156 144 -358 144q-131 0 -242 -64t-177 -178.5t-66 -253.5q0 -137 62 -252t175.5 -183.5t253.5 -68.5q153 0 283 70v248h-275v252h557v-619q-114 -93 -260.5 -148t-310.5 -55t-308 58t-245.5 158 t-160 238.5t-58.5 293.5z" />
<glyph unicode="H" d="M123 0v1442h283v-576h606v576h282v-1442h-282v614h-606v-614h-283z" />
<glyph unicode="I" horiz-adv-x="524" d="M123 0v1442h283v-1442h-283z" />
<glyph unicode="J" horiz-adv-x="802" d="M0 43l121 209q57 -33 110 -33q81 0 126.5 53.5t45.5 147.5v1022h283v-1018q0 -105 -34.5 -192.5t-93.5 -144t-135.5 -87.5t-162.5 -31q-140 0 -260 74z" />
<glyph unicode="K" horiz-adv-x="1249" d="M123 0v1442h283v-606l466 606h314l-527 -670l584 -772h-336l-501 672v-672h-283z" />
<glyph unicode="L" horiz-adv-x="845" d="M123 0v1442h283v-1192h419v-250h-702z" />
<glyph unicode="M" horiz-adv-x="1908" d="M78 0l233 1442h246l395 -1000l400 1000h245l234 -1442h-283l-137 889l-362 -889h-201l-365 889l-135 -889h-270z" />
<glyph unicode="N" horiz-adv-x="1589" d="M123 0v1442h201l860 -930v930h282v-1442h-198l-862 956v-956h-283z" />
<glyph unicode="O" horiz-adv-x="1708" d="M82 717q0 154 58.5 293.5t160 241t246 161.5t307.5 60q217 0 394.5 -100t277.5 -271t100 -377t-100 -379t-277.5 -275t-394.5 -102q-163 0 -307 58.5t-246 159t-160.5 238.5t-58.5 292zM369 725q0 -137 61 -252t173 -183.5t251 -68.5q212 0 348.5 143t136.5 353 q0 138 -60.5 252.5t-172.5 183t-252 68.5q-211 0 -348 -143t-137 -353z" />
<glyph unicode="P" horiz-adv-x="1122" d="M119 0v1442h461q121 0 219.5 -37t161 -99.5t96 -142.5t33.5 -168t-33.5 -167.5t-96 -142t-160.5 -99.5t-218 -37h-181v-549h-282zM401 793h179q104 0 163.5 55t59.5 147t-59.5 148.5t-163.5 56.5h-179v-407z" />
<glyph unicode="Q" horiz-adv-x="1722" d="M82 717q0 154 58.5 293.5t160 241t246 161.5t307.5 60q217 0 394.5 -100t277.5 -271t100 -377q0 -143 -49.5 -272t-140.5 -230l190 -211l-205 -176l-200 221q-164 -88 -367 -88q-163 0 -307 58.5t-246 159t-160.5 238.5t-58.5 292zM369 725q0 -137 61 -252t173 -183.5 t251 -68.5q102 0 186 35l-211 236l205 178l219 -244q86 125 86 291q0 138 -60.5 252.5t-172.5 183t-252 68.5q-211 0 -348 -143t-137 -353z" />
<glyph unicode="R" horiz-adv-x="1171" d="M119 0v1442h459q217 0 354 -117t137 -315q0 -153 -83.5 -260.5t-227.5 -151.5l416 -598h-330l-414 616l-8 2l-21 -10v-608h-282zM401 813h174q97 0 154 54t57 141t-57 140.5t-154 53.5h-174v-389z" />
<glyph unicode="S" horiz-adv-x="1126" d="M53 184l144 201q101 -84 188.5 -127t181.5 -43q92 0 151.5 48.5t59.5 129.5q0 74 -50 122t-153 87q-45 17 -67 25.5t-65.5 27t-67.5 32.5t-61 38t-58.5 46.5t-47 55t-39 66.5t-23 77.5t-9.5 92.5q0 96 43 175.5t113 129.5t155.5 77.5t174.5 27.5q119 0 232.5 -46.5 t205.5 -119.5l-146 -201q-68 54 -146.5 87.5t-145.5 33.5q-92 0 -146.5 -45t-54.5 -119q0 -68 51 -112t156 -85q51 -21 82 -34.5t82 -40t83.5 -50.5t71 -61.5t60.5 -77.5t37.5 -94t15.5 -115q0 -190 -141.5 -307t-352.5 -117q-107 0 -214 37.5t-174 81t-126 96.5z" />
<glyph unicode="T" horiz-adv-x="972" d="M20 1190v252h932v-252h-325v-1190h-283v1190h-324z" />
<glyph unicode="U" d="M123 551v891h283v-891q0 -154 85 -242t218 -88t218 85t85 239v897h282v-885q0 -268 -162.5 -428t-422.5 -160q-262 0 -424 157t-162 425z" />
<glyph unicode="V" horiz-adv-x="1419" d="M14 1442h303q34 -89 199 -500t199 -500l399 1000h291l-594 -1442h-201z" />
<glyph unicode="W" horiz-adv-x="2076" d="M10 1442h295l326 -959l303 959h207l303 -959l332 959h282l-504 -1442h-221l-299 944l-299 -944h-217z" />
<glyph unicode="X" horiz-adv-x="1298" d="M-2 0l483 748l-450 694h321l291 -449l291 449h317l-450 -692l487 -750h-319l-328 502l-326 -502h-317z" />
<glyph unicode="Y" horiz-adv-x="1282" d="M-8 1442h313l340 -592l342 592h303l-508 -877v-565h-282v567z" />
<glyph unicode="Z" horiz-adv-x="1179" d="M49 0l635 1192h-586v250h1008l-610 -1190h608v-252h-1055z" />
<glyph unicode="[" horiz-adv-x="616" d="M113 -532v2027h475v-238h-215v-1552h215v-237h-475z" />
<glyph unicode="\" horiz-adv-x="1130" d="M4 1647h279l901 -1973h-279z" />
<glyph unicode="]" horiz-adv-x="616" d="M29 -295h215v1552h-215v238h475v-2027h-475v237z" />
<glyph unicode="^" horiz-adv-x="1114" d="M31 655l452 787h148l452 -787h-243q-131 233 -291 500l-285 -500h-233z" />
<glyph unicode="_" horiz-adv-x="1396" d="M0 -158h1397v-139h-1397v139z" />
<glyph unicode="`" horiz-adv-x="440" d="M20 1403h252l148 -307h-211z" />
<glyph unicode="a" horiz-adv-x="1239" d="M82 481q0 216 138.5 364t338.5 148q183 0 301 -131v101h262v-963h-262v100q-118 -131 -301 -131q-200 0 -338.5 148t-138.5 364zM346 483q0 -119 76 -198.5t190 -79.5q111 0 185.5 80t74.5 194t-74.5 196.5t-185.5 82.5q-114 0 -190 -78.5t-76 -196.5z" />
<glyph unicode="b" horiz-adv-x="1239" d="M119 0v1495h262v-633q118 131 301 131q200 0 338.5 -148t138.5 -364t-138.5 -364t-338.5 -148q-185 0 -301 129v-98h-262zM369 483q0 -114 74.5 -196t183.5 -82q116 0 192 78t76 196q0 119 -76.5 199t-191.5 80q-109 0 -183.5 -80.5t-74.5 -194.5z" />
<glyph unicode="c" horiz-adv-x="991" d="M82 477q0 140 67.5 258.5t188.5 188t268 69.5q199 0 355 -139l-160 -176q-84 78 -197 78q-108 0 -183 -76.5t-75 -194.5q0 -119 75.5 -198.5t182.5 -79.5q113 0 197 78l160 -176q-157 -140 -355 -140q-111 0 -208.5 40t-166.5 108t-109 161.5t-40 198.5z" />
<glyph unicode="d" horiz-adv-x="1234" d="M82 481q0 216 138.5 364t338.5 148q183 0 301 -131v633h262v-1495h-262v100q-118 -131 -301 -131q-200 0 -338.5 148t-138.5 364zM346 483q0 -119 76 -198.5t190 -79.5q111 0 185.5 80t74.5 194t-74.5 196.5t-185.5 82.5q-114 0 -190 -78.5t-76 -196.5z" />
<glyph unicode="e" horiz-adv-x="1138" d="M82 477q0 142 65.5 260.5t179.5 187t251 68.5q219 0 349 -145t130 -367l-4 -84h-703q22 -93 86.5 -150t157.5 -57q133 0 254 121l151 -159q-168 -183 -405 -183q-226 0 -369 143.5t-143 364.5zM352 592h439q-21 88 -75.5 138t-137.5 50q-80 0 -140.5 -50.5t-85.5 -137.5z " />
<glyph unicode="f" horiz-adv-x="716" d="M41 735v228h168v137q0 192 114 309t281 117q113 0 227 -64l-116 -209q-44 33 -101 33q-61 0 -102 -44.5t-41 -125.5v-153h205v-228h-205v-735h-262v735h-168z" />
<glyph unicode="g" horiz-adv-x="1245" d="M82 496q0 215 137 356t338 141q180 0 303 -133v103h262v-949q0 -162 -68 -281.5t-183.5 -180t-262.5 -60.5q-149 0 -279.5 79t-197.5 230l217 111q43 -89 113 -135.5t147 -46.5q111 0 181.5 70t70.5 196v125q-122 -125 -303 -125q-201 0 -338 142.5t-137 357.5zM346 487 q0 -119 75.5 -196.5t190.5 -77.5q110 0 185 76.5t75 189.5q0 114 -75.5 196.5t-184.5 82.5q-116 0 -191 -76.5t-75 -194.5z" />
<glyph unicode="h" horiz-adv-x="1110" d="M123 0v1495h262v-623q57 59 131 90t150 31q64 0 121.5 -23t103.5 -66.5t73 -114.5t27 -160v-629h-262v565q0 98 -47.5 148.5t-114.5 50.5q-75 0 -128.5 -56.5t-53.5 -170.5v-537h-262z" />
<glyph unicode="i" horiz-adv-x="507" d="M94 1264q0 67 47 113t115 46t114 -46t46 -113q0 -68 -46.5 -115t-113.5 -47q-68 0 -115 47t-47 115zM123 0v963h262v-963h-262z" />
<glyph unicode="j" horiz-adv-x="507" d="M94 1264q0 67 47 113t115 46t114 -46t46 -113q0 -68 -46.5 -115t-113.5 -47q-68 0 -115 47t-47 115zM123 -479v1442h262v-1442h-262z" />
<glyph unicode="k" horiz-adv-x="1052" d="M123 0v1495h262v-895l301 363h307l-368 -422l428 -541h-310l-358 469v-469h-262z" />
<glyph unicode="l" horiz-adv-x="507" d="M123 0v1495h262v-1495h-262z" />
<glyph unicode="m" horiz-adv-x="1593" d="M123 0v963h256v-97q51 62 119 94.5t139 32.5q73 0 135.5 -35t101.5 -102q56 66 133 101.5t158 35.5q128 0 216.5 -89.5t88.5 -258.5v-645h-262v614q0 73 -38 113.5t-93 40.5q-60 0 -104.5 -47t-44.5 -127v-594h-262v614q0 72 -38.5 112t-92.5 40q-59 0 -104.5 -46 t-45.5 -126v-594h-262z" />
<glyph unicode="n" horiz-adv-x="1114" d="M123 0v963h262v-91q57 59 131 90t150 31q64 0 121.5 -23t103.5 -66.5t73 -114.5t27 -160v-629h-262v565q0 98 -47.5 148.5t-114.5 50.5q-75 0 -128.5 -56.5t-53.5 -170.5v-537h-262z" />
<glyph unicode="o" horiz-adv-x="1212" d="M82 479q0 105 40 199.5t109 164t166.5 110t208.5 40.5t208.5 -40t166.5 -108.5t109 -162.5t40 -199t-40 -199.5t-109 -164t-166.5 -110t-208.5 -40.5t-208.5 40t-166.5 108.5t-109 162.5t-40 199zM346 483q0 -115 74 -195.5t186 -80.5q114 0 188 78.5t74 193.5t-74.5 196 t-187.5 81t-186.5 -79t-73.5 -194z" />
<glyph unicode="p" horiz-adv-x="1245" d="M123 -479v1442h262v-101q118 131 301 131q200 0 338.5 -148t138.5 -364t-138.5 -364t-338.5 -148q-182 0 -301 129v-577h-262zM373 483q0 -114 74.5 -196t183.5 -82q116 0 192 78t76 196q0 119 -76.5 199t-191.5 80q-109 0 -183.5 -80.5t-74.5 -194.5z" />
<glyph unicode="q" horiz-adv-x="1245" d="M82 481q0 216 138.5 364t338.5 148q180 0 301 -131v101h262v-1442h-262v577q-120 -129 -301 -129q-200 0 -338.5 148t-138.5 364zM346 479q0 -118 76 -196t192 -78q109 0 183.5 82t74.5 196t-74.5 194.5t-183.5 80.5q-115 0 -191.5 -80t-76.5 -199z" />
<glyph unicode="r" horiz-adv-x="708" d="M127 0v963h262v-95q122 125 305 125v-237q-76 0 -129.5 -14.5t-94.5 -49.5t-61 -97.5t-20 -154.5v-440h-262z" />
<glyph unicode="s" horiz-adv-x="841" d="M45 125q16 26 64.5 94.5t58.5 83.5q74 -59 131 -88t119 -29q43 0 72.5 24t29.5 64q0 68 -110 105q-55 20 -96 38.5t-84 46.5t-70 59t-44.5 75.5t-17.5 97.5q0 74 33 133.5t85 94t109 52t113 17.5q182 0 332 -119l-127 -176q-104 78 -186 78q-43 0 -71 -21.5t-28 -58.5 q0 -59 103 -94q58 -21 94.5 -36.5t84 -44.5t74.5 -60.5t46.5 -79.5t19.5 -107q0 -131 -100.5 -218t-249.5 -87q-199 0 -385 156z" />
<glyph unicode="t" horiz-adv-x="772" d="M41 735v228h168v233h262v-233h260v-228h-260v-420q0 -51 24 -77.5t66 -26.5q43 0 101 25l86 -209q-104 -58 -218 -58q-141 0 -231 84t-90 250v432h-168z" />
<glyph unicode="u" horiz-adv-x="1110" d="M123 412v551h262v-568q0 -91 49 -139.5t121 -48.5t121 49.5t49 138.5v568h262v-551q0 -211 -123.5 -326t-308.5 -115q-90 0 -167.5 28t-137 81.5t-93.5 138.5t-34 193z" />
<glyph unicode="v" horiz-adv-x="1036" d="M-2 963h274l252 -572l248 572h266l-428 -963h-184z" />
<glyph unicode="w" horiz-adv-x="1556" d="M10 963h275l213 -553l190 553h189l190 -553l213 553h266l-377 -963h-196l-193 563l-192 -563h-201z" />
<glyph unicode="x" horiz-adv-x="1095" d="M27 0l360 485l-352 478h319l193 -271l194 271h308l-349 -467l369 -496h-319l-209 289l-209 -289h-305z" />
<glyph unicode="y" horiz-adv-x="1036" d="M-2 963h274l252 -572l248 572h266l-641 -1444h-268l256 573z" />
<glyph unicode="z" horiz-adv-x="925" d="M45 0l430 725h-393v238h795l-431 -725h416v-238h-817z" />
<glyph unicode="{" horiz-adv-x="632" d="M20 365v233q81 3 110.5 47.5t29.5 122.5v371q0 356 313 356h131v-235h-69q-115 0 -115 -113v-356q0 -93 -34.5 -173.5t-102.5 -134.5q66 -49 101.5 -121t35.5 -155v-391q0 -113 115 -113h69v-235h-131q-313 0 -313 356v407q0 57 -35 95t-105 39z" />
<glyph unicode="|" horiz-adv-x="499" d="M143 -512v2007h213v-2007h-213z" />
<glyph unicode="}" horiz-adv-x="632" d="M29 -297h69q56 0 85.5 29t29.5 84v356q0 93 35 174t104 135q-68 52 -103.5 134t-35.5 176v356q0 55 -29.5 84t-85.5 29h-69v235h131q313 0 313 -356v-408q0 -57 34.5 -93.5t104.5 -39.5v-233q-82 -3 -110.5 -47t-28.5 -123v-371q0 -356 -313 -356h-131v235z" />
<glyph unicode="~" horiz-adv-x="1187" d="M33 612q104 291 362 291q63 0 122 -20t96 -43.5t81.5 -43.5t81.5 -20q50 0 85 29.5t59 95.5l227 -84q-53 -148 -146 -220.5t-217 -72.5q-62 0 -121 20t-96 43.5t-82.5 43.5t-83.5 20q-95 0 -141 -123z" />
<glyph unicode="&#xa2;" horiz-adv-x="991" d="M82 477q0 178 107.5 316.5t279.5 181.5v225h240v-217q136 -28 252 -129l-160 -176q-47 41 -92 57v-510q44 19 92 60l160 -176q-116 -101 -252 -129v-218h-240v224q-172 41 -279.5 177t-107.5 314zM346 485q0 -76 33 -138.5t90 -100.5v471q-57 -34 -90 -95.5t-33 -136.5z " />
<glyph unicode="&#xa3;" horiz-adv-x="1187" d="M98 0l90 1038q10 112 53 197.5t110.5 136.5t149.5 76t177 25q134 0 243 -56.5t179 -148.5l-162 -172q-123 129 -256 129q-96 0 -149 -49t-62 -140l-16 -198h411v-238h-432l-31 -350h648v-250h-953z" />
<glyph unicode="&#xa5;" horiz-adv-x="1282" d="M-8 1442h313l342 -592l340 592h303l-278 -479h143v-230h-276l-82 -143h358v-232h-373v-358h-282v358h-373v232h358l-82 143h-276v230h143z" />
<glyph unicode="&#xa8;" horiz-adv-x="786" d="M20 1229q0 64 45.5 108.5t110.5 44.5t109.5 -44.5t44.5 -108.5q0 -65 -45 -110.5t-109 -45.5t-110 45.5t-46 110.5zM457 1229q0 65 44.5 109t110.5 44q65 0 109.5 -44.5t44.5 -108.5q0 -65 -45 -110.5t-109 -45.5q-66 0 -110.5 45.5t-44.5 110.5z" />
<glyph unicode="&#xa9;" horiz-adv-x="1622" d="M49 721q0 157 59.5 296.5t161.5 238.5t243 156.5t298 57.5t298 -57.5t243 -156.5t161.5 -238.5t59.5 -296.5q0 -209 -101 -381.5t-276 -270.5t-385 -98t-385 98t-276 270.5t-101 381.5zM215 719q0 -167 78.5 -304.5t215 -215.5t302.5 -78t302.5 78t215 215.5t78.5 304.5 q0 168 -78.5 306t-215 216t-302.5 78t-302.5 -78t-215 -216t-78.5 -306zM362 715q0 95 36 180.5t98.5 148t150.5 99.5t187 37q174 0 319 -125l-143 -160q-76 70 -176 70q-97 0 -165.5 -69.5t-68.5 -174.5q0 -106 69 -178t165 -72q98 0 176 72l143 -160q-141 -125 -319 -125 q-201 0 -336.5 132.5t-135.5 324.5z" />
<glyph unicode="&#xab;" horiz-adv-x="1052" d="M-4 496l348 462l197 -143l-242 -319l242 -320l-197 -145zM479 496l348 462l197 -143l-242 -319l242 -320l-197 -145z" />
<glyph unicode="&#xad;" horiz-adv-x="712" d="M61 401v211h590v-211h-590z" />
<glyph unicode="&#xae;" horiz-adv-x="1146" d="M66 1079q0 106 40.5 200.5t109 162.5t162.5 107.5t197 39.5q135 0 251.5 -67t185.5 -185t69 -258q0 -139 -69 -256t-185.5 -183.5t-251.5 -66.5q-138 0 -255 66.5t-185.5 183t-68.5 256.5zM197 1079q0 -163 108 -274t270 -111q159 0 267 111t108 274q0 164 -107.5 275.5 t-267.5 111.5q-162 0 -270 -111t-108 -276zM369 811v559h209q86 0 142 -46.5t56 -121.5q0 -53 -28 -91.5t-76 -57.5l145 -242h-162l-127 233l-16 -4v-229h-143zM512 1139h47q76 0 76 63q0 60 -76 60h-47v-123z" />
<glyph unicode="&#xb4;" horiz-adv-x="440" d="M20 1096l150 307h250l-189 -307h-211z" />
<glyph unicode="&#xb8;" horiz-adv-x="518" d="M20 -453l50 150q85 -39 131 -39q41 0 67.5 20t26.5 56q0 35 -25 55.5t-67 20.5q-23 0 -74 -17l57 207h166l-22 -78q74 -18 121 -73.5t47 -135.5q0 -96 -74.5 -158.5t-196.5 -62.5q-106 0 -207 55z" />
<glyph unicode="&#xbb;" horiz-adv-x="1052" d="M29 176l241 320l-241 319l196 146l348 -465l-348 -463zM512 176l242 320l-242 319l197 146l348 -465l-348 -463z" />
<glyph unicode="&#xc1;" horiz-adv-x="1419" d="M14 0l596 1442h201l594 -1442h-303l-133 342h-529l-133 -342h-293zM535 586h337l-167 434zM625 1556l174 277h260l-215 -277h-219z" />
<glyph unicode="&#xc9;" horiz-adv-x="950" d="M123 0v1442h768v-250h-485v-334h485v-237h-485v-371h485v-250h-768zM420 1556l174 277h260l-215 -277h-219z" />
<glyph unicode="&#xcd;" horiz-adv-x="522" d="M123 1556l174 277h260l-215 -277h-219zM125 0v1442h283v-1442h-283z" />
<glyph unicode="&#xd3;" horiz-adv-x="1708" d="M82 717q0 154 58.5 293.5t160 241t246 161.5t307.5 60q217 0 394.5 -100t277.5 -271t100 -377t-100 -379t-277.5 -275t-394.5 -102q-163 0 -307 58.5t-246 159t-160.5 238.5t-58.5 292zM369 725q0 -137 61 -252t173 -183.5t251 -68.5q212 0 348.5 143t136.5 353 q0 138 -60.5 252.5t-172.5 183t-252 68.5q-211 0 -348 -143t-137 -353zM758 1556l174 277h260l-215 -277h-219z" />
<glyph unicode="&#xda;" d="M123 551v891h283v-891q0 -154 85 -242t218 -88t218 85t85 239v897h282v-885q0 -268 -162.5 -428t-422.5 -160q-262 0 -424 157t-162 425zM600 1556l174 277h260l-215 -277h-219z" />
<glyph unicode="&#xdd;" horiz-adv-x="1282" d="M-8 1442h313l340 -592l342 592h303l-508 -877v-565h-282v567zM545 1556l174 277h260l-215 -277h-219z" />
<glyph unicode="&#xe1;" horiz-adv-x="1239" d="M82 481q0 216 138.5 364t338.5 148q183 0 301 -131v101h262v-963h-262v100q-118 -131 -301 -131q-200 0 -338.5 148t-138.5 364zM346 483q0 -119 76 -198.5t190 -79.5q111 0 185.5 80t74.5 194t-74.5 196.5t-185.5 82.5q-114 0 -190 -78.5t-76 -196.5zM494 1096l149 307 h250l-188 -307h-211z" />
<glyph unicode="&#xe9;" horiz-adv-x="1138" d="M82 477q0 142 65.5 260.5t179.5 187t251 68.5q219 0 349 -145t130 -367l-4 -84h-703q22 -93 86.5 -150t157.5 -57q133 0 254 121l151 -159q-168 -183 -405 -183q-226 0 -369 143.5t-143 364.5zM352 592h439q-21 88 -75.5 138t-137.5 50q-80 0 -140.5 -50.5t-85.5 -137.5z M494 1096l149 307h250l-188 -307h-211z" />
<glyph unicode="&#xed;" horiz-adv-x="491" d="M115 0v963h262v-963h-262zM115 1096l149 307h250l-188 -307h-211z" />
<glyph unicode="&#xf3;" horiz-adv-x="1212" d="M82 479q0 105 40 199.5t109 164t166.5 110t208.5 40.5t208.5 -40t166.5 -108.5t109 -162.5t40 -199t-40 -199.5t-109 -164t-166.5 -110t-208.5 -40.5t-208.5 40t-166.5 108.5t-109 162.5t-40 199zM346 483q0 -115 74 -195.5t186 -80.5q114 0 188 78.5t74 193.5t-74.5 196 t-187.5 81t-186.5 -79t-73.5 -194zM518 1096l150 307h250l-189 -307h-211z" />
<glyph unicode="&#xfa;" horiz-adv-x="1110" d="M123 412v551h262v-568q0 -91 49 -139.5t121 -48.5t121 49.5t49 138.5v568h262v-551q0 -211 -123.5 -326t-308.5 -115q-90 0 -167.5 28t-137 81.5t-93.5 138.5t-34 193zM446 1096l150 307h250l-189 -307h-211z" />
<glyph unicode="&#xfd;" horiz-adv-x="1036" d="M-2 963h274l252 -572l248 572h266l-641 -1444h-268l256 573zM410 1096l149 307h250l-188 -307h-211z" />
<glyph unicode="&#x100;" horiz-adv-x="1419" d="M14 0l596 1442h201l594 -1442h-303l-133 342h-529l-133 -342h-293zM395 1571v190h635v-190h-635zM535 586h337l-167 434z" />
<glyph unicode="&#x101;" horiz-adv-x="1239" d="M82 481q0 216 138.5 364t338.5 148q183 0 301 -131v101h262v-963h-262v100q-118 -131 -301 -131q-200 0 -338.5 148t-138.5 364zM297 1112v188h635v-188h-635zM346 483q0 -119 76 -198.5t190 -79.5q111 0 185.5 80t74.5 194t-74.5 196.5t-185.5 82.5q-114 0 -190 -78.5 t-76 -196.5z" />
<glyph unicode="&#x102;" horiz-adv-x="1419" d="M14 0l596 1442h201l594 -1442h-303l-133 342h-529l-133 -342h-293zM371 1845h178q6 -64 49 -101.5t109 -37.5q68 0 110.5 37.5t48.5 101.5h178q-7 -136 -101.5 -222.5t-235.5 -86.5q-140 0 -235 86.5t-101 222.5zM535 586h337l-167 434z" />
<glyph unicode="&#x103;" horiz-adv-x="1239" d="M82 481q0 216 138.5 364t338.5 148q183 0 301 -131v101h262v-963h-262v100q-118 -131 -301 -131q-200 0 -338.5 148t-138.5 364zM281 1413h176q3 -76 42.5 -126t112.5 -50q71 0 110 50t42 126h174q-2 -143 -91.5 -243.5t-234.5 -100.5q-148 0 -239.5 100.5t-91.5 243.5z M346 483q0 -119 76 -198.5t190 -79.5q111 0 185.5 80t74.5 194t-74.5 196.5t-185.5 82.5q-114 0 -190 -78.5t-76 -196.5z" />
<glyph unicode="&#x104;" horiz-adv-x="1431" d="M14 0l596 1442h201l594 -1442h-10q-156 -141 -156 -236q0 -34 18 -52.5t46 -18.5q49 0 100 45l125 -141q-114 -105 -248 -105q-111 0 -174.5 62t-63.5 157q0 73 39 149t115 140h-94l-133 342h-529l-133 -342h-293zM535 586h337l-167 434z" />
<glyph unicode="&#x105;" horiz-adv-x="1230" d="M82 481q0 216 138.5 364t338.5 148q183 0 301 -131v101h262v-963h-4q-155 -140 -155 -236q0 -34 17.5 -52.5t45.5 -18.5q49 0 100 45l125 -141q-114 -105 -247 -105q-111 0 -174.5 62t-63.5 157q0 73 39 149t115 140h-60v100q-118 -131 -301 -131q-200 0 -338.5 148 t-138.5 364zM346 483q0 -119 76 -198.5t190 -79.5q111 0 185.5 80t74.5 194t-74.5 196.5t-185.5 82.5q-114 0 -190 -78.5t-76 -196.5z" />
<glyph unicode="&#x106;" horiz-adv-x="1402" d="M78 717q0 154 58.5 293.5t160 241t246 161.5t307.5 60q289 0 522 -207l-170 -189q-156 144 -356 144q-133 0 -243.5 -64t-174 -178t-63.5 -254q0 -215 139 -359.5t342 -144.5q200 0 356 144l170 -189q-233 -207 -522 -207q-163 0 -307 58.5t-246 158.5t-160.5 238 t-58.5 293zM760 1556l174 277h260l-215 -277h-219z" />
<glyph unicode="&#x107;" horiz-adv-x="983" d="M82 477q0 140 67.5 258.5t188.5 188t268 69.5q199 0 355 -139l-160 -176q-84 78 -197 78q-108 0 -183 -76.5t-75 -194.5q0 -119 75.5 -198.5t182.5 -79.5q113 0 197 78l160 -176q-157 -140 -355 -140q-111 0 -208.5 40t-166.5 108t-109 161.5t-40 198.5zM500 1096 l149 307h250l-188 -307h-211z" />
<glyph unicode="&#x108;" horiz-adv-x="1421" d="M78 717q0 154 58.5 293.5t160 241t246 161.5t307.5 60q289 0 522 -207l-170 -189q-156 144 -356 144q-133 0 -243.5 -64t-174 -178t-63.5 -254q0 -215 139 -359.5t342 -144.5q200 0 356 144l170 -189q-233 -207 -522 -207q-163 0 -307 58.5t-246 158.5t-160.5 238 t-58.5 293zM471 1556l303 289h170l305 -289h-237l-154 115l-151 -115h-236z" />
<glyph unicode="&#x109;" horiz-adv-x="983" d="M82 477q0 140 67.5 258.5t188.5 188t268 69.5q199 0 355 -139l-160 -176q-84 78 -197 78q-108 0 -183 -76.5t-75 -194.5q0 -119 75.5 -198.5t182.5 -79.5q113 0 197 78l160 -176q-157 -140 -355 -140q-111 0 -208.5 40t-166.5 108t-109 161.5t-40 198.5zM233 1096 l261 313h178l262 -313h-217l-135 127l-133 -127h-216z" />
<glyph unicode="&#x10a;" horiz-adv-x="1421" d="M78 717q0 154 58.5 293.5t160 241t246 161.5t307.5 60q289 0 522 -207l-170 -189q-156 144 -356 144q-133 0 -243.5 -64t-174 -178t-63.5 -254q0 -215 139 -359.5t342 -144.5q200 0 356 144l170 -189q-233 -207 -522 -207q-163 0 -307 58.5t-246 158.5t-160.5 238 t-58.5 293zM690 1722q0 67 47 113.5t115 46.5t114 -46t46 -114q0 -69 -46 -115t-114 -46t-115 46t-47 115z" />
<glyph unicode="&#x10b;" horiz-adv-x="983" d="M82 477q0 140 67.5 258.5t188.5 188t268 69.5q199 0 355 -139l-160 -176q-84 78 -197 78q-108 0 -183 -76.5t-75 -194.5q0 -119 75.5 -198.5t182.5 -79.5q113 0 197 78l160 -176q-157 -140 -355 -140q-111 0 -208.5 40t-166.5 108t-109 161.5t-40 198.5zM432 1264 q0 67 47 113t115 46t114 -46t46 -113q0 -68 -46.5 -115t-113.5 -47q-68 0 -115 47t-47 115z" />
<glyph unicode="&#x10c;" horiz-adv-x="1402" d="M78 717q0 154 58.5 293.5t160 241t246 161.5t307.5 60q289 0 522 -207l-170 -189q-156 144 -356 144q-133 0 -243.5 -64t-174 -178t-63.5 -254q0 -215 139 -359.5t342 -144.5q200 0 356 144l170 -189q-233 -207 -522 -207q-163 0 -307 58.5t-246 158.5t-160.5 238 t-58.5 293zM457 1845h237l152 -116l153 116h236l-303 -289h-170z" />
<glyph unicode="&#x10d;" horiz-adv-x="987" d="M82 477q0 140 67.5 258.5t188.5 188t268 69.5q199 0 355 -139l-160 -176q-84 78 -197 78q-108 0 -183 -76.5t-75 -194.5q0 -119 75.5 -198.5t182.5 -79.5q113 0 197 78l160 -176q-157 -140 -355 -140q-111 0 -208.5 40t-166.5 108t-109 161.5t-40 198.5zM250 1409h217 l135 -129l133 129h215l-260 -313h-178z" />
<glyph unicode="&#x10e;" horiz-adv-x="1396" d="M123 0v1442h422q227 0 401 -86t271.5 -250t97.5 -383q0 -220 -97.5 -384.5t-271.5 -251.5t-401 -87h-422zM164 1845h237l152 -116l154 116h235l-303 -289h-170zM412 252h135q220 0 352.5 127t132.5 340q0 214 -132.5 342.5t-352.5 128.5h-135v-938z" />
<glyph unicode="&#x10f;" horiz-adv-x="1470" d="M82 481q0 216 138.5 364t338.5 148q183 0 301 -131v101h262v-963h-262v100q-118 -131 -301 -131q-200 0 -338.5 148t-138.5 364zM346 483q0 -119 76 -198.5t190 -79.5q111 0 185.5 80t74.5 194t-74.5 196.5t-185.5 82.5q-114 0 -190 -78.5t-76 -196.5zM860 963v532h262 v-532h-262zM1217 1096l65 413h213l-78 -413h-200z" />
<glyph unicode="&#x110;" horiz-adv-x="1468" d="M18 604v246h175v592h423q227 0 401 -86t271.5 -250t97.5 -383q0 -220 -97.5 -384.5t-271.5 -251.5t-401 -87h-423v604h-175zM481 252h135q222 0 354 127t132 340q0 214 -132.5 342.5t-353.5 128.5h-135v-340h307v-246h-307v-352z" />
<glyph unicode="&#x111;" horiz-adv-x="1290" d="M82 481q0 216 138.5 364t338.5 148q183 0 301 -131v271h-293v202h293v160h262v-160h183v-202h-183v-1133h-262v100q-118 -131 -301 -131q-200 0 -338.5 148t-138.5 364zM346 483q0 -119 76 -198.5t190 -79.5q111 0 185.5 80t74.5 194t-74.5 196.5t-185.5 82.5 q-114 0 -190 -78.5t-76 -196.5z" />
<glyph unicode="&#x112;" horiz-adv-x="950" d="M123 0v1442h768v-250h-485v-334h485v-237h-485v-371h485v-250h-768zM188 1571v190h635v-190h-635z" />
<glyph unicode="&#x113;" horiz-adv-x="1138" d="M82 477q0 142 65.5 260.5t179.5 187t251 68.5q219 0 349 -145t130 -367l-4 -84h-703q22 -93 86.5 -150t157.5 -57q133 0 254 121l151 -159q-168 -183 -405 -183q-226 0 -369 143.5t-143 364.5zM254 1112v188h635v-188h-635zM352 592h439q-21 88 -75.5 138t-137.5 50 q-80 0 -140.5 -50.5t-85.5 -137.5z" />
<glyph unicode="&#x114;" horiz-adv-x="968" d="M123 0v1442h768v-250h-485v-334h485v-237h-485v-371h485v-250h-768zM184 1845h178q6 -64 49 -101.5t109 -37.5q68 0 111 37.5t49 101.5h178q-7 -136 -102 -222.5t-236 -86.5q-140 0 -235 86.5t-101 222.5z" />
<glyph unicode="&#x115;" horiz-adv-x="1138" d="M82 477q0 142 65.5 260.5t179.5 187t251 68.5q219 0 349 -145t130 -367l-4 -84h-703q22 -93 86.5 -150t157.5 -57q133 0 254 121l151 -159q-168 -183 -405 -183q-226 0 -369 143.5t-143 364.5zM248 1413h176q3 -76 43 -126t113 -50q71 0 109.5 50t41.5 126h174 q-2 -143 -91 -243.5t-234 -100.5q-148 0 -240 100.5t-92 243.5zM352 592h439q-21 88 -75.5 138t-137.5 50q-80 0 -140.5 -50.5t-85.5 -137.5z" />
<glyph unicode="&#x116;" horiz-adv-x="950" d="M123 0v1442h768v-250h-485v-334h485v-237h-485v-371h485v-250h-768zM365 1722q0 67 46.5 113.5t114.5 46.5t114 -46t46 -114q0 -69 -46 -115t-114 -46t-114.5 46t-46.5 115z" />
<glyph unicode="&#x117;" horiz-adv-x="1138" d="M82 477q0 142 65.5 260.5t179.5 187t251 68.5q219 0 349 -145t130 -367l-4 -84h-703q22 -93 86.5 -150t157.5 -57q133 0 254 121l151 -159q-168 -183 -405 -183q-226 0 -369 143.5t-143 364.5zM352 592h439q-21 88 -75.5 138t-137.5 50q-80 0 -140.5 -50.5t-85.5 -137.5z M414 1264q0 67 46.5 113t114.5 46t114 -46t46 -113q0 -68 -46.5 -115t-113.5 -47t-114 47t-47 115z" />
<glyph unicode="&#x118;" horiz-adv-x="958" d="M123 0v1442h768v-250h-485v-334h485v-237h-485v-371h485v-250h-43q-156 -141 -156 -236q0 -34 18 -52.5t46 -18.5q49 0 100 45l125 -141q-114 -105 -248 -105q-111 0 -174 62t-63 157q0 73 38.5 149t114.5 140h-526z" />
<glyph unicode="&#x119;" horiz-adv-x="1138" d="M82 477q0 142 65.5 260.5t179.5 187t251 68.5q219 0 349 -145t130 -367l-4 -84h-701q21 -92 85 -149.5t157 -57.5q133 0 254 121l151 -159q-205 -200 -245 -246q-66 -74 -71 -126q-1 -8 -1 -16q0 -34 17.5 -52.5t45.5 -18.5q50 0 101 45l123 -141q-114 -105 -248 -105 q-109 0 -172.5 62t-63.5 157q0 135 119 260q-52 0 -98 9q-191 23 -307.5 161t-116.5 336zM352 592h436q-19 89 -72.5 138.5t-137.5 49.5q-78 0 -139.5 -51t-86.5 -137z" />
<glyph unicode="&#x11a;" horiz-adv-x="958" d="M125 1845h237l152 -116l154 116h235l-303 -289h-170zM129 0v1442h768v-250h-485v-334h485v-237h-485v-371h485v-250h-768z" />
<glyph unicode="&#x11b;" horiz-adv-x="1138" d="M82 477q0 142 65.5 260.5t179.5 187t251 68.5q219 0 349 -145t130 -367l-4 -84h-703q22 -93 86.5 -150t157.5 -57q133 0 254 121l151 -159q-168 -183 -405 -183q-226 0 -369 143.5t-143 364.5zM219 1407h217l135 -129l134 129h215l-261 -313h-178zM352 592h439 q-21 88 -75.5 138t-137.5 50q-80 0 -140.5 -50.5t-85.5 -137.5z" />
<glyph unicode="&#x11c;" horiz-adv-x="1540" d="M78 717q0 206 99.5 379t278 275t398.5 102q292 0 522 -207l-168 -189q-156 144 -358 144q-131 0 -242 -64t-177 -178.5t-66 -253.5q0 -137 62 -252t175.5 -183.5t253.5 -68.5q153 0 283 70v248h-275v252h557v-619q-114 -93 -260.5 -148t-310.5 -55t-308 58t-245.5 158 t-160 238.5t-58.5 293.5zM465 1556l303 289h170l305 -289h-237l-154 115l-152 -115h-235z" />
<glyph unicode="&#x11d;" horiz-adv-x="1245" d="M82 496q0 215 137 356t338 141q180 0 303 -133v103h262v-949q0 -162 -68 -281.5t-183.5 -180t-262.5 -60.5q-149 0 -279.5 79t-197.5 230l217 111q43 -89 113 -135.5t147 -46.5q111 0 181.5 70t70.5 196v125q-122 -125 -303 -125q-201 0 -338 142.5t-137 357.5zM274 1096 l261 313h178l262 -313h-217l-135 127l-134 -127h-215zM346 487q0 -119 75.5 -196.5t190.5 -77.5q110 0 185 76.5t75 189.5q0 114 -75.5 196.5t-184.5 82.5q-116 0 -191 -76.5t-75 -194.5z" />
<glyph unicode="&#x11e;" horiz-adv-x="1540" d="M78 717q0 206 99.5 379t278 275t398.5 102q292 0 522 -207l-168 -189q-156 144 -358 144q-131 0 -242 -64t-177 -178.5t-66 -253.5q0 -137 62 -252t175.5 -183.5t253.5 -68.5q153 0 283 70v248h-275v252h557v-619q-114 -93 -260.5 -148t-310.5 -55t-308 58t-245.5 158 t-160 238.5t-58.5 293.5zM512 1845h178q6 -64 49 -101.5t109 -37.5q68 0 111 37.5t49 101.5h178q-7 -136 -102 -222.5t-236 -86.5q-140 0 -235 86.5t-101 222.5z" />
<glyph unicode="&#x11f;" horiz-adv-x="1245" d="M82 496q0 215 137 356t338 141q180 0 303 -133v103h262v-949q0 -162 -68 -281.5t-183.5 -180t-262.5 -60.5q-149 0 -279.5 79t-197.5 230l217 111q43 -89 113 -135.5t147 -46.5q111 0 181.5 70t70.5 196v125q-122 -125 -303 -125q-201 0 -338 142.5t-137 357.5zM274 1413 h177q3 -76 42.5 -126t112.5 -50q71 0 110 50t42 126h174q-2 -143 -91.5 -243.5t-234.5 -100.5q-148 0 -240 100.5t-92 243.5zM346 487q0 -119 75.5 -196.5t190.5 -77.5q110 0 185 76.5t75 189.5q0 114 -75.5 196.5t-184.5 82.5q-116 0 -191 -76.5t-75 -194.5z" />
<glyph unicode="&#x120;" horiz-adv-x="1540" d="M78 717q0 206 99.5 379t278 275t398.5 102q292 0 522 -207l-168 -189q-156 144 -358 144q-131 0 -242 -64t-177 -178.5t-66 -253.5q0 -137 62 -252t175.5 -183.5t253.5 -68.5q153 0 283 70v248h-275v252h557v-619q-114 -93 -260.5 -148t-310.5 -55t-308 58t-245.5 158 t-160 238.5t-58.5 293.5zM686 1722q0 67 47 113.5t115 46.5t114 -46t46 -114q0 -69 -46 -115t-114 -46t-115 46t-47 115z" />
<glyph unicode="&#x121;" horiz-adv-x="1245" d="M82 496q0 215 137 356t338 141q180 0 303 -133v103h262v-949q0 -162 -68 -281.5t-183.5 -180t-262.5 -60.5q-149 0 -279.5 79t-197.5 230l217 111q43 -89 113 -135.5t147 -46.5q111 0 181.5 70t70.5 196v125q-122 -125 -303 -125q-201 0 -338 142.5t-137 357.5zM346 487 q0 -119 75.5 -196.5t190.5 -77.5q110 0 185 76.5t75 189.5q0 114 -75.5 196.5t-184.5 82.5q-116 0 -191 -76.5t-75 -194.5zM449 1264q0 67 46.5 113t114.5 46t114 -46t46 -113q0 -68 -46.5 -115t-113.5 -47t-114 47t-47 115z" />
<glyph unicode="&#x122;" horiz-adv-x="1540" d="M78 717q0 206 99.5 379t278 275t398.5 102q292 0 522 -207l-168 -189q-156 144 -358 144q-131 0 -242 -64t-177 -178.5t-66 -253.5q0 -137 62 -252t175.5 -183.5t253.5 -68.5q153 0 283 70v248h-275v252h557v-619q-114 -93 -260.5 -148t-310.5 -55t-308 58t-245.5 158 t-160 238.5t-58.5 293.5zM621 -479l96 332h227l-115 -332h-208z" />
<glyph unicode="&#x123;" horiz-adv-x="1245" d="M82 496q0 215 137 356t338 141q180 0 303 -133v103h262v-949q0 -162 -68 -281.5t-183.5 -180t-262.5 -60.5q-149 0 -279.5 79t-197.5 230l217 111q43 -89 113 -135.5t147 -46.5q111 0 181.5 70t70.5 196v125q-122 -125 -303 -125q-201 0 -338 142.5t-137 357.5zM346 487 q0 -119 75.5 -196.5t190.5 -77.5q110 0 185 76.5t75 189.5q0 114 -75.5 196.5t-184.5 82.5q-116 0 -191 -76.5t-75 -194.5zM473 1096l105 307h210l-88 -307h-227z" />
<glyph unicode="&#x124;" d="M123 0v1442h283v-576h606v576h282v-1442h-282v614h-606v-614h-283zM319 1556l304 289h170l305 -289h-238l-153 115l-152 -115h-236z" />
<glyph unicode="&#x125;" horiz-adv-x="1093" d="M-137 1561l303 284h170l303 -284h-238l-151 112l-154 -112h-233zM123 0v1495h262v-623q57 59 131 90t150 31q64 0 121.5 -23t103.5 -66.5t73 -114.5t27 -160v-629h-262v565q0 98 -47.5 148.5t-114.5 50.5q-75 0 -128.5 -56.5t-53.5 -170.5v-537h-262z" />
<glyph unicode="&#x126;" horiz-adv-x="1409" d="M-27 1112v188h146v142h282v-142h607v142h282v-142h144v-188h-144v-1112h-282v614h-607v-614h-282v1112h-146zM401 866h607v246h-607v-246z" />
<glyph unicode="&#x127;" horiz-adv-x="1110" d="M-57 1128v191h180v176h262v-176h305v-191h-305v-256q57 59 131 90t150 31q64 0 121.5 -23t103.5 -66.5t73 -114.5t27 -160v-629h-262v565q0 98 -47.5 148.5t-114.5 50.5q-75 0 -128.5 -56.5t-53.5 -170.5v-537h-262v1128h-180z" />
<glyph unicode="&#x128;" horiz-adv-x="520" d="M-111 1602q32 98 96 153t156 55q47 0 93 -21.5t84.5 -43t66.5 -21.5q36 0 58.5 20t39.5 66l160 -65q-32 -97 -96.5 -152t-155.5 -55q-46 0 -93 21.5t-86 43t-67 21.5q-35 0 -57 -20t-39 -66zM119 0v1442h282v-1442h-282z" />
<glyph unicode="&#x129;" horiz-adv-x="475" d="M-137 1155q72 203 248 203q48 0 94 -20t84.5 -40t68.5 -20q71 0 97 80l161 -70q-35 -100 -99 -151.5t-150 -51.5q-47 0 -93 20t-84.5 40t-68.5 20q-35 0 -58 -18t-40 -62zM106 0v963h263v-963h-263z" />
<glyph unicode="&#x12a;" horiz-adv-x="512" d="M8 1571v190h496v-190h-496zM115 0v1442h282v-1442h-282z" />
<glyph unicode="&#x12b;" horiz-adv-x="479" d="M-2 1112v188h481v-188h-481zM104 0v963h263v-963h-263z" />
<glyph unicode="&#x12c;" horiz-adv-x="520" d="M-76 1845h178q6 -64 49 -101.5t109 -37.5q68 0 111 37.5t49 101.5h178q-7 -136 -102 -222.5t-236 -86.5q-140 0 -235 86.5t-101 222.5zM119 0v1442h282v-1442h-282z" />
<glyph unicode="&#x12d;" horiz-adv-x="475" d="M-92 1413h176q3 -76 43 -126t113 -50q71 0 109.5 50t41.5 126h174q-2 -143 -91 -243.5t-234 -100.5q-148 0 -240 100.5t-92 243.5zM106 0v963h263v-963h-263z" />
<glyph unicode="&#x12e;" horiz-adv-x="512" d="M45 -289q0 73 39 149t115 140h-84v1442h282v-1442q-155 -140 -155 -236q0 -34 17.5 -52.5t45.5 -18.5q50 0 101 45l124 -141q-114 -105 -247 -105q-111 0 -174.5 62t-63.5 157z" />
<glyph unicode="&#x12f;" horiz-adv-x="485" d="M8 -289q0 73 39 149t115 140h-60v963h263v-963h-5q-155 -140 -155 -236q0 -34 17.5 -52.5t45.5 -18.5q50 0 101 45l125 -141q-114 -105 -248 -105q-111 0 -174.5 62t-63.5 157zM82 1264q0 67 47 113t115 46t113.5 -45.5t45.5 -113.5t-46 -115t-113 -47q-68 0 -115 47 t-47 115z" />
<glyph unicode="&#x130;" horiz-adv-x="512" d="M96 1722q0 67 47 113.5t115 46.5t114 -46t46 -114q0 -69 -46 -115t-114 -46t-115 46t-47 115zM115 0v1442h282v-1442h-282z" />
<glyph unicode="&#x131;" horiz-adv-x="499" d="M119 0v963h262v-963h-262z" />
<glyph unicode="&#x132;" horiz-adv-x="1312" d="M123 0v1442h283v-1442h-283zM504 43l121 209q57 -33 110 -33q81 0 126.5 53.5t45.5 147.5v1022h283v-1018q0 -105 -34.5 -192.5t-93.5 -144t-135.5 -87.5t-162.5 -31q-140 0 -260 74z" />
<glyph unicode="&#x133;" horiz-adv-x="964" d="M76 1264q0 67 47 113t115 46t113.5 -45.5t45.5 -113.5t-46 -115t-113 -47q-68 0 -115 47t-47 115zM104 0v963h263v-963h-263zM563 1264q0 67 47 113t115 46t114 -46t46 -113q0 -68 -46.5 -115t-113.5 -47t-114.5 47t-47.5 115zM590 -479v1442h262v-1442h-262z" />
<glyph unicode="&#x134;" horiz-adv-x="780" d="M-14 43l120 209q57 -33 111 -33q81 0 126.5 53.5t45.5 147.5v1022h283v-1018q0 -105 -34.5 -192.5t-93.5 -144t-135.5 -87.5t-162.5 -31q-140 0 -260 74zM145 1556l304 289h169l306 -289h-238l-154 115l-151 -115h-236z" />
<glyph unicode="&#x135;" horiz-adv-x="503" d="M-98 1096l260 313h178l262 -313h-217l-135 127l-133 -127h-215zM121 -479v1442h262v-1442h-262z" />
<glyph unicode="&#x136;" horiz-adv-x="1257" d="M123 0v1442h283v-606l466 606h314l-527 -670l584 -772h-336l-501 672v-672h-283zM428 -479l96 332h228l-115 -332h-209z" />
<glyph unicode="&#x137;" horiz-adv-x="1064" d="M123 0v1495h262v-895l301 363h307l-368 -422l428 -541h-310l-358 469v-469h-262zM336 -479l96 332h227l-114 -332h-209z" />
<glyph unicode="&#x138;" horiz-adv-x="1052" d="M123 0v963h262v-363l301 363h307l-368 -422l428 -541h-310l-358 469v-469h-262z" />
<glyph unicode="&#x139;" horiz-adv-x="862" d="M123 0v1442h283v-1192h419v-250h-702zM154 1556l174 277h260l-215 -277h-219z" />
<glyph unicode="&#x13a;" horiz-adv-x="507" d="M123 0v1495h262v-1495h-262zM123 1575l151 264h236l-178 -264h-209z" />
<glyph unicode="&#x13b;" horiz-adv-x="845" d="M123 0v1442h283v-1192h419v-250h-702zM276 -479l97 332h227l-115 -332h-209z" />
<glyph unicode="&#x13c;" horiz-adv-x="499" d="M37 -479l96 332h227l-114 -332h-209zM119 0v1495h262v-1495h-262z" />
<glyph unicode="&#x13d;" horiz-adv-x="862" d="M123 0v1442h283v-1192h419v-250h-702zM524 1096l64 413h213l-78 -413h-199z" />
<glyph unicode="&#x13e;" horiz-adv-x="724" d="M123 0v1495h262v-1495h-262zM479 1096l64 413h213l-78 -413h-199z" />
<glyph unicode="&#x13f;" horiz-adv-x="858" d="M123 0v1442h283v-1192h419v-250h-702zM537 721q0 64 45 108.5t108 44.5q65 0 109.5 -44.5t44.5 -108.5q0 -63 -45 -108.5t-109 -45.5q-63 0 -108 45.5t-45 108.5z" />
<glyph unicode="&#x140;" horiz-adv-x="849" d="M123 0v1495h262v-1495h-262zM518 721q0 64 45.5 108.5t108.5 44.5q64 0 108.5 -44t44.5 -109q0 -63 -44.5 -108.5t-108.5 -45.5q-63 0 -108.5 45.5t-45.5 108.5z" />
<glyph unicode="&#x141;" horiz-adv-x="894" d="M0 451v239l172 76v676h283v-553l323 143v-239l-323 -144v-399h419v-250h-702v526z" />
<glyph unicode="&#x142;" horiz-adv-x="571" d="M0 502v241l154 68v684h262v-571l155 69v-239l-155 -70v-684h-262v569z" />
<glyph unicode="&#x143;" horiz-adv-x="1589" d="M123 0v1442h201l860 -930v930h282v-1442h-198l-862 956v-956h-283zM614 1556l174 277h261l-215 -277h-220z" />
<glyph unicode="&#x144;" horiz-adv-x="1114" d="M123 0v963h262v-91q57 59 131 90t150 31q64 0 121.5 -23t103.5 -66.5t73 -114.5t27 -160v-629h-262v565q0 98 -47.5 148.5t-114.5 50.5q-75 0 -128.5 -56.5t-53.5 -170.5v-537h-262zM487 1096l150 307h250l-189 -307h-211z" />
<glyph unicode="&#x145;" horiz-adv-x="1589" d="M123 0v1442h201l860 -930v930h282v-1442h-198l-862 956v-956h-283zM586 -479l96 332h227l-114 -332h-209z" />
<glyph unicode="&#x146;" horiz-adv-x="1114" d="M123 0v963h262v-91q57 59 131 90t150 31q64 0 121.5 -23t103.5 -66.5t73 -114.5t27 -160v-629h-262v565q0 98 -47.5 148.5t-114.5 50.5q-75 0 -128.5 -56.5t-53.5 -170.5v-537h-262zM352 -479l97 332h227l-115 -332h-209z" />
<glyph unicode="&#x147;" horiz-adv-x="1589" d="M123 0v1442h201l860 -930v930h282v-1442h-198l-862 956v-956h-283zM410 1845h237l152 -116l153 116h236l-303 -289h-170z" />
<glyph unicode="&#x148;" horiz-adv-x="1114" d="M123 0v963h262v-91q57 59 131 90t150 31q64 0 121.5 -23t103.5 -66.5t73 -114.5t27 -160v-629h-262v565q0 98 -47.5 148.5t-114.5 50.5q-75 0 -128.5 -56.5t-53.5 -170.5v-537h-262zM213 1409h217l135 -129l133 129h215l-260 -313h-178z" />
<glyph unicode="&#x149;" horiz-adv-x="1114" d="M123 0v963h262v-91q57 59 131 90t150 31q64 0 121.5 -23t103.5 -66.5t73 -114.5t27 -160v-629h-262v565q0 98 -47.5 148.5t-114.5 50.5q-75 0 -128.5 -56.5t-53.5 -170.5v-537h-262zM135 1087v408h238v-408h-238z" />
<glyph unicode="&#x14a;" horiz-adv-x="1589" d="M123 0v1442h201l860 -930v930h282v-1495q0 -105 -34.5 -192.5t-92.5 -144t-134.5 -87.5t-162.5 -31q-140 0 -260 74l121 209q57 -33 111 -33q81 0 126.5 53.5t45.5 147.5v147l-780 866v-956h-283z" />
<glyph unicode="&#x14b;" horiz-adv-x="1114" d="M123 0v963h262v-91q57 59 131 90t150 31q64 0 121.5 -23t103.5 -66.5t73 -114.5t27 -160v-1108h-262v1044q0 98 -47.5 148.5t-114.5 50.5q-75 0 -128.5 -56.5t-53.5 -170.5v-537h-262z" />
<glyph unicode="&#x14c;" horiz-adv-x="1708" d="M82 717q0 154 58.5 293.5t160 241t246 161.5t307.5 60q217 0 394.5 -100t277.5 -271t100 -377t-100 -379t-277.5 -275t-394.5 -102q-163 0 -307 58.5t-246 159t-160.5 238.5t-58.5 292zM369 725q0 -137 61 -252t173 -183.5t251 -68.5q212 0 348.5 143t136.5 353 q0 138 -60.5 252.5t-172.5 183t-252 68.5q-211 0 -348 -143t-137 -353zM537 1571v190h634v-190h-634z" />
<glyph unicode="&#x14d;" horiz-adv-x="1212" d="M82 479q0 105 40 199.5t109 164t166.5 110t208.5 40.5t208.5 -40t166.5 -108.5t109 -162.5t40 -199t-40 -199.5t-109 -164t-166.5 -110t-208.5 -40.5t-208.5 40t-166.5 108.5t-109 162.5t-40 199zM289 1112v188h635v-188h-635zM346 483q0 -115 74 -195.5t186 -80.5 q114 0 188 78.5t74 193.5t-74.5 196t-187.5 81t-186.5 -79t-73.5 -194z" />
<glyph unicode="&#x14e;" horiz-adv-x="1708" d="M82 717q0 154 58.5 293.5t160 241t246 161.5t307.5 60q217 0 394.5 -100t277.5 -271t100 -377t-100 -379t-277.5 -275t-394.5 -102q-163 0 -307 58.5t-246 159t-160.5 238.5t-58.5 292zM369 725q0 -137 61 -252t173 -183.5t251 -68.5q212 0 348.5 143t136.5 353 q0 138 -60.5 252.5t-172.5 183t-252 68.5q-211 0 -348 -143t-137 -353zM516 1845h178q6 -64 49 -101.5t109 -37.5q68 0 111 37.5t49 101.5h178q-7 -136 -102 -222.5t-236 -86.5q-140 0 -235 86.5t-101 222.5z" />
<glyph unicode="&#x14f;" horiz-adv-x="1212" d="M82 479q0 105 40 199.5t109 164t166.5 110t208.5 40.5t208.5 -40t166.5 -108.5t109 -162.5t40 -199t-40 -199.5t-109 -164t-166.5 -110t-208.5 -40.5t-208.5 40t-166.5 108.5t-109 162.5t-40 199zM276 1413h177q3 -76 42.5 -126t112.5 -50q71 0 110 50t42 126h174 q-2 -143 -91.5 -243.5t-234.5 -100.5q-148 0 -240 100.5t-92 243.5zM346 483q0 -115 74 -195.5t186 -80.5q114 0 188 78.5t74 193.5t-74.5 196t-187.5 81t-186.5 -79t-73.5 -194z" />
<glyph unicode="&#x150;" horiz-adv-x="1708" d="M82 717q0 154 58.5 293.5t160 241t246 161.5t307.5 60q217 0 394.5 -100t277.5 -271t100 -377t-100 -379t-277.5 -275t-394.5 -102q-163 0 -307 58.5t-246 159t-160.5 238.5t-58.5 292zM369 725q0 -137 61 -252t173 -183.5t251 -68.5q212 0 348.5 143t136.5 353 q0 138 -60.5 252.5t-172.5 183t-252 68.5q-211 0 -348 -143t-137 -353zM567 1556l172 277h244l-188 -277h-228zM948 1556l172 277h254l-209 -277h-217z" />
<glyph unicode="&#x151;" horiz-adv-x="1212" d="M82 479q0 105 40 199.5t109 164t166.5 110t208.5 40.5t208.5 -40t166.5 -108.5t109 -162.5t40 -199t-40 -199.5t-109 -164t-166.5 -110t-208.5 -40.5t-208.5 40t-166.5 108.5t-109 162.5t-40 199zM342 1096l154 307h221l-160 -307h-215zM346 483q0 -115 74 -195.5 t186 -80.5q114 0 188 78.5t74 193.5t-74.5 196t-187.5 81t-186.5 -79t-73.5 -194zM688 1096l154 307h243l-180 -307h-217z" />
<glyph unicode="&#x152;" horiz-adv-x="2148" d="M82 717q0 153 55.5 289.5t153.5 237t241 159.5t308 59q282 0 477 -182v162h770v-250h-488v-334h488v-237h-488v-371h488v-250h-770v164q-194 -184 -477 -184q-166 0 -308.5 57.5t-240.5 157t-153.5 234.5t-55.5 288zM369 723q0 -134 60 -247t169 -180t244 -67 q202 0 334.5 133t140.5 332v41q-8 199 -141.5 336t-333.5 137q-135 0 -244 -64.5t-169 -175.5t-60 -245z" />
<glyph unicode="&#x153;" horiz-adv-x="1923" d="M82 479q0 105 40 199.5t109 164t166.5 110t208.5 40.5q116 0 215.5 -49.5t165.5 -134.5q69 87 166 135.5t209 48.5q205 0 332.5 -127.5t142.5 -326.5q2 -18 2 -43.5t-1 -50.5t-1 -29l-10 2q2 -10 10 -21h-702q22 -94 86 -150.5t157 -56.5q133 0 254 121l152 -159 q-168 -183 -406 -183q-120 0 -220 45.5t-169 126.5q-2 -2 -2 -8q-71 -77 -169.5 -120.5t-211.5 -43.5q-111 0 -208.5 40t-166.5 108.5t-109 162.5t-40 199zM346 483q0 -115 74 -195.5t186 -80.5q114 0 188 78.5t74 193.5t-74.5 196t-187.5 81t-186.5 -79t-73.5 -194z M1139 592h434q-28 119 -125 145q-68 43 -148 25q-55 -12 -98 -57t-63 -113z" />
<glyph unicode="&#x154;" horiz-adv-x="1167" d="M119 0v1442h459q217 0 354 -117t137 -315q0 -153 -83.5 -260.5t-227.5 -151.5l416 -598h-330l-414 616l-8 2l-21 -10v-608h-282zM383 1556l174 277h260l-215 -277h-219zM401 813h174q97 0 154 54t57 141t-57 140.5t-154 53.5h-174v-389z" />
<glyph unicode="&#x155;" horiz-adv-x="694" d="M127 0v963h262v-95q122 125 305 125v-237q-76 0 -129.5 -14.5t-94.5 -49.5t-61 -97.5t-20 -154.5v-440h-262zM322 1096l149 307h250l-189 -307h-210z" />
<glyph unicode="&#x156;" horiz-adv-x="1167" d="M119 0v1442h459q217 0 354 -117t137 -315q0 -153 -83.5 -260.5t-227.5 -151.5l416 -598h-330l-414 616l-8 2l-21 -10v-608h-282zM401 813h174q97 0 154 54t57 141t-57 140.5t-154 53.5h-174v-389zM406 -479l96 332h227l-115 -332h-208z" />
<glyph unicode="&#x157;" horiz-adv-x="698" d="M49 -479l96 332h228l-115 -332h-209zM131 0v963h262v-95q122 125 305 125v-237q-76 0 -129.5 -14.5t-94.5 -49.5t-61 -97.5t-20 -154.5v-440h-262z" />
<glyph unicode="&#x158;" horiz-adv-x="1167" d="M119 0v1442h459q217 0 354 -117t137 -315q0 -153 -83.5 -260.5t-227.5 -151.5l416 -598h-330l-414 616l-8 2l-21 -10v-608h-282zM147 1845h238l152 -116l153 116h236l-303 -289h-170zM401 813h174q97 0 154 54t57 141t-57 140.5t-154 53.5h-174v-389z" />
<glyph unicode="&#x159;" horiz-adv-x="690" d="M45 1409h217l135 -129l133 129h215l-260 -313h-178zM123 0v963h262v-95q122 125 305 125v-237q-76 0 -129.5 -14.5t-94.5 -49.5t-61 -97.5t-20 -154.5v-440h-262z" />
<glyph unicode="&#x15a;" horiz-adv-x="1122" d="M49 184l144 201q101 -84 188.5 -127t181.5 -43q92 0 151.5 48.5t59.5 129.5q0 74 -50 122t-153 87q-45 17 -67 25.5t-65.5 27t-67.5 32.5t-61 38t-58.5 46.5t-47 55t-39 66.5t-23 77.5t-9.5 92.5q0 96 43 175.5t112.5 129.5t155 77.5t174.5 27.5q119 0 233 -46.5 t206 -119.5l-146 -201q-68 54 -147 87.5t-146 33.5q-92 0 -146 -45t-54 -119q0 -68 51 -112t156 -85q51 -21 82 -34.5t82 -40t83.5 -50.5t71 -61.5t60.5 -77.5t37.5 -94t15.5 -115q0 -190 -141.5 -307t-352.5 -117q-107 0 -214 37.5t-174 81t-126 96.5zM510 1556l174 277 h260l-215 -277h-219z" />
<glyph unicode="&#x15b;" horiz-adv-x="845" d="M49 125q16 26 64.5 94.5t58.5 83.5q74 -59 131 -88t119 -29q43 0 72.5 24t29.5 64q0 68 -110 105q-55 20 -96 38.5t-84 46.5t-70 59t-44.5 75.5t-17.5 97.5q0 74 33 133.5t85 94t109 52t113 17.5q182 0 332 -119l-127 -176q-104 78 -186 78q-43 0 -71 -21.5t-28 -58.5 q0 -59 103 -94q58 -21 94.5 -36.5t84 -44.5t74.5 -60.5t46.5 -79.5t19.5 -107q0 -131 -100.5 -218t-249.5 -87q-199 0 -385 156zM342 1096l150 307h249l-188 -307h-211z" />
<glyph unicode="&#x15c;" horiz-adv-x="1126" d="M53 184l144 201q101 -84 188.5 -127t181.5 -43q92 0 151.5 48.5t59.5 129.5q0 74 -50 122t-153 87q-45 17 -67 25.5t-65.5 27t-67.5 32.5t-61 38t-58.5 46.5t-47 55t-39 66.5t-23 77.5t-9.5 92.5q0 96 43 175.5t113 129.5t155.5 77.5t174.5 27.5q119 0 232.5 -46.5 t205.5 -119.5l-146 -201q-68 54 -146.5 87.5t-145.5 33.5q-92 0 -146.5 -45t-54.5 -119q0 -68 51 -112t156 -85q51 -21 82 -34.5t82 -40t83.5 -50.5t71 -61.5t60.5 -77.5t37.5 -94t15.5 -115q0 -190 -141.5 -307t-352.5 -117q-107 0 -214 37.5t-174 81t-126 96.5zM240 1556 l303 289h170l305 -289h-238l-153 115l-152 -115h-235z" />
<glyph unicode="&#x15d;" horiz-adv-x="845" d="M49 125q16 26 64.5 94.5t58.5 83.5q74 -59 131 -88t119 -29q43 0 72.5 24t29.5 64q0 68 -110 105q-55 20 -96 38.5t-84 46.5t-70 59t-44.5 75.5t-17.5 97.5q0 74 33 133.5t85 94t109 52t113 17.5q182 0 332 -119l-127 -176q-104 78 -186 78q-43 0 -71 -21.5t-28 -58.5 q0 -59 103 -94q58 -21 94.5 -36.5t84 -44.5t74.5 -60.5t46.5 -79.5t19.5 -107q0 -131 -100.5 -218t-249.5 -87q-199 0 -385 156zM74 1096l260 313h178l262 -313h-217l-135 127l-133 -127h-215z" />
<glyph unicode="&#x15e;" horiz-adv-x="1122" d="M53 184l144 201q101 -84 188.5 -127t181.5 -43q92 0 151.5 48.5t59.5 129.5q0 74 -50 122t-153 87q-45 17 -67 25.5t-65.5 27t-67.5 32.5t-61 38t-58.5 46.5t-47 55t-39 66.5t-23 77.5t-9.5 92.5q0 96 43 175.5t113 129.5t155.5 77.5t174.5 27.5q119 0 232.5 -46.5 t205.5 -119.5l-146 -201q-68 54 -146.5 87.5t-145.5 33.5q-92 0 -146.5 -45t-54.5 -119q0 -68 51 -112t156 -85q51 -21 82 -34.5t82 -40t83.5 -50.5t71 -61.5t60.5 -77.5t37.5 -94t15.5 -115q0 -169 -114 -281.5t-294 -136.5l-14 -53q74 -18 121 -73.5t47 -135.5 q0 -96 -74 -158.5t-196 -62.5q-106 0 -207 55l49 150q85 -39 131 -39q41 0 67.5 20t26.5 56q0 35 -25 55.5t-67 20.5q-23 0 -74 -17l49 180q-235 30 -434 211z" />
<glyph unicode="&#x15f;" horiz-adv-x="845" d="M49 125q16 26 64.5 94.5t58.5 83.5q74 -59 131 -88t119 -29q43 0 72.5 24t29.5 64q0 68 -110 105q-55 20 -96 38.5t-84 46.5t-70 59t-44.5 75.5t-17.5 97.5q0 74 33 133.5t85 94t109 52t113 17.5q182 0 332 -119l-127 -176q-104 78 -186 78q-43 0 -71 -21.5t-28 -58.5 q0 -59 103 -94q58 -21 94.5 -36.5t84 -44.5t74.5 -60.5t46.5 -79.5t19.5 -107q0 -117 -82 -200.5t-210 -100.5l-15 -51q74 -18 121 -73.5t47 -135.5q0 -96 -74 -158.5t-196 -62.5q-106 0 -207 55l49 150q85 -39 131 -39q41 0 67.5 20t26.5 56q0 35 -25 55.5t-67 20.5 q-23 0 -74 -17l52 187q-141 30 -279 145z" />
<glyph unicode="&#x160;" horiz-adv-x="1122" d="M49 184l144 201q101 -84 188.5 -127t181.5 -43q92 0 151.5 48.5t59.5 129.5q0 74 -50 122t-153 87q-45 17 -67 25.5t-65.5 27t-67.5 32.5t-61 38t-58.5 46.5t-47 55t-39 66.5t-23 77.5t-9.5 92.5q0 96 43 175.5t112.5 129.5t155 77.5t174.5 27.5q119 0 233 -46.5 t206 -119.5l-146 -201q-68 54 -147 87.5t-146 33.5q-92 0 -146 -45t-54 -119q0 -68 51 -112t156 -85q51 -21 82 -34.5t82 -40t83.5 -50.5t71 -61.5t60.5 -77.5t37.5 -94t15.5 -115q0 -190 -141.5 -307t-352.5 -117q-107 0 -214 37.5t-174 81t-126 96.5zM225 1845h238 l151 -116l154 116h236l-304 -289h-170z" />
<glyph unicode="&#x161;" horiz-adv-x="845" d="M49 125q16 26 64.5 94.5t58.5 83.5q74 -59 131 -88t119 -29q43 0 72.5 24t29.5 64q0 68 -110 105q-55 20 -96 38.5t-84 46.5t-70 59t-44.5 75.5t-17.5 97.5q0 74 33 133.5t85 94t109 52t113 17.5q182 0 332 -119l-127 -176q-104 78 -186 78q-43 0 -71 -21.5t-28 -58.5 q0 -59 103 -94q58 -21 94.5 -36.5t84 -44.5t74.5 -60.5t46.5 -79.5t19.5 -107q0 -131 -100.5 -218t-249.5 -87q-199 0 -385 156zM86 1409h217l135 -129l133 129h215l-260 -313h-178z" />
<glyph unicode="&#x162;" horiz-adv-x="972" d="M20 1190v252h932v-252h-325v-1190l-23 -78q74 -18 121 -73.5t47 -135.5q0 -96 -74 -158.5t-196 -62.5q-106 0 -207 55l49 150q85 -39 131 -39q41 0 67.5 20t26.5 56q0 35 -25 55.5t-67 20.5q-23 0 -74 -17l58 207h-117v1190h-324z" />
<glyph unicode="&#x163;" horiz-adv-x="745" d="M31 735v228h168v233h262v-233h260v-228h-260v-420q0 -51 24 -77.5t66 -26.5t100 25l86 -209q-87 -48 -178 -56l-14 -49q74 -18 121 -73.5t47 -135.5q0 -96 -74.5 -158.5t-196.5 -62.5q-105 0 -206 55l49 150q85 -39 131 -39q41 0 67.5 20t26.5 56q0 35 -25 55.5t-67 20.5 q-23 0 -74 -17l53 195q-92 31 -145 109.5t-53 205.5v432h-168z" />
<glyph unicode="&#x164;" horiz-adv-x="972" d="M20 1190v252h932v-252h-325v-1190h-283v1190h-324zM98 1845h238l151 -116l154 116h236l-304 -289h-170z" />
<glyph unicode="&#x165;" horiz-adv-x="792" d="M29 735v228h168v233h262v-233h260v-228h-260v-420q0 -51 24 -77.5t66 -26.5t100 25l86 -209q-104 -58 -217 -58q-141 0 -231 84t-90 250v432h-168zM555 1096l63 413h213l-77 -413h-199z" />
<glyph unicode="&#x166;" horiz-adv-x="972" d="M20 1190v252h932v-252h-325v-375h260v-188h-260v-627h-283v627h-260v188h260v375h-324z" />
<glyph unicode="&#x167;" horiz-adv-x="747" d="M29 408v190h168v137h-168v228h168v233h262v-233h260v-228h-260v-137h260v-190h-260v-93q0 -51 24 -77.5t66 -26.5t100 25l86 -209q-104 -58 -217 -58q-141 0 -231 84t-90 250v105h-168z" />
<glyph unicode="&#x168;" d="M123 551v891h283v-891q0 -154 85 -242t218 -88t218 85t85 239v897h282v-885q0 -268 -162.5 -428t-422.5 -160q-262 0 -424 157t-162 425zM336 1602q32 98 96 153t156 55q46 0 92 -21.5t84.5 -43t66.5 -21.5q36 0 59 20t40 66l160 -65q-32 -97 -96.5 -152t-155.5 -55 q-46 0 -93 21.5t-86 43t-67 21.5q-35 0 -57 -20t-39 -66z" />
<glyph unicode="&#x169;" horiz-adv-x="1110" d="M123 412v551h262v-568q0 -91 49 -139.5t121 -48.5t121 49.5t49 138.5v568h262v-551q0 -211 -123.5 -326t-308.5 -115q-90 0 -167.5 28t-137 81.5t-93.5 138.5t-34 193zM193 1155q72 203 247 203q48 0 94.5 -20t85 -40t68.5 -20q35 0 58.5 18t37.5 62l162 -70 q-35 -99 -99 -151t-151 -52q-47 0 -92.5 20t-84 40t-68.5 20q-35 0 -58.5 -18t-40.5 -62z" />
<glyph unicode="&#x16a;" d="M123 551v891h283v-891q0 -154 85 -242t218 -88t218 85t85 239v897h282v-885q0 -268 -162.5 -428t-422.5 -160q-262 0 -424 157t-162 425zM393 1571v190h635v-190h-635z" />
<glyph unicode="&#x16b;" horiz-adv-x="1110" d="M123 412v551h262v-568q0 -91 49 -139.5t121 -48.5t121 49.5t49 138.5v568h262v-551q0 -211 -123.5 -326t-308.5 -115q-90 0 -167.5 28t-137 81.5t-93.5 138.5t-34 193zM229 1112v188h635v-188h-635z" />
<glyph unicode="&#x16c;" d="M123 551v891h283v-891q0 -154 85 -242t218 -88t218 85t85 239v897h282v-885q0 -268 -162.5 -428t-422.5 -160q-262 0 -424 157t-162 425zM371 1845h178q6 -64 49 -101.5t109 -37.5q68 0 110.5 37.5t48.5 101.5h178q-7 -136 -101.5 -222.5t-235.5 -86.5q-140 0 -235 86.5 t-101 222.5z" />
<glyph unicode="&#x16d;" horiz-adv-x="1110" d="M123 412v551h262v-568q0 -91 49 -139.5t121 -48.5t121 49.5t49 138.5v568h262v-551q0 -211 -123.5 -326t-308.5 -115q-90 0 -167.5 28t-137 81.5t-93.5 138.5t-34 193zM223 1413h176q3 -76 43 -126t113 -50q71 0 110 50t42 126h174q-2 -143 -91.5 -243.5t-234.5 -100.5 q-148 0 -240 100.5t-92 243.5z" />
<glyph unicode="&#x16e;" d="M123 551v891h283v-891q0 -154 85 -242t218 -88t218 85t85 239v897h282v-885q0 -268 -162.5 -428t-422.5 -160q-262 0 -424 157t-162 425zM434 1675q0 106 80.5 182t194.5 76q115 0 194.5 -76t79.5 -182q0 -107 -79.5 -183.5t-194.5 -76.5q-114 0 -194.5 77t-80.5 183z M602 1677q0 -43 32.5 -75.5t76.5 -32.5q43 0 74.5 32.5t31.5 75.5q0 42 -32 74.5t-74 32.5q-44 0 -76.5 -32.5t-32.5 -74.5z" />
<glyph unicode="&#x16f;" horiz-adv-x="1110" d="M123 412v551h262v-568q0 -91 49 -139.5t121 -48.5t121 49.5t49 138.5v568h262v-551q0 -211 -123.5 -326t-308.5 -115q-90 0 -167.5 28t-137 81.5t-93.5 138.5t-34 193zM303 1309q0 103 71 172t183 69q113 0 182.5 -69t69.5 -172t-70 -173.5t-182 -70.5t-183 70.5 t-71 173.5zM461 1309q0 -41 27.5 -69t68.5 -28t68.5 28t27.5 69q0 40 -27.5 67t-68.5 27t-68.5 -27t-27.5 -67z" />
<glyph unicode="&#x170;" d="M123 551v891h283v-891q0 -154 85 -242t218 -88t218 85t85 239v897h282v-885q0 -268 -162.5 -428t-422.5 -160q-262 0 -424 157t-162 425zM422 1556l172 277h244l-189 -277h-227zM803 1556l172 277h254l-209 -277h-217z" />
<glyph unicode="&#x171;" horiz-adv-x="1136" d="M123 412v551h262v-568q0 -91 49 -139.5t121 -48.5t121 49.5t49 138.5v568h262v-551q0 -211 -123.5 -326t-308.5 -115q-90 0 -167.5 28t-137 81.5t-93.5 138.5t-34 193zM260 1096l154 307h221l-160 -307h-215zM606 1096l154 307h244l-181 -307h-217z" />
<glyph unicode="&#x172;" d="M123 551v891h283v-891q0 -156 85 -243t218 -87t218 85t85 239v897h282v-885q0 -313 -258 -510q-99 -81 -157 -161.5t-58 -133.5q0 -34 21 -52.5t59 -18.5q53 0 103 40l98 -139q-109 -90 -232 -90q-104 0 -175.5 59.5t-71.5 161.5q0 132 143 258q-9 0 -26 -1t-31 -1 q-262 0 -424 157t-162 425z" />
<glyph unicode="&#x173;" horiz-adv-x="1110" d="M123 412v551h262v-568q0 -89 49 -138.5t121 -49.5t121 49.5t49 138.5v568h262v-551q0 -115 -42.5 -207t-121.5 -178q-157 -168 -157 -263q0 -34 17.5 -52.5t45.5 -18.5q50 0 107 47l118 -143q-114 -105 -247 -105q-111 0 -174.5 62t-63.5 157q0 142 123 262 q-12 -2 -37 -2q-90 0 -167.5 28t-137 81.5t-93.5 138.5t-34 193z" />
<glyph unicode="&#x174;" horiz-adv-x="2076" d="M10 1442h295l326 -959l303 959h207l303 -959l332 959h282l-504 -1442h-221l-299 944l-299 -944h-217zM649 1556l303 289h170l305 -289h-237l-154 115l-151 -115h-236z" />
<glyph unicode="&#x175;" horiz-adv-x="1566" d="M14 963h275l213 -553l190 553h189l190 -553l213 553h266l-376 -963h-197l-193 563l-192 -563h-201zM432 1096l260 313h178l263 -313h-218l-135 127l-133 -127h-215z" />
<glyph unicode="&#x176;" horiz-adv-x="1282" d="M-8 1442h313l340 -592l342 592h303l-508 -877v-565h-282v567zM252 1556l303 289h170l305 -289h-237l-154 115l-152 -115h-235z" />
<glyph unicode="&#x177;" horiz-adv-x="1036" d="M-2 963h274l252 -572l248 572h266l-641 -1444h-268l256 573zM162 1096l260 313h178l262 -313h-217l-135 127l-133 -127h-215z" />
<glyph unicode="&#x178;" horiz-adv-x="1282" d="M-8 1442h313l340 -592l342 592h303l-508 -877v-565h-282v567zM268 1716q0 64 45.5 109t110.5 45q64 0 109 -45t45 -109q0 -66 -44.5 -110.5t-109.5 -44.5t-110.5 44.5t-45.5 110.5zM705 1716q0 65 44.5 109.5t110.5 44.5q64 0 109 -45t45 -109q0 -66 -44.5 -110.5 t-109.5 -44.5q-66 0 -110.5 44.5t-44.5 110.5z" />
<glyph unicode="&#x179;" horiz-adv-x="1179" d="M49 0l635 1192h-586v250h1008l-610 -1190h608v-252h-1055zM494 1556l174 277h260l-215 -277h-219z" />
<glyph unicode="&#x17a;" horiz-adv-x="929" d="M49 0l430 725h-393v238h795l-430 -725h415v-238h-817zM360 1096l150 307h250l-189 -307h-211z" />
<glyph unicode="&#x17b;" horiz-adv-x="1179" d="M49 0l635 1192h-586v250h1008l-610 -1190h608v-252h-1055zM436 1722q0 67 47 113.5t115 46.5t114 -46t46 -114q0 -69 -46 -115t-114 -46t-115 46t-47 115z" />
<glyph unicode="&#x17c;" horiz-adv-x="929" d="M49 0l430 725h-393v238h795l-430 -725h415v-238h-817zM305 1264q0 67 47 113t115 46t114 -46t46 -113q0 -68 -46.5 -115t-113.5 -47t-114.5 47t-47.5 115z" />
<glyph unicode="&#x17d;" horiz-adv-x="1179" d="M49 0l635 1192h-586v250h1008l-610 -1190h608v-252h-1055zM215 1845h238l151 -116l154 116h235l-303 -289h-170z" />
<glyph unicode="&#x17e;" horiz-adv-x="935" d="M49 0l430 725h-393v238h795l-430 -725h415v-238h-817zM117 1409h217l135 -129l133 129h215l-260 -313h-178z" />
<glyph unicode="&#x18f;" horiz-adv-x="1593" d="M86 725v14v70l2 -2v20h1133q-29 178 -151.5 286t-301.5 108q-103 0 -214 -48.5t-187 -136.5l-181 176q111 122 267 191.5t323 69.5q211 0 380 -100.5t262 -273t93 -382.5q0 -205 -90 -375.5t-256.5 -271.5t-376.5 -101q-196 0 -350 86.5t-243.5 237t-104.5 342.5 q-4 58 -4 90zM377 578q30 -165 134.5 -261t276.5 -96q171 0 280 97.5t144 259.5h-835z" />
<glyph unicode="&#x19d;" horiz-adv-x="1583" d="M-281 -434l121 209q57 -33 111 -33q81 0 126.5 53.5t45.5 147.5v1499h201l860 -930v930h282v-1442h-198l-862 956v-1009q0 -105 -34.5 -192.5t-93.5 -144t-135.5 -87.5t-162.5 -31q-141 0 -261 74z" />
<glyph unicode="&#x1e6;" horiz-adv-x="1540" d="M78 717q0 206 99.5 379t278 275t398.5 102q292 0 522 -207l-168 -189q-156 144 -358 144q-131 0 -242 -64t-177 -178.5t-66 -253.5q0 -137 62 -252t175.5 -183.5t253.5 -68.5q153 0 283 70v248h-275v252h557v-619q-114 -93 -260.5 -148t-310.5 -55t-308 58t-245.5 158 t-160 238.5t-58.5 293.5zM451 1845h237l152 -116l153 116h236l-303 -289h-170z" />
<glyph unicode="&#x1e7;" horiz-adv-x="1245" d="M82 496q0 215 137 356t338 141q180 0 303 -133v103h262v-949q0 -162 -68 -281.5t-183.5 -180t-262.5 -60.5q-149 0 -279.5 79t-197.5 230l217 111q43 -89 113 -135.5t147 -46.5q111 0 181.5 70t70.5 196v125q-122 -125 -303 -125q-201 0 -338 142.5t-137 357.5zM254 1409 h217l135 -129l133 129h215l-260 -313h-178zM346 487q0 -119 75.5 -196.5t190.5 -77.5q110 0 185 76.5t75 189.5q0 114 -75.5 196.5t-184.5 82.5q-116 0 -191 -76.5t-75 -194.5z" />
<glyph unicode="&#x1ea;" horiz-adv-x="1708" d="M82 717q0 154 58.5 293.5t160 241t246 161.5t307.5 60q217 0 394.5 -100t277.5 -271t100 -377q0 -177 -77 -332t-214 -264q-176 -134 -244.5 -215t-68.5 -150q0 -34 17 -52.5t46 -18.5q47 0 101 45l123 -141q-114 -105 -248 -105q-111 0 -174.5 62t-63.5 157 q0 142 127 266q-41 -8 -96 -8q-163 0 -307 58.5t-246 159t-160.5 238.5t-58.5 292zM369 725q0 -137 61 -252t173 -183.5t251 -68.5q212 0 348.5 143t136.5 353q0 138 -60.5 252.5t-172.5 183t-252 68.5q-211 0 -348 -143t-137 -353z" />
<glyph unicode="&#x1eb;" horiz-adv-x="1212" d="M82 479q0 105 40 199.5t109 164t166.5 110t208.5 40.5t208.5 -40t166.5 -108.5t109 -162.5t40 -199q0 -122 -56 -232.5t-171 -193.5q-104 -78 -162.5 -161.5t-58.5 -139.5q0 -63 61 -63q50 0 101 45l125 -141q-96 -86 -191 -97q-49 -8 -104 4q-92 10 -141.5 67t-49.5 140 q0 139 121 260q-40 0 -102 15q-185 29 -302.5 167.5t-117.5 325.5zM346 483q0 -115 74 -195.5t186 -80.5q114 0 188 78.5t74 193.5t-74.5 196t-187.5 81t-186.5 -79t-73.5 -194z" />
<glyph unicode="&#x1fc;" horiz-adv-x="1910" d="M14 0l596 1442h693l102 -250h-494l140 -334h493l96 -237h-491l154 -371h491l102 -250h-794l-133 342h-529l-133 -342h-293zM535 586h337l-167 434zM653 1556l174 277h260l-215 -277h-219z" />
<glyph unicode="&#x1fd;" horiz-adv-x="1763" d="M74 276q0 134 98.5 225t273.5 91h252v10q0 75 -47 119.5t-119 44.5q-105 0 -270 -78l-82 209q184 96 365 96q198 0 313 -137q137 137 336 137q219 0 349 -145t130 -367l-4 -84h-702q22 -94 86 -150.5t157 -56.5q133 0 254 121l152 -159q-168 -183 -406 -183 q-252 0 -391 172q-71 -81 -171 -126.5t-218 -45.5q-169 0 -262.5 88.5t-93.5 218.5zM336 301q0 -48 39.5 -79.5t103.5 -31.5q87 0 153 57.5t66 143.5v19h-225q-61 0 -99 -31.5t-38 -77.5zM770 1096l150 307h249l-188 -307h-211zM969 592h438q-21 88 -75.5 138t-137.5 50 q-80 0 -140 -50t-85 -138z" />
<glyph unicode="&#x1fe;" horiz-adv-x="1724" d="M78 6l188 217q-89 99 -136.5 226t-47.5 268q0 154 58.5 293.5t160 241t246 161.5t307.5 60q224 0 410 -111l194 221l172 -147q-79 -95 -188 -222q184 -206 184 -489q0 -206 -100 -379t-277.5 -275t-394.5 -102q-234 0 -414 111q-86 -98 -188 -221zM369 725 q0 -166 84 -291l637 727q-105 60 -236 60q-211 0 -348 -143t-137 -353zM616 281q105 -60 238 -60q212 0 348.5 143t136.5 353q0 155 -82 287q-67 -76 -200 -225t-242.5 -272.5t-198.5 -225.5zM754 1556l174 277h260l-215 -277h-219z" />
<glyph unicode="&#x1ff;" horiz-adv-x="1212" d="M74 20l116 142q-108 133 -108 317q0 105 40 199.5t109 164t166.5 110t208.5 40.5q124 0 232 -51l112 137l174 -137l-110 -133q116 -138 116 -326q0 -105 -40 -199.5t-109 -164t-166.5 -110t-208.5 -40.5q-129 0 -244 56l-116 -142zM334 483q0 -63 22 -121l328 396 q-42 10 -78 10q-118 0 -195 -82.5t-77 -202.5zM500 1096l149 307h250l-188 -307h-211zM516 209q38 -14 90 -14q120 0 197.5 82t77.5 202q0 73 -31 133z" />
<glyph unicode="&#x218;" horiz-adv-x="1120" d="M47 184l143 201q101 -84 189 -127t182 -43q92 0 151.5 48.5t59.5 129.5q0 74 -50 122t-153 87q-45 17 -67 25.5t-65.5 27t-67.5 32.5t-61 38t-58.5 46.5t-47 55t-39 66.5t-23 77.5t-9.5 92.5q0 96 43 175.5t112.5 129.5t155 77.5t174.5 27.5q119 0 233 -46.5t206 -119.5 l-146 -201q-68 54 -147 87.5t-146 33.5q-92 0 -146 -45t-54 -119q0 -68 51 -112t156 -85q51 -21 82 -34.5t82 -40t83.5 -50.5t71 -61.5t60.5 -77.5t37.5 -94t15.5 -115q0 -190 -141.5 -307t-352.5 -117q-107 0 -214 37.5t-174 81t-126 96.5zM373 -479l96 332h227l-114 -332 h-209z" />
<glyph unicode="&#x219;" horiz-adv-x="845" d="M49 125q16 26 64.5 94.5t58.5 83.5q74 -59 131 -88t119 -29q43 0 72.5 24t29.5 64q0 68 -110 105q-55 20 -96 38.5t-84 46.5t-70 59t-44.5 75.5t-17.5 97.5q0 74 33 133.5t85 94t109 52t113 17.5q182 0 332 -119l-127 -176q-104 78 -186 78q-43 0 -71 -21.5t-28 -58.5 q0 -59 103 -94q58 -21 94.5 -36.5t84 -44.5t74.5 -60.5t46.5 -79.5t19.5 -107q0 -131 -100.5 -218t-249.5 -87q-199 0 -385 156zM217 -479l96 332h228l-115 -332h-209z" />
<glyph unicode="&#x21a;" horiz-adv-x="972" d="M20 1190v252h932v-252h-325v-1190h-283v1190h-324zM279 -479l96 332h227l-115 -332h-208z" />
<glyph unicode="&#x21b;" horiz-adv-x="739" d="M29 735v228h168v233h262v-233h260v-228h-260v-420q0 -51 24 -77.5t66 -26.5t100 25l86 -209q-104 -58 -217 -58q-141 0 -231 84t-90 250v432h-168zM227 -479l97 332h227l-115 -332h-209z" />
<glyph unicode="&#x2c6;" horiz-adv-x="741" d="M20 1096l261 313h178l262 -313h-217l-135 127l-133 -127h-216z" />
<glyph unicode="&#x2da;" horiz-adv-x="546" d="M20 1309q0 103 71 172t183 69q113 0 182.5 -69t69.5 -172t-70 -173.5t-182 -70.5t-183 70.5t-71 173.5zM178 1309q0 -41 27.5 -69t68.5 -28t69 28t28 69q0 40 -28 67t-69 27t-68.5 -27t-27.5 -67z" />
<glyph unicode="&#x2dc;" horiz-adv-x="794" d="M20 1155q72 203 248 203q48 0 94.5 -20t85 -40t68.5 -20q35 0 58.5 18t37.5 62l162 -70q-35 -99 -99 -151t-151 -52q-47 0 -92.5 20t-84 40t-68.5 20q-35 0 -58.5 -18t-40.5 -62z" />
<glyph unicode="&#x1e80;" horiz-adv-x="2076" d="M10 1442h295l326 -959l303 959h207l303 -959l332 959h282l-504 -1442h-221l-299 944l-299 -944h-217zM676 1833h258l176 -277h-219z" />
<glyph unicode="&#x1e81;" horiz-adv-x="1566" d="M14 963h275l213 -553l190 553h189l190 -553l213 553h266l-376 -963h-197l-193 563l-192 -563h-201zM467 1403h252l147 -307h-211z" />
<glyph unicode="&#x1e82;" horiz-adv-x="2076" d="M10 1442h295l326 -959l303 959h207l303 -959l332 959h282l-504 -1442h-221l-299 944l-299 -944h-217zM948 1556l174 277h260l-215 -277h-219z" />
<glyph unicode="&#x1e83;" horiz-adv-x="1566" d="M14 963h275l213 -553l190 553h189l190 -553l213 553h266l-376 -963h-197l-193 563l-192 -563h-201zM719 1096l149 307h250l-188 -307h-211z" />
<glyph unicode="&#x1e84;" horiz-adv-x="2076" d="M10 1442h295l326 -959l303 959h207l303 -959l332 959h282l-504 -1442h-221l-299 944l-299 -944h-217zM666 1716q0 64 45 109t110 45t109.5 -45t44.5 -109q0 -66 -44.5 -110.5t-109.5 -44.5t-110 44.5t-45 110.5zM1102 1716q0 65 44.5 109.5t110.5 44.5q65 0 109.5 -45 t44.5 -109q0 -66 -44.5 -110.5t-109.5 -44.5q-66 0 -110.5 44.5t-44.5 110.5z" />
<glyph unicode="&#x1e85;" horiz-adv-x="1566" d="M14 963h275l213 -553l190 553h189l190 -553l213 553h266l-376 -963h-197l-193 563l-192 -563h-201zM412 1229q0 64 45 108.5t110 44.5t109.5 -44.5t44.5 -108.5q0 -65 -45 -110.5t-109 -45.5t-109.5 45.5t-45.5 110.5zM848 1229q0 65 45 109t111 44q64 0 108.5 -44 t44.5 -109t-44.5 -110.5t-108.5 -45.5q-66 0 -111 45.5t-45 110.5z" />
<glyph unicode="&#x1e9e;" horiz-adv-x="1482" d="M119 0v926q0 235 143.5 375.5t392.5 140.5h650l-252 -557q159 -42 253.5 -166t94.5 -283q0 -195 -140 -331t-362 -136q-95 0 -180.5 28.5t-147.5 70.5l91 206q40 -29 97 -48t113 -19q104 0 173 68.5t69 166.5q0 102 -67 170t-181 68q-80 0 -188 -35l252 545h-277 q-115 0 -183.5 -72t-68.5 -192v-926h-282z" />
<glyph unicode="&#x1ea0;" horiz-adv-x="1419" d="M14 0l596 1442h201l594 -1442h-303l-133 342h-529l-133 -342h-293zM535 586h337l-167 434zM551 -285q0 68 47 114t115 46t113.5 -45.5t45.5 -114.5q0 -68 -46 -114.5t-113 -46.5q-68 0 -115 47t-47 114z" />
<glyph unicode="&#x1ea1;" horiz-adv-x="1239" d="M82 481q0 216 138.5 364t338.5 148q183 0 301 -131v101h262v-963h-262v100q-118 -131 -301 -131q-200 0 -338.5 148t-138.5 364zM346 483q0 -119 76 -198.5t190 -79.5q111 0 185.5 80t74.5 194t-74.5 196.5t-185.5 82.5q-114 0 -190 -78.5t-76 -196.5zM428 -285 q0 68 47 114t115 46t114 -45.5t46 -114.5q0 -68 -46.5 -114.5t-113.5 -46.5q-68 0 -115 47t-47 114z" />
<glyph unicode="&#x1eb8;" horiz-adv-x="968" d="M123 0v1442h768v-250h-485v-334h485v-237h-485v-371h485v-250h-768zM354 -285q0 68 47 114t115 46t114 -45.5t46 -114.5q0 -68 -46.5 -114.5t-113.5 -46.5q-68 0 -115 47t-47 114z" />
<glyph unicode="&#x1eb9;" horiz-adv-x="1138" d="M82 477q0 142 65.5 260.5t179.5 187t251 68.5q219 0 349 -145t130 -367l-4 -84h-703q22 -93 86.5 -150t157.5 -57q133 0 254 121l151 -159q-168 -183 -405 -183q-226 0 -369 143.5t-143 364.5zM352 592h439q-21 88 -75.5 138t-137.5 50q-80 0 -140.5 -50.5t-85.5 -137.5z M410 -285q0 69 46.5 114.5t114.5 45.5t114 -45.5t46 -114.5q0 -68 -46.5 -114.5t-113.5 -46.5t-114 47t-47 114z" />
<glyph unicode="&#x1eca;" horiz-adv-x="520" d="M100 -285q0 68 47 114t115 46t114 -45.5t46 -114.5q0 -68 -46.5 -114.5t-113.5 -46.5q-68 0 -115 47t-47 114zM119 0v1442h282v-1442h-282z" />
<glyph unicode="&#x1ecb;" horiz-adv-x="507" d="M94 -285q0 68 47 114t115 46t114 -45.5t46 -114.5q0 -68 -46.5 -114.5t-113.5 -46.5q-68 0 -115 47t-47 114zM94 1264q0 67 47 113t115 46t114 -46t46 -113q0 -68 -46.5 -115t-113.5 -47q-68 0 -115 47t-47 115zM123 0v963h262v-963h-262z" />
<glyph unicode="&#x1ecc;" horiz-adv-x="1708" d="M82 717q0 154 58.5 293.5t160 241t246 161.5t307.5 60q217 0 394.5 -100t277.5 -271t100 -377t-100 -379t-277.5 -275t-394.5 -102q-163 0 -307 58.5t-246 159t-160.5 238.5t-58.5 292zM369 725q0 -137 61 -252t173 -183.5t251 -68.5q212 0 348.5 143t136.5 353 q0 138 -60.5 252.5t-172.5 183t-252 68.5q-211 0 -348 -143t-137 -353zM694 -285q0 68 47 114t115 46t114 -45.5t46 -114.5q0 -68 -46.5 -114.5t-113.5 -46.5q-68 0 -115 47t-47 114z" />
<glyph unicode="&#x1ecd;" horiz-adv-x="1212" d="M82 479q0 105 40 199.5t109 164t166.5 110t208.5 40.5t208.5 -40t166.5 -108.5t109 -162.5t40 -199t-40 -199.5t-109 -164t-166.5 -110t-208.5 -40.5t-208.5 40t-166.5 108.5t-109 162.5t-40 199zM346 483q0 -115 74 -195.5t186 -80.5q114 0 188 78.5t74 193.5t-74.5 196 t-187.5 81t-186.5 -79t-73.5 -194zM446 -285q0 68 47 114t115 46t114 -45.5t46 -114.5q0 -68 -46.5 -114.5t-113.5 -46.5q-68 0 -115 47t-47 114z" />
<glyph unicode="&#x1ee4;" d="M123 551v891h283v-891q0 -154 85 -242t218 -88t218 85t85 239v897h282v-885q0 -268 -162.5 -428t-422.5 -160q-262 0 -424 157t-162 425zM549 -285q0 68 47 114t115 46t113.5 -45.5t45.5 -114.5q0 -68 -46 -114.5t-113 -46.5q-68 0 -115 47t-47 114z" />
<glyph unicode="&#x1ee5;" horiz-adv-x="1110" d="M123 412v551h262v-568q0 -91 49 -139.5t121 -48.5t121 49.5t49 138.5v568h262v-551q0 -211 -123.5 -326t-308.5 -115q-90 0 -167.5 28t-137 81.5t-93.5 138.5t-34 193zM395 -285q0 68 47 114t115 46t114 -45.5t46 -114.5q0 -68 -46.5 -114.5t-113.5 -46.5q-68 0 -115 47 t-47 114z" />
<glyph unicode="&#x1ef2;" horiz-adv-x="1282" d="M-8 1442h313l340 -592l342 592h303l-508 -877v-565h-282v567zM266 1833h258l176 -277h-219z" />
<glyph unicode="&#x1ef3;" horiz-adv-x="1036" d="M-2 963h274l252 -572l248 572h266l-641 -1444h-268l256 573zM219 1403h252l147 -307h-210z" />
<glyph unicode="&#x1ef8;" horiz-adv-x="1282" d="M-8 1442h313l340 -592l342 592h303l-508 -877v-565h-282v567zM264 1602q32 98 96 153t156 55q46 0 92.5 -21.5t85 -43t66.5 -21.5q36 0 58.5 20t39.5 66l160 -65q-32 -97 -96.5 -152t-155.5 -55q-46 0 -93 21.5t-86 43t-67 21.5q-35 0 -57 -20t-39 -66z" />
<glyph unicode="&#x1ef9;" horiz-adv-x="1036" d="M-2 963h274l252 -572l248 572h266l-641 -1444h-268l256 573zM143 1155q72 203 248 203q48 0 94.5 -20t85 -40t68.5 -20q35 0 58.5 18t37.5 62l162 -70q-35 -99 -99 -151t-151 -52q-47 0 -93 20t-84.5 40t-68.5 20q-35 0 -58 -18t-40 -62z" />
<glyph unicode="&#x2000;" horiz-adv-x="966" />
<glyph unicode="&#x2001;" horiz-adv-x="1933" />
<glyph unicode="&#x2002;" horiz-adv-x="966" />
<glyph unicode="&#x2003;" horiz-adv-x="1933" />
<glyph unicode="&#x2004;" horiz-adv-x="644" />
<glyph unicode="&#x2005;" horiz-adv-x="483" />
<glyph unicode="&#x2006;" horiz-adv-x="322" />
<glyph unicode="&#x2007;" horiz-adv-x="322" />
<glyph unicode="&#x2008;" horiz-adv-x="241" />
<glyph unicode="&#x2009;" horiz-adv-x="386" />
<glyph unicode="&#x200a;" horiz-adv-x="107" />
<glyph unicode="&#x2010;" horiz-adv-x="712" d="M61 401v211h590v-211h-590z" />
<glyph unicode="&#x2011;" horiz-adv-x="712" d="M61 401v211h590v-211h-590z" />
<glyph unicode="&#x2012;" horiz-adv-x="712" d="M61 401v211h590v-211h-590z" />
<glyph unicode="&#x2013;" horiz-adv-x="1036" d="M74 408v194h889v-194h-889z" />
<glyph unicode="&#x2014;" horiz-adv-x="2048" d="M0 408v194h2048v-194h-2048z" />
<glyph unicode="&#x2018;" horiz-adv-x="466" d="M92 928l191 567h217l-170 -567h-238z" />
<glyph unicode="&#x2019;" horiz-adv-x="466" d="M33 915l170 568h237l-190 -568h-217z" />
<glyph unicode="&#x201a;" horiz-adv-x="411" d="M-37 -303l170 567h238l-191 -567h-217z" />
<glyph unicode="&#x201c;" horiz-adv-x="782" d="M-14 928l190 567h230l-170 -567h-250zM338 928l190 567h230l-170 -567h-250z" />
<glyph unicode="&#x201d;" horiz-adv-x="782" d="M8 915l170 568h250l-190 -568h-230zM360 915l170 568h250l-190 -568h-230z" />
<glyph unicode="&#x201e;" horiz-adv-x="757" d="M-33 -303l170 567h250l-190 -567h-230zM319 -303l170 567h250l-190 -567h-230z" />
<glyph unicode="&#x2026;" horiz-adv-x="1636" d="M78 137q0 70 48.5 118t119.5 48q70 0 118 -47.5t48 -118.5t-48 -119.5t-118 -48.5t-119 48.5t-49 119.5zM651 137q0 70 48.5 118t119.5 48t118.5 -47.5t47.5 -118.5t-48 -119.5t-118 -48.5q-71 0 -119.5 48.5t-48.5 119.5zM1225 137q0 70 48.5 118t119.5 48t118.5 -47.5 t47.5 -118.5t-48 -119.5t-118 -48.5q-71 0 -119.5 48.5t-48.5 119.5z" />
<glyph unicode="&#x202f;" horiz-adv-x="386" />
<glyph unicode="&#x2039;" horiz-adv-x="659" d="M20 496l414 462l182 -161l-272 -301l274 -301l-184 -162z" />
<glyph unicode="&#x203a;" horiz-adv-x="659" d="M41 195l274 301l-272 301l182 161l414 -462l-414 -463z" />
<glyph unicode="&#x205f;" horiz-adv-x="483" />
<glyph unicode="&#x20ac;" horiz-adv-x="1167" d="M51 717q0 154 58.5 293.5t160 241t246 161.5t307.5 60q154 0 297 -60l-100 -231q-88 39 -197 39q-108 0 -204.5 -49.5t-165.5 -135.5h512l-97 -229h-520q-10 -55 -10 -102v-37h481l-82 -228h-325q66 -103 174.5 -161t236.5 -58q135 0 269 58v-263q-130 -47 -269 -47 q-163 0 -307 58.5t-246 158.5t-160.5 238t-58.5 293z" />
<glyph unicode="&#x2122;" horiz-adv-x="1837" d="M33 1247v195h637v-195h-203v-526h-234v526h-200zM694 721l172 721h193l194 -449l195 449h201l168 -721h-226l-86 401l-174 -401h-166l-172 399l-86 -399h-213z" />
<glyph unicode="&#x25fc;" horiz-adv-x="962" d="M0 0v963h963v-963h-963z" />
</font>
</defs>
</svg>
