<?xml version="1.0" encoding="UTF-8" standalone="no"?><!DOCTYPE svg PUBLIC "-//W3C//DTD SVG 1.1//EN" "http://www.w3.org/Graphics/SVG/1.1/DTD/svg11.dtd"><svg width="100%" height="100%" viewBox="0 0 129 192" version="1.1" xmlns="http://www.w3.org/2000/svg" xmlns:xlink="http://www.w3.org/1999/xlink" xml:space="preserve" xmlns:serif="http://www.serif.com/" style="fill-rule:evenodd;clip-rule:evenodd;stroke-linejoin:round;stroke-miterlimit:2;"><rect id="Artboard1" x="0" y="0" width="128.588" height="191.002" style="fill:none;"/><clipPath id="_clip1"><rect x="0" y="0" width="128.588" height="191.002"/></clipPath><g clip-path="url(#_clip1)"><g id="svgg"><rect x="-13.691" y="-11.224" width="426.785" height="364.42" style="fill:#473990;"/><path id="path3" d="M128.597,191.059l-31.143,0c0.021,-0.783 0.045,-1.244 0.07,-1.27c0.078,-0.08 1.207,-0.091 2.508,-0.025c2.242,0.115 7.45,0.248 26.219,0.67c0.784,0.018 1.573,0.036 2.346,0.056l0,0.569Zm-78.435,-44.695c-0.41,0.216 -1.432,0.635 -2.272,0.93c-3.488,1.23 -4.085,1.455 -4.314,1.63c-0.132,0.102 -0.511,0.292 -0.842,0.423c-1.247,0.494 -1.226,0.384 -1.111,5.907c0.057,2.746 0.113,5.482 0.125,6.081c0.015,0.809 0.09,1.088 0.292,1.088c1.046,0 1.5,1.708 0.83,3.124c-0.353,0.745 -0.353,0.766 0.014,1.359c0.204,0.331 0.39,0.927 0.412,1.325c0.043,0.761 0.124,0.801 1.107,0.541c0.686,-0.182 1.249,0.454 1.402,1.582c0.184,1.359 0.267,1.534 0.725,1.534c0.824,0 1.138,0.423 0.998,1.345c-0.242,1.608 -0.254,1.546 0.304,1.575c0.302,0.016 0.646,0.204 0.816,0.447c0.161,0.231 0.494,0.419 0.738,0.419c0.52,0 0.453,0.828 1.239,-15.428c0.111,-2.29 0.284,-5.698 0.385,-7.572c0.219,-4.072 0.235,-6.723 0.04,-6.712c-0.078,0.005 -0.478,0.185 -0.888,0.402Zm-48.399,-9.686l-2.062,0l0,-6.614l2.319,-0.053l2.319,-0.054l0.143,-2.745c0.079,-1.509 0.213,-3.767 0.298,-5.016c0.085,-1.249 0.12,-2.373 0.078,-2.496c-0.148,-0.433 -1.785,-0.817 -3.487,-0.817l-1.67,0l0,-6.671l5.584,0.14l0.115,-2.177c0.063,-1.197 0.182,-3.466 0.264,-5.042l0.149,-2.865l-0.491,-0.321c-0.279,-0.183 -0.65,-0.272 -0.858,-0.206c-0.355,0.113 -2.609,-0.273 -4.053,-0.695l-0.71,-0.207l0,-3.093c0,-2.027 0.068,-3.094 0.198,-3.094c0.19,0 4.987,0.851 17.691,3.138c3.228,0.581 5.928,1.114 6,1.184c0.073,0.07 0.056,2.086 -0.036,4.481c-0.093,2.395 -0.261,7.25 -0.373,10.79c-0.113,3.54 -0.289,8.822 -0.392,11.737c-0.102,2.915 -0.312,9.39 -0.465,14.387c-0.154,4.998 -0.321,10.152 -0.373,11.453c-0.052,1.302 -0.141,4.028 -0.199,6.058c-0.114,3.986 -0.266,6.673 -0.384,6.792c-0.096,0.095 -0.253,-0.015 -4.535,-3.187c-1.978,-1.465 -5.419,-4.005 -7.646,-5.643c-2.227,-1.638 -4.548,-3.348 -5.159,-3.799c-0.823,-0.61 -1.109,-0.939 -1.109,-1.281c0,-0.393 -0.082,-0.454 -0.556,-0.418c-1.004,0.077 -2.662,-1.244 -2.662,-2.12l0,-0.712l1.183,0.092c0.651,0.052 1.481,0.015 1.846,-0.08l0.662,-0.174l0.296,-5.099c0.361,-6.215 0.583,-5.573 -1.925,-5.573Zm21.349,20.381c-0.207,0.207 -0.148,3.66 0.063,3.66c0.113,0 0.189,-0.757 0.189,-1.893c0,-1.892 -0.016,-2.003 -0.252,-1.767Zm-0.017,-1.349c-0.066,0.264 -0.035,0.626 0.069,0.804c0.147,0.253 0.19,0.147 0.194,-0.48c0.007,-0.913 -0.086,-1.027 -0.263,-0.324Zm102.683,-21.399c-0.454,0 -0.668,0.09 -0.681,0.284c-0.01,0.157 -0.032,1.2 -0.048,2.319c-0.017,1.212 -0.105,2.035 -0.218,2.035c-0.116,0 -0.189,-0.942 -0.189,-2.448c0,-2.809 0.192,-2.56 -2.13,-2.759c-1.723,-0.147 -1.643,-0.238 -1.706,1.944c-0.063,2.193 -0.424,1.923 -0.424,-0.319l0,-1.783l-1.394,-0.237c-1.884,-0.321 -1.918,-0.298 -1.918,1.269c0,0.743 -0.082,1.304 -0.19,1.304c-0.109,0 -0.189,-0.592 -0.189,-1.397c0,-1.367 -0.011,-1.4 -0.509,-1.495c-0.867,-0.166 -1.005,0 -1.005,1.209c0,1.543 -0.349,1.408 -0.418,-0.162l-0.056,-1.278l-1.419,-0.146c-2.787,-0.287 -2.899,-0.28 -3.017,0.204c-0.152,0.623 -0.469,0.586 -0.582,-0.068l-0.096,-0.556l-2,-0.22c-2.315,-0.255 -16.913,-5.439 -16.33,-5.799c0.09,-0.056 0.546,-0.027 1.013,0.063c0.468,0.09 1.16,0.167 1.538,0.172l0.687,0.008l0.138,-2.579c0.103,-1.925 0.081,-2.614 -0.089,-2.719c-0.235,-0.145 -2.256,-0.414 -3.411,-0.453l-0.663,-0.023l-0.052,2.603c-0.044,2.142 -0.102,2.603 -0.332,2.603c-0.231,0 -0.278,-0.442 -0.278,-2.639c0,-3.008 0.136,-2.792 -1.929,-3.071c-2.77,-0.376 -2.491,-0.554 -2.709,1.735c-0.245,2.568 -0.568,2.46 -0.568,-0.189l0,-1.988l-0.615,-0.059c-0.586,-0.057 -0.615,-0.029 -0.615,0.587c0,2.554 -0.318,3.322 -1.094,2.643c-0.36,-0.315 -0.371,-0.465 -0.226,-2.982c0.084,-1.457 0.248,-4.652 0.363,-7.099c0.116,-2.446 0.291,-6.024 0.389,-7.95c0.098,-1.927 0.267,-5.377 0.374,-7.667c0.108,-2.291 0.283,-5.613 0.388,-7.383c0.105,-1.77 0.363,-6.967 0.572,-11.548c0.471,-10.339 1.112,-23.464 1.507,-30.856c0.1,-1.874 0.226,-4.473 0.28,-5.774c0.192,-4.616 0.325,-5.95 0.624,-6.294c0.475,-0.546 0.468,-0.548 7.234,1.562c1.302,0.405 2.878,0.879 3.502,1.051c0.625,0.173 2.116,0.613 3.313,0.978c1.198,0.364 2.433,0.73 2.745,0.813c0.628,0.166 5.4,1.577 9.939,2.938c1.613,0.484 3.189,0.95 3.502,1.036c0.312,0.086 0.866,0.256 1.23,0.377c0.365,0.121 0.918,0.292 1.231,0.379c0.312,0.087 1.419,0.411 2.461,0.72c0.948,0.281 3.927,1.163 6.889,2.037l0,19.824c-0.157,0.326 -0.169,1.037 -0.169,2.398l0,2.042l0.169,0.047l0,3.229c-0.108,-0.01 -0.173,-0.005 -0.175,0.017c-0.191,2.331 -0.193,4.679 -0.003,4.796c0.05,0.031 0.11,0.061 0.178,0.09l0,3.61l-0.032,-0.002l-0.052,-0.001l-0.464,0l0,5.065l0.548,0.138l0,3.297c-0.268,-0.007 -0.471,0.017 -0.538,0.084c-0.117,0.118 -0.199,1.143 -0.199,2.507l0,2.307l0.737,0.139l0,2.916c-0.939,-0.127 -0.941,0.412 -0.885,2.753l0.053,2.242l0.832,0.207l0,3.54c-0.455,-0.042 -0.841,-0.025 -0.926,0.077c-0.185,0.222 -0.317,4.574 -0.144,4.746c0.094,0.094 0.555,0.192 1.07,0.261l0,3.568c-1.068,-0.186 -1.032,-0.171 -1.179,-0.025c-0.199,0.199 -0.147,4.95 0.056,5.075c0.085,0.053 0.562,0.135 1.123,0.197l0,3.342c-1.466,-0.293 -1.438,0.097 -1.58,2.665c-0.149,2.719 -0.216,2.637 1.58,2.83l0,3.259c-0.494,-0.067 -0.982,-0.147 -1.129,-0.188c-0.506,-0.141 -0.555,0.095 -0.555,2.676l0,2.504l1.278,0.187c0.149,0.022 0.284,0.043 0.406,0.061l0,0.752c-0.371,-0.124 -0.656,-0.203 -0.748,-0.203c-0.162,0.001 -0.461,-0.124 -0.663,-0.276c-0.202,-0.153 -0.522,-0.281 -0.711,-0.284c-0.276,-0.005 -0.314,-0.091 -0.19,-0.432c0.086,-0.235 0.155,-1.449 0.155,-2.698l0,-2.272l-0.662,0Zm0.704,-3.502l0.134,-2.473c0.098,-1.808 0.074,-2.546 -0.091,-2.745c-0.779,-0.939 -1.064,-0.397 -1.203,2.285c-0.147,2.834 -0.126,2.933 0.629,2.933l0.531,0Zm-2.986,-5.745c1.601,0.179 1.592,0.16 1.436,2.901c-0.157,2.763 -0.197,2.846 -1.285,2.636c-0.442,-0.085 -1.187,-0.222 -1.655,-0.305l-0.852,-0.15l-0.054,-2.451c-0.063,-2.941 -0.04,-3.029 0.757,-2.869c0.331,0.066 1.075,0.173 1.653,0.238Zm-2.872,2.201c0.062,3.037 0.146,2.92 -1.879,2.606c-1.785,-0.277 -1.605,0.249 -1.406,-4.098c0.072,-1.574 0.045,-1.554 1.756,-1.317l1.477,0.204l0.052,2.605Zm-3.783,-0.904c0.069,2.87 0.01,3.123 -0.721,3.123c-0.66,0 -0.625,0.176 -0.569,-2.839c0.05,-2.689 0.051,-2.693 0.732,-2.614l0.503,0.058l0.055,2.272Zm-3.692,-2.727c2.115,0.265 2.044,0.155 1.912,2.985c-0.142,3.042 0.183,2.864 -4.002,2.19l-0.615,-0.099l0,-2.61c0,-2.8 0.037,-2.942 0.718,-2.771c0.245,0.061 1.139,0.198 1.987,0.305Zm-3.522,-0.384c0.464,0.177 0.633,2.664 0.313,4.602l-0.121,0.735l-1.321,-0.123c-1.856,-0.173 -1.833,-0.112 -1.526,-4.062l0.123,-1.58l1.047,0.131c0.576,0.072 1.244,0.206 1.485,0.297Zm-3.235,-0.371c0.238,0.191 0.132,4.89 -0.116,5.158c-0.082,0.089 -0.499,0.102 -0.925,0.03l-0.775,-0.131l0,-2.242c0,-3.115 0.492,-3.877 1.816,-2.815Zm-3.792,-0.682c1.681,0.18 1.616,0.056 1.555,2.948l-0.053,2.541l-1.493,-0.062c-2.503,-0.104 -2.401,0.024 -2.263,-2.819c0.119,-2.466 0.261,-2.968 0.802,-2.816c0.167,0.047 0.821,0.14 1.452,0.208Zm-2.713,-0.215c0.175,0.268 0.183,1.885 0.021,3.807l-0.125,1.473l-1.155,-0.108c-1.86,-0.174 -1.814,-0.123 -1.812,-1.997c0.001,-0.9 0.056,-2.091 0.123,-2.646l0.121,-1.01l1.344,0.133c0.739,0.074 1.407,0.23 1.483,0.348Zm-4.008,-0.638c-0.735,0 -0.712,-0.084 -0.756,2.785l-0.039,2.502l0.507,0.127c0.751,0.189 0.838,-0.111 0.842,-2.906l0.003,-2.508l-0.557,0Zm30.668,-4.537c0.331,0.177 0.366,0.416 0.366,2.446c0,2.549 -0.067,2.849 -0.635,2.845c-0.844,-0.006 -0.903,-0.184 -0.86,-2.633c0.046,-2.676 0.24,-3.133 1.129,-2.658Zm-2.52,-0.358l0.993,0.189l0,2.511c0,1.381 -0.04,2.551 -0.09,2.601c-0.1,0.1 -2.581,-0.136 -3.296,-0.314l-0.452,-0.112l0.136,-2.493c0.173,-3.187 -0.127,-2.923 2.709,-2.382Zm-4.708,-0.755c1.661,0.291 1.648,0.263 1.537,3.05c-0.113,2.825 0.066,2.594 -1.799,2.327l-1.514,-0.216l-0.028,-2.358c-0.03,-2.513 0.029,-3.021 0.35,-3.021c0.111,0 0.766,0.098 1.454,0.218Zm-2.223,2.243c-0.062,2.799 -0.118,2.968 -0.909,2.7l-0.537,-0.183l0.052,-2.347c0.064,-2.852 0.067,-2.861 0.84,-2.785l0.61,0.059l-0.056,2.556Zm-3.494,-3.124c1.774,0.195 1.749,0.146 1.604,3.124c-0.142,2.923 0.136,2.655 -2.371,2.279c-0.819,-0.123 -1.693,-0.301 -1.943,-0.396l-0.454,-0.172l0.118,-2.418c0.135,-2.774 0.192,-2.906 1.171,-2.697c0.388,0.083 1.231,0.209 1.875,0.28Zm-3.652,-0.535c0.337,0.098 0.35,0.255 0.225,2.686c-0.157,3.049 -0.089,2.943 -1.688,2.64l-1.261,-0.239l0,-2.576c0,-1.416 0.064,-2.639 0.142,-2.717c0.139,-0.14 1.875,-0.001 2.582,0.206Zm-3.4,-0.445c0.314,0.23 0.331,0.462 0.204,2.747c-0.15,2.705 -0.183,2.779 -1.15,2.597l-0.65,-0.122l0,-2.61c0,-1.435 0.057,-2.667 0.126,-2.736c0.215,-0.215 1.109,-0.139 1.47,0.124Zm-3.11,-0.55l1.041,0.205l0,2.594c0,3.104 0.059,3.022 -1.942,2.697c-2.072,-0.337 -1.939,-0.131 -1.939,-2.993c0,-3.23 -0.155,-3.093 2.84,-2.503Zm-3.256,-0.331c0.073,0.117 0.09,1.351 0.038,2.741l-0.095,2.528l-1.312,-0.044c-0.722,-0.025 -1.4,-0.131 -1.506,-0.238c-0.238,-0.238 -0.156,-5.35 0.088,-5.501c0.263,-0.163 2.638,0.275 2.787,0.514Zm-3.768,-0.757l0.454,0.121l-0.121,2.657c-0.128,2.818 -0.231,3.143 -0.905,2.842c-0.401,-0.179 -0.413,-0.271 -0.371,-2.817c0.052,-3.145 0.02,-3.05 0.943,-2.803Zm-2.939,-0.473l1.489,0.238l-0.081,2.7c-0.098,3.244 0.084,3.03 -2.287,2.697l-1.936,-0.272l0.068,-2.745c0.077,-3.107 0.071,-3.086 0.754,-2.953c0.277,0.053 1.173,0.204 1.993,0.335Zm-4.614,-0.704l1.231,0.226l-0.043,2.805c-0.05,3.353 0.225,3.026 -2.239,2.66c-2.638,-0.392 -2.429,-0.096 -2.271,-3.196c0.173,-3.405 -0.184,-3.138 3.322,-2.495Zm-3.855,-0.372c0.338,0.88 -0.212,5.492 -0.662,5.556c-0.752,0.106 -0.806,-0.141 -0.668,-3.063l0.132,-2.775l0.545,0c0.308,0 0.592,0.123 0.653,0.282Zm41.893,-2.285c0.329,0.398 0.229,4.655 -0.113,4.786c-0.771,0.296 -1.213,-0.111 -1.121,-1.036c0.048,-0.492 0.093,-1.598 0.099,-2.456c0.012,-1.634 0.444,-2.126 1.135,-1.294Zm-2.732,-0.57l1.135,0.242l-0.04,2.332c-0.048,2.803 0.025,2.713 -1.913,2.372c-2.051,-0.361 -1.927,-0.186 -1.927,-2.731c0,-2.784 0.014,-2.796 2.745,-2.215Zm-4.544,-0.762l1.325,0.232l0.053,2.498c0.061,2.871 0.231,2.674 -1.977,2.29l-1.199,-0.209l0,-2.41c0,-2.222 0.064,-2.688 0.363,-2.647c0.06,0.008 0.706,0.119 1.435,0.246Zm-2.472,-0.334c0.265,0.102 0.288,0.408 0.181,2.413c-0.134,2.517 -0.196,2.687 -0.913,2.507l-0.487,-0.122l0,-2.331c0,-2.687 0.103,-2.895 1.219,-2.467Zm-3.775,-0.669c0.625,0.099 1.373,0.229 1.662,0.288l0.526,0.108l-0.053,2.397l-0.052,2.397l-1.042,-0.027c-0.572,-0.016 -1.616,-0.136 -2.319,-0.267l-1.277,-0.24l0,-2.399c0,-2.643 0.03,-2.733 0.85,-2.56c0.313,0.067 1.081,0.203 1.705,0.303Zm-3.597,-0.599l0.568,0.134l0,4.898l-1.041,-0.052c-2.062,-0.104 -1.926,0.081 -1.88,-2.558c0.051,-2.957 0.058,-2.964 2.353,-2.422Zm-4.488,1.757c-0.09,2.624 -0.012,2.846 0.97,2.764l0.679,-0.057l0,-4.922l-0.784,-0.057l-0.785,-0.057l-0.08,2.329Zm-1.285,-2.71c1.026,0.14 1.044,0.204 0.852,3.017c-0.157,2.303 -0.129,2.277 -2.16,1.945c-1.843,-0.302 -1.827,-0.274 -1.757,-3.042l0.059,-2.326l1.077,0.145c0.592,0.08 1.46,0.197 1.929,0.261Zm-3.716,-0.505c0.329,0.173 0.345,0.355 0.221,2.486c-0.16,2.741 -0.061,2.606 -1.711,2.332l-1.325,-0.221l-0.061,-1.325c-0.033,-0.729 -0.004,-1.865 0.064,-2.525l0.125,-1.2l1.166,0.133c0.642,0.073 1.326,0.217 1.521,0.32Zm-3.383,-0.487c0.18,0.18 0.27,0.48 0.214,0.71c-0.053,0.219 -0.118,1.234 -0.144,2.255c-0.05,1.989 -0.111,2.126 -0.865,1.937l-0.49,-0.123l0.101,-2.34c0.123,-2.845 0.337,-3.286 1.184,-2.439Zm-3.266,-0.679c0.807,0.127 1.476,0.325 1.487,0.441c0.052,0.536 -0.063,4.763 -0.131,4.832c-0.117,0.12 -3.344,-0.397 -3.745,-0.599c-0.323,-0.163 -0.348,-0.382 -0.284,-2.479c0.072,-2.355 0.169,-2.649 0.828,-2.507c0.208,0.045 1.038,0.186 1.845,0.312Zm-5.111,-0.844c2.128,0.367 2.019,0.195 1.896,2.99c-0.122,2.776 0.173,2.516 -2.368,2.085l-2.131,-0.361l0.07,-2.366c0.091,-3.072 -0.184,-2.817 2.533,-2.348Zm-3.11,0.833c0.132,3.107 -0.187,4.18 -1.076,3.617c-0.258,-0.163 -0.341,-4.585 -0.094,-4.985c0.472,-0.763 1.111,-0.015 1.17,1.368Zm41.828,-0.827c0.057,2.707 -0.002,2.859 -1.023,2.603c-0.46,-0.116 -0.467,-0.148 -0.434,-1.941c0.056,-3.027 0.119,-3.273 0.815,-3.205l0.589,0.057l0.053,2.486Zm-3.491,-3.053c0.816,0.156 1.519,0.283 1.562,0.283c0.043,0 0.078,1.15 0.078,2.556c0,2.188 -0.042,2.556 -0.295,2.556c-0.633,0 -3.028,-0.427 -3.207,-0.571c-0.284,-0.229 -0.138,-5.108 0.152,-5.108c0.125,0 0.894,0.127 1.71,0.284Zm-3.282,-0.585l0.852,0.209l-0.029,2.432c-0.035,2.874 0.022,2.793 -1.732,2.487c-1.746,-0.304 -1.62,-0.08 -1.569,-2.787c0.056,-3.022 -0.019,-2.951 2.478,-2.341Zm-4.207,1.852c-0.099,2.686 -0.053,2.845 0.8,2.757l0.473,-0.049l0,-5.111l-0.59,-0.058l-0.59,-0.057l-0.093,2.518Zm-2.135,-3.035c1.803,0.316 1.714,0.161 1.635,2.83c-0.038,1.29 -0.141,2.434 -0.228,2.544c-0.149,0.185 -3.435,-0.24 -4.24,-0.549c-0.323,-0.124 -0.386,-1.634 -0.165,-3.974l0.122,-1.295l0.87,0.123c0.479,0.067 1.382,0.212 2.006,0.321Zm-4.463,-0.756l0.961,0.222l-0.003,2.381c-0.003,2.984 0.026,2.936 -1.577,2.657c-1.569,-0.274 -1.475,-0.062 -1.326,-3.005c0.142,-2.819 0.036,-2.695 1.945,-2.255Zm-2.456,-0.328c0.232,0.279 0.146,4.655 -0.099,5.052c-0.122,0.197 -1.171,0.045 -1.5,-0.218c-0.125,-0.1 -0.131,-0.995 -0.016,-2.628l0.173,-2.478l0.608,0c0.334,0 0.71,0.122 0.834,0.272Zm-2.112,-0.336c0.139,0.225 -0.045,4.944 -0.198,5.098c-0.132,0.131 -3.629,-0.505 -3.738,-0.68c-0.122,-0.198 0.114,-4.836 0.258,-5.069c0.144,-0.233 3.499,0.361 3.678,0.651Zm-5.545,-1.187l1.136,0.239l0.047,2.446c0.06,3.072 0.078,3.041 -1.588,2.717c-1.635,-0.318 -1.579,-0.206 -1.461,-2.913c0.136,-3.131 -0.044,-2.891 1.866,-2.489Zm-2.543,-0.446c0.344,0.184 0.359,0.351 0.248,2.698c-0.13,2.723 -0.208,2.956 -0.888,2.646c-0.445,-0.203 -0.447,-0.218 -0.359,-2.73c0.098,-2.752 0.207,-3.038 0.999,-2.614Zm-3.231,-0.6l1.609,0.326l0.06,1.695c0.032,0.933 0.004,2.152 -0.064,2.709l-0.122,1.013l-0.884,-0.125c-0.485,-0.068 -1.373,-0.222 -1.971,-0.341l-1.089,-0.216l0,-2.581c0,-3.235 -0.212,-3.021 2.461,-2.48Zm-5.121,-0.915c2.415,0.469 2.162,0.112 2.111,2.975c-0.054,3.051 0.015,2.974 -2.295,2.571c-2.325,-0.406 -2.28,-0.362 -2.161,-2.117c0.133,-1.961 0.296,-3.814 0.335,-3.813c0.018,0 0.922,0.173 2.01,0.384Zm-2.924,4.821l0.096,-2.461c0.052,-1.353 0.068,-2.559 0.034,-2.679c-0.077,-0.273 -0.681,-0.441 -0.962,-0.268c-0.135,0.084 -0.228,1.082 -0.257,2.769l-0.047,2.639l1.136,0Zm41.694,-3.583c0.055,2.57 -0.052,2.903 -0.841,2.625l-0.531,-0.187l0.063,-2.359c0.074,-2.715 0.057,-2.659 0.742,-2.476l0.52,0.138l0.047,2.259Zm-3.292,-2.957c1.859,0.457 1.702,0.166 1.541,2.853c-0.161,2.679 -0.061,2.581 -2.187,2.128l-1.599,-0.341l0.049,-2.268c0.068,-3.141 -0.119,-2.94 2.196,-2.372Zm-3.397,-0.648l0.773,0.232l-0.05,2.424c-0.061,2.879 0.105,2.63 -1.524,2.293c-1.855,-0.384 -1.76,-0.233 -1.725,-2.741c0.041,-2.989 0.009,-2.961 2.526,-2.208Zm-2.881,-0.342c0.483,2.404 -0.359,5.35 -1.304,4.566c-0.346,-0.288 -0.211,-4.681 0.151,-4.904c0.318,-0.197 1.091,0.03 1.153,0.338Zm-3.729,-1.021l1.893,0.421l-0.069,2.456c-0.039,1.351 -0.105,2.494 -0.148,2.541c-0.084,0.09 -4.207,-0.71 -4.459,-0.866c-0.181,-0.112 -0.205,-4.687 -0.025,-4.867c0.201,-0.2 0.785,-0.135 2.808,0.315Zm-5.016,-1.026c0.364,0.093 0.897,0.222 1.183,0.286l0.521,0.117l0,2.446c0,1.346 -0.076,2.493 -0.168,2.55c-0.214,0.132 -2.335,-0.25 -2.552,-0.46c-0.176,-0.169 -0.171,-4.379 0.005,-4.838c0.123,-0.32 0.147,-0.323 1.011,-0.101Zm-1.637,-0.17c0.09,0.084 0.09,1.237 0,2.583c-0.177,2.658 -0.134,2.59 -1.347,2.129l-0.474,-0.181l0.135,-2.196c0.171,-2.773 0.593,-3.358 1.686,-2.335Zm-3.606,-0.834c1.763,0.394 1.661,0.195 1.52,2.979l-0.123,2.416l-1.028,-0.128c-3.033,-0.379 -3.044,-0.394 -2.792,-3.82c0.15,-2.033 0.054,-1.976 2.423,-1.447Zm-3.702,-0.758c0.443,0.068 0.812,0.219 0.82,0.336c0.072,0.996 -0.073,4.788 -0.187,4.906c-0.127,0.13 -0.703,0.048 -2.431,-0.344c-0.413,-0.094 -0.426,-0.169 -0.426,-2.35c0,-2.749 0.05,-2.918 0.831,-2.778c0.324,0.058 0.951,0.162 1.393,0.23Zm-2.902,-0.567c0.252,0.097 0.299,0.514 0.299,2.662l0,2.548l-0.615,-0.06l-0.615,-0.059l-0.055,-2.177c-0.075,-2.962 0.033,-3.28 0.986,-2.914Zm-3.83,-0.762c0.761,0.165 1.512,0.329 1.668,0.364c0.157,0.036 0.348,0.071 0.426,0.079c0.411,0.042 0.148,5.126 -0.265,5.126c-0.604,0 -3.45,-0.588 -3.624,-0.749c-0.191,-0.176 0.061,-5.119 0.261,-5.119c0.082,0 0.772,0.135 1.534,0.299Zm-4.39,-0.877c0.968,0.202 1.843,0.451 1.945,0.553c0.201,0.201 0.002,4.894 -0.212,5.02c-0.308,0.179 -3.993,-0.727 -4.044,-0.995c-0.088,-0.453 0.187,-4.536 0.32,-4.751c0.149,-0.241 -0.083,-0.261 1.991,0.173Zm-3.029,-0.558c0.321,0.172 0.345,0.379 0.26,2.319c-0.129,2.936 -0.141,2.981 -0.779,2.808l-0.521,-0.141l0.071,-2.446c0.078,-2.66 0.191,-2.957 0.969,-2.54Zm41.591,-0.11c0.287,0.511 0.068,4.85 -0.251,4.972c-0.989,0.38 -1.244,-0.184 -1.191,-2.642c0.027,-1.273 0.082,-2.379 0.122,-2.457c0.13,-0.251 1.163,-0.151 1.32,0.127Zm-3.483,-0.911c1.787,0.399 1.715,0.268 1.663,3.048c-0.054,2.899 0.143,2.664 -1.865,2.219l-1.653,-0.365l-0.054,-2.356c-0.073,-3.211 -0.216,-3.02 1.909,-2.546Zm-4.164,-0.883c0.437,0.098 1.033,0.229 1.325,0.29l0.53,0.112l-0.038,2.471c-0.044,2.888 0.014,2.816 -1.95,2.414l-1.345,-0.275l0.04,-2.344c0.053,-3.116 -0.013,-2.994 1.438,-2.668Zm-1.993,2.153l0.053,2.615l-0.621,-0.059l-0.62,-0.06l-0.054,-2.356c-0.062,-2.756 -0.029,-2.896 0.668,-2.815l0.522,0.06l0.052,2.615Zm-4.303,-3.466c0.984,0.21 1.981,0.424 2.216,0.477c0.507,0.115 0.669,4.437 0.189,5.055c-0.219,0.281 -3.049,-0.161 -4.435,-0.693c-0.188,-0.072 -0.232,-0.483 -0.175,-1.663c0.041,-0.863 0.083,-2.015 0.094,-2.562c0.011,-0.547 0.088,-0.994 0.171,-0.994c0.083,0 0.956,0.171 1.94,0.38Zm-3.644,-0.768c1.086,0.204 1.029,0.047 0.996,2.79c-0.034,2.861 0.023,2.77 -1.532,2.453l-1.224,-0.25l-0.053,-2.304c-0.057,-2.448 0.113,-3.185 0.683,-2.965c0.174,0.068 0.683,0.192 1.13,0.276Zm-2.713,-0.561l0.491,0.187l-0.053,2.508c-0.058,2.731 -0.093,2.805 -1.204,2.527c-0.449,-0.113 -0.458,-0.154 -0.458,-2.17c0,-3.202 0.11,-3.476 1.224,-3.052Zm-3.505,-0.766c2.177,0.455 1.993,0.167 1.927,3.001c-0.07,3.069 0.137,2.933 -3.195,2.087l-0.805,-0.204l0,-2.499c0,-2.114 0.067,-2.752 0.287,-2.752c0.019,0 0.823,0.165 1.786,0.367Zm-3.712,-0.752c1.343,0.279 1.302,0.169 1.123,3.042l-0.147,2.359l-0.851,-0.065c-0.469,-0.035 -1.117,-0.175 -1.441,-0.31l-0.589,-0.246l0.082,-2.34c0.092,-2.608 0.142,-2.892 0.487,-2.76c0.132,0.051 0.733,0.195 1.336,0.32Zm-2.183,1.344c0.083,2.541 -0.066,3.396 -0.591,3.392c-0.899,-0.006 -0.942,-0.158 -0.797,-2.767c0.158,-2.814 0.131,-2.729 0.81,-2.548c0.514,0.137 0.52,0.156 0.578,1.923Zm-3.672,-2.57c0.824,0.166 1.575,0.349 1.669,0.407c0.159,0.098 0.017,4.989 -0.149,5.158c-0.04,0.04 -0.906,-0.095 -1.924,-0.3l-1.851,-0.373l-0.022,-2.445c-0.025,-2.702 0.02,-2.971 0.47,-2.84c0.17,0.05 0.983,0.227 1.807,0.393Zm-4.382,-0.958c0.705,0.153 1.344,0.317 1.42,0.364c0.076,0.047 0.096,1.222 0.044,2.612l-0.094,2.527l-0.568,-0.023c-0.935,-0.039 -3.011,-0.483 -3.286,-0.704c-0.206,-0.164 -0.23,-0.682 -0.122,-2.579c0.155,-2.717 0.16,-2.733 0.828,-2.585c0.273,0.06 1.074,0.235 1.778,0.388Zm-3.302,-0.674c0.345,0.219 0.1,5.122 -0.263,5.262c-0.804,0.308 -0.983,-0.204 -0.885,-2.533c0.116,-2.737 0.33,-3.248 1.148,-2.729Zm40.882,0.145c0.649,0.174 0.577,4.86 -0.077,4.954c-0.641,0.091 -0.99,-0.412 -0.923,-1.331c0.033,-0.445 0.068,-1.469 0.077,-2.276c0.019,-1.536 0.049,-1.581 0.923,-1.347Zm-2.988,-0.665c1.812,0.353 1.755,0.255 1.614,2.784c-0.149,2.682 -0.061,2.587 -1.97,2.142c-1.958,-0.456 -1.959,-0.459 -1.623,-3.908c0.031,-0.312 0.063,-0.77 0.071,-1.016c0.013,-0.372 0.088,-0.427 0.441,-0.326c0.235,0.067 0.894,0.213 1.467,0.324Zm-3.975,-0.91c1.563,0.338 1.515,0.25 1.515,2.78c0,2.617 0.036,2.569 -1.714,2.256c-1.678,-0.299 -1.639,-0.224 -1.544,-2.966c0.089,-2.612 -0.042,-2.456 1.743,-2.07Zm-2.275,-0.348c0.5,0.603 0.138,4.727 -0.421,4.794c-0.912,0.111 -1.015,-0.233 -0.828,-2.77c0.179,-2.42 0.495,-2.932 1.249,-2.024Zm-4.007,-1.016c1.008,0.22 1.943,0.431 2.076,0.47c0.184,0.053 0.229,0.649 0.189,2.487l-0.053,2.417l-0.568,-0.018c-0.837,-0.027 -3.748,-0.666 -4.023,-0.882c-0.253,-0.201 -0.336,-3.191 -0.118,-4.282c0.141,-0.703 0.148,-0.704 2.497,-0.192Zm-4.258,-0.942c1.385,0.278 1.369,0.241 1.3,2.956c-0.056,2.245 -0.071,2.319 -0.473,2.311c-0.492,-0.01 -2.148,-0.432 -2.303,-0.587c-0.15,-0.15 0.118,-4.895 0.277,-4.895c0.07,0 0.61,0.097 1.199,0.215Zm-2.237,-0.404c0.497,0.189 0.498,0.194 0.4,1.846c-0.054,0.911 -0.102,1.981 -0.107,2.377c-0.01,0.717 -0.015,0.721 -0.72,0.663l-0.71,-0.059l-0.053,-2.26c-0.07,-2.93 -0.024,-3.028 1.19,-2.567Zm-3.562,-0.843c2.24,0.509 2.023,0.179 1.896,2.873c-0.135,2.857 0.076,2.643 -2.163,2.192l-1.851,-0.372l-0.032,-2.347c-0.04,-3.019 -0.174,-2.874 2.15,-2.346Zm-3.632,-0.798l0.946,0.245l0.053,2.406c0.062,2.798 0.096,2.751 -1.698,2.353l-1.194,-0.264l-0.062,-1.124c-0.034,-0.618 -0.005,-1.741 0.063,-2.496c0.143,-1.559 0.158,-1.569 1.892,-1.12Zm-2.413,-0.394c0.121,0.152 0.133,0.913 0.032,2.13c-0.086,1.041 -0.161,2.084 -0.166,2.319c-0.007,0.323 -0.121,0.425 -0.473,0.425c-0.691,0 -0.772,-0.322 -0.708,-2.824l0.058,-2.287l0.534,0c0.293,0 0.619,0.107 0.723,0.237Zm-3.361,-0.878c0.676,0.144 1.294,0.263 1.372,0.263c0.078,0 0.142,1.11 0.142,2.467c0,2.9 0.077,2.811 -2.023,2.351c-2.334,-0.512 -2.195,-0.308 -2.039,-2.988c0.154,-2.658 0.155,-2.661 0.817,-2.487c0.275,0.072 1.054,0.249 1.731,0.394Zm-4.942,-1.078c0.836,0.199 1.608,0.417 1.716,0.484c0.235,0.145 0.267,4.429 0.035,4.794c-0.172,0.272 -3.472,-0.302 -3.838,-0.668c-0.291,-0.29 0.014,-4.973 0.324,-4.973c0.134,0 0.928,0.163 1.763,0.363Zm38.259,5.127l0,-2.265c0,-2.046 -0.035,-2.284 -0.366,-2.461c-0.999,-0.535 -1.148,-0.232 -1.148,2.337c0,2.107 0.116,2.389 0.984,2.389l0.53,0Zm-3.465,-5.524c0.749,0.18 1.419,0.385 1.488,0.455c0.13,0.13 0.124,4.524 -0.007,4.655c-0.074,0.075 -1.552,-0.214 -2.796,-0.547l-0.71,-0.19l0,-2.232c0,-2.817 -0.144,-2.664 2.025,-2.141Zm-37.637,-0.174c0.3,0.19 0.127,4.854 -0.187,5.048c-0.855,0.528 -1.061,-0.164 -0.862,-2.9c0.175,-2.412 0.283,-2.633 1.049,-2.148Zm34.524,-0.545l0.71,0.203l0,2.268c0,2.651 0.031,2.614 -1.807,2.195c-1.595,-0.364 -1.483,-0.158 -1.43,-2.628c0.058,-2.727 0.071,-2.737 2.527,-2.038Zm-3.048,1.629c-0.073,2.496 -0.091,2.546 -0.844,2.398l-0.533,-0.105l0.05,-2.259c0.053,-2.411 0.187,-2.736 1.004,-2.428c0.368,0.138 0.386,0.268 0.323,2.394Zm-3.24,-3.073l1.603,0.423l-0.065,2.259c-0.036,1.243 -0.129,2.327 -0.207,2.41c-0.187,0.198 -4.527,-0.826 -4.596,-1.085c-0.03,-0.11 -0.028,-1.206 0.005,-2.435l0.059,-2.234l0.799,0.119c0.439,0.066 1.52,0.311 2.402,0.543Zm-4.192,-0.955c0.442,0.213 0.451,0.266 0.415,2.489c-0.043,2.69 0.023,2.596 -1.53,2.204l-1.23,-0.311l0.069,-2.271c0.038,-1.25 0.111,-2.342 0.161,-2.427c0.113,-0.19 1.493,0.017 2.115,0.316Zm-2.89,-0.567c0.295,0.302 0.109,4.663 -0.204,4.783c-0.125,0.048 -0.462,-0.002 -0.75,-0.111l-0.522,-0.199l0.134,-2.317c0.161,-2.766 0.387,-3.129 1.342,-2.156Zm-3.74,-1.024c2.061,0.466 1.992,0.36 1.936,2.982c-0.056,2.626 -0.016,2.525 -0.916,2.306c-0.391,-0.095 -1.179,-0.264 -1.752,-0.376c-1.566,-0.307 -1.55,-0.275 -1.44,-2.899c0.053,-1.258 0.1,-2.308 0.105,-2.334c0.022,-0.104 0.555,-0.021 2.067,0.321Zm-3.889,-0.91c1.421,0.285 1.423,0.29 1.287,2.908l-0.118,2.272l-0.662,-0.046c-0.365,-0.025 -1.037,-0.146 -1.495,-0.269l-0.831,-0.223l0.112,-2.243c0.062,-1.233 0.165,-2.326 0.228,-2.428c0.144,-0.233 0.178,-0.233 1.479,0.029Zm-2.7,-0.594c-0.73,0 -0.71,-0.065 -0.755,2.536c-0.042,2.392 0.018,2.566 0.886,2.572c0.42,0.003 0.426,-0.028 0.426,-2.553l0,-2.555l-0.557,0Zm-2.866,-0.695l1.595,0.427l-0.046,2.358c-0.055,2.86 0.097,2.703 -2.149,2.218l-1.846,-0.398l0,-2.397c0,-3.047 -0.156,-2.906 2.446,-2.208Zm33.291,1.804l-0.053,2.582l-0.473,-0.066c-0.853,-0.118 -0.898,-0.267 -0.811,-2.727c0.102,-2.903 0.079,-2.829 0.807,-2.575l0.582,0.203l-0.052,2.583Zm-37.823,-2.862c1.796,0.388 1.741,0.286 1.593,2.983c-0.149,2.705 -0.038,2.601 -2.215,2.077l-1.741,-0.419l0.07,-2.438c0.077,-2.663 0.107,-2.804 0.561,-2.629c0.169,0.065 0.949,0.257 1.732,0.426Zm35.92,-0.099c0.26,0.21 0.128,4.651 -0.147,4.952c-0.172,0.187 -2.784,-0.39 -3.178,-0.702c-0.232,-0.184 -0.158,-4.658 0.084,-5.073c0.087,-0.151 2.928,0.57 3.241,0.823Zm-38.983,-0.571c0.597,0.596 0.138,5.111 -0.512,5.036l-0.491,-0.058l0.065,-2.46c0.036,-1.354 0.105,-2.525 0.153,-2.603c0.132,-0.214 0.529,-0.171 0.785,0.085Zm33.837,-0.867c0.672,0.169 1.229,0.403 1.238,0.521c0.069,0.969 -0.071,4.787 -0.181,4.899c-0.077,0.079 -0.774,-0.018 -1.549,-0.214l-1.409,-0.358l-0.054,-2.33c-0.073,-3.177 -0.17,-3.052 1.955,-2.518Zm-2.86,-0.69l0.485,0.184l0,2.455c0,2.589 -0.065,2.786 -0.862,2.586c-0.589,-0.148 -0.744,-5.41 -0.16,-5.41c0.028,0 0.27,0.083 0.537,0.185Zm-3.708,-0.931c2.753,0.65 2.529,0.353 2.381,3.16c-0.156,2.957 -0.011,2.815 -2.275,2.227c-3.004,-0.779 -2.736,-0.454 -2.646,-3.209c0.081,-2.498 0.163,-2.849 0.619,-2.674c0.156,0.06 1.02,0.283 1.921,0.496Zm-4.203,-1.053c0.598,0.156 1.165,0.36 1.258,0.454c0.241,0.24 -0.049,5.131 -0.304,5.131c-0.11,0 -0.695,-0.139 -1.3,-0.309l-1.101,-0.309l0,-2.499c0,-2.169 0.064,-2.751 0.306,-2.751c0.029,0 0.543,0.127 1.141,0.283Zm-2.125,-0.547c0.252,0.097 0.299,0.511 0.299,2.63c0,2.765 -0.099,2.99 -1.103,2.509l-0.497,-0.238l0.061,-2.366c0.073,-2.828 0.137,-2.958 1.24,-2.535Zm-3.298,-0.806l1.609,0.431l0.053,2.5c0.063,2.986 0.154,2.892 -2.233,2.303c-2.088,-0.516 -1.995,-0.364 -1.915,-3.123c0.086,-2.977 -0.114,-2.808 2.486,-2.111Zm-5.409,-1.202l-0.459,0l0,5.097l0.804,0.206c0.443,0.113 1.037,0.281 1.321,0.374c0.284,0.093 0.555,0.107 0.601,0.032c0.07,-0.113 0.178,-4.382 0.128,-5.061c-0.008,-0.112 -0.447,-0.304 -0.976,-0.426c-0.527,-0.122 -1.165,-0.222 -1.419,-0.222Zm-1.264,-0.448c0.621,0.166 0.672,5.077 0.055,5.273c-1.028,0.326 -1.198,-0.115 -1.05,-2.713c0.165,-2.896 0.125,-2.794 0.995,-2.56Zm-4.212,-1.054c0.417,0.11 1.211,0.326 1.765,0.481l1.007,0.282l-0.058,2.475c-0.067,2.876 -0.012,2.807 -1.87,2.358c-2.37,-0.572 -2.165,-0.271 -2.097,-3.072c0.073,-3.032 -0.014,-2.858 1.253,-2.524Zm33.964,0.444c0.451,0.249 0.457,0.288 0.412,2.688c-0.05,2.645 -0.141,2.866 -1,2.422l-0.532,-0.275l0,-2.441c0,-2.333 0.057,-2.595 0.568,-2.639c0.052,-0.005 0.301,0.105 0.552,0.245Zm-3.025,-0.814c0.788,0.219 1.463,0.427 1.5,0.462c0.138,0.128 0.003,4.917 -0.143,5.063c-0.083,0.083 -0.867,-0.047 -1.742,-0.289l-1.59,-0.441l-0.063,-1.035c-0.093,-1.551 0.157,-4.159 0.399,-4.159c0.114,0 0.852,0.179 1.639,0.399Zm-34.896,-0.593c0.615,0.205 1.304,0.376 1.532,0.378c0.229,0.003 0.476,0.104 0.551,0.224c0.199,0.322 0.082,4.751 -0.132,5.009c-0.178,0.215 -2.672,-0.287 -3.372,-0.679c-0.488,-0.273 -0.24,-5.306 0.261,-5.306c0.023,0 0.545,0.168 1.16,0.374Zm30.983,-0.436c1.467,0.394 1.642,0.525 1.558,1.162c-0.037,0.28 -0.073,1.392 -0.08,2.471l-0.014,1.961l-0.804,-0.121c-0.443,-0.067 -1.145,-0.239 -1.562,-0.383l-0.757,-0.262l-0.01,-1.579c-0.013,-2.186 0.109,-3.566 0.315,-3.566c0.096,0 0.705,0.143 1.354,0.317Zm-33.357,-0.122c0.33,0.177 0.354,0.354 0.262,1.94c-0.167,2.888 -0.254,3.355 -0.625,3.355c-0.648,0 -0.739,-0.349 -0.654,-2.523c0.119,-3.08 0.172,-3.224 1.017,-2.772Zm31.196,-0.324c0.228,0.274 0.082,4.468 -0.169,4.874c-0.086,0.141 -0.33,0.181 -0.634,0.104l-0.493,-0.124l0,-2.425c0,-1.335 0.056,-2.483 0.126,-2.552c0.216,-0.217 0.953,-0.139 1.17,0.123Zm-3.852,-1.1c2.385,0.624 2.238,0.404 2.145,3.195c-0.097,2.898 0.131,2.713 -2.485,2.02c-1.2,-0.318 -2.232,-0.579 -2.293,-0.579c-0.157,0 -0.141,-5.019 0.016,-5.176c0.071,-0.07 0.263,-0.089 0.426,-0.042c0.164,0.048 1.15,0.31 2.191,0.582Zm-4.165,-1.075l0.947,0.316l-0.068,2.461c-0.08,2.928 -0.011,2.82 -1.494,2.339c-1.36,-0.442 -1.286,-0.188 -1.059,-3.617c0.138,-2.078 0.084,-2.03 1.674,-1.499Zm-2.188,-0.455c0.211,0.254 0.05,4.472 -0.184,4.852c-0.1,0.161 -0.294,0.173 -0.682,0.041l-0.543,-0.184l0.045,-2.429c0.028,-1.551 0.121,-2.477 0.258,-2.561c0.27,-0.167 0.858,-0.018 1.106,0.281Zm-3.223,-0.949l1.436,0.412l-0.028,1.412c-0.016,0.776 -0.037,1.901 -0.048,2.499c-0.022,1.3 -0.116,1.324 -2.574,0.637l-1.515,-0.423l-0.053,-2.344c-0.075,-3.266 -0.309,-3.082 2.782,-2.193Zm-4.243,-1.138l0.946,0.249l0.054,2.425c0.062,2.868 0.058,2.875 -1.473,2.535c-1.545,-0.342 -1.529,-0.307 -1.389,-3.077c0.138,-2.722 0.041,-2.61 1.862,-2.132Zm-2.674,-0.653l0.474,0.18l-0.106,2.423c-0.108,2.494 -0.209,2.779 -0.896,2.526c-0.367,-0.136 -0.399,-0.311 -0.448,-2.48c-0.069,-2.981 -0.048,-3.038 0.976,-2.649Zm-3.426,-0.918c0.856,0.219 1.639,0.476 1.74,0.572c0.224,0.212 0.138,4.733 -0.095,4.975c-0.173,0.178 -3.116,-0.559 -3.543,-0.887c-0.36,-0.277 -0.195,-5.058 0.175,-5.058c0.091,0 0.867,0.179 1.723,0.398Zm-3.789,-0.946l1.28,0.376l-0.121,2.405c-0.134,2.672 -0.195,2.832 -0.962,2.545c-0.292,-0.109 -0.957,-0.304 -1.477,-0.434c-1.335,-0.332 -1.32,-0.297 -1.254,-2.88c0.078,-3.015 -0.179,-2.81 2.534,-2.012Zm-3.184,-0.85c0.261,0.1 0.289,0.367 0.197,1.846c-0.185,2.958 -0.26,3.338 -0.66,3.338c-0.541,0 -0.648,-0.337 -0.602,-1.89c0.094,-3.185 0.232,-3.613 1.065,-3.294Z" style="fill:#b1dacb;"/><path id="path2" d="M-0.188,191.059c0.026,-0.467 0.058,-0.711 0.094,-0.748c0.212,-0.212 0.867,-0.127 1.028,0.133c0.015,0.024 0.018,0.245 0.011,0.615l-1.133,0Zm20.904,0c0.683,-21.351 0.863,-25.684 1.015,-26.27c0.053,-0.208 0.145,-2.252 0.204,-4.543c0.059,-2.29 0.146,-5.187 0.194,-6.436c0.126,-3.235 0.276,-7.66 0.482,-14.198c0.098,-3.124 0.264,-8.235 0.368,-11.358c0.104,-3.124 0.235,-7.298 0.292,-9.276c0.057,-1.978 0.184,-5.769 0.282,-8.424c0.098,-2.655 0.202,-6.397 0.231,-8.316l0.053,-3.488l-0.568,-0.148c-0.312,-0.081 -1.334,-0.284 -2.271,-0.45c-0.937,-0.166 -2.641,-0.468 -3.786,-0.671c-3.027,-0.535 -3.128,-0.553 -4.165,-0.744c-0.521,-0.096 -1.5,-0.27 -2.177,-0.387c-0.677,-0.117 -1.614,-0.284 -2.082,-0.373c-0.469,-0.088 -1.363,-0.249 -1.988,-0.357c-6.596,-1.14 -7.099,-1.265 -7.099,-1.757c0,-0.473 -0.025,-0.475 4.922,0.422c3.301,0.598 3.996,0.723 6.152,1.103c0.625,0.11 2.073,0.374 3.218,0.585c1.146,0.211 2.594,0.468 3.219,0.569c4.105,0.669 7.373,1.345 7.52,1.556c0.169,0.241 0.133,2.195 -0.237,13.024c-0.098,2.863 -0.223,6.526 -0.278,8.14c-0.327,9.554 -0.479,14.105 -0.571,17.132c-0.058,1.874 -0.186,5.026 -0.285,7.004c-0.099,1.978 -0.268,6.11 -0.375,9.181c-0.107,3.072 -0.237,6.197 -0.287,6.946c-0.118,1.74 0.084,1.865 1.206,0.743l0.879,-0.879l-0.542,-0.432c-0.981,-0.782 -0.072,-1.994 0.979,-1.306l0.472,0.31l-0.135,-0.721c-0.109,-0.578 -0.068,-0.772 0.208,-0.981c0.462,-0.35 0.515,-0.342 1.139,0.183c0.387,0.325 0.687,0.427 1.058,0.356c0.643,-0.123 0.849,-0.424 0.477,-0.698c-0.935,-0.69 -0.74,-1.936 0.272,-1.739c0.457,0.089 0.52,0.044 0.52,-0.374c0,-1.638 1.006,-2.272 2.671,-1.684c0.743,0.262 0.847,0.262 1.039,0c0.301,-0.412 0.888,-0.362 1.178,0.102c0.184,0.295 0.192,0.458 0.031,0.652c-0.326,0.392 -0.15,1.118 0.287,1.19c0.209,0.035 0.566,0.287 0.795,0.561c0.385,0.46 0.442,0.475 0.757,0.198c1.211,-1.064 2.536,-0.194 1.572,1.032c-0.731,0.93 -0.091,1.528 0.863,0.807c0.905,-0.685 1.648,-0.078 1.16,0.946c-0.388,0.813 -0.243,1.225 0.43,1.225c1.095,0 2.052,1.66 1.525,2.645c-0.281,0.525 -0.122,0.951 0.356,0.951c1.045,0 1.427,1.725 0.693,3.132c-0.373,0.715 -0.37,0.972 0.015,1.187c0.203,0.114 0.342,0.522 0.405,1.193c0.112,1.198 0.3,1.376 1.042,0.992c0.927,-0.479 1.651,0.348 1.651,1.885c0,0.608 0.554,1.406 0.804,1.156c0.665,-0.665 1.116,1.352 0.478,2.143c-0.332,0.411 -0.007,0.86 0.547,0.754c0.363,-0.069 0.613,0.028 0.918,0.357c0.74,0.798 1.601,0.824 1.637,0.05c0.016,-0.351 0.053,-0.851 0.081,-1.112c0.028,-0.26 0.141,-2.56 0.25,-5.111c0.109,-2.551 0.288,-6.214 0.397,-8.14c0.23,-4.067 0.493,-9.833 0.758,-16.659c0.104,-2.655 0.412,-9.342 0.685,-14.86c0.273,-5.518 0.496,-10.204 0.495,-10.412c0,-0.208 0.111,-2.551 0.247,-5.206c0.137,-2.655 0.302,-6.488 0.367,-8.519c0.065,-2.03 0.232,-5.158 0.371,-6.951c0.139,-1.793 0.265,-4.306 0.28,-5.585c0.015,-1.278 0.152,-4.454 0.305,-7.056c0.153,-2.603 0.405,-7.672 0.56,-11.264c0.156,-3.592 0.367,-7.766 0.469,-9.276c0.102,-1.51 0.274,-4.917 0.382,-7.572c0.266,-6.569 0.246,-6.446 1.102,-6.929c0.384,-0.216 1.465,-0.846 2.402,-1.398c3.121,-1.841 5.9,-3.453 7.099,-4.119c0.778,-0.432 4.352,-2.542 5.49,-3.241c0.26,-0.16 0.814,-0.474 1.23,-0.697c1.94,-1.041 2.913,-1.629 3.133,-1.895c0.224,-0.27 0.475,-4.266 0.573,-9.131c0.051,-2.566 0.051,-2.566 3.531,-4.426c0.649,-0.346 1.5,-0.818 1.893,-1.049c0.393,-0.23 1.052,-0.603 1.466,-0.829c0.413,-0.226 0.967,-0.558 1.23,-0.739c0.264,-0.18 1.948,-1.155 3.743,-2.167l3.264,-1.839l4.024,1.344c2.214,0.739 4.195,1.424 4.403,1.522c0.208,0.098 0.847,0.317 1.42,0.487c0.573,0.17 1.467,0.469 1.988,0.664c1.292,0.484 7.059,2.442 7.761,2.634c2.039,0.56 7.798,2.698 7.996,2.968c0.131,0.18 0.239,0.677 0.239,1.105c0,0.832 0.254,1.232 0.782,1.232c0.18,0 0.994,0.212 1.808,0.47c0.814,0.258 2.587,0.776 3.941,1.15c0.718,0.199 1.571,0.437 2.346,0.656l0,13.529c-1.008,-0.301 -2.358,-0.706 -3.766,-1.13c-2.655,-0.799 -5.296,-1.579 -5.868,-1.732c-0.573,-0.153 -1.425,-0.412 -1.893,-0.575c-0.469,-0.164 -1.15,-0.377 -1.515,-0.475c-0.364,-0.097 -0.918,-0.248 -1.23,-0.335c-0.529,-0.147 -4.399,-1.301 -5.679,-1.694c-0.313,-0.095 -1.591,-0.48 -2.84,-0.855c-1.249,-0.374 -3.294,-0.988 -4.543,-1.364c-2.482,-0.746 -2.817,-0.841 -4.638,-1.317c-0.677,-0.177 -1.444,-0.407 -1.704,-0.51c-1.048,-0.419 -1.292,-0.496 -2.839,-0.906c-0.885,-0.234 -2.221,-0.626 -2.968,-0.87c-3.237,-1.06 -3.125,-1.392 -3.651,10.819c-0.112,2.603 -0.287,6.18 -0.389,7.95c-0.101,1.77 -0.271,5.135 -0.378,7.478c-0.324,7.095 -0.56,12.029 -0.754,15.712c-0.101,1.926 -0.269,5.249 -0.374,7.383c-0.105,2.134 -0.275,5.542 -0.379,7.572c-0.103,2.03 -0.275,5.651 -0.381,8.046c-0.22,4.922 -0.471,9.934 -0.783,15.617c-0.117,2.135 -0.238,5.031 -0.27,6.437c-0.084,3.75 -0.397,11.09 -0.731,17.132c-0.161,2.915 -0.423,8.069 -0.582,11.453c-0.627,13.342 -0.856,18.019 -1.035,21.107c-0.103,1.77 -0.236,4.496 -0.297,6.058c-0.06,1.561 -0.233,5.182 -0.382,8.045c-0.088,1.687 -0.182,3.519 -0.255,4.973l-57.757,0Zm59.214,0l0.011,-0.43c0.064,-2.515 0.2,-2.961 0.807,-2.637c0.2,0.107 0.851,0.17 1.447,0.138l1.084,-0.056l-0.061,-0.697c-0.044,-0.508 0.046,-0.802 0.332,-1.088c0.497,-0.498 0.49,-0.577 -0.105,-1.141c-0.563,-0.535 -0.548,-1.791 0.028,-2.212c0.812,-0.594 0.173,-1.015 -1.543,-1.015l-1.608,0l0.13,-2.319c0.161,-2.851 0.117,-2.792 2.069,-2.792c1.862,0 2.746,-0.151 2.746,-0.471c0,-0.584 0.76,-1.173 1.833,-1.42c1.316,-0.303 1.763,-0.641 1.763,-1.333c0,-0.836 -0.319,-0.928 -3.994,-1.156c-4.404,-0.273 -4.187,-0.034 -3.833,-4.214l0.123,-1.459l0.587,0.058l0.586,0.057l-0.063,1.351c-0.042,0.891 0.012,1.398 0.158,1.489c0.384,0.237 0.543,-0.149 0.604,-1.465c0.07,-1.525 -0.09,-1.452 2.647,-1.2c2.623,0.241 2.464,0.124 2.497,1.847c0.041,2.187 0.688,2.168 0.688,-0.021c0,-1.647 -0.014,-1.628 1.129,-1.53c0.316,0.027 0.605,-0.133 0.892,-0.493c0.379,-0.476 0.567,-0.541 1.758,-0.608c1.168,-0.066 1.333,-0.121 1.333,-0.443c0,-0.657 1.52,-1.171 3.021,-1.023c2.018,0.199 2.642,-0.654 0.67,-0.916c-0.521,-0.069 -1.19,-0.174 -1.487,-0.233l-0.541,-0.107l0.134,-2.489c0.158,-2.952 0.049,-2.784 1.705,-2.62l1.325,0.131l0,2.019c0,1.11 0.068,2.087 0.152,2.172c0.324,0.324 0.505,-0.478 0.507,-2.25l0.003,-1.846l1.224,0c1.011,0 1.258,-0.063 1.418,-0.362c0.348,-0.65 1.449,-1.205 1.907,-0.96c0.313,0.167 0.496,0.149 0.853,-0.084c0.569,-0.373 0.922,-0.377 1.224,-0.014c0.361,0.435 0.747,0.34 0.955,-0.236c0.104,-0.287 0.287,-0.714 0.408,-0.951c0.266,-0.521 0.075,-0.749 -0.7,-0.833l-0.568,-0.062l0.067,-2.272c0.08,-2.716 0.044,-2.664 1.677,-2.444l1.285,0.173l0.053,2.035c0.069,2.587 0.389,2.653 0.461,0.094l0.053,-1.94l1.866,0.051c2.638,0.072 2.583,0.021 2.583,2.429c0,2.523 -0.09,2.71 -1.22,2.538c-0.473,-0.072 -0.903,-0.087 -0.956,-0.034c-0.261,0.261 -0.047,0.818 0.378,0.979c0.26,0.099 0.473,0.278 0.473,0.399c0,0.147 0.255,0.185 0.774,0.115c1.211,-0.163 1.835,0.145 2.071,1.021c0.269,0.998 1.312,1.692 2.783,1.85l1.086,0.117l-0.061,2.203c-0.039,1.385 0.012,2.248 0.136,2.324c0.407,0.252 0.623,-0.694 0.572,-2.507l-0.053,-1.831l1.505,-0.013c2.335,-0.02 2.331,-0.023 2.396,1.946c0.071,2.172 0.416,2.178 0.488,0.008c0.056,-1.705 0.127,-1.829 0.876,-1.542c0.238,0.092 0.3,0.42 0.3,1.598c0,1.856 0.307,2.13 0.469,0.419c0.067,-0.704 0.139,-1.408 0.16,-1.564c0.03,-0.221 0.329,-0.284 1.361,-0.284l0.829,0l0,29.267c-3.732,-0.085 -8.703,-0.202 -12.947,-0.305c-6.143,-0.149 -12.799,-0.328 -14.792,-0.397c-3.445,-0.12 -3.629,-0.109 -3.734,0.231c-0.019,0.061 -0.034,0.514 -0.046,1.26l-17.148,0Zm-14.133,-3.269c-0.077,3.231 0.082,2.965 -1.887,3.171c-2.193,0.23 -2.139,0.304 -1.992,-2.733c0.155,-3.187 0.26,-3.297 3.093,-3.209l0.852,0.026l-0.066,2.745Zm0.318,-6.058l0.106,-1.372c0.25,-3.246 0.248,-3.531 -0.027,-3.637c-0.147,-0.056 -0.282,-0.092 -0.299,-0.079c-0.018,0.012 -0.769,0.202 -1.669,0.422l-1.636,0.399l-0.115,0.835c-0.063,0.459 -0.114,1.419 -0.114,2.133l0,1.299l3.754,0Zm-66.332,-9.804c-0.07,0.219 -0.065,2.38 0.011,4.802l0.138,4.404l0.689,-0.104c0.379,-0.058 0.746,-0.157 0.816,-0.222c0.135,-0.123 0.633,-8.893 0.512,-8.996c-0.391,-0.331 -2.052,-0.242 -2.166,0.116Zm67.01,-3.474c0.129,0.209 -0.097,4.484 -0.251,4.732c-0.063,0.103 -0.959,0.249 -1.989,0.325l-1.874,0.137l0.117,-2.329c0.136,-2.713 0.111,-2.673 1.783,-2.843c1.93,-0.197 2.105,-0.198 2.214,-0.022Zm0.36,-5.577c-0.041,2.234 0.026,2.17 -2.219,2.131l-1.721,-0.029l0.061,-1.704c0.078,-2.16 0.373,-2.381 3.062,-2.298l0.852,0.026l-0.035,1.874Zm-65.866,-9.73c1.921,0 1.812,-0.205 1.612,3.029c-0.086,1.406 -0.216,3.636 -0.287,4.957c-0.155,2.897 -0.071,2.747 -1.586,2.831l-1.23,0.068l-0.051,-5.442l-0.05,-5.443l1.592,0Zm93.14,5.067c-0.202,0.133 -0.487,4.801 -0.323,5.27c0.275,0.787 1.007,-0.011 1.037,-1.13c0.016,-0.639 0.057,-1.673 0.091,-2.297c0.094,-1.779 -0.129,-2.29 -0.805,-1.843Zm-4.827,-0.395c-0.297,0.076 -0.663,4.65 -0.423,5.277c0.101,0.262 3.844,0.546 4.081,0.309c0.088,-0.088 0.136,-1.346 0.107,-2.795l-0.053,-2.636l-1.041,-0.033c-0.573,-0.018 -1.34,-0.07 -1.704,-0.117c-0.364,-0.046 -0.799,-0.048 -0.967,-0.005Zm-5.975,-0.265c-0.265,0.429 -0.307,5.191 -0.047,5.351c0.389,0.241 4.394,0.422 4.675,0.212c0.18,-0.135 0.229,-0.836 0.19,-2.751l-0.053,-2.571l-0.757,-0.124c-1.39,-0.229 -3.894,-0.301 -4.008,-0.117Zm-1.906,-0.195c-0.195,0.247 -0.457,4.983 -0.298,5.395c0.05,0.131 0.3,0.237 0.554,0.237c0.597,0 0.602,-0.018 0.78,-2.999c0.136,-2.277 0.12,-2.542 -0.171,-2.697c-0.434,-0.233 -0.643,-0.217 -0.865,0.064Zm46.878,-0.17c-0.212,0.008 -0.484,-0.017 -0.832,-0.051l-1.135,-0.11l-0.054,-2.327l-0.053,-2.328l1.378,0.056l0.696,0.028l0,4.732Zm-3.683,-4.97c-0.237,0.384 -0.285,4.187 -0.056,4.463c0.297,0.358 0.876,0.311 0.993,-0.08c0.124,-0.413 0.214,-4.18 0.103,-4.281c-0.256,-0.231 -0.92,-0.296 -1.04,-0.102Zm-4.333,-0.35c-0.041,0.131 -0.114,1.155 -0.164,2.276c-0.105,2.404 -0.192,2.3 2.091,2.483c1.85,0.148 1.763,0.282 1.701,-2.629l-0.04,-1.893l-1.231,-0.216c-1.677,-0.295 -2.27,-0.3 -2.357,-0.021Zm-2.851,-0.426c0.549,0 1.262,0.054 1.588,0.119l0.591,0.118l0,2.237c0,2.595 0.124,2.431 -1.74,2.307c-1.714,-0.113 -1.621,0.049 -1.518,-2.651l0.082,-2.13l0.997,0Zm-2.815,-0.225c-0.629,1.018 -0.016,5.144 0.727,4.898c0.309,-0.103 0.366,-4.698 0.061,-4.891c-0.313,-0.199 -0.668,-0.202 -0.788,-0.007Zm-47.206,1.73c-0.055,2.785 0.009,2.694 -2.089,2.975c-2.024,0.27 -1.934,0.332 -1.934,-1.341c0,-3.185 0.084,-3.33 2.191,-3.795c1.981,-0.437 1.886,-0.549 1.832,2.161Zm37.908,1.998l-1.704,0l-0.055,-1.988c-0.031,-1.093 -0.006,-2.184 0.053,-2.424c0.078,-0.311 0.167,-0.401 0.572,-0.396l0.099,0.003c0.071,0.003 0.149,0.008 0.236,0.014l0.799,0.058l0,4.733Zm-5.762,-5.124c-0.092,0.111 -0.176,1.235 -0.188,2.498l-0.022,2.296l1.627,0.136c0.895,0.074 1.659,0.103 1.699,0.063c0.197,-0.197 0.37,-4.379 0.191,-4.611c-0.259,-0.333 -3.079,-0.659 -3.307,-0.382Zm-3.681,-0.307c-0.144,0.233 -0.193,4.492 -0.054,4.716c0.066,0.108 0.464,0.201 0.884,0.207c0.419,0.006 0.936,0.066 1.147,0.133c0.781,0.248 0.935,-0.176 0.935,-2.576c0,-2.023 -0.036,-2.261 -0.366,-2.438c-0.433,-0.231 -2.409,-0.264 -2.546,-0.042Zm-0.669,-0.343l-0.056,2.506c-0.049,2.266 -0.088,2.512 -0.406,2.573c-0.665,0.128 -0.743,-0.222 -0.6,-2.699c0.136,-2.359 0.142,-2.38 0.6,-2.38l0.462,0Zm-5.952,0.595c-0.166,1.585 -0.154,3.945 0.02,3.963c0.078,0.009 0.355,0.036 0.615,0.062c0.261,0.025 1.082,0.111 1.824,0.19c1.627,0.175 1.537,0.297 1.676,-2.251c0.062,-1.129 0.151,-2.115 0.198,-2.19c0.21,-0.34 -2.348,-0.937 -4.015,-0.937c-0.108,0 -0.251,0.523 -0.318,1.163Zm-5.387,-1.483c-0.1,0.124 -0.213,1.289 -0.251,2.59l-0.068,2.364l2.271,0.227c2.753,0.274 2.552,0.468 2.606,-2.507l0.045,-2.449l-1.963,-0.13c-1.079,-0.071 -2.074,-0.173 -2.21,-0.225c-0.137,-0.053 -0.33,0.006 -0.43,0.13Zm-1.917,-0.259c-0.546,0.346 -0.403,5.012 0.157,5.091c0.679,0.096 0.772,-0.234 0.775,-2.741c0.003,-1.923 -0.046,-2.317 -0.296,-2.413c-0.363,-0.14 -0.307,-0.145 -0.636,0.063Zm46.348,0.254c-0.695,-0.03 -1.678,-0.175 -1.819,-0.316c-0.127,-0.127 -0.078,-3.298 0.063,-4.049l0.123,-0.658l1.248,0.128c0.138,0.014 0.266,0.03 0.385,0.048l0,4.847Zm-3.354,-5.185c-0.337,0.208 -0.361,4.549 -0.027,4.763c0.73,0.469 0.843,0.176 0.898,-2.308c0.055,-2.468 -0.108,-2.927 -0.871,-2.455Zm-4.612,1.811c-0.073,2.734 -0.207,2.554 1.94,2.611l1.787,0.047l0.025,-1.231c0.013,-0.677 0.051,-1.636 0.083,-2.132c0.076,-1.193 -0.046,-1.277 -2.057,-1.408l-1.719,-0.111l-0.059,2.224Zm-116.897,-8.038l-0.128,2.508c-0.07,1.38 -0.18,3.681 -0.246,5.115c-0.137,3.009 -0.006,2.848 -2.243,2.751l-1.321,-0.057l-0.051,-4.919c-0.028,-2.705 -0.009,-5.026 0.041,-5.158c0.066,-0.172 0.639,-0.24 2.02,-0.24l1.928,0Zm113.8,5.301c0.36,0 1.087,0.092 1.614,0.206l0.962,0.206l-0.053,2.302l-0.053,2.302l-1.489,-0.024c-1.577,-0.025 -1.914,-0.204 -1.734,-0.922c0.052,-0.209 0.095,-1.21 0.097,-2.225l0.002,-1.845l0.654,0Zm-2.309,0.142c-0.071,0.182 -0.132,1.268 -0.136,2.413l-0.007,2.082l1.136,0l0.053,-2.256c0.04,-1.678 -0.008,-2.296 -0.189,-2.411c-0.392,-0.249 -0.719,-0.184 -0.857,0.172Zm-5.041,-0.749c-0.119,0.193 -0.197,4.567 -0.083,4.681c0.159,0.159 3.72,0.521 4.015,0.408c0.255,-0.098 0.303,-0.477 0.303,-2.381c0,-2.568 0.133,-2.378 -1.798,-2.571c-0.625,-0.063 -1.406,-0.156 -1.736,-0.207c-0.331,-0.051 -0.646,-0.019 -0.701,0.07Zm-42.045,-0.006c0.123,0.088 0.157,0.933 0.095,2.309l-0.099,2.17l-0.611,0.124c-0.335,0.068 -1.208,0.183 -1.94,0.255l-1.33,0.131l0,-2.165c0,-2.587 -0.005,-2.581 2.034,-2.776c0.807,-0.077 1.51,-0.15 1.563,-0.163c0.052,-0.013 0.181,0.039 0.288,0.115Zm38.418,-0.09c-0.057,0.23 -0.079,1.356 -0.049,2.501l0.055,2.082l1.294,0.095c1.592,0.116 1.587,0.122 1.627,-1.988c0.018,-0.937 0.076,-1.88 0.13,-2.096c0.141,-0.569 -0.238,-0.772 -1.676,-0.899c-1.205,-0.107 -1.282,-0.09 -1.381,0.305Zm-2.252,-0.397c-0.044,0.136 -0.134,1.169 -0.202,2.294c-0.135,2.264 -0.028,2.592 0.851,2.592c0.86,0 0.964,-0.318 0.906,-2.772l-0.054,-2.245l-0.711,-0.059c-0.464,-0.038 -0.739,0.028 -0.79,0.19Zm-4.188,-0.399c-0.087,0.141 -0.194,1.204 -0.239,2.363c-0.093,2.446 -0.23,2.281 2.052,2.472l1.51,0.125l0,-1.42c0,-0.781 0.046,-1.795 0.103,-2.252c0.056,-0.457 0.032,-0.934 -0.054,-1.059c-0.241,-0.352 -3.173,-0.551 -3.372,-0.229Zm-3.59,-0.578c-0.146,0.236 -0.259,4.648 -0.123,4.835c0.212,0.295 2.807,0.336 2.906,0.046c0.364,-1.065 0.171,-4.685 -0.254,-4.774c-0.86,-0.178 -2.444,-0.246 -2.529,-0.107Zm-1.674,-0.239c-0.193,0.312 -0.196,4.778 -0.003,4.97c0.694,0.694 1.496,-4.027 0.822,-4.839c-0.247,-0.298 -0.673,-0.366 -0.819,-0.131Zm-4.807,-0.496c-0.277,0.278 -0.34,4.807 -0.069,4.975c0.092,0.057 1.029,0.16 2.083,0.229l1.915,0.125l0,-2.485c0,-2.825 0.186,-2.552 -1.893,-2.766c-0.573,-0.059 -1.212,-0.154 -1.42,-0.211c-0.209,-0.057 -0.485,0.003 -0.616,0.133Zm-5.632,-0.185c-0.06,0.243 -0.085,1.375 -0.054,2.517l0.055,2.076l2.169,0.242c2.616,0.291 2.41,0.487 2.574,-2.444l0.134,-2.404l-0.451,-0.094c-1.855,-0.389 -4.318,-0.329 -4.427,0.107Zm-1.749,-0.553c-0.194,0.244 -0.446,4.406 -0.293,4.827c0.132,0.361 0.961,0.288 1.075,-0.094c0.258,-0.858 0.194,-4.615 -0.081,-4.789c-0.369,-0.233 -0.479,-0.224 -0.701,0.056Zm45.932,0.91c-0.12,-0.022 -0.254,-0.048 -0.406,-0.077l-1.088,-0.204l0,-2.326c0,-2.568 -0.121,-2.444 1.494,-2.218l0,4.825Zm-3.243,-2.9c-0.107,2.429 -0.059,2.748 0.4,2.66c0.509,-0.098 0.563,-4.882 0.056,-4.882c-0.325,0 -0.367,0.204 -0.456,2.222Zm-4.181,-2.666c-0.07,0.071 -0.128,0.887 -0.128,1.813c0,0.927 -0.084,1.842 -0.186,2.033c-0.352,0.657 0.299,1.09 1.795,1.193c1.894,0.131 1.799,0.26 1.799,-2.425l0,-2.342l-0.616,-0.094c-1.478,-0.225 -2.545,-0.297 -2.664,-0.178Zm-3.985,1.762c-0.162,2.858 -0.357,2.634 2.527,2.898l0.469,0.043l0.05,-2.403c0.027,-1.323 -0.014,-2.442 -0.09,-2.487c-0.077,-0.046 -0.745,-0.143 -1.483,-0.216l-1.343,-0.132l-0.13,2.297Zm-1.557,-2.423c-0.333,0.538 -0.462,4.46 -0.156,4.714c0.703,0.583 1.487,-0.843 0.984,-1.791c-0.112,-0.212 -0.138,-0.884 -0.065,-1.632c0.123,-1.241 -0.325,-1.999 -0.763,-1.291Zm-5.108,-0.574c-0.1,0.162 -0.287,2.22 -0.333,3.661c-0.035,1.098 -0.059,1.084 2.518,1.41c1.054,0.133 1.664,0.138 1.788,0.015c0.16,-0.16 0.226,-4.493 0.071,-4.648c-0.149,-0.149 -3.967,-0.562 -4.044,-0.438Zm-41.739,2.069c-0.023,2.62 0.101,2.449 -2.069,2.835c-2.19,0.39 -1.994,0.572 -1.949,-1.802c0.043,-2.261 0.177,-2.552 1.18,-2.565c0.267,-0.003 0.953,-0.171 1.526,-0.372c0.573,-0.202 1.106,-0.369 1.186,-0.373c0.08,-0.003 0.137,1.021 0.126,2.277Zm38.777,-2.506c0.214,0.003 0.468,0.014 0.735,0.034l1.296,0.094l0,4.922l-1.041,-0.052c-0.573,-0.029 -1.245,-0.098 -1.495,-0.153l-0.454,-0.1l0.13,-2.29c0.071,-1.26 0.16,-2.341 0.199,-2.403c0.019,-0.031 0.182,-0.049 0.43,-0.052l0.2,0Zm-3.109,-0.203c-0.069,1.478 -0.096,4.621 -0.04,4.67c0.038,0.033 0.389,0.118 0.781,0.189c0.875,0.158 0.846,0.238 0.952,-2.585l0.084,-2.223l-0.685,-0.19c-0.938,-0.261 -1.074,-0.243 -1.092,0.139Zm-4.14,-0.674c-0.056,0.148 -0.079,1.329 -0.049,2.625l0.053,2.356l1.585,0.163c1.266,0.13 1.618,0.111 1.748,-0.095c0.273,-0.43 0.211,-4.891 -0.067,-4.92c-0.13,-0.013 -0.663,-0.044 -1.183,-0.068c-0.521,-0.024 -1.18,-0.108 -1.465,-0.187c-0.374,-0.103 -0.547,-0.067 -0.622,0.126Zm-3.548,-0.196c-0.055,0.244 -0.112,1.361 -0.127,2.482c-0.031,2.332 -0.108,2.23 1.72,2.282l1.202,0.034l0.104,-2.177c0.122,-2.55 0.113,-2.597 -0.546,-2.726c-1.894,-0.372 -2.249,-0.356 -2.353,0.105Zm-1.576,-0.337c-0.061,0.158 -0.124,1.336 -0.141,2.617l-0.031,2.329l0.946,0l0,-2.553c0,-2.283 -0.035,-2.56 -0.332,-2.617c-0.182,-0.035 -0.381,0.066 -0.442,0.224Zm-4.794,-0.551c-0.085,0.108 -0.208,1.194 -0.275,2.414c-0.144,2.646 -0.223,2.553 2.313,2.733l1.694,0.12l0.128,-1.4c0.07,-0.769 0.1,-1.91 0.066,-2.535l-0.061,-1.136l-1.856,-0.196c-1.283,-0.136 -1.903,-0.136 -2.009,0Zm-5.478,-0.662c-0.081,0.055 -0.17,1.182 -0.197,2.503l-0.049,2.403l0.629,0.089c2.731,0.389 3.676,0.455 3.895,0.273c0.342,-0.284 0.332,-4.569 -0.011,-4.854c-0.266,-0.22 -4.02,-0.585 -4.267,-0.414Zm-1.993,0.148c-0.056,0.287 -0.126,1.415 -0.157,2.509l-0.055,1.987l0.568,0c0.538,0 0.574,-0.048 0.693,-0.946c0.212,-1.603 0.177,-3.598 -0.068,-3.843c-0.403,-0.402 -0.872,-0.262 -0.981,0.293Zm45.674,1.193c-1.389,-0.111 -1.356,-0.167 -1.319,-2.389c0.018,-1.138 0.081,-2.26 0.139,-2.494c0.058,-0.233 0.185,-0.375 0.283,-0.314c0.088,0.054 0.471,0.143 0.897,0.212l0,4.985Zm-2.031,-5.31l-0.063,2.414c-0.061,2.338 -0.076,2.415 -0.49,2.474c-0.611,0.087 -0.677,-0.257 -0.523,-2.716c0.134,-2.149 0.14,-2.172 0.606,-2.172l0.47,0Zm-5.211,-0.472c-0.066,0.173 -0.121,1.318 -0.121,2.545l0,2.232l1.562,0.201c1.952,0.251 1.868,0.364 1.805,-2.439l-0.054,-2.351l-1.041,-0.119c-0.573,-0.065 -1.264,-0.178 -1.536,-0.251c-0.369,-0.098 -0.526,-0.051 -0.615,0.182Zm-117.351,4.637l-4.303,0l0,-10.791l1.656,0.003c0.928,0.002 1.99,0.12 2.414,0.269l0.757,0.265l-0.053,2.808c-0.029,1.544 -0.147,3.851 -0.262,5.127l-0.209,2.319Zm113.569,-3.592c-0.069,0.966 -0.125,2.067 -0.125,2.446l0,0.69l1.353,0.232c1.651,0.283 1.469,0.54 1.612,-2.272c0.137,-2.702 0.231,-2.544 -1.641,-2.74l-1.074,-0.112l-0.125,1.756Zm-1.697,-1.956c-0.051,0.084 -0.123,1.217 -0.159,2.519l-0.067,2.366l0.946,0l0,-2.458c0,-2.372 -0.246,-3.203 -0.72,-2.427Zm-5.279,1.592c-0.07,2.74 -0.128,2.622 1.382,2.818c0.665,0.086 1.575,0.219 2.02,0.294l0.81,0.137l-0.053,-2.516c-0.049,-2.345 -0.078,-2.52 -0.431,-2.583c-0.43,-0.076 -3.339,-0.438 -3.539,-0.44c-0.072,-0.001 -0.157,1.03 -0.189,2.29Zm-41.223,-1.311c-0.07,3.131 -0.093,3.186 -1.499,3.57c-2.98,0.816 -2.844,0.93 -2.658,-2.22c0.15,-2.544 0.197,-2.704 0.799,-2.719c0.228,-0.006 1.011,-0.165 1.74,-0.353c1.655,-0.428 1.666,-0.417 1.618,1.722Zm37.757,0.392c-0.208,3.079 -0.22,3.045 1.188,3.245c1.464,0.209 1.317,0.459 1.396,-2.382l0.066,-2.402l-1.151,-0.201c-0.633,-0.11 -1.2,-0.2 -1.259,-0.2c-0.06,0 -0.168,0.873 -0.24,1.94Zm-2.056,-2.163c-0.041,0.071 -0.135,1.17 -0.209,2.444l-0.134,2.315l0.478,0.218c0.861,0.392 0.992,0.173 1.04,-1.753c0.024,-0.974 0.093,-2.048 0.152,-2.386c0.06,-0.338 0.077,-0.615 0.039,-0.615c-0.038,0 -0.345,-0.079 -0.681,-0.176c-0.336,-0.096 -0.645,-0.117 -0.685,-0.047Zm-4.356,0.17c-0.066,0.474 -0.119,1.602 -0.119,2.506l0,1.643l1.5,0.244c1.94,0.315 1.863,0.416 1.836,-2.396l-0.023,-2.417l-1.294,-0.128c-0.711,-0.071 -1.404,-0.17 -1.538,-0.222c-0.168,-0.065 -0.281,0.174 -0.362,0.77Zm-3.603,1.101c-0.154,2.781 -0.25,2.566 1.242,2.771c1.47,0.201 1.379,0.351 1.453,-2.397c0.07,-2.632 0.194,-2.426 -1.596,-2.653l-0.965,-0.122l-0.134,2.401Zm-1.6,-2.414c-0.261,0.505 -0.241,4.641 0.023,4.804c0.545,0.337 0.707,-0.257 0.707,-2.589c0,-2.344 -0.258,-3.126 -0.73,-2.215Zm-4.759,-0.717c-0.13,0.081 -0.183,0.96 -0.149,2.476l0.054,2.352l1.759,0.259c2.123,0.314 1.885,0.586 1.957,-2.236l0.06,-2.356l-0.588,-0.152c-1.027,-0.266 -2.884,-0.472 -3.093,-0.343Zm-1.136,4.733l-0.555,0c-1.084,0 -3.519,-0.409 -3.746,-0.629c-0.179,-0.174 -0.182,-0.734 -0.012,-2.542c0.177,-1.882 0.274,-2.319 0.514,-2.321l0.039,0.001c0.24,0.01 1.105,0.109 2.008,0.229l1.752,0.232l0,5.03Zm-6.219,-3.486c-0.165,1.789 -0.167,2.468 -0.007,2.66c0.226,0.272 0.918,0.358 0.934,0.116c0.19,-2.872 0.057,-5.068 -0.31,-5.12c-0.375,-0.054 -0.409,0.074 -0.617,2.344Zm44.079,-0.111l0,-2.334c0,-1.285 0.056,-2.39 0.123,-2.458c0.068,-0.068 0.302,-0.087 0.521,-0.042c0.106,0.021 0.278,0.053 0.472,0.087l0,4.769c-0.172,-0.014 -0.339,-0.022 -0.477,-0.022l-0.639,0Zm-1.742,-2.898c-0.071,2.219 0.126,3.094 0.585,2.606c0.426,-0.451 0.333,-4.72 -0.104,-4.783c-0.396,-0.056 -0.411,0.013 -0.481,2.177Zm-4.195,-0.601c-0.148,2.768 -0.156,2.742 0.886,2.742c0.437,0 1.05,0.072 1.361,0.16c1.003,0.284 1.04,0.199 1.04,-2.349c0,-2.647 0.159,-2.404 -1.712,-2.617c-0.473,-0.054 -0.993,-0.149 -1.154,-0.211c-0.252,-0.096 -0.312,0.228 -0.421,2.275Zm-3.138,-2.828c0.363,0.005 0.904,0.09 1.598,0.254l0.568,0.134l0,4.709l-0.99,-0.026c-0.544,-0.014 -1.209,-0.081 -1.478,-0.148l-0.488,-0.123l0.07,-2.225c0.038,-1.224 0.129,-2.323 0.203,-2.442c0.054,-0.087 0.209,-0.131 0.458,-0.133l0.059,0Zm-2.34,-0.167c-0.338,0.559 -0.133,4.746 0.238,4.843c0.533,0.14 0.532,0.144 0.601,-2.513c0.06,-2.295 0.05,-2.368 -0.342,-2.425c-0.222,-0.032 -0.446,0.011 -0.497,0.095Zm-5.117,-0.762c-0.07,0.069 -0.126,1.17 -0.126,2.446l0,2.319l0.52,0.102c1.054,0.206 3.489,0.525 3.544,0.464c0.225,-0.251 0.286,-4.681 0.066,-4.823c-0.48,-0.308 -3.784,-0.728 -4.004,-0.508Zm-2.351,-0.568c1.508,0.154 1.492,0.123 1.402,2.768c-0.091,2.633 0.005,2.48 -1.437,2.313l-1.148,-0.133l0,-5.069l1.183,0.121Zm-38.826,1.864c-0.036,1.04 -0.125,1.954 -0.197,2.031c-0.101,0.108 -3.406,0.9 -3.753,0.9c-0.038,0 -0.044,-0.778 -0.014,-1.73l0.055,-1.731l0.98,-0.306c0.539,-0.169 1.043,-0.369 1.12,-0.446c0.077,-0.078 0.286,-0.141 0.464,-0.141c0.178,0 0.433,-0.131 0.566,-0.292c0.625,-0.752 0.848,-0.26 0.779,1.715Zm35.603,-2.146c-0.157,0.157 -0.232,0.973 -0.232,2.536l0,2.305l0.599,0.119c0.329,0.066 0.617,0.098 0.64,0.071c0.206,-0.238 0.189,-5.065 -0.018,-5.065c-0.134,0 -0.359,-0.044 -0.5,-0.099c-0.142,-0.054 -0.362,0.006 -0.489,0.133Zm-4.462,0.487c-0.067,0.703 -0.121,1.847 -0.122,2.544l-0.002,1.266l0.9,0.108c0.494,0.059 1.225,0.182 1.623,0.273c0.881,0.201 0.824,0.356 0.965,-2.633l0.111,-2.371l-1.227,-0.232c-2.147,-0.408 -2.109,-0.425 -2.248,1.045Zm-3.429,-1.612c-0.042,0.132 -0.109,1.28 -0.147,2.552c-0.078,2.577 -0.166,2.414 1.411,2.611l1.047,0.13l0.115,-1.012c0.189,-1.649 0.194,-3.952 0.01,-4.121c-0.317,-0.29 -2.351,-0.423 -2.436,-0.16Zm-1.806,2.112c0,2.357 0.043,2.765 0.29,2.765c0.16,0 0.323,-0.106 0.364,-0.236c0.161,-0.515 0.256,-5.064 0.106,-5.064c-0.089,0 -0.296,-0.052 -0.46,-0.115c-0.265,-0.102 -0.3,0.206 -0.3,2.65Zm-4.476,-3.448c0.048,0.003 0.104,0.017 0.17,0.035c0.234,0.062 1.086,0.214 1.893,0.339l1.467,0.226l0,5.288l-0.994,-0.129c-2.524,-0.326 -2.886,-0.406 -2.868,-0.634c0.01,-0.13 0.032,-1.354 0.047,-2.72c0.024,-2.012 0.029,-2.394 0.258,-2.405l0.027,0Zm-5.407,0.985c-0.022,1.002 -0.043,2.219 -0.047,2.705l-0.008,0.884l1.136,0.24c0.624,0.131 1.528,0.245 2.008,0.251l0.873,0.012l0.119,-0.993c0.171,-1.422 0.151,-4.078 -0.031,-4.191c-0.086,-0.053 -0.831,-0.184 -1.657,-0.292c-0.826,-0.108 -1.693,-0.25 -1.928,-0.316c-0.418,-0.118 -0.426,-0.089 -0.465,1.7Zm-1.751,-1.729c-0.584,1.854 -0.194,5.8 0.504,5.102c0.453,-0.453 0.433,-5.338 -0.022,-5.338c-0.224,0 -0.441,0.106 -0.482,0.236Zm44.553,-2.034l0,4.623c-0.402,-0.057 -0.723,-0.153 -0.781,-0.243c-0.169,-0.262 -0.186,-2.785 -0.025,-3.759l0.116,-0.703l0.69,0.082Zm-2.638,-0.447c-0.066,0.525 -0.094,4.295 -0.034,4.469c0.045,0.13 0.286,0.237 0.535,0.237c0.453,0 0.453,-0.002 0.453,-2.272c0,-1.253 -0.077,-2.272 -0.173,-2.272c-0.096,0 -0.309,-0.051 -0.474,-0.115c-0.164,-0.063 -0.303,-0.084 -0.307,-0.047Zm-0.939,4.327l-0.498,0c-0.275,0 -1.041,-0.1 -1.704,-0.222l-1.205,-0.222l0,-0.791c0,-0.434 0.056,-1.451 0.124,-2.259l0.124,-1.47l0.775,0.124c0.427,0.069 1.137,0.174 1.58,0.235l0.804,0.111l0,4.494Zm-125.275,-6.01l0.051,5.347l2.555,0.104c2.99,0.12 2.833,0.225 2.836,-1.902c0.002,-0.885 0.101,-2.951 0.22,-4.592c0.241,-3.291 0.09,-3.923 -0.863,-3.616c-0.498,0.161 -0.437,0.168 -2.553,-0.297c-0.979,-0.216 -1.896,-0.392 -2.038,-0.392c-0.213,0 -0.249,0.933 -0.208,5.348Zm119.588,0.604c1.687,0.257 1.66,0.21 1.535,2.661l-0.107,2.082l-0.757,-0.048c-0.417,-0.027 -1.034,-0.094 -1.373,-0.15l-0.615,-0.103l0,-4.643l1.317,0.201Zm-3.081,-0.32c-0.346,0.594 -0.01,4.499 0.392,4.556c0.422,0.06 0.426,0.04 0.426,-2.319c0,-2.229 -0.024,-2.379 -0.368,-2.379c-0.202,0 -0.404,0.064 -0.45,0.142Zm-5.24,1.372c0,1.249 0.054,2.272 0.119,2.272c0.066,0 0.968,0.135 2.004,0.299c1.036,0.165 1.915,0.269 1.953,0.231c0.097,-0.097 0.349,-4.504 0.258,-4.515c-0.041,-0.005 -0.841,-0.13 -1.778,-0.277c-2.818,-0.443 -2.556,-0.648 -2.556,1.99Zm-3.293,-0.851c-0.154,2.58 -0.217,2.424 1.108,2.742c1.319,0.317 1.228,0.471 1.285,-2.188l0.048,-2.254l-0.757,-0.11c-0.417,-0.06 -0.936,-0.169 -1.155,-0.242c-0.385,-0.129 -0.403,-0.06 -0.529,2.052Zm-37.357,-1.323c-0.025,0.831 -0.093,1.869 -0.153,2.306l-0.107,0.794l-1.89,0.603c-1.039,0.332 -1.946,0.546 -2.016,0.476c-0.307,-0.307 0.039,-4.187 0.394,-4.418c0.467,-0.303 3.263,-1.336 3.532,-1.305c0.23,0.027 0.276,0.319 0.24,1.544Zm35.124,1.141c-0.063,2.369 0.005,2.547 0.976,2.547c0.384,0 0.395,-0.073 0.344,-2.318l-0.053,-2.319l-0.604,-0.059l-0.604,-0.058l-0.059,2.207Zm-3.26,-2.821c0.582,0.068 1.359,0.228 1.727,0.354l0.669,0.23l-0.034,2.151c-0.041,2.574 0.179,2.322 -1.789,2.047l-1.631,-0.228l0,-4.679l1.058,0.125Zm-4.528,-0.547c-0.174,0.292 -0.141,4.37 0.037,4.48c0.1,0.062 0.701,0.167 1.335,0.233l1.152,0.121l0.028,-2.015c0.016,-1.108 0.037,-2.115 0.047,-2.237c0.029,-0.332 -2.421,-0.881 -2.599,-0.582Zm-1.725,1.673c-0.131,2.137 0.087,3.167 0.569,2.685c0.299,-0.299 0.181,-4.773 -0.128,-4.835c-0.26,-0.053 -0.324,0.26 -0.441,2.15Zm-4.732,-0.766c-0.085,1.377 -0.066,2.284 0.049,2.399c0.157,0.158 2.73,0.702 3.371,0.713c0.24,0.004 0.49,-4.343 0.264,-4.596c-0.074,-0.082 -0.723,-0.223 -1.442,-0.312c-0.719,-0.09 -1.487,-0.22 -1.706,-0.291c-0.386,-0.124 -0.404,-0.054 -0.536,2.087Zm-5.064,-0.746c-0.07,2.632 -0.146,2.482 1.369,2.712c0.673,0.103 1.542,0.244 1.933,0.314l0.709,0.128l0.002,-1.019c0.001,-0.56 0.055,-1.587 0.12,-2.281l0.12,-1.262l-0.736,-0.188c-0.839,-0.215 -2.924,-0.6 -3.244,-0.6c-0.143,0 -0.233,0.725 -0.273,2.196Zm-1.621,-2.24c-0.344,0.885 -0.154,4.492 0.237,4.492c0.519,0 0.699,-4.511 0.188,-4.707c-0.182,-0.069 -0.346,0.013 -0.425,0.215Zm44.041,-1.772l0,4.759l-0.122,-0.019l-0.615,-0.102l0,-4.739l0.737,0.101Zm-2.441,1.611c0,1.137 -0.048,2.194 -0.108,2.349c-0.096,0.25 0.579,0.668 0.769,0.476c0.244,-0.246 0.314,-4.569 0.076,-4.719c-0.658,-0.417 -0.737,-0.215 -0.737,1.894Zm-3.878,-2.77c0.041,0.003 0.087,0.013 0.14,0.023c0.234,0.047 0.958,0.188 1.609,0.314l1.183,0.228l0,4.73l-0.805,-0.129c-0.442,-0.071 -1.166,-0.179 -1.609,-0.239l-0.804,-0.111l0,-2.439c0,-2.049 0.001,-2.376 0.256,-2.378l0.03,0.001Zm-3.971,0.845c-0.067,0.807 -0.154,1.833 -0.194,2.281c-0.084,0.945 0.069,1.049 1.856,1.272l1.076,0.135l0,-2.199c0,-1.209 0.004,-2.26 0.009,-2.335c0.01,-0.138 -1.728,-0.598 -2.312,-0.613c-0.257,-0.007 -0.337,0.26 -0.435,1.459Zm-1.841,0.379c-0.067,2.549 -0.045,2.697 0.413,2.697c0.462,0 0.564,-0.518 0.567,-2.887c0.002,-2.031 0.002,-2.035 -0.46,-2.035c-0.46,0 -0.462,0.009 -0.52,2.225Zm-5.164,-0.87c-0.17,2.845 -0.435,2.605 3.455,3.13l0.81,0.109l-0.053,-2.439l-0.053,-2.439l-0.474,-0.048c-0.26,-0.026 -0.899,-0.129 -1.419,-0.229c-0.521,-0.1 -1.213,-0.223 -1.538,-0.274l-0.592,-0.092l-0.136,2.282Zm-3.325,-2.538c-0.003,0.182 -0.049,1.27 -0.101,2.417l-0.095,2.085l1.177,0.223c1.543,0.294 1.486,0.382 1.486,-2.29l0,-2.322l-0.961,-0.222c-1.285,-0.297 -1.499,-0.281 -1.506,0.109Zm-2.157,1.587c-0.143,2.439 -0.075,2.7 0.674,2.594c0.515,-0.073 0.96,-4.103 0.513,-4.643c-0.733,-0.882 -1.047,-0.339 -1.187,2.049Zm-34.914,-1.505c-0.109,2.628 -0.181,2.822 -1.167,3.148c-0.466,0.153 -1.29,0.445 -1.831,0.648c-1.306,0.491 -1.349,0.436 -1.254,-1.603c0.122,-2.609 0.062,-2.492 1.525,-2.982c0.704,-0.235 1.494,-0.543 1.754,-0.684c0.929,-0.501 1.048,-0.321 0.973,1.473Zm30.541,0.651c-0.073,1.27 -0.083,2.39 -0.022,2.488c0.112,0.181 1.816,0.574 2.867,0.66l0.568,0.047l0.053,-2.417c0.04,-1.837 -0.006,-2.435 -0.19,-2.49c-0.133,-0.04 -0.895,-0.19 -1.692,-0.334l-1.451,-0.262l-0.133,2.308Zm-3.398,-2.804c-0.055,0.055 -0.099,1.187 -0.099,2.517l0,2.418l0.899,0.122c0.495,0.067 0.985,0.125 1.089,0.129c0.665,0.023 0.674,-0.014 0.621,-2.451l-0.053,-2.412l-1.179,-0.211c-0.649,-0.116 -1.224,-0.166 -1.278,-0.112Zm-1.669,-0.211c-0.384,0.643 -0.341,4.759 0.05,4.883c0.57,0.181 0.55,0.269 0.585,-2.465c0.031,-2.35 -0.185,-3.172 -0.635,-2.418Zm-4.764,-0.838c-0.138,0.44 -0.244,4.452 -0.124,4.648c0.105,0.169 3.422,0.861 3.545,0.739c0.025,-0.025 0.073,-1.144 0.107,-2.486l0.061,-2.44l-1.136,-0.228c-2.322,-0.468 -2.378,-0.473 -2.453,-0.233Zm-5.024,4.114l0,-2.429c0,-1.337 0.056,-2.487 0.126,-2.556c0.184,-0.184 0.729,-0.134 2.429,0.225l1.515,0.319l-0.055,1.227c-0.175,3.883 -0.095,3.725 -1.753,3.441c-0.727,-0.125 -1.532,-0.227 -1.793,-0.227l-0.469,0Zm-1.572,-5.358c-0.05,0.084 -0.154,1.238 -0.229,2.566l-0.138,2.413l1.003,0l-0.053,-2.492c-0.048,-2.29 -0.231,-3.069 -0.583,-2.487Zm43.577,-0.38l0,4.643c-0.674,-0.182 -0.608,-0.451 -0.427,-3.015l0.122,-1.707l0.305,0.079Zm-1.305,4.224l-0.462,0c-0.542,0 -0.618,-0.434 -0.518,-2.982c0.059,-1.509 0.077,-1.562 0.521,-1.562l0.459,0l0,4.544Zm-4.978,-5.361c-0.052,0.085 -0.106,1.138 -0.12,2.339l-0.024,2.184l1.094,0.233c0.602,0.128 1.307,0.253 1.567,0.277l0.473,0.044l0.053,-2.286l0.053,-2.285l-1.23,-0.226c-0.676,-0.125 -1.351,-0.274 -1.5,-0.331c-0.15,-0.057 -0.314,-0.034 -0.366,0.051Zm-3.701,-0.738c-0.148,0.049 -0.218,0.785 -0.218,2.285l0,2.213l0.999,0.232c1.489,0.346 1.838,0.31 1.853,-0.193c0.007,-0.234 0.054,-1.235 0.105,-2.224l0.092,-1.799l-1.307,-0.293c-0.719,-0.162 -1.405,-0.261 -1.524,-0.221Zm-1.812,-0.363c-0.519,0.841 -0.014,5.293 0.539,4.74c0.378,-0.378 0.327,-4.663 -0.057,-4.763c-0.221,-0.058 -0.438,-0.048 -0.482,0.023Zm-5.286,0.438c-0.067,0.866 -0.123,1.925 -0.123,2.352l-0.001,0.777l2.113,0.406c1.163,0.224 2.133,0.385 2.155,0.359c0.023,-0.026 0.073,-1.062 0.111,-2.301l0.069,-2.254l-0.473,-0.135c-0.26,-0.075 -1.027,-0.238 -1.704,-0.362c-0.677,-0.125 -1.409,-0.27 -1.627,-0.322c-0.372,-0.089 -0.405,0.004 -0.52,1.48Zm-2.85,-2.116c0.279,0 0.845,0.101 1.259,0.225l0.754,0.226l-0.082,2.137c-0.096,2.507 -0.053,2.436 -1.331,2.219l-0.998,-0.17l-0.053,-2.319l-0.053,-2.318l0.504,0Zm-37.372,1.23c-0.064,2.048 -0.314,2.556 -1.257,2.556c-0.232,0 -0.883,0.157 -1.446,0.349c-1.473,0.503 -1.497,0.477 -1.497,-1.661c0,-2.217 0.101,-2.357 1.979,-2.75c0.702,-0.147 1.329,-0.319 1.393,-0.382c0.611,-0.612 0.887,0.017 0.828,1.888Zm34.896,-1.548c-0.037,0.122 -0.111,1.176 -0.164,2.341l-0.097,2.117l0.568,0.125c0.736,0.162 0.68,0.328 0.757,-2.264l0.067,-2.258l-0.531,-0.142c-0.353,-0.095 -0.555,-0.068 -0.6,0.081Zm-4.52,0.153c-0.067,0.642 -0.122,1.694 -0.122,2.339l0,1.172l1.278,0.228c2.5,0.444 2.449,0.504 2.491,-2.959c0.017,-1.352 0.009,-1.373 -0.469,-1.373c-0.267,0 -0.629,-0.073 -0.804,-0.164c-0.176,-0.09 -0.754,-0.219 -1.286,-0.287l-0.966,-0.122l-0.122,1.166Zm-3.242,-1.735c-0.043,0.07 -0.137,1.102 -0.208,2.293l-0.13,2.165l0.88,0.235c0.484,0.13 1.091,0.235 1.35,0.235l0.47,0l0,-1.972c0,-1.085 0.048,-2.096 0.106,-2.247c0.061,-0.16 -0.038,-0.332 -0.237,-0.41c-0.569,-0.224 -2.146,-0.436 -2.231,-0.299Zm-1.778,-0.387c-0.443,0.274 -0.198,4.653 0.26,4.653c0.355,0 0.382,-0.144 0.431,-2.297c0.054,-2.338 -0.065,-2.743 -0.691,-2.356Zm-5.004,3.801l0.123,-2.289c0.067,-1.258 0.166,-2.359 0.22,-2.445c0.053,-0.086 0.373,-0.089 0.71,-0.006c0.338,0.083 1.104,0.253 1.702,0.377l1.089,0.225l0,4.719l-0.994,-0.128c-0.546,-0.071 -1.191,-0.201 -1.432,-0.291c-0.241,-0.089 -0.658,-0.162 -0.928,-0.162l-0.49,0Zm-4.553,-5.292c-0.067,0.334 -0.122,1.431 -0.122,2.439l0,1.832l1.798,0.353c2.156,0.424 1.92,0.661 2.034,-2.044c0.108,-2.552 0.225,-2.37 -1.772,-2.759c-0.56,-0.109 -1.198,-0.25 -1.418,-0.313c-0.333,-0.096 -0.419,-0.014 -0.52,0.492Zm-1.652,-0.908c-0.009,0.026 -0.041,0.431 -0.07,0.899c-0.03,0.469 -0.115,1.543 -0.19,2.387c-0.139,1.552 0.022,1.983 0.603,1.619c0.162,-0.102 0.368,-3.757 0.266,-4.715c-0.021,-0.193 -0.552,-0.358 -0.609,-0.19Zm43.157,0.202l0,4.739c-0.389,-0.224 -0.358,-0.744 -0.358,-2.327c0,-1.22 0.061,-2.281 0.136,-2.355c0.029,-0.03 0.11,-0.049 0.222,-0.057Zm-1.957,-0.399c-0.508,1.576 -0.058,5.467 0.56,4.849c0.359,-0.359 0.293,-4.68 -0.074,-4.876c-0.318,-0.17 -0.425,-0.164 -0.486,0.027Zm-4.27,1.436l0,2.421l1.467,0.309c0.807,0.17 1.527,0.252 1.599,0.182c0.195,-0.19 0.226,-4.39 0.033,-4.58c-0.121,-0.12 -2.682,-0.753 -3.051,-0.754c-0.027,0 -0.048,1.09 -0.048,2.422Zm-3.597,-1.04c0,1.201 -0.047,2.309 -0.106,2.461c-0.077,0.2 0.07,0.306 0.521,0.378c0.344,0.056 0.975,0.16 1.401,0.233l0.775,0.131l0.127,-2.223c0.142,-2.494 0.087,-2.652 -0.974,-2.801c-0.386,-0.054 -0.937,-0.158 -1.223,-0.23l-0.521,-0.132l0,2.183Zm-0.946,2.404l-0.947,0l0,-4.922l0.947,0l0,4.922Zm-6.086,-3.884c-0.016,1.199 -0.037,2.281 -0.048,2.403c-0.02,0.243 0.641,0.487 1.969,0.725c0.469,0.084 1.172,0.214 1.562,0.29l0.71,0.137l0.028,-1.586c0.016,-0.873 0.037,-1.965 0.047,-2.426l0.019,-0.84l-1.609,-0.311c-0.885,-0.171 -1.843,-0.37 -2.129,-0.442l-0.521,-0.131l-0.028,2.181Zm-2.631,-2.716c0.202,0.015 0.481,0.088 0.872,0.186l0.841,0.212l0,4.688l-0.521,-0.001c-1.968,-0.004 -2.076,-0.215 -1.816,-3.549c0.092,-1.186 0.107,-1.545 0.56,-1.539l0.064,0.003Zm-37.261,0.843c-0.04,1.345 -0.131,2.604 -0.203,2.799c-0.136,0.372 -2.908,1.432 -3.765,1.44l-0.443,0.004l0.134,-2.509c0.133,-2.479 0.264,-2.981 0.778,-2.981c0.144,0 0.453,-0.099 0.686,-0.219c0.898,-0.464 1.092,-0.539 1.415,-0.544c0.184,-0.004 0.501,-0.133 0.705,-0.287c0.688,-0.521 0.768,-0.257 0.693,2.297Zm34.717,-1.251c-0.046,0.074 -0.141,1.158 -0.212,2.408l-0.128,2.274l0.508,0.128c0.81,0.203 0.87,0.035 0.87,-2.429l0,-2.333l-0.477,-0.091c-0.263,-0.051 -0.516,-0.031 -0.561,0.043Zm-4.599,1.343l0.053,2.505l1.609,0.325c1.939,0.392 1.678,0.671 1.882,-2.011c0.199,-2.629 0.299,-2.442 -1.506,-2.819c-0.779,-0.162 -1.569,-0.342 -1.754,-0.4c-0.313,-0.097 -0.333,0.073 -0.284,2.4Zm-3.451,-1.684c-0.001,0.762 -0.054,1.819 -0.117,2.349l-0.116,0.963l0.827,0.209c0.455,0.116 1.062,0.259 1.348,0.319l0.521,0.109l0,-1.684c0,-0.926 0.048,-1.928 0.106,-2.228c0.158,-0.809 -0.229,-1.148 -1.479,-1.295l-1.088,-0.128l-0.002,1.386Zm-1.736,0.156c-0.018,1.145 -0.04,2.274 -0.047,2.508c-0.01,0.304 0.095,0.426 0.365,0.426c0.521,0 0.808,-4.379 0.314,-4.78c-0.535,-0.434 -0.598,-0.25 -0.632,1.846Zm-4.657,-0.452l0.053,2.439l0.473,0.056c0.261,0.03 1.007,0.183 1.66,0.34c0.652,0.157 1.248,0.247 1.325,0.2c0.224,-0.139 0.293,-4.607 0.073,-4.743c-0.227,-0.14 -1.677,-0.457 -2.827,-0.617l-0.81,-0.114l0.053,2.439Zm-4.48,-3.351c-0.058,0.094 -0.161,1.193 -0.228,2.441l-0.122,2.268l1.116,0.23c0.614,0.126 1.364,0.305 1.666,0.398c1.077,0.332 1.06,0.367 1.06,-2.261l0,-2.431l-1.089,-0.24c-0.598,-0.132 -1.335,-0.316 -1.637,-0.409c-0.671,-0.206 -0.636,-0.206 -0.766,0.004Zm-1.872,1.146c-0.067,0.943 -0.174,2.041 -0.238,2.441c-0.116,0.723 0.314,1.242 0.693,0.837c0.318,-0.339 0.289,-4.869 -0.031,-4.932c-0.253,-0.05 -0.323,0.224 -0.424,1.654Zm42.826,0.429l0,2.82c-0.125,-0.326 -0.088,-0.959 -0.027,-2.254l0.027,-0.566Zm-1.908,0.18c-0.061,2.165 0.062,2.616 0.711,2.616c0.423,0 0.395,-4.456 -0.029,-4.618c-0.58,-0.223 -0.624,-0.096 -0.682,2.002Zm-4.006,-0.901c-0.141,2.466 -0.152,2.448 1.645,2.816c1.56,0.319 1.48,0.445 1.409,-2.233l-0.054,-2.056l-1.44,-0.307l-1.441,-0.307l-0.119,2.087Zm-3.619,-2.68c-0.041,0.128 -0.11,1.116 -0.154,2.195l-0.081,1.962l0.587,0.239c0.324,0.132 0.993,0.298 1.487,0.369l0.899,0.13l0,-2.284c0,-2.181 -0.017,-2.283 -0.391,-2.283c-0.215,0 -0.534,-0.073 -0.71,-0.163c-0.616,-0.314 -1.56,-0.409 -1.637,-0.165Zm-1.866,1.457c-0.13,2.271 -0.067,2.657 0.432,2.657c0.276,0 0.769,-4.274 0.515,-4.47c-0.693,-0.535 -0.827,-0.278 -0.947,1.813Zm-5.109,-3.077c-0.05,0.082 -0.145,1.098 -0.21,2.256l-0.12,2.106l1.472,0.327c0.81,0.18 1.719,0.403 2.021,0.497c1.091,0.338 1.077,0.368 1.019,-2.141l-0.053,-2.311l-0.757,-0.142c-0.809,-0.152 -2.446,-0.513 -2.966,-0.655c-0.173,-0.048 -0.356,-0.019 -0.406,0.063Zm-3.445,1.051c-0.195,2.608 -0.194,2.61 1.103,2.932c1.344,0.334 1.199,0.56 1.309,-2.044l0.092,-2.187l-0.728,-0.227c-1.575,-0.492 -1.628,-0.447 -1.776,1.526Zm-0.892,2.412l-1.094,0l0,-4.774l0.521,0.128c0.75,0.186 0.749,0.182 0.657,2.516l-0.084,2.13Zm-5.548,-3.481c-0.156,2.501 -0.211,2.396 1.414,2.709c0.579,0.112 1.287,0.256 1.573,0.32l0.52,0.117l0.002,-1.3c0.001,-0.715 0.053,-1.73 0.117,-2.256l0.115,-0.956l-0.732,-0.217c-0.873,-0.258 -2.435,-0.616 -2.69,-0.616c-0.1,0 -0.244,0.99 -0.319,2.199Zm-29.827,-1.678c-0.009,0.703 -0.073,1.688 -0.142,2.19l-0.125,0.913l-1.882,0.638c-1.036,0.35 -1.951,0.595 -2.035,0.543c-0.427,-0.263 -0.073,-4.153 0.391,-4.307c0.169,-0.056 1.032,-0.356 1.917,-0.667c0.885,-0.31 1.673,-0.569 1.751,-0.576c0.078,-0.006 0.134,0.563 0.125,1.266Zm26.412,-1.029c-0.052,0.137 -0.071,1.178 -0.041,2.315l0.054,2.066l1.041,0.237c1.538,0.349 1.514,0.384 1.514,-2.185l0,-2.251l-1.072,-0.215c-1.344,-0.27 -1.38,-0.269 -1.496,0.033Zm-1.661,-0.675c-0.548,0.894 -0.049,5.335 0.534,4.752c0.378,-0.377 0.333,-4.478 -0.051,-4.683c-0.218,-0.117 -0.435,-0.148 -0.483,-0.069Zm-4.698,0.947c-0.048,2.979 -0.241,2.638 1.751,3.102c1.884,0.439 1.716,0.62 1.831,-1.98c0.109,-2.466 0.195,-2.323 -1.625,-2.703c-2.05,-0.429 -1.923,-0.533 -1.957,1.581Zm-4.597,-0.782c-0.16,2.601 -0.214,2.511 1.754,2.915c2.021,0.415 1.927,0.517 1.927,-2.088l0,-2.242l-1.089,-0.223c-0.599,-0.123 -1.335,-0.299 -1.637,-0.393c-0.302,-0.093 -0.61,-0.169 -0.684,-0.169c-0.075,0 -0.197,0.99 -0.271,2.2Zm39.185,-1.395c-0.541,1.757 -0.1,4.933 0.589,4.244c0.253,-0.253 0.284,-4.156 0.034,-4.314c-0.356,-0.226 -0.538,-0.205 -0.623,0.07Zm-4.228,1.015l0.053,2.244l0.758,0.149c0.416,0.081 1.113,0.2 1.549,0.262l0.792,0.115l0.06,-2.03c0.067,-2.275 0.091,-2.231 -1.405,-2.557c-0.444,-0.097 -1.044,-0.233 -1.334,-0.302l-0.527,-0.126l0.054,2.245Zm-36.642,0.092c-0.127,2.355 -0.091,2.632 0.336,2.632c0.269,0 0.633,-4.342 0.397,-4.725c-0.416,-0.673 -0.615,-0.107 -0.733,2.093Zm33.045,-0.846l0.054,2.247l0.757,0.13c0.416,0.071 0.983,0.186 1.259,0.255l0.501,0.125l0.136,-1.811c0.179,-2.391 0.096,-2.687 -0.805,-2.839c-0.392,-0.066 -0.992,-0.173 -1.334,-0.237l-0.621,-0.116l0.053,2.246Zm-1.811,-1.88c-0.377,2.282 0.047,4.516 0.725,3.813c0.34,-0.352 0.15,-4.424 -0.208,-4.476c-0.329,-0.047 -0.419,0.069 -0.517,0.663Zm-4.619,-1.926c2.718,0.513 3.834,0.96 3.804,1.524c-0.017,0.305 -0.046,1.256 -0.066,2.115c-0.042,1.869 0.027,1.809 -1.616,1.38c-0.724,-0.189 -1.637,-0.4 -2.027,-0.468l-0.71,-0.124l0,-4.544l0.615,0.117Zm-3.313,-0.783c0.286,0.065 0.798,0.171 1.136,0.236l0.615,0.119l0,4.536l-0.876,-0.131c-1.466,-0.22 -1.395,-0.089 -1.395,-2.604l0,-2.274l0.52,0.118Zm-36.65,0.119c-0.037,1.195 -0.145,2.269 -0.24,2.386c-0.243,0.299 -2.96,1.586 -3.632,1.721l-0.558,0.111l0.092,-2.252c0.119,-2.873 0.061,-2.773 1.95,-3.375c0.876,-0.279 1.646,-0.593 1.71,-0.697c0.494,-0.798 0.744,-0.022 0.678,2.106Zm34.234,1.085c-0.001,0.911 -0.045,1.827 -0.097,2.035c-0.118,0.472 0.073,0.763 0.608,0.93c0.406,0.127 0.415,0.09 0.473,-1.939c0.074,-2.565 0.051,-2.682 -0.522,-2.682c-0.451,0 -0.46,0.03 -0.462,1.656Zm-4.605,-1.815c-0.067,0.556 -0.123,1.58 -0.123,2.276c-0.002,1.42 -0.164,1.275 1.95,1.755c1.978,0.449 1.834,0.6 1.834,-1.937l0,-2.229l-1.372,-0.338c-0.755,-0.187 -1.552,-0.384 -1.77,-0.438c-0.357,-0.089 -0.411,0.005 -0.519,0.911Zm-3.343,-0.626c0,0.609 -0.054,1.621 -0.119,2.249l-0.12,1.14l0.64,0.203c0.352,0.111 0.938,0.227 1.302,0.259l0.663,0.057l0.108,-2.082c0.122,-2.363 0.101,-2.41 -1.186,-2.72c-1.302,-0.314 -1.288,-0.324 -1.288,0.894Zm-1.874,0.761c-0.034,1.972 0.001,2.263 0.287,2.372c0.529,0.204 0.611,-0.07 0.643,-2.159c0.04,-2.593 0.064,-2.461 -0.447,-2.461c-0.439,0 -0.445,0.027 -0.483,2.248Zm-4.204,-3.382c0.137,0.015 0.682,0.156 2.339,0.598l0.899,0.24l0,4.599l-0.804,-0.165c-0.443,-0.091 -1.103,-0.219 -1.467,-0.285c-1.416,-0.255 -1.537,-0.639 -1.204,-3.825c0.067,-0.64 0.164,-1.164 0.215,-1.164l0.022,0.002Zm-4.728,0.046c-0.008,0.546 -0.029,1.58 -0.047,2.298l-0.032,1.304l1.136,0.26c0.624,0.143 1.374,0.339 1.667,0.435c0.654,0.214 0.639,0.26 0.772,-2.262c0.126,-2.391 0.178,-2.303 -1.588,-2.708c-1.956,-0.449 -1.89,-0.473 -1.908,0.673Zm38.786,1.609c-0.082,2.605 -0.064,2.697 0.53,2.697l0.453,0l0,-2.346c0,-2.374 -0.059,-2.576 -0.756,-2.576c-0.087,0 -0.189,1.001 -0.227,2.225Zm-3.976,-0.954c-0.066,2.693 -0.064,2.704 0.479,2.707c0.226,0.001 0.825,0.128 1.331,0.281c1.255,0.381 1.256,0.379 1.256,-2.237l0,-2.31l-1.504,-0.387l-1.504,-0.386l-0.058,2.332Zm-36.532,-0.135c-0.019,1.041 -0.04,2.084 -0.047,2.317c-0.038,1.173 0.595,0.511 0.714,-0.747c0.239,-2.533 0.171,-3.463 -0.255,-3.463c-0.351,0 -0.381,0.138 -0.412,1.893Zm33.081,-3.025c0.128,0.006 0.378,0.061 0.816,0.177c0.377,0.099 0.919,0.229 1.205,0.288l0.521,0.107l0,4.958l-0.426,-0.129c-0.234,-0.072 -0.852,-0.233 -1.373,-0.36l-0.946,-0.23l0.043,-2.36c0.024,-1.298 0.045,-2.381 0.048,-2.407c0.002,-0.026 0.025,-0.041 0.077,-0.044l0.035,0Zm-1.044,-0.382l-0.053,2.413c-0.049,2.27 -0.075,2.414 -0.431,2.414c-0.356,0 -0.382,-0.144 -0.432,-2.414l-0.053,-2.413l0.969,0Zm-6.148,-1.096c-0.143,0.683 -0.249,4.502 -0.126,4.511c0.061,0.004 1.048,0.253 2.193,0.552c1.145,0.299 2.095,0.53 2.11,0.513c0.091,-0.102 0.142,-4.657 0.054,-4.746c-0.06,-0.059 -0.933,-0.317 -1.941,-0.573c-1.009,-0.256 -1.916,-0.516 -2.017,-0.578c-0.1,-0.062 -0.223,0.082 -0.273,0.321Zm-3.204,0.377c-0.246,3.164 -0.226,3.279 0.608,3.528c1.205,0.361 1.538,0.297 1.548,-0.301c0.005,-0.286 0.053,-1.293 0.108,-2.237c0.109,-1.885 0.038,-2.046 -0.968,-2.208c-0.313,-0.051 -0.704,-0.151 -0.871,-0.223c-0.258,-0.111 -0.32,0.099 -0.425,1.441Zm-1.926,0.24c-0.153,2.443 -0.095,2.75 0.518,2.75c0.529,0 0.813,-4.434 0.305,-4.756c-0.597,-0.379 -0.688,-0.158 -0.823,2.006Zm-4.634,-0.909l0,2.438l1.372,0.344c0.755,0.189 1.585,0.357 1.846,0.374l0.473,0.03l0.059,-2.376l0.058,-2.377l-1.478,-0.339c-0.813,-0.186 -1.67,-0.382 -1.905,-0.436c-0.424,-0.097 -0.425,-0.09 -0.425,2.342Zm-29.409,-2.677c0.294,0.766 -0.146,3.858 -0.566,3.975c-0.225,0.062 -0.579,0.188 -0.787,0.279c-0.955,0.416 -2.784,0.971 -2.881,0.874c-0.24,-0.239 -0.032,-3.43 0.241,-3.707c0.237,-0.24 3.322,-1.637 3.734,-1.691c0.081,-0.011 0.198,0.111 0.259,0.27Zm26.121,0.505c-0.159,1.38 -0.202,3.54 -0.074,3.669c0.14,0.14 2.248,0.689 2.33,0.607c0.053,-0.053 0.132,-3.885 0.096,-4.629c-0.006,-0.122 -0.267,-0.271 -0.579,-0.332c-1.84,-0.355 -1.645,-0.431 -1.773,0.685Zm-1.86,0.768c-0.058,2.322 0.128,3.155 0.6,2.683c0.331,-0.332 0.488,-4.63 0.176,-4.828c-0.643,-0.407 -0.717,-0.205 -0.776,2.145Zm-4.507,-1.586c0,1.028 -0.05,2.117 -0.11,2.421l-0.11,0.551l1.672,0.421c0.919,0.231 1.77,0.42 1.891,0.419c0.154,-0.002 0.226,-0.731 0.242,-2.442l0.021,-2.44l-0.714,-0.121c-1.718,-0.292 -1.955,-0.351 -2.053,-0.51c-0.501,-0.81 -0.839,-0.124 -0.839,1.701Zm34.389,-1.345c-0.377,0.635 -0.327,4.747 0.059,4.869c0.559,0.178 0.529,0.279 0.673,-2.271c0.122,-2.16 0.11,-2.282 -0.261,-2.503c-0.214,-0.128 -0.426,-0.171 -0.471,-0.095Zm-4.042,-0.844c-0.208,0.336 -0.314,4.305 -0.12,4.498c0.202,0.203 2.174,0.744 2.71,0.744c0.352,0 0.689,-4.156 0.372,-4.59c-0.211,-0.289 -2.83,-0.865 -2.962,-0.652Zm-34.595,-0.201c-0.049,0.234 -0.117,1.292 -0.151,2.35l-0.062,1.923l0.764,0.219c0.419,0.121 1.024,0.298 1.344,0.396c1.339,0.406 1.464,0.144 1.369,-2.853c-0.056,-1.758 -0.068,-1.8 -0.53,-1.86c-0.261,-0.034 -0.839,-0.183 -1.285,-0.331c-1.103,-0.367 -1.343,-0.341 -1.449,0.156Zm30.874,-0.01c-0.305,2.542 -0.171,3.886 0.397,3.996c0.287,0.055 0.861,0.188 1.278,0.296c0.996,0.257 0.987,0.277 1.093,-2.287l0.092,-2.217l-0.593,-0.18c-0.325,-0.098 -0.818,-0.229 -1.095,-0.29c-0.277,-0.061 -0.626,-0.158 -0.777,-0.216c-0.21,-0.081 -0.302,0.13 -0.395,0.898Zm-32.569,-0.684c-0.305,0.795 -0.123,4.652 0.217,4.586c0.201,-0.039 0.339,-0.248 0.352,-0.534c0.105,-2.297 0.102,-3.962 -0.007,-4.139c-0.186,-0.301 -0.427,-0.264 -0.562,0.087Zm30.892,-0.726c-0.296,0.677 -0.024,4.875 0.316,4.875c0.588,0 0.712,-4.501 0.132,-4.811c-0.212,-0.114 -0.414,-0.143 -0.448,-0.064Zm-3.179,-0.838l2.272,0.579l0,2.319c0,2.431 -0.074,2.649 -0.791,2.356c-0.242,-0.099 -1.185,-0.368 -2.096,-0.599l-1.657,-0.419l0,-4.814l2.272,0.578Zm-5.369,-0.082c-0.322,3.412 -0.257,3.587 1.457,3.908l0.671,0.126l0.059,-2.309c0.065,-2.57 0.103,-2.49 -1.312,-2.807l-0.757,-0.17l-0.118,1.252Zm-1.696,-1.608c-0.699,1.822 -0.217,5.275 0.662,4.732c0.364,-0.225 0.179,-4.592 -0.204,-4.796c-0.266,-0.143 -0.385,-0.126 -0.458,0.064Zm-4.741,-0.819c-0.066,0.332 -0.12,1.422 -0.119,2.425l0,1.822l1.372,0.356c0.754,0.196 1.606,0.397 1.892,0.447l0.521,0.091l0.037,-1.725c0.02,-0.949 0.041,-1.993 0.047,-2.32c0.012,-0.69 -0.102,-0.764 -1.821,-1.182c-0.696,-0.169 -1.387,-0.354 -1.536,-0.411c-0.19,-0.073 -0.309,0.078 -0.393,0.497Zm-3.343,-0.65c-0.003,0.402 -0.048,1.435 -0.1,2.295c-0.106,1.74 -0.216,1.58 1.443,2.104c1.17,0.37 1.139,0.433 1.081,-2.197l-0.053,-2.411l-0.663,-0.134c-0.364,-0.074 -0.896,-0.192 -1.183,-0.262c-0.499,-0.122 -0.521,-0.097 -0.525,0.605Zm-1.806,-1.008c-0.306,0.796 0.018,4.579 0.391,4.579c0.473,0 0.701,-4.376 0.243,-4.667c-0.348,-0.22 -0.525,-0.196 -0.634,0.088Zm-4.444,-1.336c-0.003,0.026 -0.054,1.085 -0.112,2.353l-0.105,2.306l0.822,0.229c0.452,0.126 1.196,0.347 1.652,0.492c0.457,0.145 0.86,0.234 0.897,0.197c0.091,-0.091 0.419,-4.565 0.341,-4.653c-0.102,-0.116 -3.482,-1.01 -3.495,-0.924Zm-4.225,-1.037c-0.146,0.235 -0.2,4.307 -0.06,4.532c0.12,0.195 2.935,0.914 3.055,0.78c0.032,-0.035 0.089,-1.081 0.127,-2.324l0.069,-2.261l-1.135,-0.269c-0.625,-0.147 -1.284,-0.344 -1.465,-0.436c-0.402,-0.206 -0.476,-0.209 -0.591,-0.022Zm-1.675,-0.194c-0.418,1.653 -0.067,5.172 0.436,4.378c0.294,-0.464 0.213,-4.709 -0.091,-4.709c-0.144,0 -0.299,0.149 -0.345,0.331Z" style="fill:#130b42;"/><path id="path0" d="M24.402,119.954c-0.146,0.147 -0.261,1.719 -0.345,4.733c-0.07,2.482 -0.259,8.176 -0.421,12.653c-0.304,8.412 -0.435,22.901 -0.209,23.126c0.158,0.159 1.073,-0.677 1.073,-0.981c0,-0.122 -0.171,-0.376 -0.379,-0.564c-0.723,-0.654 -0.043,-1.964 0.759,-1.463c0.417,0.261 0.69,-0.007 0.595,-0.583c-0.135,-0.822 0.799,-1.164 1.391,-0.51c0.415,0.459 1.383,0.506 1.548,0.076c0.064,-0.167 0.032,-0.358 -0.072,-0.426c-0.83,-0.541 -0.577,-1.732 0.368,-1.732c0.444,0 0.523,-0.079 0.523,-0.521c0.002,-1.454 0.859,-1.958 2.633,-1.549c0.573,0.132 0.896,0.131 1.031,-0.005c0.687,-0.687 1.649,0.183 1.255,1.134c-0.257,0.622 -0.128,0.941 0.381,0.941c0.197,0 0.483,0.18 0.637,0.4c0.274,0.391 0.298,0.393 1.126,0.077c1.397,-0.534 2.211,0.315 1.266,1.321c-0.628,0.669 -0.112,1.207 0.736,0.768c0.924,-0.477 1.454,-0.336 1.387,0.368c-0.159,1.699 -0.159,1.701 0.338,1.767c0.26,0.035 0.554,0.142 0.653,0.237c0.789,0.76 0.861,0.387 0.861,-4.451l0,-4.624l0.489,-0.385c0.269,-0.211 0.674,-0.441 0.899,-0.51c0.226,-0.069 0.519,-0.212 0.651,-0.318c0.229,-0.183 0.799,-0.4 4.305,-1.635c3.625,-1.278 3.689,-1.35 3.689,-4.117c0,-1.091 0.081,-3.192 0.179,-4.669c0.098,-1.478 0.271,-4.773 0.385,-7.324c0.114,-2.551 0.295,-6.115 0.404,-7.921c0.108,-1.805 0.158,-3.321 0.11,-3.369c-0.214,-0.214 -28.031,-0.158 -28.246,0.056Zm-22.166,30.653c0.064,0.165 0.115,0.335 0.115,0.379c0,0.043 0.128,0.079 0.284,0.079c0.158,0 0.284,-0.168 0.284,-0.379c0,-0.259 -0.126,-0.378 -0.399,-0.378c-0.286,0 -0.366,0.084 -0.284,0.299Zm24.331,-59.552c14.777,0 27,0.052 27.165,0.115c0.236,0.091 0.297,0.403 0.29,1.467c-0.007,1.055 -0.483,8.357 -0.545,8.357c-0.007,0 -6.445,-0.023 -14.306,-0.05l-14.293,-0.05l0,-2.963l-0.993,-0.208c-1.22,-0.255 -3.882,-0.735 -10.175,-1.837c-2.655,-0.465 -5.254,-0.93 -5.774,-1.032c-0.521,-0.103 -1.969,-0.366 -3.218,-0.585c-1.25,-0.219 -2.629,-0.478 -3.066,-0.575c-0.435,-0.098 -1.053,-0.178 -1.372,-0.178l-0.579,0l0,-2.461l26.866,0Z" style="fill:#ea4c4d;"/></g><path d="M51.06,16.943c3.462,0 6.273,2.811 6.273,6.274c0,3.462 -2.811,6.273 -6.273,6.273l-50.468,0c-0.199,0 -0.397,-0.009 -0.592,-0.027l0,-12.492c0.195,-0.019 0.392,-0.028 0.592,-0.028l50.468,0Z" style="fill:#ea4e4f;"/></g></svg>