<?xml version="1.0" encoding="UTF-8" standalone="no"?>
<!-- Created with Inkscape (http://www.inkscape.org/) -->

<svg
   xmlns:dc="http://purl.org/dc/elements/1.1/"
   xmlns:cc="http://creativecommons.org/ns#"
   xmlns:rdf="http://www.w3.org/1999/02/22-rdf-syntax-ns#"
   xmlns:svg="http://www.w3.org/2000/svg"
   xmlns="http://www.w3.org/2000/svg"
   xmlns:sodipodi="http://sodipodi.sourceforge.net/DTD/sodipodi-0.dtd"
   xmlns:inkscape="http://www.inkscape.org/namespaces/inkscape"
   id="svg3019"
   version="1.1"
   inkscape:version="0.48.4 r9939"
   width="600"
   height="600"
   xml:space="preserve"
   sodipodi:docname="dpnk2014_tshirt_men.svg"><metadata
     id="metadata3025"><rdf:RDF><cc:Work
         rdf:about=""><dc:format>image/svg+xml</dc:format><dc:type
           rdf:resource="http://purl.org/dc/dcmitype/StillImage" /><dc:title /></cc:Work></rdf:RDF></metadata><defs
     id="defs3023"><clipPath
       clipPathUnits="userSpaceOnUse"
       id="clipPath3033"><path
         d="m 0.059998,708.661 1190.490002,0 0,-708.601 -1190.490002,0 0,708.601 z"
         id="path3035"
         inkscape:connector-curvature="0" /></clipPath></defs><sodipodi:namedview
     pagecolor="#ffffff"
     bordercolor="#666666"
     borderopacity="1"
     objecttolerance="10"
     gridtolerance="10"
     guidetolerance="10"
     inkscape:pageopacity="0"
     inkscape:pageshadow="2"
     inkscape:window-width="1920"
     inkscape:window-height="1052"
     id="namedview3021"
     showgrid="false"
     fit-margin-top="0"
     fit-margin-left="0"
     fit-margin-right="0"
     fit-margin-bottom="0"
     inkscape:zoom="1.4192804"
     inkscape:cx="452.83459"
     inkscape:cy="162.53615"
     inkscape:window-x="0"
     inkscape:window-y="0"
     inkscape:window-maximized="1"
     inkscape:current-layer="g3027" /><g
     id="g3027"
     inkscape:groupmode="layer"
     inkscape:label="dpnk_2014_tshirt_03"
     transform="matrix(1.25,0,0,-1.25,-80.785824,780.42881)"><g
       id="g3029"
       transform="matrix(0.40319532,0,0,0.67739108,64.604468,144.30241)"><g
         id="g3031"
         clip-path="url(#clipPath3033)"><path
           d="m 0.059998,0.059998 1190.490002,0 0,708.601002 -1190.490002,0 0,-708.601002 z"
           style="fill:#e5e4e4;fill-opacity:1;fill-rule:nonzero;stroke:none"
           id="path3037"
           inkscape:connector-curvature="0" /></g></g><g
       id="g3063"
       transform="translate(-7.3463424,15.839552)"><g
         transform="translate(522.992,445.79)"
         id="g3043"><path
           inkscape:connector-curvature="0"
           id="path3045"
           style="fill:#1b65ad;fill-opacity:1;fill-rule:nonzero;stroke:none"
           d="m 0,0 0,112.889 -152.727,0 c -7.785,-14.092 -30.936,-24.314 -58.29,-24.314 -27.354,0 -50.505,10.222 -58.29,24.314 l -152.727,0 0,-112.889 66.345,0 0,-267.462 289.345,0 L -66.344,0 0,0" /></g><g
         transform="translate(341.745,414.762)"
         id="g3047"><path
           inkscape:connector-curvature="0"
           id="path3049"
           style="fill:#f14c1c;fill-opacity:1;fill-rule:nonzero;stroke:none"
           d="M 0,0 C 0.002,-0.026 0.004,-0.051 0.005,-0.077 0.697,-0.027 1.388,0.03 2.08,0.072 3.283,0.143 4.821,1.453 5.118,2.62 5.396,3.713 5.131,4.743 4.607,5.644 3.212,8.041 1.761,10.409 0.251,12.736 c -1.259,1.94 -2.617,3.817 -3.962,5.701 -1.859,2.604 -3.273,5.466 -4.852,8.233 -0.524,0.919 -1.148,1.801 -1.851,2.588 -0.488,0.547 -1.135,1.034 -2.008,0.593 -1.003,-0.506 -1.772,-1.621 -1.3,-3.118 0.364,-1.156 0.779,-2.297 1.2,-3.434 0.736,-1.987 1.439,-3.981 2.416,-5.88 1.519,-2.952 3.404,-5.671 5.14,-8.485 C -4.825,8.707 -4.66,8.431 -4.673,8.186 -4.709,7.547 -5.328,6.399 -6.113,6.277 -6.894,6.155 -7.689,6.116 -8.48,6.061 c -1.624,-0.113 -3.249,-0.222 -4.874,-0.314 -1.473,-0.084 -2.948,-0.14 -4.422,-0.216 -0.483,-0.024 -0.966,-0.064 -1.449,-0.11 -1.39,-0.134 -2.78,-0.267 -4.169,-0.415 -1.232,-0.131 -2.48,-0.195 -3.689,-0.446 -1.138,-0.236 -2.162,-0.092 -3.046,0.595 -0.696,0.542 -1.308,1.208 -1.89,1.877 -1.076,1.235 -2.058,2.554 -3.164,3.759 -0.983,1.07 -2.021,2.106 -3.145,3.021 -1.182,0.963 -2.066,0.638 -2.994,-0.593 -0.561,-0.744 -0.343,-1.572 -0.11,-2.35 0.574,-1.913 1.646,-3.573 2.777,-5.193 1.113,-1.595 2.181,-3.222 2.48,-5.188 0.239,-1.572 1.033,-2.792 2.297,-3.635 2.055,-1.37 4.31,-1.516 6.532,-0.473 0.928,0.435 1.684,1.232 2.53,1.85 0.816,0.596 1.654,1.289 2.685,1.294 3.519,0.018 7.031,0.139 10.545,0.31 2.971,0.144 5.953,0.019 8.931,0.036 C -1.77,-0.126 -0.885,-0.046 0,0 z m 23.845,7.76 c 0.035,1.553 -0.256,3.077 -0.633,4.551 -0.508,1.983 -1.223,3.916 -2.199,5.739 -0.835,1.56 -1.984,2.864 -3.42,3.833 -1.398,0.943 -2.924,1.714 -4.451,2.441 C 11.114,25.29 8.925,25.653 6.689,25.682 6.039,25.69 5.386,25.567 4.737,25.484 2.932,25.251 1.188,24.838 -0.226,23.591 -0.75,23.129 -1.227,22.629 -1.302,21.857 -1.387,20.98 -0.071,19.744 0.765,19.618 1.6,19.493 2.447,19.432 3.291,19.401 c 1.279,-0.047 2.53,-0.229 3.753,-0.61 1.65,-0.514 3.157,-1.326 4.603,-2.246 1.772,-1.128 3.229,-2.565 4.174,-4.48 C 16.626,10.432 16.779,8.672 16.86,6.902 16.894,6.16 16.797,5.411 16.768,4.665 16.698,2.856 16.251,1.131 15.421,-0.464 14.885,-1.493 14.172,-2.428 13.554,-3.415 12.727,-4.734 11.982,-6.112 11.068,-7.367 10.585,-8.028 9.896,-8.653 9.161,-8.992 7.792,-9.624 6.289,-9.916 4.775,-9.998 c -2.032,-0.111 -4.03,0.148 -5.991,0.688 -1.219,0.335 -2.47,0.581 -3.653,1.012 -1.326,0.484 -2.617,1.084 -3.875,1.727 -0.741,0.378 -1.375,0.962 -2.083,1.411 -0.461,0.292 -0.954,0.569 -1.544,0.314 -1.523,-0.658 -2.095,-1.884 -1.212,-3.435 0.769,-1.35 1.959,-2.199 3.287,-2.878 2.201,-1.125 4.539,-1.897 6.89,-2.646 2.363,-0.752 4.789,-1.094 7.242,-1.214 1.091,-0.054 2.232,0.05 3.287,0.326 2.608,0.684 5.211,1.417 7.755,2.305 2.105,0.735 3.69,2.227 4.719,4.213 1.216,2.347 1.997,4.869 2.772,7.386 0.855,2.778 1.441,6.996 1.476,8.549 z m -51.177,26.963 c 0.788,0 1.579,-0.051 2.361,0.014 0.82,0.069 1.425,-0.238 1.889,-0.861 0.333,-0.447 0.748,-0.892 0.65,-1.51 -0.061,-0.384 -0.209,-0.758 -0.346,-1.125 -1.107,-2.961 -2.194,-5.93 -3.34,-8.876 -1.17,-3.011 -2.413,-5.994 -3.592,-9.002 -0.297,-0.755 -0.613,-1.555 -0.339,-2.385 0.145,-0.441 0.405,-0.858 0.678,-1.239 0.574,-0.8 1.817,-1.225 2.563,-0.825 0.861,0.462 1.672,1.084 2.078,1.974 1.585,3.473 3.142,6.96 4.612,10.482 0.695,1.666 1.173,3.422 1.747,5.138 0.483,1.449 1.047,2.856 1.822,4.183 0.56,0.96 1.104,1.954 1.471,2.997 0.484,1.382 0.731,2.846 1.183,4.241 0.763,2.357 1.639,4.678 2.403,7.034 0.395,1.223 1.196,2.121 2.278,2.601 0.859,0.382 1.9,0.42 2.868,0.476 1.322,0.077 2.349,0.64 3.132,1.653 0.419,0.542 0.744,1.145 0.47,1.907 -0.382,1.059 -1.761,2.357 -3.249,2.328 -0.845,-0.016 -1.687,-0.138 -2.532,-0.197 -1.14,-0.079 -2.281,-0.161 -3.424,-0.208 -2.068,-0.085 -4.136,-0.144 -6.205,-0.215 -0.972,-0.033 -1.949,-0.027 -2.917,-0.116 -1.147,-0.106 -2.197,-1.089 -2.572,-2.122 -0.288,-0.795 0.269,-1.36 0.722,-1.9 0.853,-1.015 2.051,-1.209 3.275,-1.201 0.857,0.005 1.398,-0.392 1.897,-1.023 0.565,-0.715 0.506,-1.363 0.061,-2.105 -0.621,-1.037 -0.934,-2.289 -2.044,-2.976 -0.573,-0.355 -1.167,-0.814 -1.799,-0.907 -1.162,-0.172 -2.359,-0.109 -3.542,-0.145 -1.131,-0.034 -2.261,-0.073 -3.392,-0.103 -1.462,-0.039 -2.925,-0.088 -4.387,-0.102 -1.462,-0.013 -2.595,-0.631 -3.364,-1.846 -0.222,-0.35 -0.427,-0.91 -0.3,-1.245 0.423,-1.115 1.218,-1.919 2.417,-2.277 1.511,-0.451 3.069,-0.426 4.616,-0.51 0.715,-0.039 1.434,-0.007 2.151,-0.007 z M -88,3.914 c -0.192,-1.86 0.277,-3.721 0.804,-5.593 0.784,-2.786 2.16,-5.194 4.271,-7.175 0.631,-0.592 1.297,-1.147 1.935,-1.732 1.058,-0.968 2.199,-1.82 3.482,-2.464 2.078,-1.044 4.331,-1.444 6.612,-1.547 1.712,-0.078 3.438,0.083 5.154,0.192 0.837,0.053 1.691,0.14 2.493,0.37 1.689,0.483 3.367,1.023 5.017,1.628 2.075,0.76 4.016,1.791 5.673,3.278 1.544,1.385 2.721,3.062 3.696,4.885 1.316,2.46 1.882,5.067 1.588,7.861 -0.155,1.479 -0.181,2.971 -0.336,4.45 -0.163,1.565 -0.729,2.956 -1.965,4.02 -0.74,0.637 -1.384,0.79 -2.059,0.354 -0.952,-0.615 -1.534,-1.481 -1.516,-2.642 0.012,-0.757 0.225,-1.518 0.178,-2.266 -0.116,-1.876 -0.302,-3.749 -0.509,-5.617 -0.351,-3.154 -2.119,-5.459 -4.621,-7.203 -1.094,-0.763 -2.381,-1.278 -3.629,-1.784 -2.243,-0.908 -4.589,-1.431 -7.017,-1.453 -0.983,-0.008 -1.967,0.126 -2.951,0.197 -1.178,0.085 -2.295,0.425 -3.344,0.935 -1.852,0.899 -3.361,2.259 -4.843,3.668 -2.033,1.932 -2.864,4.376 -3.077,7.058 -0.19,2.391 0.032,4.755 0.921,7.029 0.71,1.816 1.699,3.44 3.028,4.865 0.614,0.658 1.244,1.309 1.794,2.019 0.449,0.582 0.993,1.168 0.644,2.043 -0.338,0.848 -1.344,1.377 -2.212,1.097 -1.011,-0.326 -1.824,-0.981 -2.535,-1.721 -1.053,-1.098 -2.069,-2.239 -3.011,-3.433 -1.116,-1.416 -2.004,-2.978 -2.655,-4.676 C -87.801,8.445 -88.136,6.27 -88,3.914 z m 26.427,47.819 c -10e-4,0.051 -10e-4,0.101 -0.002,0.152 -1.042,-0.051 -2.085,-0.147 -3.127,-0.139 -1.156,0.008 -2.094,-0.386 -2.801,-1.288 -0.295,-0.378 -0.647,-0.826 -0.419,-1.316 0.434,-0.934 1.127,-1.685 2.17,-1.9 0.94,-0.194 1.911,-0.295 2.872,-0.323 1.209,-0.034 2.128,-0.548 2.815,-1.487 0.242,-0.33 0.419,-0.756 0.481,-1.16 0.171,-1.122 -1.373,-2.74 -2.474,-3.009 -1.128,-0.275 -2.316,-0.297 -3.474,-0.452 -1.208,-0.161 -2.434,-0.256 -3.612,-0.544 -2.075,-0.508 -3.592,-1.76 -4.155,-3.872 -0.244,-0.917 -0.161,-1.921 -0.236,-2.884 -0.098,-1.271 0.539,-2.138 1.558,-2.762 0.362,-0.222 0.793,-0.563 1.231,-0.188 0.542,0.464 1.094,0.942 1.523,1.504 0.461,0.605 0.701,1.387 1.188,1.964 0.88,1.042 1.572,1.431 2.688,0.436 0.581,-0.518 1.153,-1.049 1.758,-1.539 0.584,-0.474 1.173,-1.013 2.003,-0.921 0.645,0.071 1.279,0.238 1.919,0.357 1.044,0.194 2.087,0.39 3.133,0.575 0.507,0.089 1.085,0.03 1.516,0.257 1.015,0.534 1.823,1.337 2.468,2.305 0.399,0.598 0.805,1.216 1.32,1.707 1.013,0.964 2.084,0.877 3.096,-0.1 0.572,-0.553 1.182,-1.067 1.789,-1.582 1.049,-0.889 2.284,-0.967 3.473,-0.497 1.174,0.464 2.457,1.767 2.161,3.552 -0.363,2.194 -2.527,4.595 -5.043,4.345 -1.311,-0.13 -2.633,-0.14 -3.948,-0.228 -0.443,-0.03 -0.881,-0.133 -1.322,-0.2 -0.456,-0.069 -0.926,-0.152 -1.313,0.18 -0.317,0.273 -0.626,0.567 -0.885,0.893 -0.335,0.423 -0.443,0.863 -0.143,1.41 0.443,0.81 0.835,1.657 1.155,2.522 0.184,0.497 0.363,1.116 0.226,1.587 -0.312,1.066 -1.072,1.927 -2.15,2.197 -1.173,0.293 -2.412,0.366 -3.628,0.433 -1.267,0.069 -2.541,0.015 -3.811,0.015 z M -39.597,23.76 c -0.084,1.528 -0.155,2.879 -0.237,4.229 -0.01,0.168 -0.035,0.37 -0.133,0.49 -0.699,0.854 -1.321,1.798 -2.681,1.641 -0.843,-0.097 -1.702,-0.113 -2.325,-0.763 -0.531,-0.553 -1.154,-1.117 -1.426,-1.8 -0.442,-1.11 -1.134,-1.905 -2.132,-2.483 -0.14,-0.081 -0.326,-0.089 -0.494,-0.114 -1.212,-0.178 -1.897,0.635 -2.635,1.38 -0.629,0.635 -1.26,1.281 -1.969,1.819 -0.407,0.308 -0.884,0.572 -1.525,0.396 -0.771,-0.213 -1.596,-0.224 -2.395,-0.346 -0.915,-0.139 -1.862,-0.196 -2.732,-0.48 -1.342,-0.439 -2.024,-1.543 -2.447,-2.843 -0.17,-0.524 -0.373,-1.074 -0.704,-1.502 -0.577,-0.745 -1.543,-1.045 -2.083,-0.689 -0.515,0.339 -1.023,0.733 -1.416,1.203 -0.674,0.804 -1.41,1.516 -2.306,2.061 -0.384,0.233 -0.766,0.318 -1.189,0.041 -0.699,-0.458 -1.206,-1.079 -1.593,-1.801 -0.1,-0.186 -0.147,-0.434 -0.129,-0.645 0.08,-0.908 0.132,-1.824 0.31,-2.715 0.219,-1.101 0.371,-2.272 0.873,-3.247 1.122,-2.181 3.026,-3.275 5.507,-3.23 1.002,0.018 2.007,0.092 3.002,0.21 1.5,0.179 3.006,0.356 4.486,0.651 1.826,0.365 3.627,0.851 5.439,1.284 1.246,0.298 2.492,0.596 3.739,0.891 1.778,0.421 3.583,0.755 5.33,1.283 1.931,0.584 4.153,2.678 3.865,5.079 z M -63.506,9.526 c -0.219,0.515 -0.35,1.017 -0.622,1.426 -0.652,0.977 -1.834,1.324 -2.638,0.728 -0.639,-0.473 -1.276,-1.025 -1.712,-1.678 -1.089,-1.626 -1.821,-3.45 -2.399,-5.309 -0.422,-1.357 -0.184,-2.01 0.885,-2.948 0.506,-0.443 1.102,-0.714 1.803,-0.415 0.892,0.38 1.622,1.02 2.084,1.816 0.673,1.162 1.188,2.423 1.701,3.67 0.354,0.861 0.592,1.771 0.898,2.71" /></g><g
         transform="translate(408.551,209.19)"
         id="g3055"><path
           inkscape:connector-curvature="0"
           id="path3057"
           style="fill:#f14c1c;fill-opacity:1;fill-rule:nonzero;stroke:none"
           d="m 0,0 c 3.06,1.295 5.808,3.148 8.168,5.508 2.36,2.36 4.213,5.108 5.508,8.168 1.34,3.169 2.019,6.534 2.019,10.003 0,3.469 -0.679,6.835 -2.019,10.003 -1.295,3.061 -3.148,5.809 -5.508,8.169 -2.36,2.36 -5.108,4.213 -8.168,5.507 -3.169,1.34 -6.534,2.02 -10.003,2.02 -3.469,0 -6.835,-0.68 -10.003,-2.02 -3.061,-1.294 -5.809,-3.147 -8.169,-5.507 -2.36,-2.36 -4.213,-5.108 -5.507,-8.169 -1.34,-3.168 -2.02,-6.534 -2.02,-10.003 0,-3.469 0.68,-6.834 2.02,-10.003 1.294,-3.06 3.147,-5.808 5.507,-8.168 2.36,-2.36 5.108,-4.213 8.169,-5.508 3.168,-1.34 6.534,-2.019 10.003,-2.019 3.469,0 6.834,0.679 10.003,2.019 z m 15.095,23.679 c 0,-13.839 -11.259,-25.098 -25.098,-25.098 -13.84,0 -25.099,11.259 -25.099,25.098 0,13.84 11.259,25.099 25.099,25.099 13.839,0 25.098,-11.259 25.098,-25.099 z m -30.252,11.724 0,1.09 -1.915,0 0,-1.09 0.299,-0.142 -0.548,-2.171 -0.612,2.171 0.348,0.142 0,1.09 -2.569,0 0,-1.09 0.334,-0.142 -0.59,-2.171 -0.584,2.171 0.327,0.142 0,1.09 -2.391,0 0,-1.09 0.434,-0.142 0.961,-3.751 1.971,0 0.62,2.199 0.591,-2.199 1.857,0 1.025,3.751 0.442,0.142 z m 8.364,0 0,1.09 -1.915,0 0,-1.09 0.299,-0.142 -0.548,-2.171 -0.612,2.171 0.349,0.142 0,1.09 -2.57,0 0,-1.09 0.335,-0.142 -0.591,-2.171 -0.584,2.171 0.328,0.142 0,1.09 -2.392,0 0,-1.09 0.434,-0.142 0.961,-3.751 1.972,0 0.619,2.199 0.591,-2.199 1.858,0 1.025,3.751 0.441,0.142 z m 8.364,0 0,1.09 -1.914,0 0,-1.09 0.299,-0.142 -0.548,-2.171 -0.613,2.171 0.349,0.142 0,1.09 -2.57,0 0,-1.09 0.335,-0.142 -0.591,-2.171 -0.583,2.171 0.327,0.142 0,1.09 -2.392,0 0,-1.09 0.434,-0.142 0.961,-3.751 1.972,0 0.619,2.199 0.591,-2.199 1.858,0 1.025,3.751 0.441,0.142 z m -0.063,-3.893 1.359,0 0,1.224 -1.359,0 0,-1.224 z m 1.359,0 z m -26.025,-6.051 0,2.883 -1.246,1.032 -3.46,0 0,-1.089 0.541,-0.143 0,-2.526 -0.541,-0.143 0,-1.082 3.424,0 1.282,1.068 z m -2.691,2.683 0.918,0 0.299,-0.249 0,-2.021 -0.313,-0.256 -0.904,0 0,2.526 z m 7.51,-2.861 0,3.224 -1.039,0.869 -2.114,0 -1.04,-0.869 0,-3.224 1.075,-0.89 2.036,0 c 0.363,0.292 0.719,0.598 1.082,0.89 z m -1.659,2.861 0.193,-0.149 0,-2.214 -0.2,-0.163 -0.861,0 -0.199,0.163 0,2.214 0.192,0.149 0.875,0 z m 6.976,0.363 -1.032,0.869 -3.659,0 0,-1.089 0.541,-0.143 0,-2.526 -0.541,-0.143 0,-1.082 2.556,0 0,1.075 -0.541,0.142 0,0.499 1.644,0 1.032,0.861 0,1.537 z m -1.658,-0.363 0.185,-0.149 0,-0.498 -0.185,-0.157 -1.018,0 0,0.804 1.018,0 z m 4.791,-3.751 0,1.082 -0.541,0.143 0,0.718 0.37,0 1.139,-1.943 1.352,0 0,1.153 -0.377,0.072 -0.541,0.861 0.705,0.598 0,1.487 -0.961,0.812 -3.702,0 0,-1.089 0.541,-0.143 0,-2.526 -0.541,-0.143 0,-1.082 2.556,0 z m -0.541,3.751 1.01,0 0.171,-0.142 0,-0.527 -0.171,-0.142 -1.01,0 0,0.811 z m 7.958,-2.526 -0.961,3.758 -2.876,0 0,-1.089 0.463,-0.143 -0.726,-2.526 -0.548,-0.143 0,-1.082 2.135,0 0,1.082 -0.348,0.143 0.121,0.441 1.074,0 0.129,-0.441 -0.378,-0.143 0,-1.082 2.527,0 0,1.082 -0.612,0.143 z m -2.221,2.413 0.321,-1.118 -0.634,0 0.313,1.118 z m 7.503,0.533 -0.968,0.812 -2.057,0 -1.103,-0.918 0,-3.111 1.146,-0.954 1.971,0 c 0.335,0.278 0.677,0.555 1.011,0.84 l 0,0.904 -1.331,0 -0.142,-0.519 -0.976,0 -0.213,0.17 0,2.193 0.206,0.163 0.983,0 0.142,-0.519 1.331,0 0,0.939 z m 5.026,-0.939 0,1.751 -4.392,0 0,-1.089 0.541,-0.143 0,-2.526 -0.541,-0.143 0,-1.082 4.399,0 0,1.744 -1.054,0 -0.142,-0.519 -1.196,0 0,0.868 1.196,0 0,0.854 -1.196,0 0,0.804 1.196,0 0.142,-0.519 1.047,0 z m -30.425,-5.368 0,-1.089 0.541,-0.142 0,-1.431 -1.48,2.662 -2.136,0 0,-1.089 0.541,-0.142 0,-2.527 -0.541,-0.143 0,-1.081 2.328,0 0,1.081 -0.541,0.143 0,1.552 1.644,-2.776 1.438,0 0,3.751 0.541,0.142 0,1.089 -2.335,0 z m 7.154,-3.758 -0.961,3.758 -2.875,0 0,-1.089 0.462,-0.142 -0.726,-2.527 -0.548,-0.143 0,-1.081 2.136,0 0,1.081 -0.349,0.143 0.121,0.441 1.075,0 0.128,-0.441 -0.377,-0.143 0,-1.081 2.526,0 0,1.081 -0.612,0.143 z m -2.221,2.413 0.321,-1.118 -0.634,0 0.313,1.118 z m 8.578,0.256 0,1.089 -2.377,0 0,-1.089 0.348,-0.142 -1.11,-0.968 0,0.968 0.342,0.142 0,1.089 -2.406,0 0,-1.089 0.541,-0.142 0,-2.527 -0.541,-0.143 0,-1.081 2.42,0 0,1.081 -0.356,0.143 0,0.52 0.57,0.476 0.555,-0.996 -0.356,-0.143 0,-1.081 2.37,0 0,1.081 -0.505,0.143 -0.99,1.858 0.805,0.669 0.69,0.142 z m 4.77,-3.004 0,3.225 -1.04,0.868 -2.114,0 -1.039,-0.868 0,-3.225 1.075,-0.889 2.036,0 c 0.363,0.291 0.719,0.597 1.082,0.889 z m -1.659,2.862 0.192,-0.15 0,-2.213 -0.199,-0.164 -0.861,0 -0.2,0.164 0,2.213 0.193,0.15 0.875,0 z m 4.905,0.142 0,1.089 -2.62,0 0,-1.089 0.541,-0.142 0,-2.527 -0.541,-0.143 0,-1.081 4.392,0 0,1.9 -1.053,0 -0.143,-0.676 -1.181,0 0,2.527 0.605,0.142 z m 6.698,-0.662 0,1.751 -4.392,0 0,-1.089 0.541,-0.142 0,-2.527 -0.541,-0.143 0,-1.081 4.399,0 0,1.744 -1.053,0 -0.142,-0.52 -1.196,0 0,0.868 1.196,0 0,0.854 -1.196,0 0,0.805 1.196,0 0.142,-0.52 1.046,0 z m -24.48,-10.35 1.359,0 0,1.224 -1.359,0 0,-1.224 z m 1.359,0 z m 3.752,4.983 0,-1.089 0.541,-0.143 0,-1.431 -1.481,2.663 -2.135,0 0,-1.089 0.541,-0.143 0,-2.527 -0.541,-0.142 0,-1.082 2.327,0 0,1.082 -0.541,0.142 0,1.552 1.645,-2.776 1.437,0 0,3.751 0.541,0.143 0,1.089 -2.334,0 z m 7.261,-1.751 0,1.751 -4.392,0 0,-1.089 0.541,-0.143 0,-2.527 -0.541,-0.142 0,-1.082 4.399,0 0,1.744 -1.054,0 -0.142,-0.52 -1.196,0 0,0.869 1.196,0 0,0.854 -1.196,0 0,0.804 1.196,0 0.142,-0.519 1.047,0 z m 5.495,-0.307 0,2.058 -4.954,0 0,-2.058 1.053,0 0.143,0.905 0.548,0 0,-2.606 -0.605,-0.142 0,-1.082 2.69,0 0,1.082 -0.612,0.142 0,2.606 0.548,0 0.143,-0.905 1.046,0 z m 4.72,27.787 -27.493,0 0,-0.59996 27.493,0 0,0.59996 z m 0,-33.773 -27.493,0 0,-0.60001 27.493,0 0,0.60001 z" /></g></g></g></svg>