<?xml version="1.0" encoding="UTF-8" standalone="no"?><!DOCTYPE svg PUBLIC "-//W3C//DTD SVG 1.1//EN" "http://www.w3.org/Graphics/SVG/1.1/DTD/svg11.dtd"><svg width="100%" height="100%" viewBox="0 0 1064 219" version="1.1" xmlns="http://www.w3.org/2000/svg" xmlns:xlink="http://www.w3.org/1999/xlink" xml:space="preserve" xmlns:serif="http://www.serif.com/" style="fill-rule:evenodd;clip-rule:evenodd;stroke-linejoin:round;stroke-miterlimit:1.41421;"><rect id="Artboard1" x="0" y="0" width="1063.69" height="218.021" style="fill:none;"/><path d="M109.568,1.558c-58.332,0 -106.332,48 -106.332,106.333c0,58.332 48,106.332 106.332,106.332c58.332,0 106.333,-48 106.333,-106.332c0,-58.333 -48.001,-106.333 -106.333,-106.333m16.909,73.912l3.566,-9.761l-5.472,0c-0.089,0.006 -0.177,0.009 -0.266,0.009c-2.352,0 -4.288,-1.936 -4.288,-4.289c0,-2.353 1.936,-4.289 4.288,-4.289c0.089,0 0.177,0.003 0.266,0.008l19.718,0c0.089,-0.005 0.177,-0.008 0.266,-0.008c2.352,0 4.288,1.936 4.288,4.289c0,2.353 -1.936,4.289 -4.288,4.289c-0.089,0 -0.177,-0.003 -0.266,-0.009l-4.929,0l-4.93,13.655l-3.763,10.139l-10.237,28.099l-4.141,0.312l-3.779,-4.453l10.795,-29.578l-19.833,-0.575l-1.331,-8.594l24.336,0.756Zm-23.794,26.094c0.015,0.11 0.023,0.22 0.023,0.33c0,1.216 -0.919,2.252 -2.126,2.398l-39.059,5.62c-1.345,0.207 -2.626,-0.714 -2.86,-2.054l-1.988,-12.883l8.216,-1.183l0.214,1.446c0.2,1.13 1.202,1.957 2.35,1.939l0.361,0c1.144,-0.146 2.01,-1.129 2.01,-2.282c0,-0.105 -0.007,-0.21 -0.022,-0.314l-0.23,-1.463l18.076,-2.596l0.213,1.462c0.213,1.171 1.277,2.008 2.465,1.939l0.345,0c1.152,-0.146 2.024,-1.137 2.024,-2.298c0,-0.1 -0.006,-0.199 -0.019,-0.298l-0.23,-1.462l8.216,-1.167l2.021,12.866Zm-30.432,10.27l-5.702,13.393c-0.717,1.621 -2.335,2.67 -4.108,2.662c-2.408,-0.025 -4.375,-2.013 -4.375,-4.42c0,-0.516 0.09,-1.028 0.267,-1.512l3.697,-8.677l10.221,-1.446Zm-15.644,-33.833l20.097,-2.86l0.723,-2.957l-8.463,-1.529c-2.076,-0.326 -3.622,-2.134 -3.622,-4.236c0,-0.232 0.019,-0.464 0.057,-0.693c0.406,-2.074 2.24,-3.583 4.353,-3.583c0.287,0 0.574,0.027 0.856,0.083l13.03,2.284c1.191,0.195 2.25,0.873 2.925,1.873c0.65,0.963 0.87,2.155 0.608,3.287l-0.986,3.993l9.482,-1.348c0.129,-0.02 0.259,-0.03 0.39,-0.03c1.236,0 2.298,0.911 2.485,2.133l1.643,10.303l-8.216,1.167l-0.213,-1.462c-0.24,-1.25 -1.435,-2.103 -2.695,-1.923c-1.15,0.139 -2.024,1.126 -2.024,2.284c0,0.099 0.006,0.198 0.019,0.296l0.23,1.462l-18.322,2.613l-0.213,-1.446c-0.202,-1.123 -1.188,-1.949 -2.329,-1.949c-1.298,0 -2.367,1.068 -2.367,2.366c0,0.081 0.004,0.161 0.013,0.24l0.23,1.446l-8.216,1.2l-1.644,-10.303c-0.01,-0.092 -0.015,-0.185 -0.015,-0.277c0,-1.244 0.948,-2.3 2.184,-2.434m6.573,70.313c-15.249,0 -27.639,-11.946 -27.639,-26.637c0.104,-11.206 7.247,-21.209 17.813,-24.944l1.347,8.775c-6.206,2.971 -10.2,9.239 -10.27,16.12c0.418,9.99 8.751,17.98 18.749,17.98c9.999,0 18.331,-7.99 18.749,-17.98c-0.005,-3.857 -1.282,-7.606 -3.631,-10.665l9.53,-1.363c1.957,3.707 2.978,7.836 2.975,12.028c0,14.69 -12.39,26.636 -27.623,26.636m49.527,-14.788c-4.24,0.072 -7.791,-3.352 -7.871,-7.592c0.009,-0.719 0.119,-1.432 0.328,-2.12l-12.505,-14.789l10.205,-1.462l11.815,14l35.805,-2.514l-17.434,-25.832l3.796,-10.237l25.174,37.383c0.862,1.25 0.957,2.882 0.246,4.223c-0.719,1.37 -2.104,2.269 -3.648,2.367l-39.141,2.777c-1.442,2.349 -4.014,3.779 -6.77,3.763m43.249,14.789c-10.796,0.069 -20.696,-6.16 -25.305,-15.923l9.711,-0.674c3.571,5.06 9.401,8.064 15.594,8.035c9.916,0 18.075,-8.159 18.075,-18.075c0,-9.916 -8.159,-18.075 -18.075,-18.075c0,0 -1.002,0 -1.002,0l-5.291,-7.871c2.062,-0.485 4.174,-0.728 6.293,-0.723c15.249,0 27.639,11.946 27.639,26.636c0,14.691 -12.39,26.637 -27.639,26.637" style="fill:#fff;fill-rule:nonzero;"/><path d="M281.284,70.935c7.378,0 15.331,0.115 22.824,4.683c7.74,4.798 12.998,13.688 12.998,35.461c0,21.361 -5.028,30.563 -13.146,35.707c-7.493,4.683 -15.692,4.683 -22.594,4.683l-19.275,0l0,-80.518l19.193,-0.016Zm-2.925,67.372l4.798,0c2.81,0 6.902,0 10.188,-2.334c5.143,-3.631 6.787,-11.239 6.787,-24.648c0,-13.409 -1.644,-21.066 -6.902,-24.648c-3.037,-1.796 -6.555,-2.611 -10.073,-2.334l-4.798,0l0,53.964Z" style="fill:#fff;fill-rule:nonzero;"/><path d="M377.741,141.757c-5.029,7.378 -13.146,10.878 -23.646,10.878c-10.5,0 -18.618,-3.5 -23.531,-10.763c-4.568,-6.786 -6.195,-16.859 -6.195,-30.793c0,-14.51 1.742,-23.876 6.31,-30.548c4.568,-6.671 12.702,-10.746 23.646,-10.746c10.664,0 18.618,3.746 23.416,10.779c4.798,7.033 6.326,17.681 6.326,30.547c0,13.31 -1.528,23.613 -6.326,30.646Zm-13.573,-8.216c1.873,-3.746 2.58,-9.136 2.58,-22.364c0,-13.228 -0.707,-18.601 -2.58,-22.348c-1.834,-3.831 -5.835,-6.174 -10.073,-5.899c-4.2,-0.246 -8.137,2.143 -9.859,5.982c-1.874,3.746 -2.695,9.119 -2.695,22.347c0,13.228 0.821,18.618 2.695,22.364c1.962,3.662 5.794,5.956 9.949,5.956c4.155,0 7.987,-2.294 9.95,-5.956l0.033,-0.082Z" style="fill:#fff;fill-rule:nonzero;"/><path d="M450.552,85.444l-0.822,0c-4.016,-1.295 -8.19,-2.042 -12.406,-2.218c-6.195,0 -9.252,2.678 -9.252,7.362c0,7.378 7.608,10.303 14.641,15.922c6.195,4.93 11.01,11.01 11.01,22.019c0,15.808 -10.073,23.646 -26.292,23.646c-5.207,0.034 -10.388,-0.759 -15.347,-2.35l0,-13.457l0.821,0c4.399,1.629 9.02,2.577 13.705,2.809c6.573,0 10.418,-3.155 10.418,-8.659c0,-8.085 -8.216,-11.355 -16.432,-18.256c-5.374,-4.569 -9.235,-9.86 -9.235,-19.44c0,-14.394 8.66,-22.594 24.467,-22.594c5.003,0.021 9.979,0.729 14.789,2.104l-0.065,13.112Zm-25.175,-21.361l-9.859,-13.918l13.146,0l5.028,7.608l4.996,-7.559l12.406,0l-9.958,13.918l-15.759,-0.049Z" style="fill:#fff;fill-rule:nonzero;"/><path d="M478.65,70.935l0,37.449l22.003,-37.449l15.923,0l-22.364,35.575l23.531,44.959l-18.602,0l-20.491,-41.787l0,41.787l-16.037,0l0,-80.518l16.037,-0.016Z" style="fill:#fff;fill-rule:nonzero;"/><path d="M574.762,141.757c-5.045,7.378 -13.228,10.878 -23.646,10.878c-10.418,0 -18.617,-3.5 -23.531,-10.763c-4.568,-6.786 -6.211,-16.859 -6.211,-30.793c0,-14.51 1.758,-23.876 6.326,-30.548c4.569,-6.671 12.637,-10.746 23.646,-10.746c10.648,0 18.618,3.746 23.416,10.779c4.798,7.033 6.31,17.681 6.31,30.547c0,13.31 -1.512,23.613 -6.31,30.646Zm-13.589,-8.216c1.873,-3.746 2.58,-9.136 2.58,-22.364c0,-13.228 -0.707,-18.601 -2.58,-22.348c-1.824,-3.832 -5.822,-6.176 -10.057,-5.899c-4.2,-0.246 -8.137,2.143 -9.859,5.982c-1.873,3.746 -2.695,9.119 -2.695,22.347c0,13.228 0.822,18.618 2.695,22.364c1.963,3.662 5.795,5.956 9.95,5.956c4.154,0 7.986,-2.294 9.949,-5.956l0.017,-0.082Z" style="fill:#fff;fill-rule:nonzero;"/><path d="M607.068,70.935l0,66.731l21.181,0l0,13.803l-37.466,0l0,-80.518l16.285,-0.016Z" style="fill:#fff;fill-rule:nonzero;"/><path d="M638.437,70.935l12.061,33.127l12.061,-33.127l14.789,0l-20.409,50.677l0,29.857l-16.284,0l0,-29.496l-20.244,-51.038l18.026,0Z" style="fill:#fff;fill-rule:nonzero;"/><path d="M719.332,70.935l24.813,49.51l0,-49.51l14.049,0l0,80.517l-14.789,0l-26.291,-50.578l0,50.595l-13.869,0l0,-80.518l16.087,-0.016Z" style="fill:#fff;fill-rule:nonzero;"/><path d="M806.997,151.469l-3.976,-17.599l-20.902,0l-4.091,17.566l-14.165,0l20.36,-80.518l19.554,0l20.129,80.518l-16.909,0.033Zm-22.002,-30.088l15.331,0l-7.362,-33.357l-7.969,33.357Z" style="fill:#fff;fill-rule:nonzero;"/><path d="M865.759,70.935l0,37.449l22.019,-37.449l15.939,0l-22.381,35.575l23.531,44.959l-18.617,0l-20.491,-41.787l0,41.787l-16.038,0l0,-80.518l16.038,-0.016Z" style="fill:#fff;fill-rule:nonzero;"/><path d="M961.87,141.757c-5.028,7.378 -13.145,10.878 -23.645,10.878c-10.501,0 -18.618,-3.5 -23.531,-10.763c-4.568,-6.786 -6.195,-16.859 -6.195,-30.793c0,-14.51 1.742,-23.876 6.31,-30.548c4.568,-6.671 12.653,-10.746 23.646,-10.746c10.664,0 18.617,3.746 23.415,10.779c4.799,7.033 6.327,17.681 6.327,30.547c0,13.31 -1.528,23.613 -6.327,30.646Zm-13.573,-8.216c1.874,-3.746 2.58,-9.136 2.58,-22.364c0,-13.228 -0.706,-18.601 -2.58,-22.348c-1.833,-3.831 -5.834,-6.174 -10.072,-5.899c-4.201,-0.246 -8.138,2.143 -9.86,5.982c-1.873,3.746 -2.695,9.119 -2.695,22.347c0,13.228 0.822,18.618 2.695,22.364c1.963,3.662 5.795,5.956 9.95,5.956c4.155,0 7.987,-2.294 9.95,-5.956l0.032,-0.082Z" style="fill:#fff;fill-rule:nonzero;"/><path d="M994.176,70.935l0,66.731l21.28,0l0,13.803l-37.466,0l0,-80.518l16.186,-0.016Z" style="fill:#fff;fill-rule:nonzero;"/><path d="M1061.61,70.935l0,13.458l-23.893,0l0,18.732l20.031,0l0,13.458l-20.031,0l0,21.362l25.059,0l0,13.458l-41.212,0l0,-80.518l40.046,0.05Z" style="fill:#fff;fill-rule:nonzero;"/></svg>