<?xml version="1.0" encoding="UTF-8" standalone="no"?><!DOCTYPE svg PUBLIC "-//W3C//DTD SVG 1.1//EN" "http://www.w3.org/Graphics/SVG/1.1/DTD/svg11.dtd"><svg width="100%" height="100%" viewBox="0 0 356 52" version="1.1" xmlns="http://www.w3.org/2000/svg" xmlns:xlink="http://www.w3.org/1999/xlink" xml:space="preserve" xmlns:serif="http://www.serif.com/" style="fill-rule:evenodd;clip-rule:evenodd;stroke-linejoin:round;stroke-miterlimit:1.41421;"><clipPath id="_clip1"><rect id="dpnk_logo_cerne" x="0" y="0" width="51.223" height="51.223"/></clipPath><g clip-path="url(#_clip1)"><g id="Layer-1" serif:id="Layer 1"><path d="M36.785,35.337c-2.718,0 -5.057,-1.582 -6.095,-3.836l2.339,-0.163c0.811,1.167 2.194,1.937 3.756,1.937c2.492,0 4.519,-1.952 4.519,-4.353c0,-2.399 -2.027,-4.356 -4.519,-4.356c-0.079,0 -0.161,0.008 -0.241,0.008l-1.276,-1.895c0.485,-0.113 0.994,-0.174 1.517,-0.174c3.674,0 6.658,2.879 6.658,6.417c0,3.537 -2.984,6.415 -6.658,6.415m-10.417,-3.572c-1.047,0 -1.894,-0.817 -1.894,-1.825c0,-0.177 0.029,-0.349 0.077,-0.513l-3.013,-3.567l2.461,-0.354l2.845,3.371l8.622,-0.606l-4.185,-6.205l0.9,-2.455l6.065,9.007c0.208,0.302 0.229,0.688 0.06,1.016c-0.167,0.325 -0.5,0.542 -0.879,0.57l-9.428,0.656c-0.33,0.544 -0.936,0.905 -1.631,0.905m-11.931,3.572c-3.671,0 -6.658,-2.878 -6.658,-6.415c0,-2.736 1.786,-5.078 4.293,-5.996l0.325,2.111c-1.468,0.721 -2.476,2.187 -2.476,3.885c0,2.4 2.025,4.353 4.516,4.353c2.492,0 4.518,-1.953 4.518,-4.353c0,-0.96 -0.326,-1.845 -0.873,-2.568l2.292,-0.329c0.461,0.871 0.718,1.854 0.718,2.897c0,3.537 -2.985,6.415 -6.655,6.415m-1.583,-16.935l4.841,-0.689l0.176,-0.714l-2.03,-0.357c-0.581,-0.1 -0.965,-0.637 -0.86,-1.199c0.106,-0.558 0.662,-0.932 1.243,-0.829l3.138,0.548c0.289,0.054 0.545,0.212 0.705,0.451c0.159,0.237 0.212,0.528 0.145,0.804l-0.238,0.965l2.286,-0.325c0.33,-0.047 0.639,0.174 0.687,0.492l0.381,2.483l-1.987,0.282l-0.052,-0.353c-0.048,-0.297 -0.339,-0.505 -0.648,-0.464c-0.313,0.049 -0.529,0.327 -0.482,0.623l0.055,0.353l-4.372,0.626l-0.054,-0.349c-0.045,-0.303 -0.334,-0.508 -0.647,-0.464c-0.311,0.047 -0.527,0.327 -0.481,0.625l0.054,0.35l-1.987,0.286l-0.383,-2.482c-0.05,-0.315 0.18,-0.615 0.51,-0.663m3.786,8.161l-1.374,3.224c-0.17,0.395 -0.568,0.641 -0.991,0.641c-0.135,0 -0.274,-0.028 -0.404,-0.081c-0.549,-0.214 -0.808,-0.82 -0.584,-1.348l0.889,-2.087l2.464,-0.349Zm7.315,-2.474c0.049,0.316 -0.18,0.617 -0.51,0.661l-9.405,1.348c-0.328,0.05 -0.641,-0.177 -0.691,-0.492l-0.477,-3.106l1.99,-0.285l0.053,0.35c0.043,0.27 0.285,0.467 0.563,0.467l0.087,-0.004c0.31,-0.042 0.523,-0.325 0.479,-0.626l-0.055,-0.352l4.372,-0.624l0.052,0.35c0.042,0.273 0.286,0.471 0.566,0.471l0.083,-0.008c0.31,-0.045 0.526,-0.324 0.48,-0.624l-0.054,-0.35l1.987,-0.284l0.48,3.108Zm5.712,-6.287l0.857,-2.351l-1.3,0c-0.592,0 -1.069,-0.461 -1.069,-1.029c0,-0.572 0.477,-1.033 1.069,-1.033l4.751,0c0.592,0 1.072,0.461 1.072,1.033c0,0.568 -0.48,1.029 -1.072,1.029l-1.181,0l-1.204,3.291l-0.897,2.45l-2.466,6.762l-0.998,0.072l-0.908,-1.074l2.601,-7.112l-4.778,-0.15l-0.322,-2.074l5.845,0.186Zm-4.056,-17.802c-14.143,0 -25.611,11.469 -25.611,25.612c0,14.144 11.468,25.611 25.611,25.611c14.146,0 25.612,-11.467 25.612,-25.611c0,-14.143 -11.466,-25.612 -25.612,-25.612" style="fill:#fff;fill-rule:nonzero;"/></g></g><g><g><path d="M75.587,18.014l7.577,0c3.36,0 5.968,0.898 7.823,2.695c1.856,1.797 2.783,4.317 2.783,7.562c0,3.244 -0.927,5.769 -2.783,7.576c-1.855,1.806 -4.463,2.71 -7.823,2.71l-7.577,0l0,-20.543Zm7.343,17.483c4.721,0 7.081,-2.409 7.081,-7.226c0,-4.799 -2.36,-7.198 -7.081,-7.198l-3.584,0l0,14.424l3.584,0Z" style="fill:#fff;fill-rule:nonzero;"/><path d="M106.708,38.819c-2.001,0 -3.735,-0.427 -5.201,-1.282c-1.467,-0.855 -2.598,-2.079 -3.395,-3.672c-0.796,-1.593 -1.195,-3.458 -1.195,-5.594c0,-2.137 0.394,-3.997 1.18,-5.581c0.787,-1.583 1.919,-2.802 3.395,-3.657c1.477,-0.854 3.215,-1.282 5.216,-1.282c2.001,0 3.735,0.428 5.201,1.282c1.467,0.855 2.594,2.074 3.381,3.657c0.786,1.584 1.18,3.444 1.18,5.581c0,2.136 -0.398,4.001 -1.195,5.594c-0.796,1.593 -1.928,2.817 -3.395,3.672c-1.466,0.855 -3.19,1.282 -5.172,1.282Zm0,-3.001c1.884,0 3.356,-0.651 4.415,-1.953c1.058,-1.301 1.588,-3.166 1.588,-5.594c0,-2.429 -0.53,-4.289 -1.588,-5.581c-1.059,-1.291 -2.531,-1.937 -4.415,-1.937c-1.904,0 -3.385,0.646 -4.444,1.937c-1.058,1.292 -1.588,3.152 -1.588,5.581c0,2.428 0.53,4.293 1.588,5.594c1.059,1.302 2.54,1.953 4.444,1.953Z" style="fill:#fff;fill-rule:nonzero;"/><path d="M128.155,18.014l8.974,0c2.196,0 3.905,0.548 5.129,1.646c1.224,1.097 1.836,2.637 1.836,4.618c0,1.982 -0.612,3.526 -1.836,4.634c-1.224,1.107 -2.933,1.661 -5.129,1.661l-5.215,0l0,7.984l-3.759,0l0,-20.543Zm8.508,9.674c2.584,0 3.876,-1.127 3.876,-3.38c0,-1.147 -0.321,-1.996 -0.962,-2.55c-0.641,-0.554 -1.612,-0.831 -2.914,-0.831l-4.749,0l0,6.761l4.749,0Z" style="fill:#fff;fill-rule:nonzero;"/><path d="M164.608,38.557l-4.08,0l-3.526,-6.557c-0.33,-0.621 -0.738,-1.058 -1.223,-1.311c-0.486,-0.252 -1.098,-0.379 -1.836,-0.379l-2.856,0l0,8.247l-3.701,0l0,-20.543l9.092,0c2.331,0 4.104,0.519 5.318,1.558c1.214,1.04 1.821,2.54 1.821,4.502c0,1.574 -0.442,2.871 -1.326,3.891c-0.884,1.019 -2.132,1.685 -3.744,1.996c1.088,0.291 1.962,1.058 2.622,2.302l3.439,6.294Zm-8.655,-11.132c1.419,0 2.458,-0.267 3.118,-0.801c0.661,-0.534 0.991,-1.355 0.991,-2.462c0,-1.127 -0.33,-1.948 -0.991,-2.462c-0.66,-0.515 -1.699,-0.773 -3.118,-0.773l-4.895,0l0,6.498l4.895,0Z" style="fill:#fff;fill-rule:nonzero;"/><path d="M183.111,38.557l-2.069,-4.808l-9.994,0l-2.069,4.808l-3.788,0l9.295,-20.543l3.06,0l9.295,20.543l-3.73,0Zm-10.84,-7.722l7.518,0l-3.759,-8.742l-3.759,8.742Zm4.896,-14.57l-2.331,0l2.972,-4.487l3.526,0l-4.167,4.487Z" style="fill:#fff;fill-rule:nonzero;"/><path d="M197.71,38.819c-2.02,0 -3.783,-0.432 -5.289,-1.297c-1.505,-0.864 -2.661,-2.093 -3.467,-3.686c-0.807,-1.593 -1.21,-3.448 -1.21,-5.565c0,-2.118 0.403,-3.968 1.21,-5.552c0.806,-1.583 1.962,-2.807 3.467,-3.671c1.506,-0.865 3.269,-1.297 5.289,-1.297c1.379,0 2.681,0.214 3.905,0.641c1.223,0.428 2.253,1.03 3.088,1.807l-1.253,2.739c-0.932,-0.738 -1.855,-1.277 -2.768,-1.617c-0.913,-0.34 -1.884,-0.51 -2.914,-0.51c-1.981,0 -3.511,0.641 -4.589,1.923c-1.078,1.282 -1.617,3.128 -1.617,5.537c0,2.428 0.539,4.283 1.617,5.565c1.078,1.282 2.608,1.923 4.589,1.923c1.03,0 2.001,-0.17 2.914,-0.51c0.913,-0.34 1.836,-0.879 2.768,-1.617l1.253,2.739c-0.835,0.777 -1.865,1.379 -3.088,1.807c-1.224,0.427 -2.526,0.641 -3.905,0.641Z" style="fill:#fff;fill-rule:nonzero;"/><path d="M208.142,38.557l0,-20.543l13.754,0l0,2.972l-10.083,0l0,5.653l9.5,0l0,2.943l-9.5,0l0,6.002l10.083,0l0,2.973l-13.754,0Z" style="fill:#fff;fill-rule:nonzero;"/><path d="M247.014,18.014l3.525,0l0,20.543l-2.826,0l-11.015,-14.337l0,14.337l-3.496,0l0,-20.543l2.797,0l11.015,14.307l0,-14.307Z" style="fill:#fff;fill-rule:nonzero;"/><path d="M270.675,38.557l-2.069,-4.808l-9.995,0l-2.069,4.808l-3.788,0l9.295,-20.543l3.06,0l9.295,20.543l-3.729,0Zm-10.84,-7.722l7.518,0l-3.759,-8.742l-3.759,8.742Z" style="fill:#fff;fill-rule:nonzero;"/><path d="M302.349,38.557l-4.575,0l-9.528,-9.558l0,9.558l-3.759,0l0,-20.543l3.759,0l0,9.178l9.149,-9.178l4.488,0l-9.937,9.878l10.403,10.665Z" style="fill:#fff;fill-rule:nonzero;"/><path d="M312.082,38.819c-2.001,0 -3.735,-0.427 -5.202,-1.282c-1.467,-0.855 -2.598,-2.079 -3.395,-3.672c-0.796,-1.593 -1.194,-3.458 -1.194,-5.594c0,-2.137 0.393,-3.997 1.18,-5.581c0.787,-1.583 1.918,-2.802 3.395,-3.657c1.476,-0.854 3.215,-1.282 5.216,-1.282c2,0 3.734,0.428 5.201,1.282c1.467,0.855 2.593,2.074 3.38,3.657c0.787,1.584 1.18,3.444 1.18,5.581c0,2.136 -0.398,4.001 -1.195,5.594c-0.796,1.593 -1.928,2.817 -3.394,3.672c-1.467,0.855 -3.191,1.282 -5.172,1.282Zm0,-3.001c1.884,0 3.355,-0.651 4.414,-1.953c1.059,-1.301 1.588,-3.166 1.588,-5.594c0,-2.429 -0.529,-4.289 -1.588,-5.581c-1.059,-1.291 -2.53,-1.937 -4.414,-1.937c-1.904,0 -3.386,0.646 -4.444,1.937c-1.059,1.292 -1.588,3.152 -1.588,5.581c0,2.428 0.529,4.293 1.588,5.594c1.058,1.302 2.54,1.953 4.444,1.953Z" style="fill:#fff;fill-rule:nonzero;"/><path d="M325.631,38.557l0,-20.543l3.759,0l0,17.454l9.587,0l0,3.089l-13.346,0Z" style="fill:#fff;fill-rule:nonzero;"/><path d="M341.804,38.557l0,-20.543l13.753,0l0,2.972l-10.082,0l0,5.653l9.499,0l0,2.943l-9.499,0l0,6.002l10.082,0l0,2.973l-13.753,0Z" style="fill:#fff;fill-rule:nonzero;"/></g></g></svg>