<?xml version="1.0" encoding="UTF-8" standalone="no"?>
<!-- Created with Inkscape (http://www.inkscape.org/) -->

<svg
   xmlns:dc="http://purl.org/dc/elements/1.1/"
   xmlns:cc="http://creativecommons.org/ns#"
   xmlns:rdf="http://www.w3.org/1999/02/22-rdf-syntax-ns#"
   xmlns:svg="http://www.w3.org/2000/svg"
   xmlns="http://www.w3.org/2000/svg"
   xmlns:sodipodi="http://sodipodi.sourceforge.net/DTD/sodipodi-0.dtd"
   xmlns:inkscape="http://www.inkscape.org/namespaces/inkscape"
   id="svg3090"
   version="1.1"
   inkscape:version="0.48.4 r9939"
   width="600"
   height="600"
   xml:space="preserve"
   sodipodi:docname="dpnk_2014_tshirt_03.pdf"><metadata
     id="metadata3096"><rdf:RDF><cc:Work
         rdf:about=""><dc:format>image/svg+xml</dc:format><dc:type
           rdf:resource="http://purl.org/dc/dcmitype/StillImage" /><dc:title></dc:title></cc:Work></rdf:RDF></metadata><defs
     id="defs3094"><clipPath
       clipPathUnits="userSpaceOnUse"
       id="clipPath3104"><path
         d="m 0.059998,708.661 1190.490002,0 0,-708.601 -1190.490002,0 0,708.601 z"
         id="path3106"
         inkscape:connector-curvature="0" /></clipPath></defs><sodipodi:namedview
     pagecolor="#ffffff"
     bordercolor="#666666"
     borderopacity="1"
     objecttolerance="10"
     gridtolerance="10"
     guidetolerance="10"
     inkscape:pageopacity="0"
     inkscape:pageshadow="2"
     inkscape:window-width="1920"
     inkscape:window-height="1052"
     id="namedview3092"
     showgrid="false"
     fit-margin-top="0"
     fit-margin-left="0"
     fit-margin-right="0"
     fit-margin-bottom="0"
     inkscape:zoom="0.26641794"
     inkscape:cx="-123.01527"
     inkscape:cy="393.70126"
     inkscape:window-x="0"
     inkscape:window-y="0"
     inkscape:window-maximized="1"
     inkscape:current-layer="g3098" /><g
     id="g3098"
     inkscape:groupmode="layer"
     inkscape:label="dpnk_2014_tshirt_03"
     transform="matrix(1.25,0,0,-1.25,-381.03125,649.21187)"><g
       id="g3100"
       transform="matrix(0.40319532,0,0,0.67739108,304.80081,39.328858)"><g
         id="g3102"
         clip-path="url(#clipPath3104)"><path
           d="m 0.059998,0.059998 1190.490002,0 0,708.601002 -1190.490002,0 0,-708.601002 z"
           style="fill:#e5e4e4;fill-opacity:1;fill-rule:nonzero;stroke:none"
           id="path3108"
           inkscape:connector-curvature="0" /></g></g><g
       id="g3134"
       transform="translate(-333.7495,-89.134)"><g
         transform="translate(1089.59,445.79)"
         id="g3110"><path
           id="path3112"
           style="fill:#bd2329;fill-opacity:1;fill-rule:nonzero;stroke:none"
           d="m 0,0 0,112.889 -152.724,0 c -7.785,-14.092 -30.936,-24.314 -58.29,-24.314 -27.354,0 -50.505,10.222 -58.29,24.314 l -152.727,0 0,-112.889 66.345,0 0,-267.462 289.346,0 L -66.34,0 0,0"
           inkscape:connector-curvature="0" /></g><g
         transform="translate(908.194,415.235)"
         id="g3122"><path
           id="path3124"
           style="fill:#2c71c1;fill-opacity:1;fill-rule:nonzero;stroke:none"
           d="m 0,0 c 0.004,-0.052 0.009,-0.103 0.014,-0.154 0.929,0.088 1.865,0.123 2.784,0.273 2.513,0.41 3.687,2.743 2.587,5.014 -0.601,1.24 -1.655,2.108 -2.471,3.171 -0.677,0.883 -1.373,1.765 -1.928,2.724 -0.773,1.333 -1.358,2.775 -2.144,4.099 -0.636,1.072 -1.431,2.053 -2.188,3.049 -0.936,1.231 -1.915,2.43 -2.861,3.654 -1.124,1.454 -2.245,2.909 -3.344,4.382 -0.598,0.802 -1.127,1.673 -2.051,2.139 -0.365,0.183 -0.837,0.35 -1.213,0.278 -1.018,-0.194 -2.043,-1.645 -2.084,-2.687 -0.041,-1.063 0.314,-2.021 0.632,-3.004 0.886,-2.732 1.912,-5.399 3.575,-7.766 0.818,-1.164 1.704,-2.283 2.58,-3.405 0.73,-0.936 1.389,-1.964 2.265,-2.742 1.109,-0.984 0.138,-2.932 -0.872,-3.128 -0.555,-0.108 -1.125,-0.229 -1.683,-0.206 -1.347,0.057 -2.689,0.272 -4.034,0.28 -1.717,0.01 -3.437,-0.109 -5.154,-0.197 -0.775,-0.04 -1.549,-0.126 -2.321,-0.213 -1.128,-0.126 -2.253,-0.277 -3.381,-0.409 -0.753,-0.088 -1.51,-0.141 -2.26,-0.247 -1.025,-0.145 -2.015,-0.075 -3.01,0.241 -1.979,0.63 -3.185,2.21 -4.352,3.718 -1.264,1.632 -2.172,3.541 -3.783,4.912 -0.706,0.602 -1.414,1.194 -2.419,1.251 -1.146,0.066 -2.002,-0.468 -2.707,-1.275 -1.213,-1.392 -1.297,-2.338 -0.353,-3.911 0.483,-0.804 1.181,-1.478 1.753,-2.232 0.891,-1.176 1.772,-2.36 2.632,-3.559 0.58,-0.809 1.08,-1.67 1.275,-2.666 0.155,-0.79 0.296,-1.583 0.439,-2.374 0.217,-1.194 0.992,-2.017 1.832,-2.806 1.475,-1.386 3.239,-1.602 5.12,-1.247 1.305,0.247 2.308,1.086 3.334,1.863 0.838,0.636 1.739,1.204 2.779,1.379 1.305,0.219 2.632,0.321 3.954,0.436 1.842,0.16 3.687,0.313 5.534,0.416 1.425,0.08 2.855,0.062 4.282,0.12 1.037,0.042 2.074,0.115 3.108,0.212 C -4.088,-0.425 -2.045,-0.207 0,0 z M 5.527,24.366 C 5.16,24.366 4.792,24.35 4.425,24.368 3.188,24.429 2.154,24.039 1.376,23.044 0.787,22.292 0.601,21.897 0.936,21.296 1.441,20.39 2.115,19.623 3.035,19.136 3.713,18.778 4.449,18.531 5.157,18.228 6.84,17.509 8.542,16.831 10.196,16.05 c 1.065,-0.503 2.139,-1.053 3.066,-1.767 1.462,-1.127 2.484,-2.648 3.061,-4.405 C 16.625,8.96 16.885,7.976 16.883,7.022 16.88,5.886 16.592,4.747 16.398,3.614 15.972,1.115 15.047,-1.193 13.655,-3.307 12.736,-4.704 11.582,-5.89 10.317,-6.985 8.875,-8.234 7.268,-9.144 5.349,-9.212 2.804,-9.302 0.241,-9.379 -2.255,-8.7 c -1.484,0.404 -2.985,0.794 -4.285,1.663 -0.997,0.667 -1.952,1.398 -2.93,2.094 -0.857,0.61 -2.042,0.674 -2.851,-0.109 -1.083,-1.048 -1.447,-1.926 -0.866,-3.172 0.872,-1.874 2.41,-3.099 4.181,-4.051 1.755,-0.943 3.602,-1.658 5.516,-2.219 1.989,-0.583 4.009,-0.934 6.075,-1.041 0.606,-0.032 1.211,-0.1 1.817,-0.105 1.28,-0.01 2.584,-0.143 3.835,0.052 1.964,0.306 3.833,0.984 5.569,2.006 1.794,1.056 3.44,2.272 4.799,3.867 1.356,1.592 2.382,3.364 2.947,5.371 0.351,1.247 0.595,2.53 0.813,3.809 0.228,1.338 0.37,2.691 0.544,4.038 0.108,0.835 0.263,1.67 0.295,2.509 0.037,0.989 0.061,1.996 -0.086,2.969 -0.186,1.228 -0.514,2.44 -0.846,3.641 -0.57,2.059 -1.438,3.97 -3.019,5.473 -0.843,0.801 -1.668,1.63 -2.579,2.348 -1.021,0.804 -2.061,1.634 -3.213,2.211 -2.479,1.242 -5.153,1.77 -7.934,1.712 z M -49.647,2.717 c 0.052,0 0.104,10e-4 0.156,0.002 -0.052,1.077 -0.141,2.155 -0.145,3.233 -0.005,1.59 -0.601,2.879 -1.815,3.891 -0.442,0.369 -0.905,0.609 -1.508,0.365 -1.386,-0.562 -2.056,-1.636 -2.135,-3.072 -0.082,-1.513 -0.044,-3.033 -0.129,-4.545 -0.053,-0.941 -0.179,-1.886 -0.375,-2.808 -0.376,-1.771 -1.109,-3.409 -2.008,-4.978 -0.692,-1.207 -1.544,-2.253 -2.662,-3.111 -1.417,-1.088 -3.082,-1.256 -4.735,-1.318 -1.712,-0.065 -3.439,0.059 -5.151,0.197 -1.186,0.096 -2.326,0.475 -3.302,1.181 -0.808,0.585 -1.538,1.276 -2.33,1.885 -1.156,0.889 -2.036,2.028 -2.774,3.247 -0.699,1.152 -1.245,2.404 -1.786,3.643 -0.68,1.557 -1.101,3.184 -1.008,4.907 0.065,1.212 0.13,2.423 0.211,3.633 0.079,1.17 0.241,2.348 0.841,3.362 0.564,0.955 1.277,1.826 1.961,2.705 0.467,0.599 1.039,1.119 1.485,1.732 0.334,0.459 0.73,0.978 0.484,1.61 -0.409,1.054 -1.382,1.877 -2.782,1.118 -1.759,-0.955 -3.117,-2.365 -4.355,-3.878 -1.5,-1.833 -2.555,-3.927 -3.185,-6.22 -0.667,-2.427 -1.092,-4.883 -0.748,-7.41 0.185,-1.359 0.344,-2.729 0.643,-4.065 0.511,-2.289 1.183,-4.532 2.328,-6.606 1.306,-2.366 3.169,-4.159 5.582,-5.34 2.398,-1.174 4.971,-1.769 7.631,-1.913 1.827,-0.099 3.66,-0.093 5.49,-0.112 0.553,-0.006 1.108,0.044 1.658,0.103 1.198,0.127 2.413,0.182 3.584,0.436 2.709,0.589 4.982,1.947 6.704,4.155 1.169,1.5 2.062,3.162 2.782,4.912 0.699,1.7 1.207,3.47 1.372,5.301 0.112,1.243 0.021,2.505 0.021,3.758 z m 39.96,44.96 c 1.291,-0.22 2.293,0.274 3.129,1.235 0.626,0.72 0.747,1.381 0.338,2.221 -0.85,1.747 -3.093,2.969 -5.014,2.737 -0.632,-0.076 -1.265,-0.159 -1.9,-0.205 -1.606,-0.117 -3.213,-0.214 -4.82,-0.32 -0.501,-0.033 -1.003,-0.059 -1.502,-0.111 -1.251,-0.131 -2.497,-0.308 -3.751,-0.404 -1.129,-0.086 -2.19,-0.338 -2.971,-1.195 -0.38,-0.416 -0.739,-0.947 -0.859,-1.482 -0.179,-0.794 0.444,-1.328 0.97,-1.828 0.969,-0.924 2.201,-0.986 3.401,-0.824 0.739,0.099 1.265,-0.117 1.793,-0.515 0.741,-0.56 1.015,-1.48 0.744,-2.359 -0.1,-0.326 -0.168,-0.665 -0.218,-1.003 -0.186,-1.274 -0.257,-2.576 -0.561,-3.821 -0.367,-1.505 -0.86,-2.988 -1.417,-4.434 -1.081,-2.808 -2.265,-5.576 -3.367,-8.375 -0.704,-1.79 -2.466,-2.389 -4.061,-1.377 -1.054,0.67 -2.147,1.286 -3.254,1.865 -0.639,0.334 -1.344,0.586 -2.056,0.134 -1.046,-0.664 -1.72,-1.694 -1.185,-2.801 0.428,-0.886 0.962,-1.773 1.64,-2.474 1.376,-1.421 2.91,-2.687 4.323,-4.075 0.755,-0.742 1.158,-1.683 0.795,-2.774 -0.248,-0.744 -0.575,-1.462 -0.842,-2.201 -0.392,-1.084 -0.565,-2.178 0.161,-3.198 0.822,-1.154 1.85,-1.805 3.38,-1.831 2.062,-0.035 3.95,1.979 4.228,3.426 0.217,1.128 0.335,2.274 0.543,3.404 0.507,2.761 1.046,5.517 1.56,8.277 0.496,2.665 1.149,5.275 2.404,7.708 0.372,0.722 0.628,1.516 0.849,2.301 0.319,1.133 0.492,2.31 0.846,3.43 0.676,2.135 1.434,4.243 2.16,6.362 0.293,0.855 0.443,1.803 0.92,2.541 0.807,1.249 1.862,2.289 3.594,1.966 z M -40.572,29.573 c -0.049,0.78 -0.121,1.559 -0.142,2.339 -0.022,0.842 -0.282,1.573 -0.973,2.068 -0.51,0.365 -0.999,0.823 -1.733,0.69 -1.119,-0.202 -1.681,-1.013 -2.112,-1.934 -0.16,-0.34 -0.258,-0.781 -0.193,-1.141 0.146,-0.801 0.425,-1.577 0.627,-2.37 0.305,-1.197 -0.103,-2.34 -1.091,-3.018 -0.505,-0.346 -1.028,-0.463 -1.613,-0.085 -0.728,0.47 -1.321,1.044 -1.738,1.805 -0.516,0.943 -0.801,2.029 -1.716,2.726 -0.654,0.498 -1.321,0.975 -2.198,0.827 -0.502,-0.086 -0.981,-0.3 -1.482,-0.404 -1.407,-0.291 -2.809,-0.663 -4.233,-0.796 -1.1,-0.102 -1.9,-0.521 -2.54,-1.362 -0.439,-0.577 -0.581,-1.182 -0.253,-1.876 0.152,-0.321 0.222,-0.682 0.311,-1.029 0.432,-1.691 0.028,-2.701 -1.523,-3.516 -0.205,-0.107 -0.55,-0.097 -0.77,-0.002 -1.366,0.596 -2.06,1.718 -2.285,3.143 -0.214,1.357 -2.018,2.929 -3.392,2.542 -1.257,-0.353 -2.285,-0.891 -3.003,-1.984 -0.495,-0.754 -0.333,-1.529 -0.13,-2.335 0.511,-2.023 1.314,-3.907 2.702,-5.478 1.339,-1.516 2.932,-2.716 4.837,-3.462 1.917,-0.75 3.879,-1.298 5.957,-1.256 0.81,0.016 1.617,0.145 2.427,0.197 1.308,0.085 2.623,0.197 3.833,0.711 1.383,0.587 2.757,1.224 4.053,1.979 1.225,0.712 2.407,1.532 3.495,2.44 1.113,0.929 1.968,2.104 2.709,3.376 1.304,2.238 2.343,4.527 2.169,7.205 z m -7.556,23.152 c -1.546,-0.115 -2.961,-0.216 -4.375,-0.328 -0.792,-0.062 -1.584,-0.126 -2.373,-0.216 -1.401,-0.161 -2.796,-0.418 -4.201,-0.493 -1.418,-0.076 -2.359,-0.801 -3.184,-1.846 -0.772,-0.978 -0.597,-2.116 -0.471,-3.17 0.198,-1.661 0.545,-3.314 0.964,-4.936 0.29,-1.12 -0.096,-1.918 -0.773,-2.714 -0.607,-0.712 -1.42,-0.989 -2.277,-1.194 -1.663,-0.398 -3.314,-0.863 -4.996,-1.15 -1.233,-0.21 -2.339,-0.53 -3.137,-1.55 -0.449,-0.575 -1.047,-1.171 -0.707,-1.945 0.226,-0.515 0.725,-0.931 1.159,-1.329 0.417,-0.383 0.891,-0.477 1.501,-0.282 1.673,0.537 3.367,1.022 5.075,1.439 1.395,0.34 2.829,0.524 4.234,0.828 1.603,0.348 3.201,0.727 4.789,1.139 2.512,0.651 5.011,1.355 7.523,2.006 0.959,0.248 1.938,0.424 2.913,0.608 0.806,0.152 1.622,0.247 2.319,0.746 0.645,0.462 1.075,1.194 0.882,1.699 -0.302,0.788 -0.919,1.394 -1.713,1.51 -1.013,0.147 -2.085,0.16 -3.095,0.001 -1.754,-0.275 -3.479,-0.734 -5.22,-1.1 -0.376,-0.079 -0.801,-0.205 -1.145,-0.106 -0.743,0.212 -1.329,0.712 -1.817,1.319 -0.409,0.509 -0.208,1.133 -0.348,1.681 -0.19,0.746 0.019,1.343 0.474,1.85 0.587,0.655 1.112,1.453 2.202,1.342 0.388,-0.039 0.791,0.057 1.186,0.096 1.732,0.173 3.462,0.391 5.198,0.506 1.261,0.084 2.318,0.494 3.099,1.498 0.546,0.702 0.904,1.245 0.349,2.071 -0.342,0.509 -0.787,0.966 -1.252,1.37 -0.84,0.731 -1.927,0.492 -2.783,0.65 z M -70.78,2.379 c 0.033,-0.342 0.014,-0.7 0.108,-1.024 0.28,-0.964 0.988,-1.574 1.831,-2.043 0.374,-0.208 0.765,-0.171 1.117,0.064 0.356,0.237 0.706,0.486 1.035,0.759 0.91,0.757 1.407,1.818 1.962,2.819 0.578,1.043 1.11,2.12 1.554,3.225 0.384,0.959 0.493,1.985 -0.237,2.867 -0.831,1.005 -1.477,1.544 -2.576,1.118 C -66.609,9.923 -67.21,9.522 -67.7,9.063 -68.833,8.003 -69.561,6.657 -70.117,5.218 -70.47,4.305 -70.826,3.391 -70.78,2.379"
           inkscape:connector-curvature="0" /></g><g
         transform="translate(983.945,242.467)"
         id="g3130"><path
           id="path3132"
           style="fill:#2c71c1;fill-opacity:1;fill-rule:nonzero;stroke:none"
           d="m 0,0 c 1.286,-3.04 1.938,-6.269 1.938,-9.598 0,-3.328 -0.652,-6.558 -1.938,-9.598 -1.242,-2.936 -3.02,-5.573 -5.284,-7.838 -2.265,-2.264 -4.902,-4.042 -7.838,-5.284 -3.04,-1.286 -6.269,-1.938 -9.598,-1.938 -3.329,0 -6.558,0.652 -9.598,1.938 -2.937,1.242 -5.574,3.02 -7.838,5.284 -2.264,2.265 -4.042,4.902 -5.284,7.838 -1.286,3.04 -1.938,6.27 -1.938,9.598 0,3.329 0.652,6.558 1.938,9.598 1.242,2.937 3.02,5.574 5.284,7.838 2.264,2.265 4.901,4.042 7.838,5.284 3.04,1.286 6.269,1.938 9.598,1.938 3.329,0 6.558,-0.652 9.598,-1.938 2.936,-1.242 5.573,-3.019 7.838,-5.284 C -3.02,5.574 -1.242,2.937 0,0 z m 1.259,-9.298 c 0.027,0 0.052,-0.004 0.077,-0.011 -0.036,3.055 -0.645,5.975 -1.724,8.658 -0.017,-0.012 -0.036,-0.023 -0.057,-0.032 l -3.07,-1.273 c -0.074,0.186 -0.151,0.37 -0.23,0.554 l 3.07,1.273 c 0.021,0.009 0.042,0.015 0.063,0.018 C -1.79,2.622 -3.459,5.096 -5.509,7.196 -5.519,7.183 -5.528,7.17 -5.54,7.158 L -7.898,4.8 c -0.14,0.144 -0.281,0.285 -0.424,0.424 l 2.358,2.358 c 0.011,0.012 0.024,0.022 0.037,0.031 -2.1,2.05 -4.573,3.72 -7.306,4.897 -0.004,-0.021 -0.01,-0.042 -0.018,-0.062 l -1.274,-3.071 c -0.183,0.079 -0.368,0.157 -0.554,0.231 l 1.274,3.07 c 0.008,0.02 0.019,0.039 0.032,0.057 -2.683,1.078 -5.603,1.687 -8.658,1.723 0.006,-0.024 0.011,-0.05 0.011,-0.077 l 0,-3.317 c -0.1,10e-4 -0.2,0.003 -0.3,0.003 -0.1,0 -0.2,-0.002 -0.3,-0.003 l 0,3.317 c 0,0.027 0.005,0.053 0.011,0.077 -3.055,-0.036 -5.975,-0.645 -8.658,-1.723 0.012,-0.018 0.023,-0.037 0.032,-0.057 l 1.273,-3.07 c -0.186,-0.074 -0.37,-0.152 -0.554,-0.231 l -1.273,3.071 c -0.009,0.02 -0.014,0.041 -0.018,0.062 -2.733,-1.177 -5.206,-2.847 -7.307,-4.897 0.013,-0.009 0.026,-0.019 0.038,-0.031 l 2.358,-2.358 C -37.261,5.085 -37.403,4.943 -37.542,4.8 L -39.9,7.158 c -0.012,0.012 -0.022,0.025 -0.031,0.038 -2.05,-2.101 -3.72,-4.574 -4.897,-7.307 0.021,-0.003 0.042,-0.009 0.062,-0.018 l 3.071,-1.273 c -0.079,-0.184 -0.157,-0.368 -0.231,-0.554 l -3.07,1.273 c -0.02,0.009 -0.039,0.02 -0.057,0.032 -1.078,-2.683 -1.687,-5.603 -1.723,-8.658 0.024,0.007 0.05,0.011 0.077,0.011 l 3.318,0 c -0.002,-0.1 -0.004,-0.199 -0.004,-0.3 0,-0.1 0.002,-0.2 0.004,-0.3 l -3.318,0 c -0.027,0 -0.053,0.005 -0.077,0.011 0.036,-3.055 0.645,-5.975 1.723,-8.658 0.018,0.013 0.037,0.024 0.057,0.032 l 3.07,1.274 c 0.075,-0.186 0.152,-0.371 0.231,-0.554 l -3.071,-1.274 c -0.02,-0.008 -0.041,-0.014 -0.062,-0.018 1.177,-2.733 2.847,-5.206 4.897,-7.306 0.009,0.013 0.019,0.026 0.031,0.037 l 2.358,2.358 c 0.139,-0.143 0.281,-0.284 0.424,-0.424 l -2.358,-2.358 c -0.012,-0.012 -0.025,-0.021 -0.038,-0.031 2.101,-2.05 4.574,-3.719 7.307,-4.896 0.004,0.02 0.009,0.041 0.018,0.062 l 1.273,3.07 c 0.184,-0.079 0.368,-0.156 0.554,-0.23 l -1.273,-3.07 c -0.009,-0.021 -0.02,-0.04 -0.032,-0.057 2.682,-1.079 5.603,-1.688 8.658,-1.724 -0.006,0.025 -0.011,0.05 -0.011,0.077 l 0,3.318 c 0.1,-0.001 0.2,-0.004 0.3,-0.004 0.1,0 0.2,0.003 0.3,0.004 l 0,-3.318 c 0,-0.027 -0.005,-0.052 -0.011,-0.077 3.055,0.036 5.975,0.645 8.658,1.724 -0.012,0.017 -0.024,0.036 -0.032,0.057 l -1.274,3.07 c 0.186,0.074 0.371,0.151 0.554,0.23 l 1.274,-3.07 c 0.009,-0.021 0.014,-0.042 0.018,-0.062 2.733,1.177 5.206,2.846 7.306,4.896 -0.013,0.01 -0.026,0.019 -0.037,0.031 l -2.358,2.358 c 0.143,0.14 0.285,0.281 0.424,0.424 l 2.358,-2.358 c 0.012,-0.011 0.021,-0.024 0.031,-0.037 2.05,2.1 3.719,4.573 4.897,7.306 -0.021,0.004 -0.042,0.01 -0.063,0.018 l -3.07,1.274 c 0.079,0.183 0.156,0.368 0.23,0.554 l 3.07,-1.274 c 0.021,-0.008 0.04,-0.019 0.057,-0.031 1.079,2.682 1.688,5.602 1.724,8.657 -0.025,-0.006 -0.05,-0.011 -0.077,-0.011 l -3.318,0 c 0.002,0.1 0.004,0.2 0.004,0.3 0,0.101 -0.002,0.2 -0.004,0.3 l 3.318,0 z m -12.724,-1.724 4.392,0 0,-1.751 -1.047,0 -0.142,0.52 -1.196,0 0,-0.804 1.196,0 0,-0.855 -1.196,0 0,-0.868 1.196,0 0.142,0.519 1.054,0 0,-1.744 -4.399,0 0,1.082 0.541,0.143 0,2.527 -0.541,0.142 0,1.089 z m -1.104,5.724 0,-2.193 0.214,-0.17 0.975,0 0.142,0.519 1.331,0 0,-0.904 c -0.334,-0.285 -0.676,-0.562 -1.011,-0.84 l -1.971,0 -1.146,0.954 0,3.111 1.103,0.918 2.057,0 0.968,-0.812 0,-0.939 -1.331,0 -0.142,0.519 -0.983,0 -0.206,-0.163 z m -3.83,-10.707 0,1.082 0.541,0.143 0,2.527 -0.541,0.142 0,1.089 2.62,0 0,-1.089 -0.605,-0.142 0,-2.527 1.182,0 0.142,0.676 1.053,0 0,-1.901 -4.392,0 z m -2.242,-2.135 4.954,0 0,-2.057 -1.046,0 -0.142,0.904 -0.548,0 0,-2.606 0.612,-0.142 0,-1.082 -2.691,0 0,1.082 0.605,0.142 0,2.606 -0.548,0 -0.142,-0.904 -1.054,0 0,2.057 z m -2.563,11.34 0.541,-0.861 0.377,-0.072 0,-1.153 -1.352,0 -1.139,1.943 -0.37,0 0,-0.718 0.541,-0.143 0,-1.082 -2.556,0 0,1.082 0.541,0.143 0,2.526 -0.541,0.143 0,1.089 3.702,0 0.961,-0.812 0,-1.487 -0.705,-0.598 z m -8.684,-0.861 0,2.526 -0.541,0.143 0,1.089 3.658,0 1.033,-0.868 0,-1.538 -1.033,-0.861 -1.644,0 0,-0.499 0.541,-0.142 0,-1.075 -2.555,0 0,1.082 0.541,0.143 z m 5.296,-3.361 0,-1.089 -0.342,-0.142 0,-0.968 1.111,0.968 -0.349,0.142 0,1.089 2.377,0 0,-1.089 -0.69,-0.142 -0.804,-0.669 0.989,-1.858 0.505,-0.143 0,-1.082 -2.37,0 0,1.082 0.356,0.143 -0.555,0.996 -0.57,-0.477 0,-0.519 0.356,-0.143 0,-1.082 -2.42,0 0,1.082 0.541,0.143 0,2.527 -0.541,0.142 0,1.089 2.406,0 z m 4.413,0 2.115,0 1.039,-0.868 0,-3.225 c -0.363,-0.291 -0.719,-0.598 -1.082,-0.89 l -2.036,0 -1.075,0.89 0,3.225 1.039,0.868 z m -3.395,-7.118 4.392,0 0,-1.751 -1.046,0 -0.143,0.519 -1.196,0 0,-0.804 1.196,0 0,-0.854 -1.196,0 0,-0.869 1.196,0 0.143,0.52 1.053,0 0,-1.744 -4.399,0 0,1.082 0.541,0.142 0,2.527 -0.541,0.143 0,1.089 z m -5.951,0 2.135,0 1.481,-2.663 0,1.431 -0.541,0.143 0,1.089 2.335,0 0,-1.089 -0.541,-0.143 0,-3.751 -1.438,0 -1.644,2.776 0,-1.552 0.54,-0.142 0,-1.082 -2.327,0 0,1.082 0.541,0.142 0,2.527 -0.541,0.143 0,1.089 z m -2.036,-3.759 1.3601,0 0,-1.224 -1.3601,0 0,1.224 z m -1.239,6.976 0.548,0.143 0.726,2.527 -0.462,0.142 0,1.089 2.876,0 0.961,-3.758 0.612,-0.143 0,-1.082 -2.527,0 0,1.082 0.377,0.143 -0.128,0.441 -1.075,0 -0.121,-0.441 0.349,-0.143 0,-1.082 -2.136,0 0,1.082 z m 0.662,6.037 -2.036,0 -1.075,0.89 0,3.225 1.04,0.868 2.114,0 1.039,-0.868 0,-3.225 c -0.363,-0.292 -0.719,-0.598 -1.082,-0.89 z m -6.243,-2.136 2.136,0 1.48,-2.662 0,1.431 -0.541,0.142 0,1.089 2.335,0 0,-1.089 -0.541,-0.142 0,-3.752 -1.438,0 -1.644,2.777 0,-1.552 0.541,-0.143 0,-1.082 -2.328,0 0,1.082 0.541,0.143 0,2.527 -0.541,0.142 0,1.089 z m 2.506,3.204 -1.281,-1.068 -3.424,0 0,1.082 0.541,0.143 0,2.526 -0.541,0.143 0,1.089 3.459,0 1.246,-1.032 0,-2.883 z m 8.001,9.944 -0.441,-0.142 -1.025,-3.751 -1.858,0 -0.591,2.199 -0.619,-2.199 -1.972,0 -0.961,3.751 -0.434,0.142 0,1.09 2.391,0 0,-1.09 -0.327,-0.142 0.584,-2.171 0.591,2.171 -0.335,0.142 0,1.09 2.57,0 0,-1.09 -0.349,-0.142 0.612,-2.171 0.548,2.171 -0.299,0.142 0,1.09 1.915,0 0,-1.09 z m 8.364,0 -0.441,-0.142 -1.025,-3.751 -1.858,0 -0.591,2.199 -0.619,-2.199 -1.972,0 -0.961,3.751 -0.434,0.142 0,1.09 2.392,0 0,-1.09 -0.328,-0.142 0.584,-2.171 0.591,2.171 -0.335,0.142 0,1.09 2.57,0 0,-1.09 -0.349,-0.142 0.612,-2.171 0.548,2.171 -0.298,0.142 0,1.09 1.914,0 0,-1.09 z m 0.221,-9.787 0.726,2.526 -0.462,0.143 0,1.089 2.875,0 0.961,-3.758 0.612,-0.143 0,-1.082 -2.527,0 0,1.082 0.378,0.143 -0.128,0.441 -1.075,0 -0.121,-0.441 0.349,-0.143 0,-1.082 -2.136,0 0,1.082 0.548,0.143 z m 8.144,9.787 -0.442,-0.142 -1.025,-3.751 -1.858,0 -0.59,2.199 -0.62,-2.199 -1.971,0 -0.961,3.751 -0.435,0.142 0,1.09 2.392,0 0,-1.09 -0.327,-0.142 0.583,-2.171 0.591,2.171 -0.334,0.142 0,1.09 2.569,0 0,-1.09 -0.348,-0.142 0.612,-2.171 0.548,2.171 -0.299,0.142 0,1.09 1.915,0 0,-1.09 z m 1.296,-3.893 -1.3599,0 0,1.224 1.3599,0 0,-1.224 z m 4.982,-7.119 -4.399,0 0,1.082 0.541,0.143 0,2.526 -0.541,0.143 0,1.089 4.392,0 0,-1.751 -1.046,0 -0.143,0.519 -1.195,0 0,-0.804 1.195,0 0,-0.854 -1.195,0 0,-0.868 1.195,0 0.143,0.519 1.053,0 0,-1.744 z m -12.543,3.638 -0.313,-1.118 0.634,0 -0.321,1.118 z m -20.252,-2.413 0.313,0.256 0,2.021 -0.299,0.249 -0.918,0 0,-2.526 0.904,0 z m 4.94,0 0.2,0.163 0,2.214 -0.192,0.149 -0.876,0 -0.192,-0.149 0,-2.214 0.199,-0.163 0.861,0 z m 2.35,-4.706 -0.314,-1.118 0.634,0 -0.32,1.118 z m 10.813,0.114 -0.192,-0.15 0,-2.213 0.199,-0.164 0.861,0 0.199,0.164 0,2.213 -0.192,0.15 -0.875,0 z m -7.838,7.118 -1.018,0 0,-0.804 1.018,0 0.185,0.157 0,0.498 -0.185,0.149 z m 5.261,-0.811 0.17,0.142 0,0.527 -0.17,0.142 -1.011,0 0,-0.811 1.011,0"
           inkscape:connector-curvature="0" /></g></g></g></svg>